<svg xmlns="http://www.w3.org/2000/svg" xmlns:xlink="http://www.w3.org/1999/xlink" width="1000" zoomAndPan="magnify" viewBox="0 0 750 2250.000011" height="3000" preserveAspectRatio="xMidYMid meet" version="1.0"><defs><g/><clipPath id="61f537dbaf"><path d="M 0.167969 0 L 749.832031 0 L 749.832031 2249 L 0.167969 2249 Z M 0.167969 0 " clip-rule="nonzero"/></clipPath><clipPath id="842e7f2185"><path d="M 703 1794 L 742.335938 1794 L 742.335938 1885 L 703 1885 Z M 703 1794 " clip-rule="nonzero"/></clipPath><clipPath id="66fa7e2972"><path d="M 440 2128.234375 L 508 2128.234375 L 508 2244.730469 L 440 2244.730469 Z M 440 2128.234375 " clip-rule="nonzero"/></clipPath></defs><g clip-path="url(#61f537dbaf)"><path fill="#ffffff" d="M 0.167969 0 L 749.832031 0 L 749.832031 2249 L 0.167969 2249 Z M 0.167969 0 " fill-opacity="1" fill-rule="nonzero"/><path fill="#ffffff" d="M 0.167969 0 L 749.832031 0 L 749.832031 2249 L 0.167969 2249 Z M 0.167969 0 " fill-opacity="1" fill-rule="nonzero"/></g><path fill="#004aad" d="M 341.902344 1408.554688 C 339.988281 1415.761719 339.085938 1420.691406 337.339844 1425.359375 C 333.40625 1435.847656 320.75 1439.304688 312.773438 1431.269531 C 288.453125 1406.71875 270.800781 1378.171875 264.21875 1343.730469 C 262.566406 1335.097656 267.527344 1329.15625 274.75 1325.667969 C 294.144531 1316.253906 316.769531 1325.179688 323.398438 1345.492188 C 330.40625 1366.859375 336.101562 1388.65625 341.902344 1408.554688 " fill-opacity="1" fill-rule="evenodd"/><path fill="#5271ff" d="M 104.003906 643.523438 C 105.902344 634.917969 107.523438 622.445312 111.566406 610.8125 C 115.683594 598.917969 131.527344 597.847656 138.902344 608.332031 C 141.734375 612.3125 144.917969 617.054688 145.242188 621.632812 C 147.351562 651.617188 148.867188 681.636719 150.214844 711.667969 C 150.445312 716.582031 149.878906 722.074219 147.796875 726.394531 C 145.839844 730.386719 141.734375 735.238281 137.925781 735.914062 C 134.097656 736.601562 127.59375 733.753906 125.433594 730.386719 C 109.148438 705.207031 107.203125 676.230469 104.003906 643.523438 " fill-opacity="1" fill-rule="evenodd"/><path fill="#004aad" d="M 205.640625 887.050781 C 205.550781 913.289062 200.851562 934.75 178.519531 948.097656 C 161.390625 958.351562 149.800781 954.875 143.417969 936.25 C 135.199219 912.386719 129.703125 887.957031 131.742188 862.347656 C 133.5625 839.664062 139.410156 830.480469 154.027344 828.089844 C 174.261719 824.738281 192.628906 834.457031 199.886719 852.644531 C 201.753906 857.28125 203.207031 862.195312 203.910156 867.109375 C 204.984375 874.5625 205.242188 882.125 205.640625 887.050781 " fill-opacity="1" fill-rule="evenodd"/><path fill="#004aad" d="M 47.386719 1156.757812 C 47.554688 1154.21875 47.582031 1151.675781 47.9375 1149.179688 C 49.558594 1137.316406 60.625 1131.300781 69.671875 1138.421875 C 77.355469 1144.464844 85.515625 1151.597656 89.722656 1160.09375 C 102.550781 1186.085938 113.632812 1212.949219 125.28125 1239.507812 C 130.011719 1250.34375 132.902344 1261.515625 123.078125 1270.976562 C 115.820312 1277.957031 103.914062 1273.304688 90.886719 1259.375 C 67.941406 1234.835938 47.203125 1185.917969 47.386719 1156.757812 " fill-opacity="1" fill-rule="evenodd"/><path fill="#004aad" d="M 211.933594 527.941406 C 205.441406 494.511719 214.949219 466.804688 231.113281 440.785156 C 234.25 435.761719 239.820312 431.597656 245.179688 428.796875 C 249.25 426.65625 255.144531 425.8125 259.597656 426.914062 C 272.148438 430.054688 284.960938 450.519531 280.796875 462.703125 C 271.722656 489.289062 258.390625 513.351562 231.097656 525.597656 C 225.96875 527.894531 219.480469 527.113281 211.933594 527.941406 " fill-opacity="1" fill-rule="evenodd"/><path fill="#004aad" d="M 644.011719 2044.6875 C 642.097656 2040.953125 638.59375 2036.957031 638.011719 2032.597656 C 634.15625 2003.621094 637.339844 1975.164062 647.226562 1947.71875 C 649.644531 1941.046875 654.589844 1934.632812 659.945312 1929.886719 C 665.734375 1924.820312 674.195312 1923.046875 680.71875 1928.15625 C 685.1875 1931.601562 690.726562 1938.519531 690.039062 1942.988281 C 684.40625 1978.640625 675.710938 2013.507812 652.796875 2042.789062 C 651.679688 2044.246094 648.222656 2043.847656 644.011719 2044.6875 " fill-opacity="1" fill-rule="evenodd"/><path fill="#004aad" d="M 480.335938 1654.074219 C 479.570312 1634.144531 486.796875 1627.273438 498.445312 1628.742188 C 515.972656 1630.976562 528.875 1638.523438 533.605469 1657.121094 C 537.292969 1671.632812 542.835938 1685.652344 546.460938 1700.164062 C 548.207031 1707.175781 547.945312 1714.859375 547.625 1722.207031 C 547.378906 1727.867188 537.585938 1732.230469 532.992188 1728.710938 C 505.425781 1707.601562 486.0625 1681.105469 480.335938 1654.074219 " fill-opacity="1" fill-rule="evenodd"/><path fill="#004aad" d="M 332.886719 1575.488281 C 299.164062 1562.003906 260.085938 1516.621094 254.242188 1484.597656 C 253.507812 1480.480469 255.449219 1474.066406 258.464844 1471.496094 C 261.527344 1468.9375 268.539062 1467.945312 272.074219 1469.734375 C 279.648438 1473.59375 288.542969 1478.199219 292.628906 1485.042969 C 307.261719 1509.714844 320.382812 1535.324219 333.375 1560.949219 C 335.214844 1564.5625 333.164062 1570.132812 332.886719 1575.488281 " fill-opacity="1" fill-rule="evenodd"/><path fill="#004aad" d="M 390.132812 158.984375 C 395.214844 164.296875 395.140625 170.433594 390.683594 175.6875 C 365.566406 205.167969 340.265625 234.507812 314.75 263.667969 C 311.578125 267.265625 307.09375 270.375 302.59375 271.828125 C 300.390625 272.515625 294.820312 269.363281 294.238281 267.082031 C 293.105469 262.492188 292.753906 256.476562 294.863281 252.511719 C 316.433594 212.390625 341.75 175.625 386.644531 158.113281 C 387.5 157.777344 388.832031 158.632812 390.132812 158.984375 " fill-opacity="1" fill-rule="evenodd"/><path fill="#234bff" d="M 530.574219 1862.523438 C 507.765625 1838.628906 493.253906 1811.78125 488.554688 1779.910156 C 486.84375 1768.292969 496.945312 1760.226562 507.660156 1764.863281 C 514.226562 1767.710938 521.621094 1772.058594 525.125 1777.84375 C 539.191406 1801.019531 545.558594 1826.292969 538.960938 1853.414062 C 538.226562 1856.382812 534.324219 1858.617188 530.574219 1862.523438 " fill-opacity="1" fill-rule="evenodd"/><path fill="#234bff" d="M 24.640625 614.363281 C 27.53125 587.359375 31.558594 560.101562 47.707031 536.421875 C 54.320312 526.699219 63.886719 524.816406 73.894531 530.664062 C 88.652344 539.296875 96.582031 552.460938 92.019531 568.351562 C 83.691406 597.480469 78.199219 626.746094 76.925781 657.039062 C 76.558594 666.097656 70.316406 673.003906 61.191406 676.417969 C 52.007812 679.859375 43.359375 677.226562 38.324219 669.160156 C 27.976562 652.554688 26.492188 633.742188 24.640625 614.363281 " fill-opacity="1" fill-rule="evenodd"/><path fill="#234bff" d="M 153.261719 1190.109375 C 169.519531 1173.671875 186.996094 1175.691406 204.339844 1179.410156 C 208.792969 1180.375 213.324219 1184.125 216.417969 1187.816406 C 236.5 1211.585938 238.351562 1257.09375 220.6875 1283.085938 C 212.835938 1294.65625 202.441406 1295.894531 192.417969 1286.4375 C 170.023438 1265.296875 155.804688 1230.796875 153.261719 1190.109375 " fill-opacity="1" fill-rule="evenodd"/><path fill="#234bff" d="M 26.078125 940.472656 C 47.769531 931.136719 63.839844 936.523438 77.816406 948.800781 C 83.21875 953.558594 89.082031 960.1875 90.335938 966.816406 C 95.664062 994.566406 94.574219 1021.738281 75.320312 1045.003906 C 67.636719 1054.292969 55.605469 1055.71875 49.496094 1046.839844 C 27.714844 1015.078125 13.402344 981.386719 26.078125 940.472656 " fill-opacity="1" fill-rule="evenodd"/><path fill="#234bff" d="M 582.066406 1940.21875 C 570.816406 1913.203125 574.074219 1887.167969 579.785156 1861.265625 C 583.199219 1845.683594 610.476562 1835.660156 622.445312 1845.808594 C 626.640625 1849.359375 631.199219 1858.191406 629.546875 1861.925781 C 617.59375 1888.835938 614.851562 1920.75 588.664062 1940.128906 C 587.835938 1940.726562 586.214844 1940.21875 582.066406 1940.21875 " fill-opacity="1" fill-rule="evenodd"/><path fill="#234bff" d="M 548.054688 2143.476562 C 547.089844 2115.34375 552.539062 2089.535156 556.933594 2063.851562 C 559.457031 2049.035156 575.804688 2042.269531 589.535156 2049.082031 C 593.421875 2051.011719 598.828125 2057.101562 598.121094 2059.964844 C 590.453125 2091.007812 587.835938 2124.851562 556.226562 2144 C 555.386719 2144.488281 553.824219 2143.875 548.054688 2143.476562 " fill-opacity="1" fill-rule="evenodd"/><path fill="#234bff" d="M 420.042969 193.519531 C 429.425781 198.15625 433.328125 207.003906 428.601562 215.207031 C 417.347656 234.664062 402.5625 251.699219 383.613281 264.144531 C 379.417969 266.898438 372.332031 265.230469 366.347656 265.628906 C 368.078125 225.003906 381.285156 207.828125 420.042969 193.519531 " fill-opacity="1" fill-rule="evenodd"/><g clip-path="url(#842e7f2185)"><path fill="#5271ff" d="M 722.886719 1794.789062 C 733.265625 1793.414062 741.441406 1798.554688 742.097656 1808 C 743.675781 1830.425781 740.902344 1852.816406 732.148438 1873.726562 C 730.203125 1878.347656 723.394531 1880.953125 718.679688 1884.59375 C 697.402344 1849.941406 698.75 1828.328125 722.886719 1794.789062 " fill-opacity="1" fill-rule="evenodd"/></g><path fill="#5271ff" d="M 159.125 449.15625 C 159.582031 446.828125 160.089844 441.746094 161.558594 437.003906 C 170.878906 406.617188 185.3125 378.699219 204.09375 353.214844 C 213.9375 339.867188 226.582031 328.875 242.714844 324.070312 C 247.492188 322.660156 255.769531 325.125 259.0625 328.828125 C 262.445312 332.65625 263.625 340.660156 262.230469 345.851562 C 260.714844 351.40625 255.679688 356.597656 251.042969 360.621094 C 228.464844 380.183594 214.75 405.441406 203.375 432.394531 C 198.96875 442.820312 193.75 452.921875 188.667969 463.070312 C 184.945312 470.523438 178.472656 475.179688 170.359375 473.25 C 162.03125 471.289062 159.460938 463.714844 159.15625 455.632812 C 159.09375 454.375 159.15625 453.121094 159.125 449.15625 " fill-opacity="1" fill-rule="evenodd"/><path fill="#5271ff" d="M 59.09375 813.320312 C 59.109375 822.089844 60.257812 831.074219 58.820312 839.617188 C 57.625 846.644531 54.6875 854.203125 50.214844 859.636719 C 38.554688 873.875 21.992188 871.425781 14.519531 854.449219 C 2.460938 827.171875 0.132812 798.703125 7.496094 769.742188 C 10.753906 756.808594 20.765625 751.386719 33.316406 754.726562 C 49.3125 759.011719 58.558594 770.308594 59.203125 786.929688 C 59.554688 795.703125 59.324219 804.519531 59.355469 813.320312 C 59.261719 813.320312 59.171875 813.320312 59.09375 813.320312 " fill-opacity="1" fill-rule="evenodd"/><g clip-path="url(#66fa7e2972)"><path fill="#5271ff" d="M 440.832031 2244.730469 C 442.851562 2205.484375 451.730469 2172.101562 468.6875 2141.121094 C 471.796875 2135.488281 480.167969 2131.339844 486.917969 2129.304688 C 497.832031 2126.074219 511.824219 2140.15625 506.984375 2149.675781 C 491.664062 2179.753906 480.335938 2212.28125 456.472656 2237.355469 C 453.597656 2240.339844 448.515625 2241.226562 440.832031 2244.730469 " fill-opacity="1" fill-rule="evenodd"/></g><path fill="#5271ff" d="M 122.617188 1355.898438 C 124.667969 1352.777344 126.886719 1345.644531 131.386719 1343.609375 C 136.027344 1341.480469 143.359375 1343.132812 148.65625 1345.277344 C 152.941406 1347.003906 157.457031 1351.246094 159.308594 1355.46875 C 168.953125 1377.238281 178.152344 1399.246094 186.429688 1421.535156 C 187.59375 1424.671875 184.011719 1431.683594 180.691406 1433.734375 C 177.203125 1435.875 170.070312 1436.105469 166.777344 1433.871094 C 140.296875 1415.917969 124.652344 1391.257812 122.617188 1355.898438 " fill-opacity="1" fill-rule="evenodd"/><path fill="#5271ff" d="M 508.347656 4.386719 C 521.664062 11.84375 525.339844 21.164062 522.398438 31.617188 C 518.695312 44.765625 515.207031 58.863281 507.691406 69.886719 C 495.136719 88.285156 478.101562 102.609375 454.148438 108.871094 C 453.058594 103.804688 450.566406 99.304688 451.867188 97.359375 C 471.828125 67.847656 476.328125 28.785156 508.347656 4.386719 " fill-opacity="1" fill-rule="evenodd"/><path fill="#004aad" d="M 508.5625 2068.796875 C 501.949219 2028.25 506.433594 1977.03125 519.738281 1941.230469 C 528.445312 1936.652344 534.078125 1940.3125 537.460938 1948.410156 C 538.886719 1951.792969 539.421875 1955.695312 539.726562 1959.382812 C 542.636719 1995.246094 535.289062 2029.214844 519.996094 2061.539062 C 518.574219 2064.542969 514.882812 2066.609375 512.023438 2068.8125 C 511.300781 2069.378906 509.742188 2068.859375 508.5625 2068.796875 " fill-opacity="1" fill-rule="evenodd"/><path fill="#5271ff" d="M 201.050781 1059.742188 C 199.808594 1071.914062 199.824219 1083.421875 197.085938 1094.230469 C 195.386719 1100.980469 190.074219 1107.132812 185.328125 1112.660156 C 181.5625 1117.035156 170.972656 1115.214844 168.90625 1110.179688 C 158.496094 1085.089844 156.8125 1059.101562 163.503906 1032.957031 C 165.476562 1025.210938 173.269531 1021.570312 181.320312 1021.828125 C 189.507812 1022.105469 196.058594 1026.832031 198.066406 1034.5625 C 200.238281 1042.9375 200.222656 1051.875 201.050781 1059.742188 " fill-opacity="1" fill-rule="evenodd"/><path fill="#5271ff" d="M 652.523438 1734.925781 C 651.28125 1747.09375 651.3125 1758.621094 648.558594 1769.425781 C 646.859375 1776.160156 641.546875 1782.332031 636.800781 1787.855469 C 633.039062 1792.234375 622.445312 1790.398438 620.378906 1785.359375 C 609.96875 1760.273438 608.300781 1734.296875 614.976562 1708.152344 C 616.949219 1700.394531 624.742188 1696.75 632.792969 1697.011719 C 640.980469 1697.285156 647.53125 1702.015625 649.539062 1709.746094 C 651.710938 1718.132812 651.695312 1727.058594 652.523438 1734.925781 " fill-opacity="1" fill-rule="evenodd"/><path fill="#5271ff" d="M 427.511719 1680.875 C 403.28125 1669.734375 385.542969 1652.757812 378.011719 1627.332031 C 376.878906 1623.554688 378.851562 1615.839844 381.410156 1614.796875 C 385.023438 1613.28125 390.667969 1615.867188 395.171875 1617.476562 C 397.296875 1618.257812 399.148438 1620.597656 400.527344 1622.648438 C 412.421875 1640.296875 422.613281 1658.789062 427.511719 1680.875 " fill-opacity="1" fill-rule="evenodd"/><path fill="#234bff" d="M 417.914062 1556.617188 C 395.507812 1546.253906 388.433594 1527.960938 384.347656 1508.203125 C 383.523438 1504.296875 386.140625 1497.640625 389.367188 1495.511719 C 392.429688 1493.492188 399.53125 1494.105469 402.746094 1496.460938 C 417.578125 1507.3125 425.371094 1522.726562 425.554688 1540.972656 C 425.613281 1546.007812 420.777344 1551.074219 417.914062 1556.617188 " fill-opacity="1" fill-rule="evenodd"/><g fill="#ffffff" fill-opacity="1"><g transform="translate(374.708464, 1309.724458)"><g><path d="M 0.5625 -0.71875 L 0.5625 -0.640625 L 0.328125 -0.640625 L 0.328125 0 L 0.25 0 L 0.25 -0.640625 L 0.03125 -0.640625 L 0.03125 -0.71875 Z M 0.5625 -0.71875 "/></g></g></g></svg>