<svg xmlns="http://www.w3.org/2000/svg" xmlns:xlink="http://www.w3.org/1999/xlink" width="1536" zoomAndPan="magnify" viewBox="0 0 1152 1123.499971" height="1498" preserveAspectRatio="xMidYMid meet" version="1.0"><defs><g/></defs><path fill="#b3f5d1" d="M 1089.46875 241.152344 C 1054 171.453125 983.105469 133.796875 939.148438 110.4375 C 749.113281 9.484375 490.25 36.363281 318.183594 130.496094 C 148.34375 223.410156 0.328125 443.402344 62.375 682.425781 C 124.660156 922.371094 367.074219 1045.742188 550.429688 1071.902344 C 841.578125 1113.4375 1086.1875 924.46875 1099.585938 858.890625 C 1103.707031 838.660156 1102.628906 820.742188 1102.628906 820.742188 C 1097.464844 773.398438 1057.46875 745.269531 1048.148438 637.371094 C 1031.003906 438.828125 1151.6875 363.386719 1089.46875 241.152344 " fill-opacity="1" fill-rule="nonzero"/><path fill="#6fe8a3" d="M 748.519531 907.53125 C 713.070312 907.53125 679.085938 921.234375 654.027344 945.632812 C 628.964844 970.03125 594.980469 983.738281 559.542969 983.738281 L 301.953125 983.738281 C 383.140625 1031.84375 472.160156 1060.734375 550.429688 1071.902344 C 785.949219 1105.503906 991.007812 988.269531 1067.859375 907.53125 L 748.519531 907.53125 " fill-opacity="1" fill-rule="nonzero"/><path fill="#28c76f" d="M 539.265625 1074.203125 L 109.238281 1074.203125 C 90.941406 1074.203125 76.113281 1058.832031 76.113281 1039.867188 L 118.035156 140.242188 C 118.035156 121.28125 132.867188 105.90625 151.164062 105.90625 L 581.191406 105.90625 C 599.484375 105.90625 614.316406 121.28125 614.316406 140.242188 L 572.394531 1039.867188 C 572.394531 1058.832031 557.558594 1074.203125 539.265625 1074.203125 " fill-opacity="1" fill-rule="nonzero"/><path fill="#6fe8a3" d="M 513.808594 1072.050781 L 83.78125 1072.050781 C 65.484375 1072.050781 50.652344 1056.746094 50.652344 1037.863281 L 92.578125 138.152344 C 92.578125 119.269531 107.410156 103.964844 125.703125 103.964844 L 555.730469 103.964844 C 574.027344 103.964844 588.863281 119.269531 588.863281 138.152344 L 546.9375 1037.863281 C 546.9375 1056.746094 532.101562 1072.050781 513.808594 1072.050781 " fill-opacity="1" fill-rule="nonzero"/><path fill="#28c76f" d="M 125.707031 105.824219 C 108.464844 105.824219 94.441406 120.324219 94.441406 138.148438 L 52.515625 1037.949219 C 52.515625 1055.6875 66.542969 1070.1875 83.78125 1070.1875 L 513.8125 1070.1875 C 531.050781 1070.1875 545.078125 1055.6875 545.078125 1037.863281 L 587 138.0625 C 587 120.324219 572.976562 105.824219 555.734375 105.824219 Z M 513.8125 1073.914062 L 83.78125 1073.914062 C 64.488281 1073.914062 48.792969 1057.742188 48.792969 1037.863281 L 90.71875 138.0625 C 90.714844 118.265625 106.410156 102.097656 125.707031 102.097656 L 555.734375 102.097656 C 575.03125 102.097656 590.726562 118.265625 590.726562 138.148438 L 548.796875 1037.949219 C 548.804688 1057.742188 533.105469 1073.914062 513.8125 1073.914062 " fill-opacity="1" fill-rule="nonzero"/><path fill="#ffffff" d="M 494.328125 1052.074219 L 102.363281 1052.074219 C 85.6875 1052.074219 72.167969 1038.121094 72.167969 1020.917969 L 112.628906 157.328125 C 112.628906 140.113281 126.148438 126.164062 142.824219 126.164062 L 534.789062 126.164062 C 551.460938 126.164062 564.984375 140.113281 564.984375 157.328125 L 524.523438 1020.917969 C 524.523438 1038.121094 511.003906 1052.074219 494.328125 1052.074219 " fill-opacity="1" fill-rule="nonzero"/><path fill="#6fe8a3" d="M 247.539062 124.691406 L 257.910156 140.46875 C 264.210938 150.050781 274.769531 155.796875 286.066406 155.796875 L 390.785156 155.796875 C 401.839844 155.796875 412.203125 150.296875 418.550781 141.046875 L 429.78125 124.691406 L 247.539062 124.691406 " fill-opacity="1" fill-rule="nonzero"/><path fill="#ffffff" d="M 402.464844 247.488281 L 67.785156 247.488281 C 58.902344 247.488281 51.824219 240.253906 52.257812 231.609375 L 54.160156 193.984375 C 54.570312 185.921875 61.398438 179.589844 69.6875 179.589844 L 404.363281 179.589844 C 413.25 179.589844 420.328125 186.832031 419.890625 195.46875 L 417.988281 233.101562 C 417.582031 241.15625 410.75 247.488281 402.464844 247.488281 " fill-opacity="1" fill-rule="nonzero"/><path fill="#28c76f" d="M 69.6875 181.445312 C 62.382812 181.445312 56.378906 186.992188 56.023438 194.070312 L 54.117188 231.699219 C 53.9375 235.289062 55.21875 238.714844 57.726562 241.351562 C 60.351562 244.105469 63.921875 245.625 67.785156 245.625 L 402.464844 245.625 C 409.769531 245.625 415.773438 240.078125 416.128906 232.996094 L 418.03125 195.367188 C 418.214844 191.785156 416.933594 188.359375 414.425781 185.722656 C 411.804688 182.96875 408.230469 181.445312 404.367188 181.445312 Z M 402.464844 249.351562 L 67.785156 249.351562 C 62.960938 249.351562 58.3125 247.367188 55.027344 243.914062 C 51.808594 240.527344 50.164062 236.125 50.398438 231.515625 L 52.300781 193.878906 C 52.757812 184.820312 60.394531 177.722656 69.6875 177.722656 L 404.367188 177.722656 C 409.191406 177.722656 413.839844 179.699219 417.125 183.160156 C 420.34375 186.539062 421.984375 190.945312 421.753906 195.558594 L 419.851562 233.1875 C 419.394531 242.25 411.757812 249.351562 402.464844 249.351562 " fill-opacity="1" fill-rule="nonzero"/><path fill="#6fe8a3" d="M 265.398438 224.398438 L 159.761719 224.398438 C 153.382812 224.398438 148.300781 219.203125 148.613281 213 C 148.90625 207.210938 153.808594 202.667969 159.761719 202.667969 L 265.398438 202.667969 C 271.777344 202.667969 276.859375 207.863281 276.546875 214.066406 C 276.253906 219.855469 271.351562 224.398438 265.398438 224.398438 " fill-opacity="1" fill-rule="nonzero"/><path fill="#b3f5d1" d="M 366.019531 224.398438 L 303.882812 224.398438 C 297.503906 224.398438 292.421875 219.203125 292.738281 213 C 293.027344 207.210938 297.933594 202.667969 303.882812 202.667969 L 366.019531 202.667969 C 372.398438 202.667969 377.480469 207.863281 377.167969 214.066406 C 376.875 219.855469 371.972656 224.398438 366.019531 224.398438 " fill-opacity="1" fill-rule="nonzero"/><path fill="#28c76f" d="M 105.464844 193.867188 C 96.277344 193.867188 88.804688 201.125 88.804688 210.035156 C 88.804688 218.953125 96.277344 226.207031 105.464844 226.207031 C 114.648438 226.207031 122.125 218.953125 122.125 210.035156 C 122.125 201.125 114.648438 193.867188 105.464844 193.867188 Z M 105.464844 229.9375 C 94.222656 229.9375 85.078125 221.011719 85.078125 210.035156 C 85.078125 199.070312 94.222656 190.144531 105.464844 190.144531 C 116.703125 190.144531 125.847656 199.070312 125.847656 210.035156 C 125.847656 221.011719 116.703125 229.9375 105.464844 229.9375 " fill-opacity="1" fill-rule="nonzero"/><path fill="#28c76f" d="M 80.332031 237.542969 C 79.839844 237.542969 79.351562 237.347656 78.984375 236.96875 C 78.273438 236.222656 78.300781 235.042969 79.046875 234.328125 L 91.824219 222.128906 C 92.566406 221.414062 93.746094 221.441406 94.457031 222.1875 C 95.167969 222.929688 95.140625 224.113281 94.398438 224.816406 L 81.617188 237.027344 C 81.257812 237.371094 80.792969 237.542969 80.332031 237.542969 " fill-opacity="1" fill-rule="nonzero"/><path fill="#ffffff" d="M 1102.882812 470.992188 C 1102.882812 691.085938 920.859375 869.507812 696.328125 869.507812 C 471.785156 869.507812 289.761719 691.085938 289.761719 470.992188 C 289.761719 250.902344 471.785156 72.472656 696.328125 72.472656 C 920.859375 72.472656 1102.882812 250.902344 1102.882812 470.992188 " fill-opacity="1" fill-rule="nonzero"/><path fill="#000000" d="M 696.328125 871.375 C 594.710938 871.375 497.332031 834.558594 422.109375 767.714844 C 421.339844 767.035156 421.273438 765.859375 421.953125 765.089844 C 422.640625 764.320312 423.8125 764.25 424.585938 764.933594 C 499.125 831.167969 595.625 867.648438 696.328125 867.648438 C 707.054688 867.648438 717.894531 867.230469 728.542969 866.410156 C 729.566406 866.3125 730.464844 867.097656 730.542969 868.121094 C 730.617188 869.144531 729.855469 870.042969 728.824219 870.125 C 718.085938 870.949219 707.152344 871.375 696.328125 871.375 " fill-opacity="1" fill-rule="nonzero"/><path fill="#b3f5d1" d="M 618.195312 108.121094 C 616.523438 110.527344 621.488281 118.609375 631.363281 118.609375 C 641.242188 118.609375 646.175781 116.996094 650.292969 127.480469 C 654.40625 137.964844 648.648438 173.464844 654.40625 186.371094 C 660.167969 199.277344 670.046875 207.34375 677.445312 200.085938 C 684.851562 192.824219 684.03125 173.464844 693.085938 168.625 C 702.136719 163.785156 735.054688 144.425781 736.703125 128.285156 C 738.347656 112.152344 726.832031 100.054688 698.023438 96.828125 C 669.222656 93.601562 630.535156 90.375 618.195312 108.121094 " fill-opacity="1" fill-rule="nonzero"/><path fill="#6fe8a3" d="M 507.652344 469.476562 C 503.347656 471.582031 500.773438 475.621094 500.980469 479.933594 C 501.636719 493.464844 495.785156 527.179688 483.503906 537.945312 C 467.859375 551.660156 473.628906 576.375 473.382812 586.347656 C 472.886719 606.609375 475.121094 615.621094 499.964844 625.304688 C 524.808594 634.984375 534.535156 635.535156 536.375 654.894531 C 538.214844 674.25 541.078125 749.046875 548.4375 768.402344 C 555.800781 787.769531 571.441406 819.226562 579.726562 826.488281 C 588.003906 833.75 607.332031 837.78125 595.367188 810.355469 C 583.40625 782.925781 576.046875 770.019531 589.84375 754.691406 C 603.648438 739.367188 626.652344 703.871094 628.492188 690.15625 C 630.332031 676.441406 638.613281 668.375 645.972656 666.757812 C 653.339844 665.144531 668.976562 660.308594 673.578125 655.464844 C 678.175781 650.628906 668.976562 636.910156 666.214844 624.8125 C 663.457031 612.714844 663.457031 605.453125 686.460938 595.777344 C 709.464844 586.089844 698.421875 558.664062 667.136719 551.402344 C 635.851562 544.144531 616.527344 528.816406 620.207031 513.488281 C 623.886719 498.164062 599.046875 499.777344 584.324219 492.515625 C 569.601562 485.253906 570.046875 473.851562 553.660156 468.417969 C 531.511719 461.070312 515.96875 465.410156 507.652344 469.476562 " fill-opacity="1" fill-rule="nonzero"/><path fill="#6fe8a3" d="M 992.328125 449.070312 C 985.394531 438.878906 986.261719 422.726562 1003.601562 400.640625 C 1017.21875 383.289062 997.675781 365.929688 988.660156 359.285156 C 987.011719 358.0625 987.753906 355.527344 989.816406 355.300781 C 1000.984375 354.066406 1026.886719 357.738281 1038.277344 414.238281 C 1053.011719 487.308594 1059.078125 461.816406 1066.882812 453.316406 C 1074.683594 444.828125 1060.082031 428.949219 1074.683594 412.535156 C 1083.882812 402.1875 1088.558594 387.082031 1090.925781 374.777344 C 1061.613281 258.863281 980.554688 162.980469 873.152344 112.046875 C 873.308594 124.773438 870.183594 169.101562 817.21875 150.816406 C 817.21875 150.816406 784.28125 135.527344 792.082031 197.550781 C 799.878906 259.582031 826.757812 193.308594 831.953125 190.757812 C 837.15625 188.207031 851.023438 184.808594 844.964844 226.445312 C 844.964844 226.445312 844.09375 240.886719 817.21875 238.339844 C 790.347656 235.789062 785.144531 248.535156 785.144531 255.339844 C 785.144531 262.132812 787.746094 279.972656 773.011719 292.722656 C 758.273438 305.46875 762.609375 338.609375 782.550781 327.5625 C 802.480469 316.515625 816.355469 281.675781 834.5625 278.277344 C 852.761719 274.882812 869.230469 297.820312 886.570312 291.875 C 903.90625 285.925781 896.105469 257.035156 904.777344 257.035156 C 913.445312 257.035156 931.652344 274.027344 929.042969 286.773438 C 926.449219 299.523438 899.570312 305.46875 906.511719 320.761719 C 913.445312 336.058594 928.183594 330.960938 932.515625 341.15625 C 936.851562 351.347656 910.84375 363.25 890.039062 350.503906 C 869.230469 337.761719 865.765625 356.449219 855.363281 347.953125 C 844.964844 339.457031 844.09375 321.617188 829.359375 327.5625 C 814.621094 333.511719 805.945312 345.402344 786.875 353.898438 C 767.804688 362.402344 752.210938 373.449219 752.210938 385.34375 C 752.210938 397.238281 759.136719 409.984375 755.671875 428.679688 C 752.210938 447.367188 746.132812 498.355469 808.558594 488.164062 C 870.964844 477.964844 863.164062 509.40625 863.164062 512.796875 C 863.164062 516.195312 862.292969 560.386719 868.371094 568.03125 C 874.433594 575.679688 888.300781 597.777344 868.371094 626.664062 C 848.429688 655.550781 856.226562 720.132812 874.433594 711.640625 C 892.636719 703.140625 910.84375 670 933.378906 653.007812 C 955.921875 636.015625 987.128906 562.085938 974.121094 539.144531 C 961.125 516.195312 992.328125 497.507812 996.664062 482.207031 C 1001 466.910156 999.265625 459.269531 992.328125 449.070312 " fill-opacity="1" fill-rule="nonzero"/><path fill="#6fe8a3" d="M 405.21875 191.753906 C 405.585938 205.910156 404.269531 224.828125 394.941406 239.261719 C 366.773438 282.828125 367.683594 304.601562 364.957031 348.167969 C 362.230469 391.730469 424.222656 468.527344 439.667969 476.59375 C 455.113281 484.652344 457.496094 465.464844 457.496094 450.144531 C 457.496094 434.816406 450.894531 416.429688 441.8125 398.683594 C 432.726562 380.933594 432.726562 369.640625 435.453125 362.382812 C 438.179688 355.121094 449.078125 352.703125 456.351562 359.957031 C 463.617188 367.214844 481.085938 373.65625 489.480469 369.121094 C 499.796875 363.550781 495.78125 341.710938 499.414062 334.453125 C 503.046875 327.191406 523.039062 322.355469 531.214844 307.027344 C 539.390625 291.703125 553.011719 285.246094 569.371094 277.984375 C 585.71875 270.722656 600.261719 267.5 602.984375 262.65625 C 605.710938 257.820312 602.078125 246.523438 606.625 233.617188 C 611.160156 220.714844 622.0625 205.386719 617.519531 198.929688 C 612.976562 192.476562 599.347656 181.992188 573.910156 198.125 C 548.472656 214.257812 542.113281 214.257812 534.847656 202.152344 C 527.582031 190.058594 543.019531 158.597656 574.820312 158.597656 C 606.625 158.597656 612.976562 148.910156 613.882812 141.660156 C 614.796875 134.398438 604.804688 126.332031 593.898438 124.710938 C 582.992188 123.097656 581.179688 128.75 535.753906 144.882812 C 505.4375 155.652344 477.265625 149.609375 462.878906 146.738281 C 442.238281 160.273438 422.945312 175.335938 405.21875 191.753906 " fill-opacity="1" fill-rule="nonzero"/><path fill="#6fe8a3" d="M 1083.71875 542.789062 C 1077.574219 541.453125 1078.9375 556.167969 1070.753906 558.84375 C 1062.5625 561.519531 1059.148438 565.535156 1061.195312 580.25 C 1063.246094 594.972656 1059.828125 614.371094 1051.644531 621.730469 C 1043.453125 629.089844 1031.855469 634.441406 1031.171875 652.503906 C 1030.488281 670.566406 1013.421875 687.960938 1003.179688 693.976562 C 992.949219 700 977.253906 709.367188 977.253906 724.75 C 977.253906 734.664062 976.984375 747.324219 979.332031 757.066406 C 1033.511719 705.558594 1073.09375 639.40625 1091.445312 565.113281 C 1089.847656 555.234375 1087.230469 543.554688 1083.71875 542.789062 " fill-opacity="1" fill-rule="nonzero"/><path fill="#000000" d="M 994.671875 743.582031 C 994.214844 743.582031 993.753906 743.414062 993.390625 743.074219 C 992.648438 742.367188 992.609375 741.1875 993.320312 740.441406 C 1062.773438 666.929688 1101.027344 571.242188 1101.027344 470.988281 C 1101.027344 252.269531 919.476562 74.339844 696.328125 74.339844 C 554.578125 74.339844 425.589844 145.085938 351.28125 263.601562 C 350.734375 264.472656 349.582031 264.738281 348.710938 264.191406 C 347.839844 263.648438 347.578125 262.496094 348.125 261.621094 C 384.027344 204.363281 434.449219 156.476562 493.945312 123.140625 C 555.28125 88.777344 625.261719 70.605469 696.328125 70.605469 C 805.414062 70.605469 907.972656 112.25 985.117188 187.859375 C 1062.257812 263.488281 1104.75 364.035156 1104.75 470.988281 C 1104.75 572.195312 1066.136719 668.792969 996.027344 742.996094 C 995.65625 743.382812 995.164062 743.582031 994.671875 743.582031 " fill-opacity="1" fill-rule="nonzero"/><path fill="#28c76f" d="M 873.683594 148.566406 C 873.683594 157.457031 866.277344 164.675781 857.132812 164.675781 C 848 164.675781 840.59375 157.457031 840.59375 148.566406 C 840.59375 139.664062 848 132.457031 857.132812 132.457031 C 866.277344 132.457031 873.683594 139.664062 873.683594 148.566406 " fill-opacity="1" fill-rule="nonzero"/><path fill="#28c76f" d="M 503.183594 246.507812 C 503.183594 255.40625 495.78125 262.617188 486.640625 262.617188 C 477.503906 262.617188 470.097656 255.40625 470.097656 246.507812 C 470.097656 237.613281 477.503906 230.402344 486.640625 230.402344 C 495.78125 230.402344 503.183594 237.613281 503.183594 246.507812 " fill-opacity="1" fill-rule="nonzero"/><path fill="#28c76f" d="M 978.492188 317.34375 C 978.492188 326.242188 971.085938 333.457031 961.945312 333.457031 C 952.808594 333.457031 945.398438 326.242188 945.398438 317.34375 C 945.398438 308.445312 952.808594 301.234375 961.945312 301.234375 C 971.085938 301.234375 978.492188 308.445312 978.492188 317.34375 " fill-opacity="1" fill-rule="nonzero"/><path fill="#28c76f" d="M 930.320312 393.917969 C 930.320312 402.816406 922.90625 410.027344 913.777344 410.027344 C 904.636719 410.027344 897.222656 402.816406 897.222656 393.917969 C 897.222656 385.019531 904.636719 377.8125 913.777344 377.8125 C 922.90625 377.8125 930.320312 385.019531 930.320312 393.917969 " fill-opacity="1" fill-rule="nonzero"/><path fill="#ffffff" d="M 367.277344 552.953125 L 284.980469 552.953125 C 248.910156 552.953125 219.667969 581.425781 219.667969 616.546875 C 219.667969 639.746094 221.992188 662.894531 226.609375 685.65625 L 238.441406 744 C 246.710938 784.777344 283.441406 814.167969 326.128906 814.167969 C 368.816406 814.167969 405.546875 784.777344 413.816406 744 L 425.652344 685.65625 C 430.265625 662.894531 432.59375 639.746094 432.59375 616.546875 C 432.59375 581.425781 403.347656 552.953125 367.277344 552.953125 " fill-opacity="1" fill-rule="nonzero"/><path fill="#6fe8a3" d="M 348.40625 678.707031 L 303.851562 678.707031 C 291.414062 678.707031 281.332031 668.625 281.332031 656.1875 L 281.332031 552.953125 L 370.925781 552.953125 L 370.925781 656.1875 C 370.925781 668.625 360.84375 678.707031 348.40625 678.707031 " fill-opacity="1" fill-rule="nonzero"/><path fill="#000000" d="M 326.128906 816.03125 C 282.679688 816.03125 245.035156 785.894531 236.613281 744.371094 L 224.78125 686.027344 C 220.152344 663.195312 217.804688 639.816406 217.804688 616.546875 C 217.804688 580.453125 247.9375 551.09375 284.980469 551.09375 L 367.277344 551.09375 C 393.703125 551.09375 417.769531 566.273438 428.59375 589.765625 C 429.023438 590.699219 428.613281 591.804688 427.679688 592.238281 C 426.742188 592.667969 425.636719 592.257812 425.207031 591.324219 C 414.992188 569.148438 392.253906 554.816406 367.277344 554.816406 L 284.980469 554.816406 C 249.992188 554.816406 221.53125 582.507812 221.53125 616.546875 C 221.53125 639.566406 223.855469 662.699219 228.433594 685.285156 L 240.265625 743.628906 C 248.335938 783.421875 284.445312 812.308594 326.128906 812.308594 C 367.8125 812.308594 403.921875 783.421875 411.992188 743.628906 L 423.824219 685.285156 C 426.234375 673.421875 428.03125 661.300781 429.175781 649.265625 C 429.273438 648.242188 430.183594 647.476562 431.207031 647.585938 C 432.230469 647.679688 432.984375 648.59375 432.886719 649.617188 C 431.730469 661.785156 429.90625 674.03125 427.476562 686.027344 L 415.644531 744.371094 C 407.222656 785.894531 369.578125 816.03125 326.128906 816.03125 " fill-opacity="1" fill-rule="nonzero"/><path fill="#28c76f" d="M 681.773438 638.398438 C 681.773438 651.207031 671.105469 661.59375 657.941406 661.59375 C 644.785156 661.59375 634.117188 651.207031 634.117188 638.398438 C 634.117188 625.582031 644.785156 615.199219 657.941406 615.199219 C 671.105469 615.199219 681.773438 625.582031 681.773438 638.398438 " fill-opacity="1" fill-rule="nonzero"/><path fill="#28c76f" d="M 657.945312 189.378906 C 579.558594 189.378906 516.003906 251.074219 516.003906 327.183594 C 516.003906 346.210938 524.871094 372.816406 538.179688 402.027344 C 571.722656 475.660156 633.449219 565.816406 652.316406 592.75 C 655.027344 596.613281 660.863281 596.625 663.566406 592.765625 C 689.917969 555.148438 799.890625 394.167969 799.890625 327.183594 C 799.890625 251.074219 736.339844 189.378906 657.945312 189.378906 " fill-opacity="1" fill-rule="nonzero"/><path fill="#000000" d="M 599.539062 514.835938 C 598.917969 514.835938 598.3125 514.519531 597.960938 513.953125 C 571.335938 471.292969 550.652344 433.898438 536.484375 402.804688 C 521.652344 370.25 514.136719 344.8125 514.136719 327.1875 C 514.136719 250.175781 578.644531 187.523438 657.941406 187.523438 C 737.246094 187.523438 801.746094 250.175781 801.746094 327.1875 C 801.746094 346.511719 792.726562 375.175781 774.933594 412.378906 C 774.488281 413.308594 773.375 413.699219 772.445312 413.253906 C 771.515625 412.808594 771.125 411.695312 771.570312 410.769531 C 789.121094 374.070312 798.027344 345.949219 798.027344 327.1875 C 798.027344 252.230469 735.183594 191.246094 657.941406 191.246094 C 580.699219 191.246094 517.863281 252.230469 517.863281 327.1875 C 517.863281 344.277344 525.269531 369.199219 539.871094 401.253906 C 553.976562 432.203125 574.585938 469.460938 601.121094 511.980469 C 601.667969 512.855469 601.398438 514.007812 600.519531 514.550781 C 600.21875 514.742188 599.875 514.835938 599.539062 514.835938 Z M 657.949219 597.527344 C 655.09375 597.527344 652.410156 596.140625 650.785156 593.828125 C 645.695312 586.550781 637.558594 574.789062 627.71875 560.035156 C 627.148438 559.171875 627.382812 558.027344 628.238281 557.453125 C 629.089844 556.882812 630.246094 557.109375 630.820312 557.96875 C 640.628906 572.6875 648.753906 584.429688 653.839844 591.691406 C 654.777344 593.023438 656.277344 593.792969 657.949219 593.792969 C 659.613281 593.792969 661.109375 593.023438 662.039062 591.699219 C 669.710938 580.75 685.25 558.230469 703.066406 530.464844 C 703.621094 529.605469 704.769531 529.355469 705.640625 529.90625 C 706.503906 530.457031 706.757812 531.617188 706.199219 532.480469 C 688.347656 560.296875 672.777344 582.859375 665.089844 593.835938 C 663.472656 596.140625 660.804688 597.519531 657.949219 597.527344 " fill-opacity="1" fill-rule="nonzero"/><path fill="#ffffff" d="M 720.050781 326.851562 C 720.050781 360.242188 692.246094 387.3125 657.949219 387.3125 C 623.648438 387.3125 595.839844 360.242188 595.839844 326.851562 C 595.839844 293.449219 623.648438 266.382812 657.949219 266.382812 C 692.246094 266.382812 720.050781 293.449219 720.050781 326.851562 " fill-opacity="1" fill-rule="nonzero"/><path fill="#000000" d="M 751.707031 505.246094 C 747.4375 505.246094 743.585938 502.289062 742.625 497.945312 C 741.507812 492.921875 744.675781 487.949219 749.699219 486.835938 C 762.660156 483.960938 770.769531 478.175781 770.863281 471.734375 C 770.972656 464.257812 760.964844 454.132812 741.625 449.246094 C 736.636719 447.992188 733.617188 442.921875 734.875 437.933594 C 736.132812 432.953125 741.199219 429.925781 746.1875 431.1875 C 772.753906 437.898438 789.753906 453.921875 789.492188 472.007812 C 789.261719 487.761719 775.890625 500.101562 753.734375 505.019531 C 753.050781 505.171875 752.371094 505.246094 751.707031 505.246094 " fill-opacity="1" fill-rule="nonzero"/><path fill="#ffffff" d="M 497.210938 454.660156 L 479.4375 454.660156 L 479.4375 388.542969 L 497.210938 388.542969 C 506.632812 388.542969 514.277344 396.183594 514.277344 405.609375 L 514.277344 437.585938 C 514.277344 447.015625 506.632812 454.660156 497.210938 454.660156 " fill-opacity="1" fill-rule="nonzero"/><path fill="#000000" d="M 481.296875 452.796875 L 497.210938 452.796875 C 505.59375 452.796875 512.414062 445.976562 512.414062 437.585938 L 512.414062 405.609375 C 512.414062 397.226562 505.59375 390.40625 497.210938 390.40625 L 481.296875 390.40625 Z M 497.210938 456.519531 L 479.4375 456.519531 C 478.40625 456.519531 477.570312 455.683594 477.570312 454.65625 L 477.570312 388.542969 C 477.570312 387.511719 478.40625 386.679688 479.4375 386.679688 L 497.210938 386.679688 C 507.644531 386.679688 516.140625 395.171875 516.140625 405.609375 L 516.140625 437.585938 C 516.140625 448.027344 507.644531 456.519531 497.210938 456.519531 " fill-opacity="1" fill-rule="nonzero"/><path fill="#ffffff" d="M 155.050781 454.660156 L 172.824219 454.660156 L 172.824219 388.542969 L 155.050781 388.542969 C 145.625 388.542969 137.984375 396.183594 137.984375 405.609375 L 137.984375 437.585938 C 137.984375 447.015625 145.625 454.660156 155.050781 454.660156 " fill-opacity="1" fill-rule="nonzero"/><path fill="#000000" d="M 155.050781 390.40625 C 146.664062 390.40625 139.84375 397.226562 139.84375 405.609375 L 139.84375 437.585938 C 139.84375 445.976562 146.664062 452.796875 155.050781 452.796875 L 170.960938 452.796875 L 170.960938 390.40625 Z M 172.824219 456.519531 L 155.050781 456.519531 C 144.613281 456.519531 136.117188 448.027344 136.117188 437.585938 L 136.117188 405.609375 C 136.117188 395.171875 144.613281 386.679688 155.050781 386.679688 L 172.824219 386.679688 C 173.855469 386.679688 174.6875 387.511719 174.6875 388.542969 L 174.6875 454.65625 C 174.6875 455.683594 173.855469 456.519531 172.824219 456.519531 " fill-opacity="1" fill-rule="nonzero"/><path fill="#ffffff" d="M 161.847656 418.867188 C 161.847656 347.824219 235.398438 274.332031 326.128906 274.332031 C 416.859375 274.332031 490.410156 347.824219 490.410156 418.867188 C 490.410156 489.914062 416.859375 531.609375 326.128906 531.609375 C 235.398438 531.609375 161.847656 489.914062 161.847656 418.867188 " fill-opacity="1" fill-rule="nonzero"/><path fill="#000000" d="M 326.128906 276.199219 C 233.167969 276.199219 163.710938 351.519531 163.710938 418.871094 C 163.710938 452.074219 180.054688 480.238281 210.976562 500.324219 C 240.203125 519.296875 281.097656 529.75 326.128906 529.75 C 371.160156 529.75 412.054688 519.296875 441.277344 500.324219 C 472.203125 480.238281 488.546875 452.074219 488.546875 418.871094 C 488.546875 351.519531 419.085938 276.199219 326.128906 276.199219 Z M 326.128906 533.472656 C 280.386719 533.472656 238.769531 522.808594 208.949219 503.445312 C 176.917969 482.640625 159.988281 453.398438 159.988281 418.871094 C 159.988281 383.527344 177.742188 346.972656 208.703125 318.589844 C 241.144531 288.851562 282.847656 272.472656 326.128906 272.472656 C 369.410156 272.472656 411.109375 288.851562 443.550781 318.589844 C 474.515625 346.972656 492.277344 383.527344 492.277344 418.871094 C 492.277344 453.398438 475.339844 482.640625 443.308594 503.445312 C 413.484375 522.808594 371.871094 533.472656 326.128906 533.472656 " fill-opacity="1" fill-rule="nonzero"/><path fill="#000000" d="M 436.578125 397.542969 L 278.378906 397.542969 C 261.945312 397.542969 248.621094 411.523438 248.621094 428.769531 L 248.621094 449.132812 C 248.621094 462.285156 255.832031 476.21875 268.261719 478.496094 C 312.105469 486.519531 402.851562 486.519531 446.691406 478.496094 C 459.128906 476.21875 466.335938 462.285156 466.335938 449.132812 L 466.335938 428.769531 C 466.335938 411.523438 453.011719 397.542969 436.578125 397.542969 " fill-opacity="1" fill-rule="nonzero"/><path fill="#28c76f" d="M 320.304688 438.535156 C 320.304688 444.316406 315.84375 448.996094 310.335938 448.996094 C 304.832031 448.996094 300.367188 444.316406 300.367188 438.535156 C 300.367188 432.761719 304.832031 428.074219 310.335938 428.074219 C 315.84375 428.074219 320.304688 432.761719 320.304688 438.535156 " fill-opacity="1" fill-rule="nonzero"/><path fill="#28c76f" d="M 426.371094 438.535156 C 426.371094 444.316406 421.910156 448.996094 416.402344 448.996094 C 410.898438 448.996094 406.433594 444.316406 406.433594 438.535156 C 406.433594 432.761719 410.898438 428.074219 416.402344 428.074219 C 421.910156 428.074219 426.371094 432.761719 426.371094 438.535156 " fill-opacity="1" fill-rule="nonzero"/><path fill="#000000" d="M 242.152344 651.433594 C 236.875 651.433594 231.589844 651.371094 226.28125 651.238281 C 183.867188 650.167969 164.820312 623.972656 165.074219 600.089844 C 165.351562 574.410156 186.953125 548.324219 227.710938 548.171875 C 227.722656 548.171875 227.734375 548.171875 227.746094 548.171875 C 232.875 548.171875 237.039062 552.3125 237.058594 557.445312 C 237.078125 562.585938 232.925781 566.777344 227.785156 566.796875 C 199.078125 566.910156 183.878906 583.730469 183.703125 600.292969 C 183.535156 615.832031 196.78125 631.859375 226.75 632.613281 C 231.902344 632.746094 237.050781 632.808594 242.171875 632.808594 C 346.867188 632.808594 444.808594 606.4375 509.792969 583.699219 C 583.6875 557.851562 631.800781 531.105469 632.285156 530.84375 C 636.773438 528.324219 642.441406 529.933594 644.960938 534.417969 C 647.472656 538.90625 645.867188 544.582031 641.378906 547.09375 C 639.371094 548.214844 591.355469 574.898438 515.941406 601.285156 C 449.578125 624.507812 349.457031 651.433594 242.152344 651.433594 " fill-opacity="1" fill-rule="nonzero"/><path fill="#ffffff" d="M 951.710938 1030.273438 C 951.710938 1030.273438 976.253906 1038.589844 990.589844 1034.894531 C 990.589844 1034.894531 1008.414062 1049.992188 1008.179688 1057.976562 L 945.824219 1056.792969 L 951.710938 1030.273438 " fill-opacity="1" fill-rule="nonzero"/><path fill="#000000" d="M 948.128906 1054.976562 L 1006.011719 1056.074219 C 1004.324219 1050.707031 995.988281 1042.042969 990.09375 1036.925781 C 977.625 1039.644531 959.148438 1034.535156 953.082031 1032.667969 Z M 1009.984375 1059.871094 L 943.5 1058.617188 L 950.335938 1027.84375 L 952.304688 1028.507812 C 952.550781 1028.589844 976.503906 1036.601562 990.121094 1033.097656 L 991.050781 1032.851562 L 991.789062 1033.480469 C 993.679688 1035.082031 1010.292969 1049.402344 1010.039062 1058.027344 L 1009.984375 1059.871094 " fill-opacity="1" fill-rule="nonzero"/><path fill="#ffffff" d="M 978.449219 1032.152344 C 978.449219 1032.152344 993.828125 1014.25 1000.640625 1013.9375 C 1006.378906 1013.679688 1052.101562 1054.699219 1066.648438 1068.382812 C 1069.226562 1070.800781 1068.136719 1075.109375 1064.683594 1075.96875 C 1056.128906 1078.09375 1036.535156 1078.039062 992.5625 1063.246094 C 990.269531 1062.476562 988.597656 1060.503906 988.261719 1058.136719 L 986.367188 1045.007812 L 995.605469 1043.875 L 978.449219 1032.152344 " fill-opacity="1" fill-rule="nonzero"/><path fill="#000000" d="M 988.480469 1046.621094 L 990.105469 1057.871094 C 990.339844 1059.546875 991.511719 1060.929688 993.15625 1061.480469 C 1038.269531 1076.660156 1057.046875 1075.945312 1064.226562 1074.164062 C 1065.582031 1073.828125 1065.996094 1072.75 1066.113281 1072.304688 C 1066.367188 1071.367188 1066.085938 1070.40625 1065.378906 1069.738281 C 1045.472656 1051.027344 1005.792969 1016.332031 1000.660156 1015.800781 C 996.671875 1015.988281 987.179688 1025.132812 981.226562 1031.800781 L 996.644531 1042.34375 C 997.285156 1042.777344 997.589844 1043.5625 997.410156 1044.316406 C 997.226562 1045.074219 996.589844 1045.632812 995.824219 1045.726562 Z M 1054.945312 1078.828125 C 1043.203125 1078.828125 1023.835938 1075.738281 991.96875 1065.015625 C 988.984375 1064.007812 986.859375 1061.476562 986.410156 1058.402344 L 984.523438 1045.277344 C 984.449219 1044.777344 984.582031 1044.273438 984.890625 1043.875 C 985.195312 1043.480469 985.644531 1043.222656 986.136719 1043.160156 L 990.464844 1042.628906 L 977.394531 1033.691406 C 976.953125 1033.390625 976.664062 1032.921875 976.589844 1032.394531 C 976.523438 1031.871094 976.6875 1031.34375 977.027344 1030.9375 C 979.6875 1027.847656 993.3125 1012.40625 1000.550781 1012.082031 C 1000.582031 1012.074219 1000.609375 1012.074219 1000.640625 1012.074219 C 1008.96875 1012.074219 1067.339844 1066.476562 1067.929688 1067.023438 C 1069.625 1068.621094 1070.308594 1071.003906 1069.71875 1073.25 C 1069.128906 1075.519531 1067.414062 1077.210938 1065.128906 1077.78125 C 1062.621094 1078.398438 1059.308594 1078.828125 1054.945312 1078.828125 " fill-opacity="1" fill-rule="nonzero"/><path fill="#000000" d="M 1023.5 1074.210938 C 1023.308594 1074.210938 1023.117188 1074.179688 1022.921875 1074.117188 C 1021.941406 1073.804688 1021.414062 1072.75 1021.71875 1071.773438 L 1025.636719 1059.671875 C 1025.957031 1058.6875 1027.003906 1058.148438 1027.984375 1058.464844 C 1028.960938 1058.785156 1029.503906 1059.835938 1029.183594 1060.816406 L 1025.265625 1072.917969 C 1025.015625 1073.707031 1024.285156 1074.210938 1023.5 1074.210938 " fill-opacity="1" fill-rule="nonzero"/><path fill="#000000" d="M 1015.800781 1070.964844 C 1015.609375 1070.964844 1015.417969 1070.933594 1015.226562 1070.871094 C 1014.25 1070.550781 1013.714844 1069.507812 1014.03125 1068.527344 L 1017.953125 1056.417969 C 1018.261719 1055.441406 1019.320312 1054.902344 1020.292969 1055.21875 C 1021.269531 1055.539062 1021.808594 1056.59375 1021.492188 1057.570312 L 1017.578125 1069.671875 C 1017.316406 1070.460938 1016.585938 1070.964844 1015.800781 1070.964844 " fill-opacity="1" fill-rule="nonzero"/><path fill="#000000" d="M 1057.113281 1071.21875 C 1056.699219 1071.21875 1056.273438 1071.074219 1055.929688 1070.78125 L 997.503906 1022.160156 C 996.71875 1021.5 996.613281 1020.328125 997.269531 1019.535156 C 997.917969 1018.746094 999.101562 1018.636719 999.890625 1019.296875 L 1058.3125 1067.917969 C 1059.101562 1068.578125 1059.210938 1069.753906 1058.554688 1070.546875 C 1058.1875 1070.988281 1057.65625 1071.21875 1057.113281 1071.21875 " fill-opacity="1" fill-rule="nonzero"/><path fill="#ffffff" d="M 748.082031 1067.214844 C 748.027344 1061.519531 747.929688 1052.511719 747.753906 1040.953125 L 730.34375 1043.367188 L 715.945312 1030.480469 C 715.945312 1030.480469 674.605469 1045.207031 654.582031 1063.816406 C 650.855469 1067.285156 652.742188 1073.445312 657.816406 1074.203125 C 673.085938 1076.472656 708.441406 1078.613281 741.113281 1074.980469 C 745.117188 1074.53125 748.121094 1071.179688 748.082031 1067.214844 " fill-opacity="1" fill-rule="nonzero"/><path fill="#000000" d="M 715.535156 1032.613281 C 709.039062 1035.027344 673.617188 1048.667969 655.855469 1065.183594 C 654.632812 1066.3125 654.195312 1067.917969 654.679688 1069.484375 C 655.160156 1071.039062 656.433594 1072.113281 658.085938 1072.359375 C 673.519531 1074.65625 708.308594 1076.75 740.910156 1073.125 C 743.96875 1072.785156 746.246094 1070.25 746.214844 1067.234375 C 746.171875 1061.890625 746.078125 1053.636719 745.925781 1043.089844 L 730.609375 1045.207031 C 730.0625 1045.292969 729.515625 1045.117188 729.105469 1044.753906 Z M 703.054688 1078.808594 C 683.898438 1078.808594 667.074219 1077.460938 657.539062 1076.042969 C 654.484375 1075.59375 652.027344 1073.496094 651.121094 1070.582031 C 650.214844 1067.667969 651.058594 1064.550781 653.3125 1062.453125 C 673.386719 1043.792969 713.613281 1029.328125 715.3125 1028.726562 C 715.960938 1028.496094 716.675781 1028.640625 717.183594 1029.089844 L 730.949219 1041.398438 L 747.5 1039.109375 C 748.03125 1039.03125 748.566406 1039.1875 748.96875 1039.535156 C 749.375 1039.886719 749.613281 1040.390625 749.621094 1040.921875 C 749.789062 1052.488281 749.890625 1061.503906 749.941406 1067.191406 C 749.941406 1067.195312 749.941406 1067.195312 749.941406 1067.195312 C 749.988281 1072.140625 746.28125 1076.273438 741.324219 1076.832031 C 728.476562 1078.257812 715.292969 1078.808594 703.054688 1078.808594 " fill-opacity="1" fill-rule="nonzero"/><path fill="#000000" d="M 699.097656 1070.320312 C 687.4375 1070.320312 674.015625 1069.847656 661.125 1068.289062 C 660.101562 1068.167969 659.378906 1067.242188 659.5 1066.21875 C 659.621094 1065.195312 660.550781 1064.476562 661.570312 1064.59375 C 694.574219 1068.566406 731.25 1065.410156 731.621094 1065.382812 C 732.648438 1065.304688 733.546875 1066.046875 733.636719 1067.070312 C 733.722656 1068.09375 732.96875 1069.003906 731.941406 1069.089844 C 731.71875 1069.113281 717.652344 1070.320312 699.097656 1070.320312 " fill-opacity="1" fill-rule="nonzero"/><path fill="#000000" d="M 690.917969 1059.808594 C 690.054688 1059.808594 689.285156 1059.214844 689.09375 1058.339844 L 685.800781 1043.035156 C 685.585938 1042.027344 686.226562 1041.039062 687.230469 1040.820312 C 688.238281 1040.605469 689.226562 1041.242188 689.449219 1042.25 L 692.738281 1057.558594 C 692.953125 1058.558594 692.316406 1059.554688 691.308594 1059.765625 C 691.175781 1059.796875 691.042969 1059.808594 690.917969 1059.808594 " fill-opacity="1" fill-rule="nonzero"/><path fill="#000000" d="M 698.605469 1056.5625 C 697.75 1056.5625 696.972656 1055.964844 696.789062 1055.09375 L 693.496094 1039.789062 C 693.28125 1038.78125 693.921875 1037.789062 694.925781 1037.574219 C 695.925781 1037.355469 696.921875 1037.996094 697.136719 1039.003906 L 700.429688 1054.308594 C 700.648438 1055.3125 700.007812 1056.304688 699 1056.523438 C 698.863281 1056.550781 698.738281 1056.5625 698.605469 1056.5625 " fill-opacity="1" fill-rule="nonzero"/><path fill="#000000" d="M 871.855469 883.992188 C 871.019531 883.296875 792.640625 828.136719 771.253906 834.0625 C 734.679688 844.191406 741.808594 951.277344 742.5625 979.589844 C 743.296875 1007.171875 876.257812 924.386719 880.339844 917.128906 C 884.394531 909.953125 886.882812 896.394531 871.855469 883.992188 " fill-opacity="1" fill-rule="nonzero"/><path fill="#000000" d="M 743.773438 972.460938 C 743.65625 972.566406 743.539062 972.667969 743.417969 972.773438 C 720.492188 992.929688 711.054688 1012.992188 712.695312 1038.792969 C 714.292969 1064.027344 750.730469 1082.050781 868.675781 1068.917969 C 893.480469 1065.421875 943.21875 1062.632812 964.734375 1061.964844 C 969.183594 1061.828125 972.710938 1058.203125 972.640625 1053.808594 L 972.339844 1033.828125 C 972.300781 1031.011719 970.769531 1028.433594 968.308594 1027.003906 C 955.292969 1019.449219 921.707031 1000.164062 866.378906 1002.238281 C 864.546875 1002.308594 864.847656 1000.421875 866.636719 1000.035156 C 897.003906 993.457031 943.886719 990.398438 956.992188 979.566406 C 982.378906 958.597656 977.671875 921.390625 972.167969 898.6875 C 956.132812 832.429688 855.992188 901.605469 855.292969 901.765625 C 855.289062 901.773438 855.292969 901.765625 855.289062 901.773438 C 855.089844 901.878906 841.738281 909.519531 824.113281 920.003906 L 743.773438 972.460938 " fill-opacity="1" fill-rule="nonzero"/><path fill="#ffffff" d="M 798.671875 1016.585938 C 798.035156 1016.585938 797.417969 1016.257812 797.074219 1015.667969 C 796.546875 1014.789062 796.832031 1013.644531 797.722656 1013.125 C 798.628906 1012.578125 820.636719 999.804688 874.296875 998.570312 C 875.351562 998.566406 876.183594 999.367188 876.199219 1000.394531 C 876.226562 1001.417969 875.410156 1002.277344 874.375 1002.296875 C 821.863281 1003.507812 799.84375 1016.195312 799.621094 1016.324219 C 799.328125 1016.496094 798.996094 1016.585938 798.671875 1016.585938 " fill-opacity="1" fill-rule="nonzero"/><path fill="#b3f5d1" d="M 750.339844 969.074219 C 749.773438 969.074219 749.21875 968.820312 748.855469 968.335938 C 748.234375 967.515625 748.398438 966.34375 749.21875 965.722656 C 749.859375 965.246094 813.84375 917.328125 858.617188 906.445312 C 859.617188 906.207031 860.621094 906.8125 860.863281 907.816406 C 861.109375 908.816406 860.492188 909.824219 859.5 910.066406 C 815.457031 920.765625 752.09375 968.222656 751.460938 968.699219 C 751.125 968.953125 750.730469 969.074219 750.339844 969.074219 " fill-opacity="1" fill-rule="nonzero"/><path fill="#ffffff" d="M 986.582031 755.929688 C 996.027344 764.054688 1029.871094 806.675781 1024.34375 878.453125 C 1024.261719 879.546875 1024.519531 880.640625 1025.121094 881.566406 C 1028.128906 886.230469 1037.3125 901.601562 1034.367188 911.265625 C 1030.960938 922.441406 1019.292969 946.773438 1015.902344 912.171875 C 1015.816406 911.351562 1014.691406 911.15625 1014.324219 911.894531 C 1012.90625 914.78125 1010.640625 918.757812 1009.140625 918.21875 C 1005.628906 916.945312 1006.855469 898.71875 1007.808594 887.964844 C 1008.753906 877.210938 1010.222656 872.957031 999.332031 846.949219 C 992.621094 830.933594 970.398438 804.429688 961.996094 796.175781 C 961.996094 796.175781 985.558594 755.046875 986.582031 755.929688 " fill-opacity="1" fill-rule="nonzero"/><path fill="#000000" d="M 1009.9375 916.550781 Z M 1015.066406 909.574219 C 1015.222656 909.574219 1015.394531 909.585938 1015.558594 909.617188 C 1016.75 909.835938 1017.632812 910.789062 1017.75 911.992188 C 1019.292969 927.683594 1022.332031 928.164062 1022.460938 928.175781 C 1022.488281 928.183594 1022.527344 928.183594 1022.554688 928.183594 C 1024.945312 928.183594 1029.867188 919.648438 1032.585938 910.722656 C 1034.742188 903.636719 1029.335938 891.539062 1023.554688 882.578125 C 1022.742188 881.3125 1022.367188 879.835938 1022.484375 878.308594 C 1027.546875 812.65625 998.902344 770.257812 986.695312 758.542969 C 983.117188 763.570312 971.777344 782.878906 964.316406 795.871094 C 972.769531 804.523438 994.285156 830.089844 1001.042969 846.234375 C 1011.324219 870.761719 1010.777344 876.453125 1009.871094 885.871094 C 1009.800781 886.59375 1009.734375 887.34375 1009.664062 888.128906 C 1007.839844 908.777344 1008.957031 914.476562 1009.621094 916.03125 C 1010.160156 915.453125 1011.164062 914.101562 1012.652344 911.078125 C 1013.117188 910.136719 1014.050781 909.574219 1015.066406 909.574219 Z M 1022.511719 931.90625 C 1022.375 931.90625 1022.238281 931.894531 1022.085938 931.882812 C 1018.1875 931.5 1015.78125 926.460938 1014.417969 915.679688 C 1012.234375 919.351562 1010.410156 920.660156 1008.511719 919.972656 C 1005.988281 919.054688 1003.488281 915.742188 1005.949219 887.800781 C 1006.023438 887.011719 1006.09375 886.25 1006.164062 885.515625 C 1007.042969 876.375 1007.53125 871.34375 997.609375 847.671875 C 991.207031 832.386719 969.859375 806.511719 960.6875 797.503906 L 959.660156 796.5 L 960.375 795.25 C 983.722656 754.511719 985.15625 754.261719 986.214844 754.082031 L 987.082031 753.933594 L 987.800781 754.519531 C 999.46875 764.5625 1031.566406 808.90625 1026.195312 878.597656 C 1026.144531 879.304688 1026.316406 879.980469 1026.683594 880.558594 C 1030.5625 886.570312 1039.246094 901.648438 1036.152344 911.808594 C 1035.898438 912.640625 1029.9375 931.90625 1022.511719 931.90625 " fill-opacity="1" fill-rule="nonzero"/><path fill="#ffffff" d="M 773.375 742.496094 C 773.375 742.496094 740.378906 753.152344 726.804688 751.808594 C 707.714844 749.917969 686.59375 692.59375 685.121094 688.652344 C 683.652344 684.714844 678.582031 663.617188 673.628906 656.511719 C 668.976562 649.835938 665.636719 642.769531 663.769531 638.398438 C 662.640625 635.761719 660.519531 634.742188 658.683594 635.332031 C 657.074219 635.851562 654.257812 638.339844 655.878906 642.28125 C 657.753906 646.839844 659.511719 651.445312 661.074219 655.351562 C 661.566406 656.582031 662.296875 657.699219 661.230469 656.945312 C 658.757812 655.183594 655.636719 653.5625 653.589844 654.699219 C 649.761719 656.816406 647.703125 671.070312 653.886719 681.074219 C 660.078125 691.078125 666.871094 688.730469 668.933594 693.582031 C 670.996094 698.433594 688.117188 761.445312 695.144531 772.34375 C 705.253906 788.011719 775.914062 789.707031 786.519531 789.402344 C 797.125 789.097656 773.375 742.496094 773.375 742.496094 " fill-opacity="1" fill-rule="nonzero"/><path fill="#000000" d="M 655.171875 656.183594 C 654.882812 656.183594 654.664062 656.230469 654.5 656.324219 C 654.078125 656.554688 653.199219 657.617188 652.535156 660.15625 C 651.191406 665.296875 651.539062 673.730469 655.472656 680.089844 C 658.734375 685.367188 662.023438 686.820312 664.921875 688.097656 C 667.269531 689.140625 669.488281 690.117188 670.648438 692.855469 C 671.257812 694.28125 672.789062 699.417969 675.664062 709.140625 C 681.722656 729.585938 691.855469 763.804688 696.707031 771.332031 C 705.628906 785.160156 769.988281 787.992188 786.46875 787.542969 C 786.832031 787.53125 786.917969 787.429688 787.019531 787.265625 C 789.566406 782.96875 780.230469 760.316406 772.425781 744.75 C 765.679688 746.851562 738.910156 754.871094 726.625 753.667969 C 708.078125 751.828125 688.890625 704.089844 683.453125 689.503906 L 683.378906 689.308594 C 682.972656 688.230469 682.382812 686.179688 681.566406 683.324219 C 679.339844 675.582031 675.613281 662.617188 672.101562 657.578125 C 667.484375 650.953125 664.09375 643.890625 662.058594 639.128906 C 661.398438 637.589844 660.269531 636.773438 659.257812 637.109375 C 658.816406 637.246094 657.957031 637.820312 657.527344 638.75 C 657.144531 639.574219 657.167969 640.523438 657.601562 641.574219 C 658.78125 644.449219 659.921875 647.34375 660.992188 650.070312 C 661.617188 651.671875 662.226562 653.214844 662.804688 654.660156 C 662.90625 654.921875 663.023438 655.175781 663.125 655.402344 C 663.503906 656.238281 664.140625 657.617188 662.9375 658.613281 C 662.390625 659.058594 661.46875 659.394531 660.152344 658.464844 C 657.78125 656.773438 656.132812 656.183594 655.171875 656.183594 Z M 786.082031 791.269531 C 779.269531 791.269531 704.75 790.667969 693.578125 773.351562 C 688.433594 765.378906 678.597656 732.175781 672.09375 710.199219 C 669.683594 702.046875 667.773438 695.613281 667.222656 694.3125 C 666.660156 692.988281 665.585938 692.464844 663.410156 691.503906 C 660.355469 690.15625 656.171875 688.308594 652.300781 682.050781 C 647.765625 674.714844 647.34375 665.296875 648.929688 659.214844 C 649.496094 657.046875 650.605469 654.214844 652.691406 653.066406 C 654.175781 652.242188 656.011719 652.253906 658.179688 653.101562 C 657.960938 652.550781 657.746094 651.996094 657.523438 651.425781 C 656.457031 648.71875 655.328125 645.851562 654.15625 642.992188 C 653.105469 640.433594 653.570312 638.421875 654.148438 637.183594 C 655.089844 635.144531 656.878906 633.960938 658.117188 633.5625 C 661.019531 632.621094 664.046875 634.3125 665.480469 637.664062 C 667.449219 642.261719 670.726562 649.082031 675.15625 655.449219 C 679.027344 660.992188 682.707031 673.8125 685.148438 682.296875 C 685.914062 684.960938 686.515625 687.070312 686.867188 688 L 686.941406 688.203125 C 697.261719 715.882812 713.945312 748.664062 726.992188 749.960938 C 740.019531 751.269531 772.472656 740.828125 772.804688 740.722656 L 774.3125 740.234375 L 775.035156 741.652344 C 778.378906 748.214844 794.84375 781.375 790.222656 789.164062 C 789.449219 790.476562 788.152344 791.214844 786.570312 791.265625 C 786.539062 791.265625 786.371094 791.269531 786.082031 791.269531 " fill-opacity="1" fill-rule="nonzero"/><path fill="#28c76f" d="M 964.707031 806.585938 C 963.140625 805.445312 958.996094 802.039062 957.828125 801.378906 C 956 800.347656 953.734375 801.632812 953.710938 803.703125 C 953.53125 817.195312 953.71875 856.113281 960.667969 869.199219 C 963.597656 874.710938 966.378906 878.976562 968.515625 884.054688 C 972.222656 892.875 972.613281 895.089844 971.667969 897.414062 C 970.707031 899.78125 962.964844 901.945312 959.796875 903.144531 C 930.828125 914.117188 873.414062 925.792969 865.84375 894.289062 C 861.539062 876.402344 858.480469 863.753906 845.160156 840.4375 C 841.652344 834.304688 834.480469 836.203125 824.25 826.679688 C 818.316406 821.160156 818.257812 815.882812 815.882812 807.667969 C 814.21875 801.871094 812.835938 800.851562 786.195312 795.308594 C 785.589844 795.179688 759.210938 738.433594 759.210938 738.433594 C 759.210938 738.433594 830.425781 709.816406 864.980469 705.492188 C 938.867188 696.234375 972.164062 728.59375 994.644531 761.339844 C 995.535156 762.636719 965.949219 807.488281 964.707031 806.585938 " fill-opacity="1" fill-rule="nonzero"/><path fill="#ffffff" d="M 942.050781 859.585938 C 941.429688 859.585938 940.816406 859.273438 940.464844 858.699219 C 932.929688 846.515625 923.941406 829.464844 921.199219 805.632812 C 916.851562 767.738281 895.949219 739.59375 895.738281 739.316406 C 895.125 738.496094 895.285156 737.328125 896.109375 736.707031 C 896.925781 736.089844 898.097656 736.25 898.714844 737.074219 C 898.933594 737.363281 920.4375 766.320312 924.898438 805.203125 C 927.558594 828.308594 936.308594 844.882812 943.632812 856.746094 C 944.175781 857.617188 943.902344 858.769531 943.027344 859.308594 C 942.722656 859.5 942.386719 859.585938 942.050781 859.585938 " fill-opacity="1" fill-rule="nonzero"/><path fill="#000000" d="M 862.445312 593.042969 C 858.902344 593.996094 855.675781 596.148438 853.492188 599.363281 C 849.796875 604.808594 850.132812 611.679688 853.777344 616.703125 C 850.984375 619.027344 848.988281 622.296875 848.402344 626.121094 C 847.425781 632.566406 850.710938 638.65625 856.195312 641.714844 C 854.664062 644.96875 854.28125 648.753906 855.414062 652.457031 C 857.316406 658.703125 862.941406 662.871094 869.238281 663.382812 C 869.265625 666.964844 870.554688 670.550781 873.1875 673.441406 C 875.394531 675.871094 878.214844 677.445312 881.222656 678.167969 C 881.660156 678.597656 882.121094 679.019531 882.625 679.40625 C 887.867188 683.464844 894.933594 683.734375 900.386719 680.640625 C 902.523438 683.554688 905.695312 685.769531 909.550781 686.667969 C 916.070312 688.191406 922.589844 685.53125 926.1875 680.476562 C 929.390625 682.242188 933.226562 682.949219 937.109375 682.171875 C 943.667969 680.871094 948.433594 675.773438 949.5 669.714844 C 953.167969 670 956.949219 669.054688 960.140625 666.757812 C 965.523438 662.875 967.617188 656.304688 965.957031 650.367188 C 969.402344 649.117188 972.421875 646.707031 974.3125 643.308594 C 977.503906 637.582031 976.554688 630.761719 972.472656 626.070312 C 975.054688 623.511719 976.746094 620.085938 976.984375 616.230469 C 977.394531 609.726562 973.570312 603.929688 967.835938 601.359375 C 969.058594 597.984375 969.105469 594.179688 967.652344 590.589844 C 965.1875 584.527344 959.214844 580.847656 952.902344 580.875 C 952.546875 577.308594 950.941406 573.847656 948.058594 571.191406 C 943.199219 566.710938 936.1875 565.832031 930.476562 568.453125 C 928.609375 565.367188 925.640625 562.890625 921.886719 561.667969 C 915.53125 559.597656 908.796875 561.699219 904.757812 566.429688 C 901.726562 564.394531 897.972656 563.367188 894.027344 563.8125 C 887.382812 564.554688 882.183594 569.226562 880.578125 575.171875 C 876.945312 574.574219 873.09375 575.195312 869.710938 577.214844 C 864.003906 580.621094 861.324219 586.988281 862.445312 593.042969 " fill-opacity="1" fill-rule="nonzero"/><path fill="#ffffff" d="M 858.378906 639.148438 C 856.816406 638.199219 854.75 638.917969 854.148438 640.617188 C 853.820312 641.546875 853.492188 642.480469 853.257812 643.117188 C 852.640625 644.792969 851.371094 650.425781 846.0625 655.996094 C 845.554688 656.527344 845.550781 657.347656 846.03125 657.910156 C 847.109375 659.164062 848.929688 661.277344 849.722656 662.203125 C 849.980469 662.503906 850.097656 662.882812 850.042969 663.261719 C 849.71875 665.640625 848.558594 674.347656 848.613281 676.007812 C 848.679688 677.941406 849.976562 679.816406 850.679688 680.324219 C 852.542969 681.671875 861.417969 681.78125 861.417969 681.78125 C 861.417969 681.78125 863.726562 682.320312 866.558594 695.117188 C 868.550781 704.125 854.75 713.480469 854.75 713.480469 C 854.75 713.480469 885.765625 725.671875 911.867188 715.074219 C 913.480469 714.417969 913.570312 712.160156 912.171875 711.136719 C 906.628906 707.078125 894.695312 697.195312 889.921875 684.332031 C 889.640625 683.5625 889.046875 682.9375 888.273438 682.613281 C 885.113281 681.308594 876.476562 678.917969 878.027344 664.742188 C 878.066406 664.390625 878.203125 664.046875 878.417969 663.757812 C 880.234375 661.300781 888.625 649.09375 874.257812 650.804688 C 864.777344 651.933594 861.890625 645.175781 861.078125 642.078125 C 860.808594 641.066406 860.128906 640.199219 859.207031 639.644531 L 858.378906 639.148438 " fill-opacity="1" fill-rule="nonzero"/><path fill="#000000" d="M 858.640625 712.851562 C 867.121094 715.523438 890.867188 721.585938 911.167969 713.347656 C 911.207031 713.332031 911.269531 713.308594 911.285156 713.160156 C 911.308594 713.007812 911.265625 712.78125 911.070312 712.636719 C 904.601562 707.898438 893.015625 698 888.175781 684.980469 C 888.066406 684.6875 887.847656 684.453125 887.558594 684.339844 C 887.363281 684.257812 887.15625 684.179688 886.921875 684.085938 C 883.226562 682.632812 874.574219 679.230469 876.179688 664.539062 C 876.246094 663.863281 876.507812 663.210938 876.917969 662.652344 C 879.757812 658.8125 881.226562 655.011719 880.414062 653.609375 C 879.839844 652.621094 877.675781 652.269531 874.476562 652.648438 C 863.207031 653.984375 859.988281 645.261719 859.273438 642.554688 C 859.132812 642.027344 858.761719 641.546875 858.242188 641.238281 L 857.417969 640.738281 C 857.414062 640.738281 857.414062 640.738281 857.414062 640.738281 C 857.144531 640.578125 856.808594 640.539062 856.5 640.648438 C 856.335938 640.707031 856.03125 640.867188 855.902344 641.230469 C 855.578125 642.171875 855.242188 643.109375 855.011719 643.753906 C 854.933594 643.949219 854.851562 644.207031 854.753906 644.515625 C 853.984375 646.9375 852.386719 651.921875 847.691406 656.984375 L 851.136719 660.996094 C 851.742188 661.6875 852.011719 662.609375 851.890625 663.515625 C 851.011719 669.976562 850.445312 674.972656 850.472656 675.945312 C 850.515625 677.269531 851.480469 678.582031 851.78125 678.820312 C 852.597656 679.347656 857.125 679.867188 861.445312 679.917969 C 861.574219 679.917969 861.714844 679.9375 861.84375 679.96875 C 864.136719 680.503906 866.332031 685.460938 868.378906 694.71875 C 870.015625 702.125 862.847656 709.347656 858.640625 712.851562 Z M 887.679688 721.296875 C 869.835938 721.296875 854.960938 715.570312 854.066406 715.21875 C 853.425781 714.96875 852.96875 714.378906 852.898438 713.691406 C 852.824219 713.007812 853.128906 712.332031 853.703125 711.941406 C 857.246094 709.527344 866.144531 701.882812 864.738281 695.523438 C 862.855469 687.003906 861.289062 684.355469 860.734375 683.632812 C 857.597656 683.570312 851.550781 683.253906 849.585938 681.828125 C 848.496094 681.035156 846.835938 678.65625 846.753906 676.070312 C 846.695312 674.417969 847.59375 667.433594 848.167969 663.242188 L 844.617188 659.125 C 843.503906 657.835938 843.550781 655.9375 844.71875 654.710938 C 849.039062 650.160156 850.503906 645.585938 851.210938 643.382812 C 851.328125 643.019531 851.421875 642.710938 851.503906 642.472656 C 851.742188 641.84375 852.070312 640.917969 852.390625 640 C 852.859375 638.664062 853.902344 637.625 855.25 637.140625 C 856.609375 636.652344 858.105469 636.800781 859.34375 637.546875 L 860.167969 638.046875 C 861.519531 638.863281 862.484375 640.121094 862.878906 641.597656 C 863.710938 644.742188 866.246094 649.867188 874.035156 648.953125 C 879.058594 648.351562 882.203125 649.265625 883.636719 651.742188 C 885.925781 655.6875 882.285156 661.660156 879.917969 664.863281 C 878.589844 676.800781 884.898438 679.28125 888.292969 680.617188 C 888.539062 680.71875 888.773438 680.808594 888.988281 680.894531 C 890.222656 681.40625 891.199219 682.425781 891.667969 683.683594 C 896.335938 696.238281 908.328125 706.011719 913.273438 709.632812 C 914.519531 710.546875 915.175781 712.074219 914.984375 713.613281 C 914.800781 715.066406 913.902344 716.257812 912.566406 716.800781 C 904.34375 720.136719 895.714844 721.296875 887.679688 721.296875 " fill-opacity="1" fill-rule="nonzero"/><path fill="#000000" d="M 875.074219 666.800781 C 874.683594 666.800781 874.328125 666.765625 874.023438 666.722656 C 871.847656 666.375 869.777344 664.957031 869.398438 663.554688 C 869.132812 662.558594 869.722656 661.542969 870.722656 661.273438 C 871.59375 661.046875 872.480469 661.464844 872.867188 662.25 C 873.152344 662.511719 874.132812 663.148438 875.246094 663.070312 C 876.257812 663.007812 877.167969 662.363281 877.964844 661.136719 C 878.519531 660.273438 879.679688 660.023438 880.535156 660.582031 C 881.40625 661.144531 881.648438 662.292969 881.09375 663.160156 C 879.148438 666.152344 876.761719 666.800781 875.074219 666.800781 " fill-opacity="1" fill-rule="nonzero"/><path fill="#28c76f" d="M 870.214844 669.585938 C 870.492188 668.324219 871.765625 667.53125 873.046875 667.808594 C 874.324219 668.085938 875.132812 669.339844 874.847656 670.597656 C 874.5625 671.859375 873.296875 672.652344 872.019531 672.375 C 870.738281 672.097656 869.933594 670.847656 870.214844 669.585938 " fill-opacity="1" fill-rule="nonzero"/><path fill="#b3f5d1" d="M 185.796875 857.726562 C 185.796875 867.292969 177.832031 875.054688 168.003906 875.054688 C 158.175781 875.054688 150.207031 867.292969 150.207031 857.726562 C 150.207031 848.152344 158.175781 840.402344 168.003906 840.402344 C 177.832031 840.402344 185.796875 848.152344 185.796875 857.726562 " fill-opacity="1" fill-rule="nonzero"/><path fill="#000000" d="M 1038.996094 111.871094 C 1038.507812 111.871094 1038.027344 111.691406 1037.664062 111.308594 C 1036.945312 110.570312 1036.960938 109.390625 1037.703125 108.671875 L 1044.699219 101.855469 C 1045.433594 101.144531 1046.617188 101.160156 1047.328125 101.894531 C 1048.046875 102.632812 1048.035156 103.8125 1047.292969 104.53125 L 1040.292969 111.347656 C 1039.933594 111.695312 1039.460938 111.871094 1038.996094 111.871094 " fill-opacity="1" fill-rule="nonzero"/><path fill="#000000" d="M 1022.695312 127.75 C 1022.207031 127.75 1021.71875 127.5625 1021.355469 127.183594 C 1020.636719 126.445312 1020.652344 125.269531 1021.390625 124.550781 L 1028.394531 117.734375 C 1029.132812 117.015625 1030.308594 117.03125 1031.027344 117.769531 C 1031.742188 118.507812 1031.726562 119.683594 1030.996094 120.398438 L 1023.992188 127.21875 C 1023.625 127.570312 1023.160156 127.75 1022.695312 127.75 " fill-opacity="1" fill-rule="nonzero"/><path fill="#000000" d="M 1029.695312 111.867188 C 1029.222656 111.867188 1028.757812 111.6875 1028.390625 111.335938 L 1021.386719 104.519531 C 1020.652344 103.800781 1020.640625 102.625 1021.359375 101.882812 C 1022.070312 101.148438 1023.253906 101.136719 1023.996094 101.847656 L 1030.996094 108.671875 C 1031.726562 109.382812 1031.746094 110.566406 1031.03125 111.300781 C 1030.667969 111.679688 1030.179688 111.867188 1029.695312 111.867188 " fill-opacity="1" fill-rule="nonzero"/><path fill="#000000" d="M 1046.003906 127.753906 C 1045.535156 127.753906 1045.066406 127.570312 1044.703125 127.226562 L 1037.707031 120.410156 C 1036.960938 119.6875 1036.953125 118.507812 1037.671875 117.773438 C 1038.386719 117.03125 1039.566406 117.015625 1040.304688 117.738281 L 1047.300781 124.554688 C 1048.039062 125.269531 1048.054688 126.449219 1047.339844 127.191406 C 1046.96875 127.566406 1046.484375 127.753906 1046.003906 127.753906 " fill-opacity="1" fill-rule="nonzero"/><path fill="#000000" d="M 239.496094 931.910156 L 227.585938 931.910156 C 226.554688 931.910156 225.722656 931.074219 225.722656 930.046875 C 225.722656 929.015625 226.554688 928.183594 227.585938 928.183594 L 239.496094 928.183594 C 240.523438 928.183594 241.359375 929.015625 241.359375 930.046875 C 241.359375 931.074219 240.523438 931.910156 239.496094 931.910156 " fill-opacity="1" fill-rule="nonzero"/><path fill="#000000" d="M 211.75 931.910156 L 199.839844 931.910156 C 198.808594 931.910156 197.976562 931.074219 197.976562 930.046875 C 197.976562 929.015625 198.808594 928.183594 199.839844 928.183594 L 211.75 928.183594 C 212.777344 928.183594 213.613281 929.015625 213.613281 930.046875 C 213.613281 931.074219 212.777344 931.910156 211.75 931.910156 " fill-opacity="1" fill-rule="nonzero"/><path fill="#000000" d="M 219.667969 924.195312 C 218.636719 924.195312 217.804688 923.363281 217.804688 922.339844 L 217.804688 910.738281 C 217.804688 909.707031 218.636719 908.878906 219.667969 908.878906 C 220.695312 908.878906 221.53125 909.707031 221.53125 910.738281 L 221.53125 922.339844 C 221.53125 923.363281 220.695312 924.195312 219.667969 924.195312 " fill-opacity="1" fill-rule="nonzero"/><path fill="#000000" d="M 219.667969 951.210938 C 218.636719 951.210938 217.804688 950.375 217.804688 949.347656 L 217.804688 937.753906 C 217.804688 936.722656 218.636719 935.890625 219.667969 935.890625 C 220.695312 935.890625 221.53125 936.722656 221.53125 937.753906 L 221.53125 949.347656 C 221.53125 950.375 220.695312 951.210938 219.667969 951.210938 " fill-opacity="1" fill-rule="nonzero"/><g fill="#ffffff" fill-opacity="1"><g transform="translate(1133.03614, 1046.357303)"><g><path d="M 0.234375 -0.046875 L 0.265625 -0.015625 C 0.253906 -0.015625 0.238281 -0.0078125 0.21875 0 C 0.207031 0.0078125 0.191406 0.015625 0.171875 0.015625 C 0.109375 0.015625 0.078125 -0.0195312 0.078125 -0.09375 L 0.078125 -0.3125 L 0.015625 -0.3125 L 0.015625 -0.359375 L 0.078125 -0.359375 L 0.078125 -0.4375 L 0.140625 -0.453125 L 0.140625 -0.359375 L 0.25 -0.359375 L 0.25 -0.3125 L 0.140625 -0.3125 L 0.140625 -0.109375 C 0.140625 -0.0664062 0.15625 -0.046875 0.1875 -0.046875 C 0.207031 -0.046875 0.222656 -0.046875 0.234375 -0.046875 Z M 0.234375 -0.046875 "/></g></g></g></svg>