<svg xmlns="http://www.w3.org/2000/svg" xmlns:xlink="http://www.w3.org/1999/xlink" width="1000" zoomAndPan="magnify" viewBox="0 0 750 489.749987" height="653" preserveAspectRatio="xMidYMid meet" version="1.0"><defs><g/><clipPath id="59b45b6a68"><path d="M 1 81 L 749.808594 81 L 749.808594 453 L 1 453 Z M 1 81 " clip-rule="nonzero"/></clipPath><clipPath id="3ad15c7fd4"><path d="M 184 36.261719 L 364 36.261719 L 364 181 L 184 181 Z M 184 36.261719 " clip-rule="nonzero"/></clipPath></defs><g clip-path="url(#59b45b6a68)"><path fill="#dcd6f7" d="M 711.914062 144.46875 C 703.21875 145.945312 695.425781 146.519531 687.386719 142.828125 C 681.8125 136.597656 673.445312 141.84375 667.292969 137.992188 C 667.210938 137.007812 667.210938 136.023438 667.128906 134.957031 C 660.976562 128.398438 654.167969 134.546875 647.6875 133.972656 C 638.09375 136.761719 628.25 142.335938 620.621094 130.203125 C 619.964844 129.136719 616.683594 128.398438 615.453125 129.054688 C 603.886719 134.792969 592.898438 124.792969 580.265625 129.464844 C 582.726562 123.644531 590.601562 125.039062 589.78125 118.886719 C 571.078125 108.476562 554.34375 115.691406 537.941406 124.710938 C 529 129.546875 520.46875 135.039062 511.691406 140.203125 C 509.722656 141.679688 509.3125 143.8125 509.722656 146.109375 C 509.804688 147.335938 511.773438 148.566406 509.640625 149.714844 C 508.902344 150.042969 508.082031 150.371094 507.34375 150.78125 C 507.34375 150.699219 507.34375 150.535156 507.34375 150.453125 C 506.769531 145.453125 507.425781 140.203125 505.460938 135.53125 C 505.460938 134.382812 505.460938 133.152344 505.460938 132.007812 C 504.722656 131.679688 503.984375 131.597656 503.246094 131.761719 C 492.335938 133.398438 497.832031 143.15625 494.714844 148.730469 C 490.613281 146.027344 485.527344 140.449219 481.507812 143.648438 C 472.566406 150.863281 461.578125 147.664062 452.308594 151.847656 C 448.78125 149.878906 445.910156 150.371094 443.613281 153.816406 C 442.792969 154.304688 441.972656 154.386719 441.070312 154.222656 C 438.363281 156.4375 435.738281 157.75 433.195312 157.503906 C 434.835938 157.011719 436.558594 155.699219 438.199219 154.140625 C 420.890625 135.449219 394.316406 133.5625 382.339844 155.617188 C 379.304688 161.113281 374.957031 165.621094 369.21875 167.835938 C 363.476562 169.964844 364.378906 174.230469 364.542969 178.164062 C 364.625 183.164062 368.726562 182.183594 371.925781 181.9375 C 376.597656 181.527344 379.140625 183.246094 378.976562 188.167969 C 369.875 189.644531 366.675781 199.234375 359.128906 202.84375 C 357.980469 202.597656 356.914062 202.433594 355.847656 202.1875 C 354.863281 197.351562 355.273438 190.625 347.152344 196.203125 C 338.949219 205.136719 351.171875 203.746094 352.894531 207.679688 C 348.875 208.582031 345.675781 209.730469 349.449219 214.648438 C 351.828125 217.683594 352.648438 221.042969 349.449219 224.242188 C 347.152344 224.242188 344.773438 224.324219 342.476562 224.324219 C 336.652344 221.125 336.488281 225.0625 336.242188 229.160156 C 335.996094 234.324219 333.535156 240.394531 341.902344 241.539062 C 342.722656 242.277344 343.460938 242.769531 344.28125 243.015625 C 343.460938 243.589844 342.640625 244.246094 341.902344 244.902344 C 332.796875 251.625 327.550781 261.792969 321.972656 270.890625 C 314.34375 283.519531 321.5625 294.832031 329.601562 305.410156 C 336.242188 314.097656 344.28125 313.363281 353.386719 311.558594 C 363.148438 309.671875 376.269531 303.277344 373.648438 323.28125 C 373.15625 326.726562 376.515625 326.316406 377.910156 327.875 C 382.257812 332.628906 385.046875 339.351562 382.914062 344.515625 C 376.351562 360.503906 385.046875 373.457031 389.886719 386.902344 C 393.90625 397.972656 404.324219 399.285156 413.019531 390.921875 C 415.070312 389.035156 416.710938 386.65625 418.511719 384.527344 C 426.140625 375.589844 425.730469 361.816406 437.050781 354.765625 C 439.265625 353.371094 439.839844 346.894531 435.492188 343.613281 C 435.492188 338.941406 435.410156 334.1875 435.410156 329.511719 C 441.972656 318.445312 456.492188 312.789062 457.804688 296.71875 C 452.554688 297.292969 447.222656 301.0625 443.613281 295.40625 L 443.859375 295.570312 C 443.777344 295.488281 443.777344 295.40625 443.695312 295.324219 C 454.277344 286.960938 476.421875 291.390625 473.714844 268.269531 C 473.714844 268.023438 475.109375 267.285156 475.847656 267.285156 C 483.394531 267.777344 490.777344 264.988281 498.242188 271.546875 C 508.246094 280.320312 508.492188 293.519531 515.957031 304.34375 C 522.683594 294.996094 524.652344 283.273438 535.070312 277.453125 C 540.320312 274.5 543.4375 270.972656 547.046875 279.992188 C 549.425781 285.894531 553.277344 292.535156 560.003906 295.980469 C 564.679688 299.914062 567.058594 308.277344 575.589844 304.753906 C 583.875 301.308594 582.316406 294.585938 580.101562 288.109375 C 577.804688 281.304688 582.972656 280.402344 587.402344 278.84375 C 596.09375 275.648438 603.476562 271.054688 605.035156 260.890625 C 609.054688 254.25 599.210938 245.96875 607.660156 239.902344 C 605.445312 231.292969 610.695312 235.226562 614.058594 236.046875 C 614.960938 237.03125 615.945312 237.933594 616.929688 238.917969 C 617.011719 240.558594 617.011719 242.195312 617.09375 243.917969 C 619.308594 244.65625 621.605469 245.3125 623 242.523438 C 624.148438 240.148438 623.164062 238.917969 621.769531 237.769531 C 622.015625 237.605469 622.179688 237.441406 622.425781 237.195312 C 629.726562 227.519531 644.242188 225.636719 648.507812 212.84375 C 649.984375 207.433594 652.855469 201.859375 647.03125 197.023438 C 643.503906 196.285156 638.417969 197.1875 637.84375 192.429688 C 637.355469 188.660156 642.4375 188.742188 644.652344 186.691406 C 658.433594 173.820312 679.105469 182.757812 693.210938 171.03125 C 697.640625 174.886719 702.726562 176.113281 708.386719 174.476562 C 712.816406 173.328125 717.246094 172.179688 721.675781 171.03125 C 726.347656 169.0625 725.53125 162.503906 730.285156 160.621094 C 732.992188 155.371094 736.027344 157.996094 739.226562 160.046875 C 744.394531 163.324219 747.839844 161.929688 749.808594 155.863281 C 736.765625 152.503906 725.777344 142.171875 711.914062 144.46875 Z M 394.316406 176.605469 C 395.054688 171.523438 394.480469 166.359375 398.992188 162.667969 C 400.714844 161.4375 402.109375 159.308594 404.242188 159.0625 C 401.289062 160.621094 398.828125 162.832031 396.941406 165.539062 C 395.628906 168.816406 395.710938 171.769531 398.5 174.3125 C 399.648438 174.886719 400.796875 175.132812 402.027344 175.050781 C 403.832031 174.96875 405.71875 174.230469 407.605469 175.132812 C 406.703125 176.851562 404.652344 177.179688 403.175781 178.328125 C 398.582031 181.527344 395.546875 185.789062 394.316406 191.363281 C 392.347656 195.300781 389.640625 192.59375 387.097656 192.265625 C 385.292969 191.199219 383.980469 189.726562 382.503906 188.332031 C 390.707031 189.398438 393.414062 183.410156 394.316406 176.605469 Z M 417.777344 248.507812 C 404.488281 246.296875 388.410156 256.542969 377.992188 239.984375 C 375.695312 236.292969 370.777344 236.210938 366.511719 236.949219 C 362.082031 238.179688 357.324219 238.589844 352.8125 239.65625 C 355.027344 236.867188 356.75 233.917969 356.832031 230.226562 C 363.96875 229.898438 370.203125 224.734375 377.664062 226.703125 C 378.320312 226.621094 378.976562 226.703125 379.632812 226.78125 C 384.554688 234.242188 385.785156 234.816406 389.148438 230.554688 C 399.15625 241.457031 412.9375 242.523438 426.222656 244.984375 C 423.433594 247.117188 420.726562 249 417.777344 248.507812 Z M 663.4375 367.226562 C 674.511719 378.296875 675.085938 391.332031 664.75 403.136719 C 659.335938 409.285156 650.230469 409.695312 645.472656 403.300781 C 635.304688 389.855469 623.574219 389.363281 610.039062 395.675781 C 603.3125 398.792969 596.75 400.1875 593.226562 392.398438 C 589.863281 385.019531 584.859375 375.671875 594.046875 369.441406 C 604.296875 362.472656 613.320312 353.207031 626.035156 350.253906 C 630.792969 349.191406 634.484375 348.945312 637.765625 354.4375 C 640.140625 358.453125 645.964844 362.554688 647.933594 352.878906 C 649.492188 350.746094 651.460938 350.746094 653.511719 352.058594 C 656.382812 357.386719 658.925781 362.71875 663.4375 367.226562 Z M 690.339844 182.59375 C 690.257812 182.59375 690.257812 182.675781 690.339844 182.59375 C 690.257812 182.511719 690.175781 182.511719 690.175781 182.429688 Z M 301.875 92.40625 C 302.777344 93.226562 303.761719 93.964844 304.664062 94.785156 C 301.710938 98.144531 298.921875 98.636719 296.296875 94.457031 C 298.019531 93.308594 299.824219 92.488281 301.875 92.40625 Z M 188.683594 304.261719 C 203.773438 296.472656 217.472656 298.441406 232.15625 307.457031 C 245.03125 315.328125 255.367188 327.710938 272.101562 329.839844 C 280.140625 330.824219 285.964844 336.644531 276.695312 345.582031 C 270.296875 351.730469 272.839844 362.308594 265.292969 369.03125 C 246.917969 385.511719 231.007812 404.613281 213.945312 422.40625 C 207.957031 428.636719 212.960938 435.523438 207.957031 440.277344 C 206.808594 444.132812 213.78125 447.738281 208.777344 451.183594 C 206.398438 452.820312 202.296875 452.410156 200.65625 448.476562 C 191.882812 433.554688 199.015625 418.222656 200.492188 403.382812 C 201.476562 393.382812 203.28125 383.132812 205.085938 373.128906 C 206.5625 365.421875 205.167969 359.929688 196.96875 356.242188 C 188.765625 352.550781 183.597656 331.398438 186.878906 322.542969 C 189.175781 316.804688 193.605469 310.820312 188.683594 304.261719 Z M 316.886719 100.769531 C 315.65625 96.914062 312.539062 95.195312 309.175781 93.71875 C 308.109375 93.390625 307.042969 93.144531 305.894531 93.144531 C 304.582031 93.0625 303.105469 93.554688 302.203125 92.160156 C 302.695312 90.191406 303.679688 88.226562 303.433594 86.09375 C 301.710938 79.863281 295.640625 83.140625 292.113281 81.011719 C 286.046875 81.257812 279.894531 82.566406 274.070312 82.566406 C 261.109375 82.730469 250.035156 93.390625 236.585938 88.472656 C 231.746094 86.667969 227.644531 88.0625 223.625 89.945312 C 223.707031 89.453125 223.707031 88.800781 223.625 88.144531 C 223.132812 85.355469 220.917969 84.453125 218.292969 85.109375 C 215.339844 85.847656 212.796875 84.535156 210.089844 83.796875 C 204.019531 84.289062 197.789062 83.960938 191.882812 85.355469 C 182.859375 87.40625 172.359375 85.683594 165.632812 94.457031 C 165.386719 95.113281 165.222656 95.6875 165.140625 96.175781 C 161.695312 99.292969 143.898438 92.570312 157.101562 107 C 154.640625 110.605469 147.015625 114.296875 157.429688 117.496094 C 157.183594 118.3125 157.183594 119.214844 157.429688 120.035156 C 154.394531 122.085938 151.363281 124.136719 148.328125 126.183594 C 142.09375 123.808594 140.042969 130.695312 139.878906 132.660156 C 139.46875 138.402344 144.882812 137.171875 148.738281 137.253906 C 149.804688 139.140625 150.789062 141.023438 151.855469 142.910156 C 147.671875 142.582031 145.949219 145.289062 144.800781 148.648438 L 145.539062 148.8125 L 146.277344 148.566406 C 146.113281 148.8125 145.949219 149.058594 145.785156 149.304688 C 145.457031 149.058594 145.128906 148.8125 144.800781 148.648438 C 141.519531 148.15625 140.453125 145.945312 140.371094 142.992188 C 139.714844 139.304688 132.988281 139.792969 134.628906 134.546875 C 135.367188 130.121094 133.726562 126.347656 131.675781 122.660156 C 129.871094 121.019531 127.984375 119.296875 126.097656 117.660156 C 126.015625 110.605469 121.503906 108.804688 116.171875 107.820312 C 112.644531 112.984375 121.832031 114.953125 117.566406 119.460938 C 116.828125 120.035156 116.007812 120.199219 115.105469 120.035156 C 114.367188 119.378906 113.546875 118.722656 112.808594 118.066406 C 112.644531 118.804688 112.480469 119.542969 112.316406 120.28125 C 112.070312 120.199219 111.824219 120.035156 111.496094 119.953125 C 106.578125 123.5625 99.113281 119.953125 95.011719 125.773438 C 94.355469 129.054688 88.53125 130.367188 91.402344 134.710938 C 93.863281 138.484375 96.652344 136.351562 99.605469 134.792969 C 101.328125 133.890625 103.050781 135.285156 103.871094 137.171875 C 103.625 138.976562 103.460938 140.777344 103.214844 142.582031 C 99.605469 143.730469 95.914062 144.960938 92.304688 146.109375 C 86.890625 145.617188 82.132812 141.925781 76.0625 143.566406 C 61.300781 147.417969 46.863281 143.402344 32.425781 140.449219 C 27.75 140.367188 23.15625 140.367188 18.484375 140.285156 C 7 141.023438 5.851562 151.601562 2.816406 158.898438 C 0.191406 165.046875 10.691406 160.210938 12.332031 166.195312 C 6.671875 165.785156 4.949219 169.144531 4.621094 173.820312 C 3.390625 175.542969 2.242188 177.261719 1.011719 178.902344 C 4.046875 179.066406 7 179.230469 10.035156 179.394531 C 15.859375 180.871094 23.238281 187.265625 27.09375 183.246094 C 33.164062 176.769531 40.054688 177.589844 46.863281 176.277344 C 50.472656 176.605469 54.082031 176.851562 57.691406 177.097656 C 62.203125 181.363281 69.007812 182.511719 72.617188 188.003906 C 72.535156 193.578125 70.484375 201.039062 80.738281 196.367188 C 81.804688 197.351562 82.707031 198.167969 83.773438 199.152344 C 82.542969 206.121094 86.808594 208.992188 92.386719 210.960938 C 89.925781 228.667969 95.585938 242.523438 110.101562 253.59375 C 118.304688 259.824219 124.785156 268.433594 132.003906 275.894531 C 136.105469 283.847656 142.503906 287.617188 151.527344 286.796875 C 160.054688 291.636719 168.503906 296.472656 177.035156 301.308594 C 183.597656 290.570312 166.207031 288.027344 168.421875 277.042969 C 169.078125 273.597656 163.007812 284.667969 157.183594 282.289062 C 155.542969 281.632812 153.496094 281.878906 151.609375 281.714844 C 147.425781 275.566406 147.179688 268.84375 149.066406 261.957031 C 157.019531 257.691406 165.058594 254.742188 172.851562 256.953125 C 177.527344 258.265625 182.53125 256.296875 185.074219 252.117188 C 191.882812 240.96875 199.261719 230.964844 208.285156 222.109375 C 211.976562 219.730469 215.75 222.519531 219.441406 222.109375 C 219.523438 216.945312 217.390625 213.746094 213.78125 211.945312 C 220.097656 205.957031 231.171875 210.140625 236.503906 202.023438 C 231.910156 192.675781 224.691406 185.707031 216.898438 179.148438 C 212.796875 177.015625 208.53125 175.378906 205.003906 171.933594 C 200.902344 168 195.902344 167.34375 190.898438 170.949219 C 185.730469 177.589844 189.585938 186.9375 184.417969 193.578125 C 181.136719 193.167969 179.988281 190.21875 177.773438 188.660156 C 171.785156 184.394531 161.285156 185.132812 159.070312 177.835938 C 156.527344 169.390625 167.109375 165.867188 170.390625 158.980469 C 170.800781 159.308594 171.210938 159.636719 171.621094 159.882812 C 170.882812 162.914062 171.046875 165.539062 175.148438 165.539062 C 176.953125 165.539062 179.332031 165.046875 178.921875 162.75 C 178.675781 161.519531 176.378906 160.621094 175.066406 159.554688 C 176.542969 157.75 177.9375 155.863281 179.414062 153.980469 C 179.660156 151.273438 179.824219 148.484375 180.070312 145.78125 C 180.152344 145.042969 180.152344 144.304688 180.152344 143.566406 C 182.53125 142.664062 184.828125 141.761719 187.207031 140.859375 C 187.207031 140.859375 187.207031 140.859375 187.207031 140.941406 C 189.832031 146.519531 194.261719 150.371094 198.605469 154.386719 C 195.574219 154.796875 193.523438 156.355469 192.949219 159.964844 C 193.441406 166.113281 199.917969 162.585938 202.214844 165.703125 C 204.265625 170.210938 206.316406 165.292969 208.449219 165.703125 C 210.089844 165.457031 211.15625 164.472656 211.730469 162.914062 C 211.730469 161.195312 211.648438 159.472656 211.648438 157.75 C 214.683594 155.699219 218.210938 161.519531 221.574219 157.011719 C 214.765625 147.910156 206.890625 140.285156 196.96875 134.792969 C 194.589844 127.25 185.566406 122.085938 188.601562 112.492188 C 194.261719 108.558594 196.394531 99.621094 205.414062 100.441406 C 208.613281 99.621094 211.320312 97.734375 214.027344 96.011719 C 213.207031 97.242188 212.796875 98.71875 213.125 100.523438 C 211.320312 105.03125 207.136719 105.441406 203.117188 106.261719 C 198.6875 118.066406 206.480469 117.660156 214.191406 117.414062 C 226.332031 116.101562 234.945312 119.871094 237.324219 132.988281 C 237.816406 135.53125 239.867188 136.679688 242.164062 137.417969 C 238.964844 141.761719 240.277344 145.207031 244.292969 148.15625 C 241.425781 156.847656 244.046875 163.734375 250.363281 170.128906 C 258.894531 178.820312 262.011719 178.410156 265.949219 167.34375 C 267.671875 162.503906 269.476562 158.242188 275.957031 157.09375 C 283.996094 155.699219 289.324219 147.910156 298.347656 146.925781 C 301.546875 146.601562 307.207031 139.550781 306.46875 137.171875 C 303.597656 127.824219 313.113281 122.742188 312.785156 114.625 C 312.457031 109.542969 310.488281 103.882812 316.886719 100.769531 Z M 168.503906 128.890625 C 162.679688 131.105469 157.101562 135.695312 165.304688 141.761719 C 164.648438 142.253906 163.992188 142.828125 163.417969 143.566406 C 163.417969 143.566406 163.417969 143.648438 163.335938 143.648438 C 163.089844 142.992188 162.515625 142.664062 161.695312 142.664062 C 161.695312 142.5 161.777344 142.335938 161.859375 142.171875 C 161.53125 138.8125 160.21875 135.941406 157.675781 133.726562 C 157.429688 133.644531 157.265625 133.5625 157.019531 133.5625 C 158.085938 131.925781 159.480469 130.449219 159.644531 128.5625 C 159.890625 128.234375 160.054688 127.90625 160.300781 127.660156 C 160.957031 126.59375 161.449219 125.445312 161.695312 124.21875 C 161.695312 124.136719 161.695312 124.054688 161.695312 123.972656 C 165.550781 126.839844 169.652344 126.839844 173.917969 123.972656 C 174.738281 119.707031 173.179688 118.804688 170.554688 119.542969 C 170.800781 119.214844 171.046875 118.96875 171.292969 118.640625 C 173.507812 119.871094 175.476562 119.542969 176.789062 116.019531 C 178.757812 118.394531 181.054688 119.625 184.089844 118.96875 C 183.433594 119.871094 182.777344 120.855469 182.367188 121.839844 C 181.628906 123.644531 181.054688 125.445312 180.644531 127.414062 C 180.644531 127.496094 180.644531 127.660156 180.644531 127.742188 C 176.460938 126.101562 171.949219 127.578125 168.503906 128.890625 Z M 188.601562 304.34375 C 188.601562 304.261719 188.519531 304.261719 188.519531 304.261719 C 188.601562 304.261719 188.601562 304.179688 188.683594 304.179688 C 188.683594 304.179688 188.765625 304.261719 188.765625 304.261719 C 188.683594 304.34375 188.601562 304.34375 188.601562 304.34375 Z M 177.035156 301.554688 C 177.117188 301.472656 177.117188 301.390625 177.199219 301.308594 C 177.199219 301.308594 177.199219 301.308594 177.28125 301.308594 C 177.28125 301.390625 177.363281 301.472656 177.363281 301.554688 C 177.199219 301.554688 177.117188 301.554688 177.035156 301.554688 Z M 177.28125 301.554688 C 181.300781 301.308594 185.484375 300.242188 188.519531 304.261719 C 184.007812 306.148438 179.496094 308.277344 177.28125 301.554688 Z M 177.28125 301.554688 " fill-opacity="1" fill-rule="nonzero"/></g><path fill="#112d4e" d="M 185.894531 180.625 C 166.289062 180.625 150.378906 196.53125 150.378906 216.125 C 150.378906 235.71875 166.289062 251.625 185.894531 251.625 C 205.496094 251.625 221.410156 235.71875 221.410156 216.125 C 221.410156 196.53125 205.496094 180.625 185.894531 180.625 Z M 203.9375 232.523438 L 167.847656 232.523438 C 167.273438 232.523438 166.78125 232.03125 166.863281 231.457031 C 167.109375 227.929688 168.75 216.863281 178.757812 213.335938 C 179.496094 213.089844 179.660156 212.191406 179.085938 211.699219 C 176.953125 209.8125 175.558594 207.023438 175.558594 203.992188 C 175.558594 198.167969 180.398438 193.496094 186.304688 193.742188 C 191.554688 193.988281 195.820312 198.25 196.066406 203.417969 C 196.230469 206.777344 194.835938 209.8125 192.457031 211.78125 C 191.882812 212.269531 192.046875 213.171875 192.785156 213.417969 C 202.625 217.027344 204.511719 227.929688 204.921875 231.457031 C 204.921875 232.03125 204.511719 232.523438 203.9375 232.523438 Z M 203.9375 232.523438 " fill-opacity="1" fill-rule="nonzero"/><g clip-path="url(#3ad15c7fd4)"><path fill="#a6b1e1" d="M 185.894531 180.625 C 184.664062 180.296875 183.925781 179.066406 184.253906 177.917969 C 184.417969 177.179688 184.582031 176.441406 184.828125 175.707031 C 185.15625 174.476562 186.386719 173.738281 187.617188 174.066406 C 188.847656 174.394531 189.585938 175.625 189.257812 176.769531 C 189.09375 177.507812 188.929688 178.246094 188.683594 178.984375 C 188.273438 180.214844 187.125 180.953125 185.894531 180.625 Z M 194.507812 148.976562 C 193.277344 148.648438 192.046875 149.304688 191.71875 150.453125 C 190.898438 153.160156 190.078125 155.863281 189.257812 158.652344 C 188.929688 159.882812 189.585938 161.113281 190.816406 161.4375 C 192.046875 161.765625 193.277344 161.113281 193.605469 159.882812 C 194.425781 157.09375 195.164062 154.386719 195.984375 151.765625 C 196.394531 150.535156 195.738281 149.304688 194.507812 148.976562 Z M 203.117188 124.300781 C 201.96875 123.808594 200.65625 124.382812 200.164062 125.609375 C 199.179688 128.234375 198.195312 130.941406 197.214844 133.644531 C 196.804688 134.792969 197.378906 136.105469 198.605469 136.515625 C 199.753906 136.925781 201.066406 136.269531 201.476562 135.121094 C 202.460938 132.414062 203.445312 129.710938 204.429688 127.167969 C 204.839844 126.019531 204.265625 124.792969 203.117188 124.300781 Z M 213.78125 100.523438 C 212.632812 99.949219 211.320312 100.359375 210.746094 101.507812 C 209.515625 104.046875 208.285156 106.589844 207.054688 109.296875 C 206.5625 110.445312 207.054688 111.753906 208.203125 112.328125 C 209.351562 112.820312 210.664062 112.328125 211.15625 111.179688 C 212.304688 108.558594 213.535156 106.015625 214.765625 103.554688 C 215.339844 102.410156 214.847656 101.097656 213.78125 100.523438 Z M 227.234375 78.222656 C 226.167969 77.484375 224.773438 77.730469 224.035156 78.796875 C 222.476562 81.09375 220.835938 83.550781 219.277344 86.09375 C 218.621094 87.160156 218.949219 88.554688 220.015625 89.207031 C 221.082031 89.863281 222.476562 89.535156 223.132812 88.472656 C 224.609375 86.011719 226.167969 83.714844 227.726562 81.421875 C 228.464844 80.273438 228.21875 78.960938 227.234375 78.222656 Z M 244.375 58.710938 C 243.554688 57.808594 242.082031 57.726562 241.179688 58.546875 C 239.128906 60.511719 237.078125 62.5625 235.109375 64.777344 C 234.289062 65.679688 234.371094 67.152344 235.273438 67.972656 C 236.175781 68.792969 237.570312 68.710938 238.472656 67.808594 C 240.359375 65.679688 242.328125 63.710938 244.292969 61.824219 C 245.113281 61.003906 245.195312 59.613281 244.375 58.710938 Z M 362.410156 63.546875 C 360.113281 61.742188 357.734375 60.101562 355.4375 58.464844 C 354.371094 57.726562 352.976562 58.054688 352.238281 59.121094 C 351.582031 60.183594 351.828125 61.496094 352.8125 62.234375 C 355.109375 63.792969 357.40625 65.515625 359.621094 67.234375 C 360.605469 67.972656 362 67.808594 362.738281 66.828125 C 363.558594 65.761719 363.394531 64.367188 362.410156 63.546875 Z M 340.179688 49.199219 C 337.554688 47.804688 334.929688 46.492188 332.386719 45.34375 C 331.238281 44.855469 329.929688 45.34375 329.4375 46.492188 C 328.945312 47.640625 329.4375 48.953125 330.582031 49.445312 C 333.042969 50.59375 335.585938 51.824219 338.128906 53.132812 C 339.195312 53.707031 340.589844 53.296875 341.164062 52.234375 C 341.738281 51.25 341.328125 49.855469 340.179688 49.199219 Z M 266.113281 44.445312 C 265.621094 43.296875 264.226562 42.722656 263.078125 43.296875 C 260.453125 44.527344 257.910156 45.917969 255.367188 47.558594 C 254.300781 48.214844 253.972656 49.691406 254.710938 50.757812 C 255.367188 51.824219 256.761719 52.070312 257.828125 51.414062 C 260.207031 49.9375 262.585938 48.625 265.046875 47.476562 C 266.03125 46.902344 266.523438 45.589844 266.113281 44.445312 Z M 315.492188 39.359375 C 312.621094 38.621094 309.75 37.96875 306.878906 37.476562 C 305.648438 37.3125 304.5 38.128906 304.335938 39.441406 C 304.171875 40.671875 304.992188 41.738281 306.222656 41.984375 C 308.929688 42.394531 311.636719 43.050781 314.34375 43.707031 C 315.574219 44.035156 316.722656 43.378906 317.132812 42.148438 C 317.460938 41 316.722656 39.6875 315.492188 39.359375 Z M 291.375 38.785156 C 291.292969 37.558594 290.226562 36.492188 288.996094 36.574219 C 286.046875 36.738281 283.09375 37.148438 280.222656 37.722656 C 278.992188 37.96875 278.171875 39.195312 278.5 40.425781 C 278.746094 41.65625 279.894531 42.394531 281.125 42.148438 C 283.832031 41.65625 286.535156 41.328125 289.242188 41.082031 C 290.472656 41 291.375 40.015625 291.375 38.785156 Z M 291.375 38.785156 " fill-opacity="1" fill-rule="nonzero"/></g><path fill="#112d4e" d="M 376.105469 81.582031 C 376.105469 81.582031 374.386719 79.78125 371.351562 76.992188 L 374.386719 73.714844 C 377.582031 76.582031 379.304688 78.46875 379.386719 78.550781 Z M 376.105469 81.582031 " fill-opacity="1" fill-rule="nonzero"/><path fill="#112d4e" d="M 79.097656 374.03125 C 77.867188 372.144531 76.71875 370.179688 75.488281 368.128906 L 79.425781 365.914062 C 80.574219 367.882812 81.722656 369.769531 82.871094 371.574219 Z M 79.097656 374.03125 " fill-opacity="1" fill-rule="nonzero"/><path fill="#a6b1e1" d="M 149.066406 417.402344 C 145.703125 417.074219 142.339844 416.664062 139.140625 416.089844 C 137.910156 415.84375 137.089844 414.617188 137.335938 413.386719 C 137.582031 412.15625 138.730469 411.417969 139.960938 411.664062 C 142.996094 412.238281 146.195312 412.648438 149.394531 412.976562 C 150.625 413.058594 151.527344 414.125 151.445312 415.355469 C 151.363281 416.5 150.296875 417.484375 149.066406 417.402344 Z M 165.714844 415.273438 C 165.632812 414.042969 166.535156 412.976562 167.765625 412.894531 C 170.882812 412.648438 174.082031 412.238281 177.28125 411.746094 C 178.511719 411.582031 179.660156 412.402344 179.824219 413.550781 C 180.070312 414.78125 179.167969 416.007812 177.9375 416.171875 C 174.574219 416.664062 171.292969 417.074219 168.011719 417.320312 C 166.945312 417.484375 165.796875 416.5 165.714844 415.273438 Z M 193.851562 410.597656 C 193.523438 409.367188 194.261719 408.222656 195.410156 407.894531 C 198.441406 407.074219 201.558594 406.089844 204.675781 405.105469 C 205.824219 404.695312 207.136719 405.351562 207.546875 406.5 C 207.957031 407.648438 207.300781 409.039062 206.152344 409.367188 C 202.953125 410.433594 199.835938 411.417969 196.722656 412.238281 C 195.492188 412.566406 194.179688 411.828125 193.851562 410.597656 Z M 120.683594 410.515625 C 117.566406 409.203125 114.613281 407.730469 111.660156 406.007812 C 110.59375 405.351562 110.183594 403.957031 110.921875 402.890625 C 111.578125 401.824219 112.890625 401.496094 113.957031 402.152344 C 116.664062 403.710938 119.535156 405.105469 122.40625 406.417969 C 123.554688 406.910156 124.046875 408.140625 123.636719 409.285156 C 123.226562 410.351562 121.914062 411.007812 120.683594 410.515625 Z M 220.835938 401.332031 C 220.34375 400.1875 220.917969 398.875 221.984375 398.382812 C 224.9375 397.070312 227.890625 395.757812 230.761719 394.363281 C 231.910156 393.789062 233.222656 394.28125 233.796875 395.347656 C 234.371094 396.496094 233.878906 397.890625 232.730469 398.382812 C 229.777344 399.859375 226.742188 401.167969 223.789062 402.480469 C 222.722656 402.972656 221.328125 402.480469 220.835938 401.332031 Z M 96.242188 394.609375 C 93.863281 392.398438 91.484375 390.019531 89.269531 387.476562 C 88.449219 386.492188 88.53125 385.101562 89.515625 384.28125 C 90.417969 383.460938 91.8125 383.625 92.632812 384.527344 C 94.765625 386.902344 96.980469 389.199219 99.277344 391.332031 C 100.179688 392.152344 100.261719 393.546875 99.441406 394.445312 C 98.621094 395.347656 97.226562 395.429688 96.242188 394.609375 Z M 96.242188 394.609375 " fill-opacity="1" fill-rule="nonzero"/><path fill="#112d4e" d="M 247.574219 390.511719 L 245.277344 386.574219 C 248.886719 384.445312 250.9375 383.132812 250.9375 383.132812 L 253.480469 386.902344 C 253.398438 386.902344 251.265625 388.296875 247.574219 390.511719 Z M 247.574219 390.511719 " fill-opacity="1" fill-rule="nonzero"/><path fill="#112d4e" d="M 183.269531 251.460938 L 179.742188 248.671875 C 181.136719 246.953125 182.613281 245.148438 184.253906 243.425781 L 187.617188 246.460938 C 186.058594 248.101562 184.582031 249.820312 183.269531 251.460938 Z M 183.269531 251.460938 " fill-opacity="1" fill-rule="nonzero"/><path fill="#a6b1e1" d="M 248.230469 341.976562 C 244.867188 341.15625 241.589844 340.335938 238.390625 339.515625 C 237.242188 339.1875 236.503906 337.957031 236.832031 336.808594 L 236.832031 336.726562 C 237.160156 335.582031 238.308594 334.925781 239.539062 335.171875 C 242.652344 335.988281 245.933594 336.808594 249.214844 337.628906 C 250.363281 337.875 251.101562 339.105469 250.855469 340.253906 L 250.855469 340.335938 C 250.609375 341.484375 249.378906 342.222656 248.230469 341.976562 Z M 220.261719 333.859375 C 216.980469 332.710938 213.78125 331.480469 210.746094 330.167969 C 209.597656 329.675781 209.105469 328.363281 209.597656 327.300781 L 209.679688 327.21875 C 210.171875 326.152344 211.402344 325.578125 212.550781 326.070312 C 215.503906 327.300781 218.621094 328.445312 221.820312 329.59375 C 222.96875 330.003906 223.542969 331.234375 223.132812 332.382812 L 223.132812 332.464844 C 222.640625 333.613281 221.410156 334.1875 220.261719 333.859375 Z M 193.605469 321.722656 C 190.488281 319.921875 187.617188 317.953125 184.992188 315.984375 C 184.007812 315.246094 183.84375 313.851562 184.664062 312.871094 L 184.746094 312.789062 C 185.484375 311.886719 186.796875 311.722656 187.78125 312.460938 C 190.242188 314.261719 192.949219 316.066406 195.902344 317.871094 C 196.96875 318.445312 197.296875 319.839844 196.722656 320.824219 L 196.640625 320.90625 C 196.066406 321.96875 194.671875 322.296875 193.605469 321.722656 Z M 171.457031 302.128906 C 169.40625 299.097656 167.929688 295.816406 166.863281 292.535156 C 166.453125 291.308594 167.191406 289.996094 168.421875 289.667969 L 168.503906 289.667969 C 169.652344 289.421875 170.800781 290.078125 171.128906 291.226562 C 172.03125 294.011719 173.34375 296.800781 175.066406 299.503906 C 175.722656 300.488281 175.558594 301.800781 174.574219 302.539062 L 174.492188 302.621094 C 173.589844 303.359375 172.113281 303.113281 171.457031 302.128906 Z M 168.421875 275.484375 L 168.339844 275.484375 C 167.109375 275.238281 166.289062 274.007812 166.617188 272.859375 C 167.4375 269.664062 168.75 266.300781 170.390625 263.019531 C 170.964844 261.957031 172.359375 261.464844 173.425781 262.121094 L 173.507812 262.203125 C 174.574219 262.777344 174.902344 264.085938 174.410156 265.152344 C 172.933594 268.1875 171.785156 271.136719 171.046875 274.007812 C 170.71875 274.992188 169.652344 275.730469 168.421875 275.484375 Z M 168.421875 275.484375 " fill-opacity="1" fill-rule="nonzero"/><path fill="#112d4e" d="M 451.40625 245.722656 C 450.585938 243.671875 449.765625 241.539062 448.863281 239.574219 L 452.964844 237.769531 C 453.867188 239.820312 454.769531 242.03125 455.589844 244.164062 Z M 451.40625 245.722656 " fill-opacity="1" fill-rule="nonzero"/><path fill="#a6b1e1" d="M 441.808594 225.882812 C 440.25 223.339844 438.691406 220.960938 437.050781 218.667969 C 436.3125 217.683594 436.476562 216.289062 437.460938 215.550781 C 438.445312 214.8125 439.921875 214.976562 440.660156 215.960938 C 442.382812 218.339844 444.105469 220.878906 445.664062 223.503906 C 446.320312 224.570312 445.910156 225.964844 444.84375 226.621094 C 443.777344 227.273438 442.464844 226.945312 441.808594 225.882812 Z M 239.457031 207.105469 C 238.964844 205.957031 239.457031 204.648438 240.523438 204.074219 C 243.226562 202.84375 245.933594 201.613281 248.722656 200.464844 C 249.871094 199.972656 251.183594 200.546875 251.675781 201.695312 C 252.167969 202.84375 251.59375 204.15625 250.445312 204.648438 C 247.738281 205.792969 245.03125 207.023438 242.324219 208.253906 C 241.261719 208.746094 239.949219 208.253906 239.457031 207.105469 Z M 425.484375 205.546875 C 423.351562 203.582031 421.21875 201.695312 418.925781 199.972656 C 417.941406 199.234375 417.695312 197.839844 418.433594 196.859375 C 419.167969 195.875 420.644531 195.628906 421.628906 196.367188 C 424.007812 198.167969 426.386719 200.136719 428.601562 202.269531 C 429.503906 203.089844 429.503906 204.566406 428.683594 205.464844 C 427.78125 206.449219 426.386719 206.449219 425.484375 205.546875 Z M 264.144531 196.695312 C 263.734375 195.546875 264.308594 194.234375 265.457031 193.742188 C 268.246094 192.675781 271.117188 191.691406 273.90625 190.707031 C 275.054688 190.300781 276.367188 190.953125 276.777344 192.101562 C 277.1875 193.25 276.53125 194.5625 275.382812 194.972656 C 272.59375 195.957031 269.886719 196.941406 267.097656 197.921875 C 265.867188 198.414062 264.554688 197.839844 264.144531 196.695312 Z M 404.078125 190.871094 C 401.535156 189.644531 398.828125 188.496094 396.203125 187.429688 C 395.054688 187.019531 394.480469 185.707031 394.890625 184.558594 C 395.300781 183.410156 396.613281 182.757812 397.84375 183.164062 C 400.714844 184.230469 403.503906 185.460938 406.210938 186.773438 C 407.359375 187.347656 407.769531 188.742188 407.195312 189.808594 C 406.539062 190.953125 405.226562 191.363281 404.078125 190.871094 Z M 289.488281 188.167969 C 289.160156 186.9375 289.816406 185.707031 291.046875 185.378906 C 293.917969 184.558594 296.871094 183.738281 299.660156 183.085938 C 300.890625 182.757812 302.121094 183.492188 302.367188 184.722656 C 302.695312 185.953125 301.957031 187.101562 300.726562 187.429688 C 297.9375 188.167969 295.066406 188.90625 292.195312 189.726562 C 291.046875 190.054688 289.816406 189.316406 289.488281 188.167969 Z M 315.492188 181.855469 C 315.246094 180.625 316.066406 179.394531 317.296875 179.230469 C 320.25 178.65625 323.285156 178.164062 326.15625 177.753906 C 327.386719 177.589844 328.535156 178.492188 328.699219 179.722656 C 328.863281 180.953125 328.042969 182.101562 326.8125 182.265625 C 323.941406 182.675781 321.070312 183.164062 318.117188 183.65625 C 316.886719 183.820312 315.738281 183.003906 315.492188 181.855469 Z M 379.304688 182.675781 C 376.515625 182.101562 373.648438 181.691406 370.695312 181.28125 C 369.464844 181.117188 368.5625 180.050781 368.726562 178.820312 C 368.890625 177.589844 370.039062 176.6875 371.269531 176.769531 C 374.304688 177.179688 377.335938 177.589844 380.207031 178.164062 C 381.4375 178.410156 382.257812 179.640625 381.929688 180.871094 C 381.683594 182.101562 380.535156 182.839844 379.304688 182.675781 Z M 342.066406 178.328125 C 341.984375 177.097656 342.96875 175.949219 344.199219 175.949219 C 347.234375 175.789062 350.269531 175.707031 353.140625 175.707031 C 354.371094 175.707031 355.4375 176.769531 355.355469 178 C 355.355469 179.230469 354.371094 180.214844 353.140625 180.214844 C 350.269531 180.214844 347.316406 180.296875 344.363281 180.460938 C 343.214844 180.542969 342.148438 179.558594 342.066406 178.328125 Z M 227.398438 213.007812 C 226.824219 211.863281 225.429688 211.453125 224.363281 212.027344 C 223.542969 212.433594 222.886719 212.761719 222.3125 213.089844 C 221.164062 213.664062 220.835938 215.058594 221.410156 216.207031 C 221.984375 217.273438 223.378906 217.683594 224.445312 217.109375 C 225.019531 216.78125 225.675781 216.453125 226.414062 216.042969 C 227.480469 215.46875 227.972656 214.074219 227.398438 213.007812 Z M 227.398438 213.007812 " fill-opacity="1" fill-rule="nonzero"/><path fill="#112d4e" d="M 562.21875 213.5 C 562.136719 211.207031 562.054688 208.992188 561.890625 206.777344 L 566.402344 206.53125 C 566.566406 208.746094 566.648438 211.042969 566.730469 213.417969 Z M 562.21875 213.5 " fill-opacity="1" fill-rule="nonzero"/><path fill="#a6b1e1" d="M 560.167969 191.035156 C 559.675781 188.003906 559.101562 184.96875 558.445312 182.101562 C 558.199219 180.871094 558.855469 179.722656 560.085938 179.394531 C 561.316406 179.066406 562.546875 179.804688 562.792969 181.035156 C 563.449219 184.066406 564.105469 187.183594 564.597656 190.300781 C 564.761719 191.527344 563.941406 192.675781 562.710938 192.839844 C 561.480469 193.085938 560.332031 192.265625 560.167969 191.035156 Z M 553.195312 164.964844 C 552.046875 162.09375 550.820312 159.390625 549.507812 156.683594 C 548.933594 155.617188 549.34375 154.304688 550.410156 153.652344 C 551.472656 153.078125 552.949219 153.488281 553.441406 154.550781 C 554.835938 157.339844 556.148438 160.210938 557.296875 163.242188 C 557.789062 164.390625 557.132812 165.703125 555.984375 166.195312 C 554.917969 166.6875 553.605469 166.113281 553.195312 164.964844 Z M 539.910156 141.761719 C 538.023438 139.386719 536.054688 137.171875 533.921875 135.039062 C 533.101562 134.136719 533.019531 132.824219 533.921875 131.925781 C 534.824219 131.023438 536.21875 131.023438 537.121094 131.84375 C 539.335938 134.136719 541.46875 136.515625 543.4375 138.976562 C 544.257812 139.957031 544.011719 141.433594 543.027344 142.171875 C 542.042969 142.910156 540.730469 142.746094 539.910156 141.761719 Z M 520.222656 123.726562 C 517.761719 122.085938 515.136719 120.609375 512.429688 119.214844 C 511.363281 118.640625 510.871094 117.332031 511.445312 116.265625 C 512.019531 115.117188 513.414062 114.707031 514.480469 115.199219 C 517.351562 116.675781 520.058594 118.3125 522.765625 120.035156 C 523.832031 120.691406 524.078125 122.167969 523.339844 123.152344 C 522.601562 124.21875 521.207031 124.464844 520.222656 123.726562 Z M 495.863281 112.492188 C 492.992188 111.589844 490.039062 110.851562 487.085938 110.199219 C 485.855469 109.953125 485.117188 108.804688 485.363281 107.574219 C 485.609375 106.34375 486.839844 105.523438 488.070312 105.851562 C 491.1875 106.589844 494.304688 107.328125 497.257812 108.3125 C 498.488281 108.640625 499.0625 109.953125 498.734375 111.179688 C 498.242188 112.246094 497.011719 112.820312 495.863281 112.492188 Z M 469.285156 107.492188 C 466.25 107.246094 463.214844 107.082031 460.101562 107 C 458.871094 107 457.886719 106.015625 457.886719 104.785156 C 457.886719 103.554688 458.953125 102.492188 460.183594 102.574219 C 463.378906 102.65625 466.496094 102.820312 469.613281 103.066406 C 470.84375 103.148438 471.746094 104.292969 471.664062 105.523438 C 471.582031 106.671875 470.515625 107.574219 469.285156 107.492188 Z M 444.105469 105.359375 C 444.023438 104.046875 442.875 103.148438 441.644531 103.3125 C 440.742188 103.390625 439.921875 103.472656 439.347656 103.554688 C 438.117188 103.71875 437.214844 104.867188 437.460938 106.179688 C 437.707031 107.328125 438.773438 108.148438 440.003906 107.984375 C 440.578125 107.902344 441.316406 107.820312 442.21875 107.738281 C 443.285156 107.65625 444.1875 106.589844 444.105469 105.359375 Z M 444.105469 105.359375 " fill-opacity="1" fill-rule="nonzero"/><path fill="#112d4e" d="M 493.8125 245.394531 L 489.382812 244.410156 C 489.875 242.277344 490.285156 240.066406 490.53125 237.933594 L 495.042969 238.507812 C 494.714844 240.804688 494.304688 243.097656 493.8125 245.394531 Z M 493.8125 245.394531 " fill-opacity="1" fill-rule="nonzero"/><path fill="#a6b1e1" d="M 491.105469 224.324219 C 490.859375 219.8125 490.121094 215.304688 489.054688 210.878906 L 493.402344 209.730469 C 494.632812 214.402344 495.371094 219.242188 495.617188 223.996094 Z M 484.460938 198.003906 C 482.574219 193.988281 480.359375 189.972656 477.734375 186.035156 L 481.507812 183.492188 C 484.214844 187.59375 486.59375 191.855469 488.5625 196.039062 Z M 469.367188 175.132812 C 466.414062 171.769531 463.214844 168.410156 459.691406 165.210938 L 462.726562 161.929688 C 466.332031 165.292969 469.695312 168.734375 472.730469 172.179688 Z M 449.109375 156.273438 C 445.5 153.488281 441.644531 150.78125 437.789062 148.238281 L 440.25 144.46875 C 444.269531 147.089844 448.207031 149.878906 451.898438 152.667969 Z M 427.945312 137.171875 C 424.171875 135.121094 421.875 134.054688 421.792969 134.054688 L 419.90625 138.15625 C 419.90625 138.15625 422.203125 139.222656 425.8125 141.105469 Z M 427.945312 137.171875 " fill-opacity="1" fill-rule="nonzero"/><path fill="#112d4e" d="M 581.824219 254.90625 C 579.691406 254.578125 577.394531 254.25 575.179688 253.921875 L 575.753906 249.410156 C 578.050781 249.738281 580.265625 250.066406 582.480469 250.394531 Z M 581.824219 254.90625 " fill-opacity="1" fill-rule="nonzero"/><path fill="#a6b1e1" d="M 674.347656 302.539062 C 673.117188 299.914062 671.640625 297.292969 669.835938 294.75 C 669.097656 293.765625 669.261719 292.371094 670.246094 291.636719 C 671.230469 290.816406 672.707031 291.0625 673.445312 292.046875 C 675.414062 294.832031 677.136719 297.785156 678.449219 300.734375 C 678.941406 301.882812 678.367188 303.277344 677.21875 303.6875 C 676.070312 304.261719 674.839844 303.6875 674.347656 302.539062 Z M 657.285156 281.960938 C 654.90625 280.15625 652.363281 278.351562 649.65625 276.714844 C 648.589844 276.058594 648.261719 274.746094 648.835938 273.679688 C 649.492188 272.613281 650.886719 272.203125 651.953125 272.859375 C 654.824219 274.664062 657.53125 276.46875 660.074219 278.433594 C 661.058594 279.171875 661.222656 280.648438 660.402344 281.632812 C 659.664062 282.617188 658.269531 282.699219 657.285156 281.960938 Z M 633.417969 268.515625 C 630.628906 267.367188 627.675781 266.21875 624.640625 265.152344 C 623.492188 264.742188 622.835938 263.511719 623.246094 262.285156 C 623.65625 261.054688 624.96875 260.480469 626.117188 260.890625 C 629.234375 261.957031 632.269531 263.183594 635.140625 264.332031 C 636.289062 264.824219 636.78125 266.136719 636.289062 267.285156 C 635.878906 268.433594 634.566406 268.925781 633.417969 268.515625 Z M 607.085938 259.90625 C 604.132812 259.167969 601.015625 258.429688 597.816406 257.773438 C 596.585938 257.527344 595.847656 256.378906 596.09375 255.152344 C 596.339844 253.921875 597.570312 253.101562 598.800781 253.347656 C 602 254.003906 605.199219 254.742188 608.234375 255.480469 C 609.464844 255.804688 610.203125 257.035156 609.875 258.265625 C 609.464844 259.496094 608.234375 260.234375 607.085938 259.90625 Z M 607.085938 259.90625 " fill-opacity="1" fill-rule="nonzero"/><path fill="#112d4e" d="M 681.730469 324.839844 L 677.382812 323.691406 C 677.382812 323.691406 677.957031 321.3125 677.875 317.542969 L 682.386719 317.460938 C 682.46875 321.96875 681.8125 324.757812 681.730469 324.839844 Z M 681.730469 324.839844 " fill-opacity="1" fill-rule="nonzero"/><path fill="#112d4e" d="M 153.167969 215.222656 C 151.363281 213.828125 149.476562 212.515625 147.753906 211.289062 L 150.296875 207.597656 C 152.101562 208.828125 153.984375 210.222656 155.871094 211.617188 Z M 153.167969 215.222656 " fill-opacity="1" fill-rule="nonzero"/><path fill="#a6b1e1" d="M 34.394531 336.398438 C 33.164062 336.316406 32.179688 335.335938 32.179688 334.023438 C 32.34375 330.824219 32.507812 327.628906 32.753906 324.429688 C 32.835938 323.199219 33.902344 322.214844 35.214844 322.296875 C 36.445312 322.378906 37.347656 323.445312 37.265625 324.675781 C 37.019531 327.875 36.855469 330.988281 36.691406 334.1875 C 36.691406 335.582031 35.625 336.480469 34.394531 336.398438 Z M 36.363281 308.441406 C 35.132812 308.359375 34.230469 307.210938 34.3125 305.984375 C 34.640625 302.785156 35.050781 299.585938 35.460938 296.472656 C 35.625 295.242188 36.773438 294.339844 38.003906 294.503906 C 39.234375 294.667969 40.054688 295.816406 39.972656 297.046875 C 39.5625 300.160156 39.234375 303.277344 38.824219 306.476562 C 38.742188 307.621094 37.675781 308.523438 36.363281 308.441406 Z M 40.21875 280.566406 C 38.988281 280.320312 38.167969 279.171875 38.414062 277.941406 C 38.988281 274.746094 39.644531 271.546875 40.300781 268.515625 C 40.546875 267.285156 41.777344 266.546875 43.007812 266.792969 C 44.238281 267.039062 44.976562 268.269531 44.730469 269.417969 C 44.074219 272.449219 43.417969 275.566406 42.84375 278.679688 C 42.597656 279.992188 41.449219 280.8125 40.21875 280.566406 Z M 46.453125 253.183594 C 45.222656 252.855469 44.566406 251.542969 44.894531 250.394531 C 45.878906 247.199219 46.863281 244.164062 47.929688 241.214844 C 48.339844 240.066406 49.652344 239.410156 50.882812 239.902344 C 52.03125 240.3125 52.605469 241.621094 52.195312 242.769531 C 51.210938 245.640625 50.226562 248.589844 49.242188 251.707031 C 48.832031 252.855469 47.601562 253.511719 46.453125 253.183594 Z M 56.296875 226.945312 C 55.148438 226.375 54.738281 224.980469 55.3125 223.914062 C 56.871094 220.878906 58.511719 218.09375 60.234375 215.46875 C 60.890625 214.402344 62.367188 214.15625 63.433594 214.894531 C 64.417969 215.550781 64.746094 216.945312 64.007812 218.011719 C 62.449219 220.46875 60.890625 223.175781 59.414062 226.046875 C 58.757812 227.027344 57.445312 227.519531 56.296875 226.945312 Z M 72.371094 204.15625 C 71.46875 203.253906 71.550781 201.777344 72.453125 200.875 C 75.078125 198.578125 77.785156 196.613281 80.574219 195.054688 C 81.640625 194.398438 83.117188 194.890625 83.691406 196.039062 C 84.265625 197.105469 83.773438 198.414062 82.789062 198.988281 C 80.246094 200.382812 77.867188 202.1875 75.570312 204.15625 C 74.585938 205.054688 73.191406 205.054688 72.371094 204.15625 Z M 133.972656 202.925781 C 131.101562 201.449219 128.3125 200.136719 125.605469 198.988281 C 124.457031 198.496094 123.882812 197.269531 124.375 196.121094 C 124.867188 194.972656 126.179688 194.316406 127.328125 194.808594 C 130.199219 196.039062 133.152344 197.351562 136.105469 198.988281 C 137.253906 199.5625 137.664062 200.957031 137.007812 202.105469 C 136.433594 203.089844 135.121094 203.5 133.972656 202.925781 Z M 108.300781 194.234375 C 105.265625 193.90625 102.230469 193.824219 99.359375 193.988281 C 98.128906 194.070312 97.0625 193.25 96.898438 192.019531 C 96.734375 190.789062 97.636719 189.5625 98.949219 189.480469 C 102.230469 189.234375 105.511719 189.316406 108.957031 189.726562 C 110.183594 189.890625 111.085938 191.035156 110.839844 192.347656 C 110.675781 193.578125 109.53125 194.316406 108.300781 194.234375 Z M 108.300781 194.234375 " fill-opacity="1" fill-rule="nonzero"/><path fill="#112d4e" d="M 31.769531 357.308594 C 31.769531 357.308594 31.6875 354.847656 31.769531 350.5 L 36.28125 350.582031 C 36.199219 354.847656 36.28125 357.226562 36.28125 357.308594 Z M 31.769531 357.308594 " fill-opacity="1" fill-rule="nonzero"/><path fill="#112d4e" d="M 302.777344 384.773438 C 300.5625 383.953125 298.429688 382.886719 296.378906 381.65625 L 298.675781 377.722656 C 300.5625 378.789062 302.53125 379.769531 304.5 380.507812 Z M 302.777344 384.773438 " fill-opacity="1" fill-rule="nonzero"/><path fill="#a6b1e1" d="M 319.183594 387.804688 C 318.527344 387.804688 317.871094 387.804688 317.214844 387.804688 C 316.476562 387.804688 315.902344 387.066406 315.902344 386.332031 L 315.984375 384.527344 C 316.066406 383.789062 316.640625 383.214844 317.378906 383.296875 C 320.496094 383.378906 323.613281 383.214844 326.894531 382.722656 C 327.632812 382.640625 328.371094 383.050781 328.453125 383.789062 L 328.78125 385.511719 C 328.945312 386.25 328.453125 386.984375 327.632812 387.148438 C 324.925781 387.558594 321.972656 387.804688 319.183594 387.804688 Z M 341.410156 381.820312 L 340.753906 380.179688 C 340.507812 379.523438 340.835938 378.707031 341.492188 378.460938 C 344.363281 377.3125 347.398438 375.835938 350.351562 374.277344 C 351.007812 373.949219 351.828125 374.195312 352.15625 374.851562 L 352.976562 376.410156 C 353.304688 377.066406 353.058594 377.96875 352.402344 378.296875 C 349.203125 380.015625 346.085938 381.492188 343.050781 382.722656 C 342.476562 382.886719 341.65625 382.558594 341.410156 381.820312 Z M 364.050781 369.523438 L 363.066406 368.046875 C 362.65625 367.390625 362.820312 366.570312 363.394531 366.160156 C 366.019531 364.359375 368.726562 362.390625 371.433594 360.257812 C 372.007812 359.765625 372.910156 359.929688 373.320312 360.503906 L 374.382812 361.898438 C 374.875 362.472656 374.710938 363.375 374.140625 363.867188 C 371.351562 366.078125 368.644531 368.128906 365.9375 369.933594 C 365.363281 370.34375 364.542969 370.179688 364.050781 369.523438 Z M 384.308594 353.535156 L 383.160156 352.222656 C 382.667969 351.648438 382.667969 350.828125 383.242188 350.335938 C 385.621094 348.207031 388.082031 345.828125 390.542969 343.449219 C 391.117188 342.957031 391.9375 342.957031 392.511719 343.449219 L 393.742188 344.679688 C 394.316406 345.253906 394.234375 346.074219 393.742188 346.648438 C 391.28125 349.109375 388.738281 351.402344 386.359375 353.617188 C 385.703125 354.191406 384.800781 354.109375 384.308594 353.535156 Z M 402.683594 335.5 L 401.371094 334.269531 C 400.796875 333.777344 400.796875 332.875 401.289062 332.382812 C 403.503906 330.003906 405.800781 327.464844 408.015625 324.921875 C 408.507812 324.347656 409.410156 324.265625 409.984375 324.839844 L 411.296875 325.988281 C 411.871094 326.480469 411.953125 327.382812 411.378906 327.957031 C 409.082031 330.496094 406.785156 333.039062 404.570312 335.5 C 404.078125 335.988281 403.257812 336.070312 402.683594 335.5 Z M 419.742188 316.230469 L 418.351562 315.082031 C 417.777344 314.589844 417.695312 313.773438 418.1875 313.199219 C 420.316406 310.65625 422.449219 308.03125 424.5 305.410156 C 424.992188 304.835938 425.8125 304.753906 426.386719 305.164062 L 427.78125 306.230469 C 428.355469 306.71875 428.519531 307.539062 428.027344 308.195312 C 425.894531 310.902344 423.761719 313.527344 421.628906 316.066406 C 421.21875 316.640625 420.316406 316.722656 419.742188 316.230469 Z M 435.65625 296.0625 L 434.261719 294.996094 C 433.6875 294.585938 433.523438 293.683594 434.015625 293.109375 C 435.984375 290.40625 438.035156 287.699219 440.003906 284.992188 C 440.414062 284.421875 441.316406 284.257812 441.890625 284.667969 L 443.367188 285.730469 C 443.941406 286.140625 444.105469 287.042969 443.695312 287.617188 C 441.726562 290.40625 439.757812 293.109375 437.707031 295.816406 C 437.132812 296.390625 436.230469 296.472656 435.65625 296.0625 Z M 435.65625 296.0625 " fill-opacity="1" fill-rule="nonzero"/><path fill="#112d4e" d="M 451.652344 275.894531 L 447.878906 273.351562 C 450.257812 269.828125 451.570312 267.777344 451.570312 267.777344 L 455.425781 270.15625 C 455.425781 270.15625 454.113281 272.285156 451.652344 275.894531 Z M 451.652344 275.894531 " fill-opacity="1" fill-rule="nonzero"/><path fill="#112d4e" d="M 630.382812 329.183594 L 628.496094 325.085938 C 630.464844 324.183594 632.515625 323.199219 634.566406 322.214844 L 636.535156 326.234375 C 634.484375 327.300781 632.433594 328.285156 630.382812 329.183594 Z M 630.382812 329.183594 " fill-opacity="1" fill-rule="nonzero"/><path fill="#a6b1e1" d="M 563.777344 343.859375 C 560.824219 343.777344 557.871094 343.53125 555 343.203125 C 553.769531 343.039062 552.867188 341.894531 553.03125 340.664062 C 553.195312 339.433594 554.261719 338.613281 555.492188 338.695312 C 558.28125 339.023438 561.070312 339.1875 563.859375 339.269531 C 565.089844 339.351562 566.074219 340.335938 566.074219 341.566406 C 566.074219 342.878906 565.007812 343.941406 563.777344 343.859375 Z M 579.117188 341.15625 C 579.035156 339.925781 579.855469 338.859375 581.085938 338.695312 C 583.875 338.367188 586.664062 337.957031 589.453125 337.464844 C 590.683594 337.21875 591.832031 338.039062 592.078125 339.269531 C 592.324219 340.5 591.503906 341.730469 590.273438 341.894531 C 587.402344 342.386719 584.449219 342.796875 581.578125 343.121094 C 580.347656 343.285156 579.28125 342.386719 579.117188 341.15625 Z M 537.367188 339.84375 C 534.578125 339.023438 531.707031 338.121094 529 337.136719 C 527.851562 336.726562 527.277344 335.335938 527.6875 334.1875 C 528.097656 333.039062 529.410156 332.464844 530.558594 332.875 C 533.183594 333.859375 535.890625 334.679688 538.597656 335.417969 C 539.746094 335.742188 540.484375 336.972656 540.15625 338.121094 C 539.828125 339.433594 538.597656 340.171875 537.367188 339.84375 Z M 604.871094 336.234375 C 604.542969 335.007812 605.199219 333.777344 606.347656 333.449219 C 609.054688 332.628906 611.679688 331.726562 614.386719 330.824219 C 615.535156 330.414062 616.847656 330.988281 617.257812 332.136719 C 617.667969 333.285156 617.09375 334.597656 615.945312 335.089844 C 613.15625 336.070312 610.367188 336.972656 607.660156 337.792969 C 606.429688 338.121094 605.199219 337.382812 604.871094 336.234375 Z M 512.757812 329.675781 C 510.214844 328.285156 507.671875 326.726562 505.214844 325.085938 C 504.148438 324.429688 503.902344 322.953125 504.640625 321.96875 C 505.378906 320.988281 506.691406 320.742188 507.753906 321.394531 C 510.132812 322.953125 512.511719 324.429688 514.972656 325.824219 C 516.039062 326.398438 516.449219 327.792969 515.875 328.855469 C 515.21875 329.839844 513.824219 330.25 512.757812 329.675781 Z M 491.105469 314.097656 C 488.890625 312.132812 486.839844 310.082031 484.789062 308.03125 C 483.886719 307.128906 483.96875 305.65625 484.871094 304.835938 C 485.773438 304.015625 487.167969 304.015625 487.988281 304.917969 C 489.957031 306.964844 492.007812 308.933594 494.058594 310.738281 C 494.960938 311.558594 495.042969 312.953125 494.304688 313.851562 C 493.484375 314.835938 492.007812 314.917969 491.105469 314.097656 Z M 476.914062 291.636719 C 476.421875 290.980469 476.011719 290.324219 475.683594 289.832031 C 475.027344 288.847656 473.714844 288.519531 472.648438 289.175781 C 471.582031 289.832031 471.171875 291.308594 471.910156 292.371094 C 472.238281 292.945312 472.730469 293.601562 473.222656 294.339844 C 473.960938 295.40625 475.355469 295.570312 476.421875 294.832031 C 477.40625 294.011719 477.570312 292.617188 476.914062 291.636719 Z M 476.914062 291.636719 " fill-opacity="1" fill-rule="nonzero"/><path fill="#424874" d="M 401.78125 70.597656 C 382.175781 70.597656 366.265625 86.503906 366.265625 106.097656 C 366.265625 125.691406 382.175781 141.597656 401.78125 141.597656 C 421.382812 141.597656 437.296875 125.691406 437.296875 106.097656 C 437.296875 86.503906 421.464844 70.597656 401.78125 70.597656 Z M 419.824219 122.496094 L 383.734375 122.496094 C 383.160156 122.496094 382.667969 122.003906 382.75 121.429688 C 382.996094 117.902344 384.636719 106.835938 394.644531 103.3125 C 395.382812 103.066406 395.546875 102.164062 394.972656 101.671875 C 392.839844 99.785156 391.445312 96.996094 391.445312 93.964844 C 391.445312 88.144531 396.285156 83.46875 402.191406 83.714844 C 407.441406 83.960938 411.707031 88.226562 411.953125 93.390625 C 412.117188 96.75 410.722656 99.785156 408.34375 101.753906 C 407.769531 102.246094 407.933594 103.148438 408.671875 103.390625 C 418.515625 107 420.398438 117.902344 420.808594 121.429688 C 420.890625 122.003906 420.398438 122.496094 419.824219 122.496094 Z M 419.824219 122.496094 " fill-opacity="1" fill-rule="nonzero"/><path fill="#424874" d="M 58.429688 340.582031 C 38.824219 340.582031 22.910156 356.488281 22.910156 376.082031 C 22.910156 395.675781 38.824219 411.582031 58.429688 411.582031 C 78.03125 411.582031 93.945312 395.675781 93.945312 376.082031 C 93.945312 356.488281 78.113281 340.582031 58.429688 340.582031 Z M 76.472656 392.480469 L 40.382812 392.480469 C 39.808594 392.480469 39.316406 391.988281 39.398438 391.414062 C 39.644531 387.886719 41.285156 376.820312 51.292969 373.292969 C 52.03125 373.046875 52.195312 372.144531 51.621094 371.65625 C 49.488281 369.769531 48.09375 366.980469 48.09375 363.949219 C 48.09375 358.125 52.933594 353.453125 58.839844 353.699219 C 64.089844 353.945312 68.351562 358.207031 68.597656 363.375 C 68.761719 366.734375 67.367188 369.769531 64.992188 371.738281 C 64.417969 372.226562 64.582031 373.128906 65.320312 373.375 C 75.160156 376.984375 77.046875 387.886719 77.457031 391.414062 C 77.539062 391.988281 77.046875 392.480469 76.472656 392.480469 Z M 76.472656 392.480469 " fill-opacity="1" fill-rule="nonzero"/><path fill="#3f72af" d="M 472.566406 218.175781 C 452.964844 218.175781 437.050781 234.078125 437.050781 253.675781 C 437.050781 273.269531 452.964844 289.175781 472.566406 289.175781 C 492.171875 289.175781 508.082031 273.269531 508.082031 253.675781 C 508.082031 234.078125 492.171875 218.175781 472.566406 218.175781 Z M 490.613281 270.074219 L 454.523438 270.074219 C 453.949219 270.074219 453.457031 269.582031 453.539062 269.007812 C 453.785156 265.480469 455.425781 254.414062 465.429688 250.886719 C 466.167969 250.640625 466.332031 249.738281 465.757812 249.246094 C 463.625 247.363281 462.234375 244.574219 462.234375 241.539062 C 462.234375 235.71875 467.070312 231.046875 472.976562 231.292969 C 478.226562 231.539062 482.492188 235.800781 482.738281 240.96875 C 482.902344 244.328125 481.507812 247.363281 479.128906 249.328125 C 478.554688 249.820312 478.71875 250.722656 479.457031 250.96875 C 489.300781 254.578125 491.1875 265.480469 491.597656 269.007812 C 491.597656 269.582031 491.1875 270.074219 490.613281 270.074219 Z M 490.613281 270.074219 " fill-opacity="1" fill-rule="nonzero"/><path fill="#112d4e" d="M 271.691406 344.1875 C 252.085938 344.1875 236.175781 360.09375 236.175781 379.6875 C 236.175781 399.285156 252.085938 415.191406 271.691406 415.191406 C 291.292969 415.191406 307.207031 399.285156 307.207031 379.6875 C 307.207031 360.09375 291.292969 344.1875 271.691406 344.1875 Z M 289.734375 396.085938 L 253.644531 396.085938 C 253.070312 396.085938 252.578125 395.59375 252.660156 395.019531 C 252.90625 391.496094 254.546875 380.425781 264.554688 376.902344 C 265.292969 376.65625 265.457031 375.753906 264.882812 375.261719 C 262.75 373.375 261.355469 370.589844 261.355469 367.554688 C 261.355469 361.734375 266.195312 357.0625 272.101562 357.308594 C 277.351562 357.550781 281.617188 361.816406 281.863281 366.980469 C 282.027344 370.34375 280.632812 373.375 278.253906 375.34375 C 277.679688 375.835938 277.84375 376.738281 278.582031 376.984375 C 288.421875 380.589844 290.308594 391.496094 290.71875 395.019531 C 290.800781 395.59375 290.308594 396.085938 289.734375 396.085938 Z M 289.734375 396.085938 " fill-opacity="1" fill-rule="nonzero"/><path fill="#424874" d="M 583.464844 191.855469 C 563.859375 191.855469 547.949219 207.761719 547.949219 227.355469 C 547.949219 246.953125 563.859375 262.859375 583.464844 262.859375 C 603.066406 262.859375 618.980469 246.953125 618.980469 227.355469 C 618.980469 207.761719 603.066406 191.855469 583.464844 191.855469 Z M 601.507812 243.753906 L 565.417969 243.753906 C 564.84375 243.753906 564.351562 243.261719 564.433594 242.6875 C 564.679688 239.164062 566.320312 228.09375 576.328125 224.570312 C 577.066406 224.324219 577.230469 223.421875 576.65625 222.929688 C 574.523438 221.042969 573.128906 218.257812 573.128906 215.222656 C 573.128906 209.402344 577.96875 204.730469 583.875 204.972656 C 589.125 205.21875 593.390625 209.484375 593.636719 214.648438 C 593.800781 218.011719 592.40625 221.042969 590.027344 223.011719 C 589.453125 223.503906 589.617188 224.40625 590.355469 224.652344 C 600.195312 228.257812 602.082031 239.164062 602.492188 242.6875 C 602.574219 243.261719 602.082031 243.753906 601.507812 243.753906 Z M 601.507812 243.753906 " fill-opacity="1" fill-rule="nonzero"/><path fill="#3f72af" d="M 654.578125 305.082031 C 634.976562 305.082031 619.0625 320.988281 619.0625 340.582031 C 619.0625 360.175781 634.976562 376.082031 654.578125 376.082031 C 674.183594 376.082031 690.09375 360.175781 690.09375 340.582031 C 690.09375 320.988281 674.183594 305.082031 654.578125 305.082031 Z M 672.625 356.980469 L 636.535156 356.980469 C 635.960938 356.980469 635.46875 356.488281 635.550781 355.914062 C 635.796875 352.386719 637.4375 341.320312 647.441406 337.792969 C 648.179688 337.546875 648.34375 336.644531 647.769531 336.152344 C 645.636719 334.269531 644.242188 331.480469 644.242188 328.445312 C 644.242188 322.625 649.082031 317.953125 654.988281 318.199219 C 660.238281 318.445312 664.503906 322.707031 664.75 327.875 C 664.914062 331.234375 663.519531 334.269531 661.140625 336.234375 C 660.566406 336.726562 660.730469 337.628906 661.46875 337.875 C 671.3125 341.484375 673.199219 352.386719 673.609375 355.914062 C 673.609375 356.488281 673.199219 356.980469 672.625 356.980469 Z M 672.625 356.980469 " fill-opacity="1" fill-rule="nonzero"/><g fill="#000000" fill-opacity="1"><g transform="translate(595.71116, 178.529989)"><g><path d="M 0.5625 -0.71875 L 0.5625 -0.640625 L 0.328125 -0.640625 L 0.328125 0 L 0.25 0 L 0.25 -0.640625 L 0.03125 -0.640625 L 0.03125 -0.71875 Z M 0.5625 -0.71875 "/></g></g></g></svg>