<svg xmlns="http://www.w3.org/2000/svg" xmlns:xlink="http://www.w3.org/1999/xlink" width="3780" zoomAndPan="magnify" viewBox="0 0 2835 1417.499962" height="1890" preserveAspectRatio="xMidYMid meet" version="1.0"><defs><g/><clipPath id="3c9c84127f"><path d="M 1665 232 L 2831.679688 232 L 2831.679688 1035 L 1665 1035 Z M 1665 232 " clip-rule="nonzero"/></clipPath><clipPath id="30d50c04b9"><path d="M 1662 224.117188 L 2801 224.117188 L 2801 689 L 1662 689 Z M 1662 224.117188 " clip-rule="nonzero"/></clipPath><clipPath id="e30ee88ce3"><path d="M 3 278 L 2152 278 L 2152 1192.773438 L 3 1192.773438 Z M 3 278 " clip-rule="nonzero"/></clipPath><clipPath id="ff5262cf83"><path d="M 39 754 L 2152 754 L 2152 1192.773438 L 39 1192.773438 Z M 39 754 " clip-rule="nonzero"/></clipPath><clipPath id="8a278c4e23"><path d="M 39 415 L 2152 415 L 2152 1192.773438 L 39 1192.773438 Z M 39 415 " clip-rule="nonzero"/></clipPath></defs><g clip-path="url(#3c9c84127f)"><path fill="#fafbfb" d="M 2676.355469 595.78125 L 2720.746094 634.96875 C 2750.121094 652.84375 2795.660156 668.980469 2813.511719 699.527344 C 2856.171875 772.703125 2816.394531 865.464844 2769.144531 925.96875 C 2720.746094 987.625 2646.980469 1035.457031 2566.300781 1034.308594 C 2542.664062 1034.308594 2517.882812 1026.8125 2500.03125 1011.257812 C 2478.710938 993.386719 2469.484375 964.011719 2453.929688 941.523438 C 2431.441406 907.535156 2407.242188 874.695312 2387.070312 838.972656 C 2378.429688 823.394531 2368.636719 807.277344 2354.230469 796.316406 C 2329.445312 778.46875 2295.453125 781.347656 2264.90625 779.613281 C 2157.710938 775 2060.914062 712.175781 1986.5625 634.96875 C 1912.234375 557.761719 1854.605469 466.128906 1787.1875 382.574219 C 1761.816406 350.878906 1706.507812 313.421875 1665.585938 319.1875 C 1670.761719 270.789062 1721.480469 239.683594 1769.898438 234.484375 C 1818.296875 229.304688 1866.132812 241.394531 1914.53125 241.394531 C 1967.542969 241.394531 2020.578125 226.425781 2073.003906 235.070312 C 2171.554688 252.355469 2233.210938 346.289062 2309.859375 410.238281 C 2343.289062 437.902344 2545.546875 479.386719 2676.355469 595.78125 " fill-opacity="1" fill-rule="nonzero"/></g><path fill="#304e9f" d="M 2034.195312 639.605469 C 2045.113281 680.101562 2072.667969 714.066406 2105.960938 737.859375 L 2106.003906 737.90625 C 2139.949219 761.71875 2179.546875 774.640625 2219.367188 781.664062 L 2219.390625 781.6875 C 2248.835938 786.660156 2289.082031 793.886719 2320.777344 793.910156 C 2321.992188 793.910156 2323.1875 793.886719 2324.378906 793.863281 L 2324.449219 793.863281 C 2324.988281 793.863281 2325.503906 793.839844 2326.023438 793.839844 C 2339.417969 793.886719 2350.3125 798.566406 2360.441406 806.785156 C 2375.546875 819.097656 2388.128906 839.804688 2399.722656 862.402344 C 2411.382812 885.003906 2422.144531 909.359375 2434.996094 929.097656 L 2435.019531 929.121094 C 2451.925781 954.804688 2471.195312 979.316406 2492.804688 1002.097656 C 2495.394531 1004.796875 2499.667969 1004.910156 2502.394531 1002.34375 C 2505.09375 999.757812 2505.207031 995.480469 2502.640625 992.753906 C 2481.59375 970.605469 2462.820312 946.703125 2446.320312 921.671875 L 2446.34375 921.695312 C 2430.316406 897.203125 2416.71875 862.628906 2399.339844 833.703125 C 2390.628906 819.230469 2380.925781 806.085938 2369.019531 796.292969 C 2357.15625 786.523438 2342.792969 780.265625 2326.023438 780.289062 C 2325.371094 780.289062 2324.71875 780.3125 2324.066406 780.335938 L 2324.132812 780.335938 C 2323.027344 780.359375 2321.925781 780.359375 2320.777344 780.359375 C 2291.042969 780.378906 2251.085938 773.335938 2221.664062 768.316406 L 2221.710938 768.335938 C 2183.148438 761.539062 2145.511719 749.09375 2113.769531 726.808594 L 2113.816406 726.851562 C 2082.570312 704.546875 2057.113281 672.808594 2047.273438 636.09375 C 2046.304688 632.492188 2042.59375 630.355469 2038.96875 631.324219 C 2035.367188 632.292969 2033.226562 636.003906 2034.195312 639.605469 " fill-opacity="1" fill-rule="nonzero"/><g clip-path="url(#30d50c04b9)"><path fill="#304e9f" d="M 1674.613281 310.519531 C 1686.878906 297.105469 1700.902344 282.96875 1716.164062 270.925781 C 1731.429688 258.859375 1747.90625 248.980469 1764.925781 243.847656 L 1764.945312 243.847656 C 1780.296875 239.164062 1795.222656 237.792969 1810.53125 237.792969 C 1827.347656 237.792969 1844.613281 239.480469 1863.023438 240.109375 L 1863.046875 240.109375 C 1874.777344 240.449219 1886.546875 240.539062 1898.300781 240.539062 C 1910.746094 240.539062 1923.171875 240.449219 1935.578125 240.449219 C 1950.839844 240.449219 1966.035156 240.582031 1981.070312 241.257812 L 1981.046875 241.257812 C 2028.949219 243.53125 2077.484375 251.523438 2119.308594 274.4375 L 2122.574219 268.496094 L 2119.261719 274.390625 C 2165.453125 300.234375 2203.992188 338.722656 2250.273438 368.683594 L 2250.296875 368.683594 C 2308.21875 405.757812 2368.09375 437.742188 2433.894531 459.871094 L 2433.847656 459.871094 C 2499.761719 482.582031 2559.433594 519.363281 2617.265625 560.53125 C 2675.09375 601.699219 2731.011719 647.261719 2789.515625 687.238281 C 2792.621094 689.351562 2796.832031 688.566406 2798.949219 685.480469 C 2801.042969 682.375 2800.253906 678.164062 2797.167969 676.050781 C 2739.273438 636.523438 2683.402344 591.03125 2625.121094 549.5 C 2566.820312 507.996094 2506.0625 470.449219 2438.261719 447.0625 L 2438.214844 447.039062 C 2373.789062 425.386719 2314.949219 393.984375 2257.613281 357.292969 L 2257.636719 357.292969 C 2212.886719 328.484375 2174.1875 289.742188 2125.882812 262.574219 L 2125.8125 262.550781 C 2081.21875 238.199219 2030.617188 230.070312 1981.699219 227.730469 L 1981.679688 227.730469 C 1966.328125 227.054688 1950.929688 226.898438 1935.578125 226.898438 C 1923.105469 226.898438 1910.679688 226.988281 1898.300781 226.988281 C 1886.617188 226.988281 1874.976562 226.898438 1863.453125 226.558594 L 1863.476562 226.558594 C 1845.625 225.976562 1828.246094 224.265625 1810.53125 224.242188 C 1794.414062 224.242188 1778.003906 225.703125 1761.007812 230.882812 L 1761.03125 230.882812 C 1741.738281 236.710938 1723.910156 247.5625 1707.769531 260.277344 C 1691.628906 273.019531 1677.15625 287.695312 1664.617188 301.382812 C 1662.09375 304.128906 1662.296875 308.402344 1665.042969 310.949219 C 1667.8125 313.46875 1672.089844 313.265625 1674.613281 310.519531 " fill-opacity="1" fill-rule="nonzero"/></g><g clip-path="url(#e30ee88ce3)"><path fill="#c2dbf3" d="M 2138.710938 280.019531 C 2129.484375 561.207031 2128.898438 901.773438 2151.386719 1182.398438 C 1450.632812 1160.496094 755.660156 1182.398438 39.351562 1192.1875 C 46.847656 887.367188 34.738281 582.546875 3.042969 278.847656 C 259.867188 277.339844 529.316406 281.28125 801.875 285.242188 C 1253.484375 291.792969 1713.578125 298.34375 2138.710938 280.019531 " fill-opacity="1" fill-rule="nonzero"/></g><path fill="#304e9f" d="M 403.867188 527.644531 C 588.699219 518.933594 774.074219 514.589844 959.226562 514.589844 C 1043.527344 514.589844 1127.785156 515.46875 1211.90625 517.269531 C 1215.664062 517.359375 1218.75 514.386719 1218.839844 510.652344 C 1218.90625 506.914062 1215.9375 503.808594 1212.199219 503.742188 C 1127.964844 501.941406 1043.617188 501.039062 959.226562 501.039062 C 773.851562 501.039062 588.273438 505.40625 403.234375 514.117188 C 399.5 514.296875 396.617188 517.472656 396.796875 521.183594 C 396.953125 524.945312 400.128906 527.824219 403.867188 527.644531 " fill-opacity="1" fill-rule="nonzero"/><path fill="#304e9f" d="M 1642.535156 383.585938 C 1768.726562 383.585938 1894.945312 383.585938 2021.140625 383.585938 C 2024.875 383.585938 2027.914062 380.570312 2027.914062 376.808594 C 2027.914062 373.074219 2024.875 370.058594 2021.140625 370.058594 C 1894.945312 370.058594 1768.726562 370.058594 1642.535156 370.058594 C 1638.796875 370.058594 1635.757812 373.074219 1635.757812 376.808594 C 1635.757812 380.570312 1638.796875 383.585938 1642.535156 383.585938 " fill-opacity="1" fill-rule="nonzero"/><path fill="#304e9f" d="M 307.316406 732.796875 C 875.507812 732.796875 1444.304688 732.796875 2012.496094 732.796875 C 2016.230469 732.796875 2019.269531 729.757812 2019.269531 726.019531 C 2019.269531 722.285156 2016.230469 719.246094 2012.496094 719.246094 C 1444.304688 719.246094 875.507812 719.246094 307.316406 719.246094 C 303.582031 719.246094 300.542969 722.285156 300.542969 726.019531 C 300.542969 729.757812 303.582031 732.796875 307.316406 732.796875 " fill-opacity="1" fill-rule="nonzero"/><path fill="#304e9f" d="M 307.316406 839.398438 C 875.507812 839.398438 1444.304688 839.398438 2012.496094 839.398438 C 2016.230469 839.398438 2019.269531 836.359375 2019.269531 832.625 C 2019.269531 828.886719 2016.230469 825.847656 2012.496094 825.847656 C 1444.304688 825.847656 875.507812 825.847656 307.316406 825.847656 C 303.582031 825.847656 300.542969 828.886719 300.542969 832.625 C 300.542969 836.359375 303.582031 839.398438 307.316406 839.398438 " fill-opacity="1" fill-rule="nonzero"/><path fill="#304e9f" d="M 1460.648438 996.695312 C 1559.828125 1002.007812 1661.148438 1007.160156 1762.246094 1007.160156 C 1847.359375 1007.160156 1932.289062 1003.515625 2015.625 993.207031 C 2019.339844 992.734375 2021.996094 989.355469 2021.523438 985.644531 C 2021.070312 981.929688 2017.671875 979.296875 2013.957031 979.769531 C 1931.34375 989.988281 1846.976562 993.632812 1762.246094 993.632812 C 1661.621094 993.632812 1560.527344 988.480469 1461.367188 983.167969 C 1457.632812 982.964844 1454.433594 985.84375 1454.234375 989.582031 C 1454.050781 993.320312 1456.910156 996.492188 1460.648438 996.695312 " fill-opacity="1" fill-rule="nonzero"/><g clip-path="url(#ff5262cf83)"><path fill="#d8dfee" d="M 39.351562 1192.773438 C 39.351562 1191.039062 39.351562 1189.894531 39.351562 1188.746094 C 39.375 1188.722656 39.398438 1188.722656 39.417969 1188.699219 C 39.398438 1189.894531 39.375 1191.019531 39.351562 1192.1875 C 532.019531 1185.457031 1014.601562 1172.988281 1495.921875 1172.988281 C 1714.386719 1172.988281 1932.605469 1175.578125 2151.386719 1182.398438 C 1933.167969 1175.597656 1715.625 1173.011719 1497.878906 1173.011719 C 1015.816406 1173.011719 532.761719 1185.636719 39.351562 1192.773438 M 2133.648438 771.78125 C 2133.558594 765.953125 2133.488281 760.121094 2133.398438 754.292969 L 2133.421875 754.292969 C 2133.488281 760.144531 2133.558594 765.953125 2133.648438 771.78125 " fill-opacity="1" fill-rule="nonzero"/></g><path fill="#d1d9e9" d="M 2132.792969 679.898438 C 2132.792969 677.085938 2132.769531 674.292969 2132.769531 671.503906 C 2132.769531 671.503906 2132.792969 671.503906 2132.792969 671.503906 C 2132.792969 674.292969 2132.816406 677.085938 2132.816406 679.898438 C 2132.816406 679.898438 2132.816406 679.898438 2132.792969 679.898438 " fill-opacity="1" fill-rule="nonzero"/><path fill="#304e9f" d="M 2133.421875 754.292969 L 2133.398438 754.292969 C 2133.398438 753.640625 2133.398438 753.03125 2133.378906 752.378906 L 2133.398438 752.378906 C 2133.398438 753.007812 2133.398438 753.660156 2133.421875 754.292969 " fill-opacity="1" fill-rule="nonzero"/><g clip-path="url(#8a278c4e23)"><path fill="#a3bee3" d="M 39.351562 1192.1875 C 39.375 1191.019531 39.398438 1189.894531 39.417969 1188.699219 C 274.96875 1101.746094 590.75 972.675781 906.730469 839.398438 C 1275.339844 839.398438 1644.066406 839.398438 2012.496094 839.398438 C 2016.230469 839.398438 2019.269531 836.359375 2019.269531 832.625 C 2019.269531 828.886719 2016.230469 825.847656 2012.496094 825.847656 C 1654.734375 825.847656 1296.75 825.847656 938.808594 825.847656 C 1012.214844 794.832031 1085.464844 763.65625 1157.589844 732.796875 C 1442.59375 732.796875 1727.625 732.796875 2012.496094 732.796875 C 2016.230469 732.796875 2019.269531 729.757812 2019.269531 726.019531 C 2019.269531 722.285156 2016.230469 719.246094 2012.496094 719.246094 C 1738.179688 719.246094 1463.664062 719.246094 1189.214844 719.246094 C 1457.070312 604.445312 1706.980469 495.027344 1886.707031 415.75 C 1884.949219 418.09375 1883.488281 420.660156 1882.292969 423.292969 C 1879.433594 429.683594 1878.0625 436.730469 1878.039062 443.59375 C 1878.0625 449.378906 1879.03125 455.074219 1881.234375 460.183594 L 1881.234375 460.164062 C 1890.039062 480.511719 1907.4375 499.441406 1927.066406 515.78125 C 1946.71875 532.101562 1968.691406 545.71875 1987.082031 554.632812 L 1987.261719 554.722656 C 1997.820312 559.382812 2007.722656 563.324219 2015.355469 568.949219 C 2018.867188 571.5625 2022.015625 574.554688 2024.964844 577.863281 C 2031.898438 594.746094 2037.347656 612.957031 2049.390625 626.324219 C 2059.746094 637.851562 2074.738281 644.761719 2089.144531 651.671875 C 2102.628906 660.15625 2117.371094 666.820312 2132.769531 671.503906 C 2132.769531 674.292969 2132.792969 677.085938 2132.792969 679.898438 C 2132.273438 679.898438 2131.734375 679.921875 2131.214844 679.921875 C 2126.601562 695.476562 2117.957031 712.761719 2117.371094 730.050781 C 2117.371094 734.664062 2117.371094 739.277344 2119.691406 743.308594 C 2122.503906 748.011719 2128.019531 750.398438 2133.378906 752.378906 C 2133.398438 753.03125 2133.398438 753.640625 2133.398438 754.292969 C 2133.488281 760.121094 2133.558594 765.953125 2133.648438 771.78125 C 2135.628906 913.589844 2141.097656 1054.320312 2151.386719 1182.398438 C 1932.605469 1175.578125 1714.386719 1172.988281 1495.921875 1172.988281 C 1014.601562 1172.988281 532.019531 1185.457031 39.351562 1192.1875 M 1461.007812 983.167969 C 1457.429688 983.167969 1454.433594 985.957031 1454.234375 989.582031 C 1454.050781 993.320312 1456.910156 996.492188 1460.648438 996.695312 C 1559.828125 1002.007812 1661.148438 1007.160156 1762.246094 1007.160156 C 1847.359375 1007.160156 1932.289062 1003.515625 2015.625 993.207031 C 2019.339844 992.734375 2021.996094 989.355469 2021.523438 985.644531 C 2021.09375 982.222656 2018.191406 979.699219 2014.8125 979.699219 C 2014.542969 979.699219 2014.25 979.722656 2013.957031 979.769531 C 1931.34375 989.988281 1846.976562 993.632812 1762.246094 993.632812 C 1661.621094 993.632812 1560.527344 988.480469 1461.367188 983.167969 C 1461.234375 983.167969 1461.121094 983.167969 1461.007812 983.167969 " fill-opacity="1" fill-rule="nonzero"/></g><path fill="#304e9f" d="M 2012.496094 732.796875 C 1727.625 732.796875 1442.59375 732.796875 1157.589844 732.796875 C 1168.167969 728.269531 1178.679688 723.769531 1189.214844 719.246094 C 1463.664062 719.246094 1738.179688 719.246094 2012.496094 719.246094 C 2016.230469 719.246094 2019.269531 722.285156 2019.269531 726.019531 C 2019.269531 729.757812 2016.230469 732.796875 2012.496094 732.796875 " fill-opacity="1" fill-rule="nonzero"/><path fill="#304e9f" d="M 2012.496094 839.398438 C 1644.066406 839.398438 1275.339844 839.398438 906.730469 839.398438 C 917.398438 834.898438 928.160156 830.351562 938.808594 825.847656 C 1296.75 825.847656 1654.734375 825.847656 2012.496094 825.847656 C 2016.230469 825.847656 2019.269531 828.886719 2019.269531 832.625 C 2019.269531 836.359375 2016.230469 839.398438 2012.496094 839.398438 " fill-opacity="1" fill-rule="nonzero"/><path fill="#304e9f" d="M 1762.246094 1007.160156 C 1661.148438 1007.160156 1559.828125 1002.007812 1460.648438 996.695312 C 1456.910156 996.492188 1454.050781 993.320312 1454.234375 989.582031 C 1454.433594 985.957031 1457.429688 983.167969 1461.007812 983.167969 C 1461.121094 983.167969 1461.234375 983.167969 1461.367188 983.167969 C 1560.527344 988.480469 1661.621094 993.632812 1762.246094 993.632812 C 1846.976562 993.632812 1931.34375 989.988281 2013.957031 979.769531 C 2014.25 979.722656 2014.542969 979.699219 2014.8125 979.699219 C 2018.191406 979.699219 2021.09375 982.222656 2021.523438 985.644531 C 2021.996094 989.355469 2019.339844 992.734375 2015.625 993.207031 C 1932.289062 1003.515625 1847.359375 1007.160156 1762.246094 1007.160156 " fill-opacity="1" fill-rule="nonzero"/><path fill="#d1d9e9" d="M 2134.074219 469.503906 C 2134.976562 412.984375 2136.304688 357.65625 2137.925781 304.308594 C 2137.992188 304.261719 2138.058594 304.238281 2138.128906 304.21875 C 2136.460938 357.566406 2135.109375 412.914062 2134.1875 469.480469 C 2134.144531 469.480469 2134.121094 469.480469 2134.074219 469.503906 " fill-opacity="1" fill-rule="nonzero"/><path fill="#a3bee3" d="M 2073.722656 474.476562 C 2033.859375 474.476562 1994.105469 461.128906 1962.476562 436.59375 L 1962.34375 436.480469 C 1953.992188 430.359375 1946.066406 423.585938 1938.03125 416.675781 C 1934.722656 413.679688 1931.097656 410.664062 1926.863281 408.210938 C 1923.128906 406.027344 1918.828125 404.316406 1914.058594 403.6875 C 1929.835938 396.707031 1944.984375 390.023438 1959.503906 383.585938 C 1980.035156 383.585938 2000.585938 383.585938 2021.140625 383.585938 C 2024.875 383.585938 2027.914062 380.570312 2027.914062 376.808594 C 2027.914062 373.074219 2024.875 370.058594 2021.140625 370.058594 C 2010.785156 370.058594 2000.429688 370.058594 1990.074219 370.058594 C 2058.351562 339.804688 2109.335938 317.070312 2137.925781 304.308594 C 2136.304688 357.65625 2134.976562 412.984375 2134.074219 469.503906 C 2120.726562 470.515625 2107.582031 471.820312 2094.75 473.238281 L 2094.683594 473.238281 C 2087.75 474.074219 2080.746094 474.476562 2073.769531 474.476562 C 2073.746094 474.476562 2073.746094 474.476562 2073.722656 474.476562 " fill-opacity="1" fill-rule="nonzero"/><path fill="#304e9f" d="M 2021.140625 383.585938 C 2000.585938 383.585938 1980.035156 383.585938 1959.503906 383.585938 C 1970.0625 378.925781 1980.238281 374.402344 1990.074219 370.058594 C 2000.429688 370.058594 2010.785156 370.058594 2021.140625 370.058594 C 2024.875 370.058594 2027.914062 373.074219 2027.914062 376.808594 C 2027.914062 380.570312 2024.875 383.585938 2021.140625 383.585938 " fill-opacity="1" fill-rule="nonzero"/><path fill="#fafbfb" d="M 2243.003906 662.046875 C 2169.820312 691.445312 2076.46875 658.019531 2039.011719 588.308594 C 2034.984375 580.8125 2031.515625 573.316406 2025.753906 567.554688 C 2017.109375 558.910156 2005 554.882812 1993.472656 550.265625 C 1967.542969 538.742188 1945.660156 519.722656 1924.320312 500.703125 C 1909.914062 488.027344 1894.945312 474.769531 1887.449219 456.921875 C 1879.953125 439.046875 1890.332031 414.265625 1905.886719 402.742188 C 1925.492188 411.96875 1941.046875 428.109375 1958.335938 441.367188 C 2000.96875 473.621094 2056.300781 487.464844 2108.726562 478.824219 C 2123.136719 476.503906 2137.542969 472.476562 2151.949219 473.621094 C 2207.863281 478.238281 2274.699219 467.859375 2321.386719 498.992188 L 2243.003906 662.046875 " fill-opacity="1" fill-rule="nonzero"/><path fill="#d1d9e9" d="M 2164.800781 679.15625 C 2160.007812 678.300781 2155.234375 677.21875 2150.507812 675.9375 C 2157.6875 677.355469 2164.9375 678.367188 2172.207031 678.929688 C 2169.730469 679.019531 2167.257812 679.089844 2164.800781 679.15625 " fill-opacity="1" fill-rule="nonzero"/><path fill="#8aa7d6" d="M 2089.144531 651.671875 C 2074.738281 644.761719 2059.746094 637.851562 2049.390625 626.324219 C 2037.347656 612.957031 2031.898438 594.746094 2024.964844 577.863281 C 2030.683594 584.300781 2035.570312 591.863281 2040.519531 599.855469 C 2048.0625 611.941406 2055.671875 624.953125 2067.355469 635.417969 L 2067.375 635.441406 C 2074.152344 641.429688 2081.421875 646.855469 2089.144531 651.671875 " fill-opacity="1" fill-rule="nonzero"/><path fill="#d1d9e9" d="M 2251.511719 644.355469 L 2262.566406 621.398438 C 2259.910156 629.296875 2255.765625 637.039062 2251.511719 644.355469 " fill-opacity="1" fill-rule="nonzero"/><path fill="#d1d9e9" d="M 2185.738281 665.898438 C 2145.9375 665.921875 2105.488281 651.085938 2076.335938 625.289062 L 2076.359375 625.3125 C 2066.722656 616.757812 2059.632812 604.988281 2052.046875 592.71875 C 2044.414062 580.496094 2036.246094 567.710938 2023.480469 558.101562 L 2023.414062 558.054688 C 2018.527344 554.476562 2013.328125 551.664062 2008.0625 549.164062 C 2006.914062 547.949219 2005.699219 546.777344 2004.4375 545.652344 C 1999.6875 541.667969 1994.417969 540.699219 1988.882812 540.40625 C 1972.382812 532.011719 1952.933594 519.675781 1935.710938 505.382812 C 1917.027344 489.875 1901 471.933594 1893.664062 454.804688 C 1892.355469 451.789062 1891.589844 447.828125 1891.589844 443.59375 C 1891.570312 436.910156 1893.527344 429.707031 1896.925781 424.753906 C 1898.613281 422.257812 1900.574219 420.320312 1902.777344 419.015625 C 1904.738281 417.867188 1906.875 417.148438 1909.464844 417.011719 C 1926.257812 464.527344 1962.363281 504.707031 2007.316406 526.632812 C 2019.992188 532.394531 2033.25 537.59375 2045.921875 542.769531 C 2081.648438 557.175781 2115.660156 576.199219 2151.949219 590.019531 C 2179.050781 600.351562 2207.730469 607.777344 2236.339844 607.777344 C 2246.089844 607.777344 2255.8125 606.902344 2265.492188 605.011719 C 2265.492188 610.503906 2264.367188 615.972656 2262.566406 621.398438 L 2251.511719 644.355469 C 2249.824219 647.261719 2248.113281 650.097656 2246.46875 652.84375 C 2245.886719 653.742188 2245.300781 654.621094 2244.648438 655.5 C 2244.105469 655.339844 2243.566406 655.273438 2243.003906 655.273438 C 2242.171875 655.273438 2241.316406 655.429688 2240.503906 655.769531 C 2223.261719 662.632812 2204.625 665.898438 2185.828125 665.898438 C 2185.804688 665.898438 2185.757812 665.898438 2185.738281 665.898438 " fill-opacity="1" fill-rule="nonzero"/><path fill="#304e9f" d="M 2240.503906 655.769531 C 2223.261719 662.632812 2204.625 665.921875 2185.828125 665.898438 C 2146.007812 665.941406 2105.507812 651.109375 2076.335938 625.289062 L 2076.359375 625.3125 C 2066.722656 616.757812 2059.632812 604.988281 2052.046875 592.71875 C 2044.414062 580.496094 2036.246094 567.710938 2023.480469 558.101562 L 2023.414062 558.054688 C 2013.777344 551.03125 2002.929688 546.890625 1992.777344 542.34375 L 1990.03125 548.535156 L 1992.980469 542.433594 C 1975.644531 534.058594 1954.375 520.890625 1935.710938 505.382812 C 1917.027344 489.875 1901 471.933594 1893.664062 454.804688 C 1892.355469 451.789062 1891.589844 447.828125 1891.589844 443.59375 C 1891.570312 436.910156 1893.527344 429.707031 1896.925781 424.753906 C 1898.613281 422.257812 1900.574219 420.320312 1902.777344 419.015625 C 1904.984375 417.730469 1907.394531 416.988281 1910.410156 416.988281 L 1911.308594 417.011719 L 1911.648438 410.238281 L 1911.199219 416.988281 C 1914.28125 417.214844 1917.117188 418.203125 1920.066406 419.914062 C 1923.015625 421.625 1925.988281 424.035156 1929.003906 426.78125 L 1929.140625 426.914062 C 1937.21875 433.828125 1945.414062 440.847656 1954.328125 447.398438 L 1958.335938 441.929688 L 1954.171875 447.285156 C 1988.273438 473.734375 2030.886719 488.007812 2073.769531 488.027344 C 2081.289062 488.027344 2088.804688 487.578125 2096.28125 486.699219 L 2096.210938 486.699219 C 2126.128906 483.414062 2157.554688 480.734375 2188.84375 480.734375 C 2234.425781 480.734375 2279.71875 486.453125 2319.808594 504.03125 C 2323.230469 505.539062 2327.238281 503.964844 2328.722656 500.542969 C 2330.234375 497.121094 2328.679688 493.136719 2325.257812 491.628906 C 2282.667969 472.992188 2235.53125 467.207031 2188.84375 467.207031 C 2156.765625 467.207031 2124.890625 469.929688 2094.75 473.238281 L 2094.683594 473.238281 C 2087.75 474.074219 2080.746094 474.476562 2073.769531 474.476562 C 2033.902344 474.476562 1994.105469 461.128906 1962.476562 436.59375 L 1962.34375 436.480469 C 1953.96875 430.335938 1946.023438 423.539062 1937.964844 416.628906 L 1933.550781 421.761719 L 1938.097656 416.765625 C 1934.789062 413.726562 1931.121094 410.6875 1926.863281 408.210938 C 1922.609375 405.734375 1917.660156 403.84375 1912.097656 403.484375 L 1911.984375 403.484375 C 1911.46875 403.460938 1910.925781 403.4375 1910.410156 403.4375 C 1905.03125 403.4375 1900.03125 404.878906 1895.867188 407.378906 C 1889.566406 411.113281 1885.175781 416.921875 1882.292969 423.292969 C 1879.433594 429.683594 1878.0625 436.730469 1878.039062 443.59375 C 1878.0625 449.378906 1879.03125 455.074219 1881.234375 460.183594 L 1881.234375 460.164062 C 1890.039062 480.511719 1907.4375 499.441406 1927.066406 515.78125 C 1946.71875 532.101562 1968.691406 545.71875 1987.082031 554.632812 L 1987.261719 554.722656 C 1997.839844 559.40625 2007.769531 563.34375 2015.421875 568.972656 L 2019.40625 563.523438 L 2015.355469 568.925781 C 2025.640625 576.625 2033.023438 587.746094 2040.519531 599.855469 C 2048.0625 611.941406 2055.671875 624.953125 2067.355469 635.417969 L 2067.375 635.441406 C 2099.273438 663.625 2142.695312 679.425781 2185.828125 679.449219 C 2206.199219 679.449219 2226.527344 675.890625 2245.523438 668.351562 C 2248.992188 666.976562 2250.679688 663.039062 2249.308594 659.550781 C 2247.910156 656.082031 2243.972656 654.371094 2240.503906 655.769531 " fill-opacity="1" fill-rule="nonzero"/><path fill="#d8dfee" d="M 2597.476562 1032.328125 C 2618.277344 1029.421875 2638.425781 1023.390625 2657.605469 1014.882812 C 2642.90625 1023.324219 2620.910156 1029.714844 2597.476562 1032.328125 M 2512.296875 1020.105469 C 2507.773438 1017.5625 2503.652344 1014.636719 2500.03125 1011.257812 C 2503.835938 1014.566406 2507.953125 1017.515625 2512.296875 1020.105469 M 2485.171875 994.828125 C 2479.996094 988.816406 2474.929688 982.671875 2470.023438 976.414062 C 2474.054688 981.277344 2478.195312 986.09375 2482.425781 990.820312 C 2483.328125 992.171875 2484.226562 993.5 2485.171875 994.828125 M 2366.632812 812.410156 C 2354.453125 804.578125 2339.933594 801.921875 2325.414062 799.78125 C 2311.007812 797.148438 2296.601562 794.335938 2282.21875 791.296875 C 2295.589844 792.851562 2308.800781 793.886719 2320.777344 793.910156 C 2321.992188 793.910156 2323.1875 793.886719 2324.378906 793.863281 L 2324.449219 793.863281 C 2324.988281 793.863281 2325.503906 793.839844 2326.023438 793.839844 C 2339.417969 793.886719 2350.3125 798.566406 2360.441406 806.785156 C 2362.558594 808.496094 2364.605469 810.386719 2366.632812 812.410156 " fill-opacity="1" fill-rule="nonzero"/><path fill="#d1d9e9" d="M 2574.496094 1033.632812 C 2551.667969 1033.632812 2529.226562 1029.648438 2512.296875 1020.105469 C 2507.953125 1017.515625 2503.835938 1014.566406 2500.03125 1011.257812 C 2494.964844 1005.921875 2490.011719 1000.429688 2485.171875 994.828125 C 2484.226562 993.5 2483.328125 992.171875 2482.425781 990.820312 C 2485.824219 994.625 2489.292969 998.382812 2492.804688 1002.097656 C 2494.132812 1003.492188 2495.933594 1004.191406 2497.710938 1004.191406 C 2499.398438 1004.191406 2501.066406 1003.582031 2502.394531 1002.34375 C 2505.09375 999.757812 2505.207031 995.480469 2502.640625 992.753906 C 2481.617188 970.605469 2462.84375 946.722656 2446.34375 921.695312 C 2430.316406 897.203125 2416.71875 862.628906 2399.339844 833.703125 C 2390.628906 819.230469 2380.925781 806.085938 2369.019531 796.292969 C 2357.199219 786.570312 2342.859375 780.289062 2326.179688 780.289062 C 2326.113281 780.289062 2326.066406 780.289062 2326.023438 780.289062 C 2325.394531 780.289062 2324.738281 780.3125 2324.109375 780.335938 C 2323.007812 780.359375 2321.902344 780.359375 2320.777344 780.359375 C 2320.734375 780.359375 2320.6875 780.359375 2320.644531 780.359375 C 2290.929688 780.359375 2251.039062 773.335938 2221.664062 768.316406 L 2221.710938 768.335938 C 2190.78125 762.867188 2160.414062 753.796875 2133.242188 738.894531 C 2133.039062 719.222656 2132.90625 699.550781 2132.816406 679.898438 C 2143.441406 679.695312 2154.109375 679.492188 2164.800781 679.15625 C 2165.117188 679.222656 2165.453125 679.289062 2165.792969 679.335938 C 2170.292969 680.035156 2175.179688 680.394531 2180.265625 680.394531 C 2185.917969 680.394531 2191.792969 679.945312 2197.667969 679.042969 C 2205.230469 678.523438 2212.726562 677.511719 2220.15625 675.960938 C 2255.765625 672.582031 2290.882812 666.054688 2324.265625 652.84375 C 2361.140625 671.863281 2385.921875 705.289062 2411.269531 738.109375 C 2448.726562 787.109375 2487.917969 834.921875 2528.84375 881.019531 C 2549.011719 903.507812 2637.75 996.265625 2667.148438 1003.761719 C 2668.882812 1005.496094 2666.5625 1008.378906 2664.832031 1010.109375 C 2662.691406 1011.753906 2660.261719 1013.351562 2657.605469 1014.882812 C 2638.425781 1023.390625 2618.277344 1029.421875 2597.476562 1032.328125 C 2589.890625 1033.183594 2582.171875 1033.632812 2574.496094 1033.632812 " fill-opacity="1" fill-rule="nonzero"/><path fill="#304e9f" d="M 2497.710938 1004.191406 C 2495.933594 1004.191406 2494.132812 1003.492188 2492.804688 1002.097656 C 2489.292969 998.382812 2485.824219 994.625 2482.425781 990.820312 C 2478.195312 986.09375 2474.054688 981.277344 2470.023438 976.414062 C 2442.3125 941.097656 2418.765625 901.75 2400.332031 861.4375 C 2392.273438 844.148438 2384.777344 825.128906 2369.222656 814.1875 C 2368.367188 813.558594 2367.511719 812.972656 2366.632812 812.410156 C 2364.605469 810.386719 2362.558594 808.496094 2360.441406 806.785156 C 2350.3125 798.566406 2339.417969 793.886719 2326.023438 793.839844 C 2325.503906 793.839844 2324.988281 793.863281 2324.449219 793.863281 L 2324.378906 793.863281 C 2323.1875 793.886719 2321.992188 793.910156 2320.777344 793.910156 C 2308.800781 793.886719 2295.589844 792.851562 2282.21875 791.296875 C 2233.300781 780.988281 2184.613281 768.382812 2136.980469 753.683594 C 2135.808594 753.257812 2134.59375 752.828125 2133.398438 752.378906 C 2133.332031 747.875 2133.289062 743.398438 2133.242188 738.894531 C 2160.414062 753.796875 2190.78125 762.867188 2221.710938 768.335938 L 2221.664062 768.316406 C 2251.039062 773.335938 2290.929688 780.359375 2320.644531 780.359375 C 2320.6875 780.359375 2320.734375 780.359375 2320.777344 780.359375 C 2321.902344 780.359375 2323.007812 780.359375 2324.109375 780.335938 C 2324.738281 780.3125 2325.394531 780.289062 2326.023438 780.289062 C 2326.066406 780.289062 2326.113281 780.289062 2326.179688 780.289062 C 2342.859375 780.289062 2357.199219 786.570312 2369.019531 796.292969 C 2380.925781 806.085938 2390.628906 819.230469 2399.339844 833.703125 C 2416.71875 862.628906 2430.316406 897.203125 2446.34375 921.695312 C 2462.84375 946.722656 2481.617188 970.605469 2502.640625 992.753906 C 2505.207031 995.480469 2505.09375 999.757812 2502.394531 1002.34375 C 2501.066406 1003.582031 2499.398438 1004.191406 2497.710938 1004.191406 " fill-opacity="1" fill-rule="nonzero"/><path fill="#afbddb" d="M 2133.242188 738.894531 C 2133.015625 719.222656 2132.882812 699.550781 2132.792969 679.898438 C 2132.816406 679.898438 2132.816406 679.898438 2132.816406 679.898438 C 2132.90625 699.550781 2133.039062 719.222656 2133.242188 738.894531 " fill-opacity="1" fill-rule="nonzero"/><path fill="#304e9f" d="M 2133.398438 752.378906 L 2133.378906 752.378906 C 2133.332031 747.898438 2133.289062 743.398438 2133.242188 738.894531 C 2133.289062 743.398438 2133.332031 747.875 2133.398438 752.378906 " fill-opacity="1" fill-rule="nonzero"/><path fill="#8aa7d6" d="M 2133.378906 752.378906 C 2128.019531 750.398438 2122.503906 748.011719 2119.691406 743.308594 C 2117.371094 739.277344 2117.371094 734.664062 2117.371094 730.050781 C 2117.957031 712.761719 2126.601562 695.476562 2131.214844 679.921875 C 2131.734375 679.921875 2132.273438 679.898438 2132.792969 679.898438 C 2132.882812 699.550781 2133.015625 719.222656 2133.242188 738.894531 C 2133.289062 743.398438 2133.332031 747.898438 2133.378906 752.378906 " fill-opacity="1" fill-rule="nonzero"/><path fill="#afbddb" d="M 2180.265625 680.394531 C 2175.179688 680.394531 2170.292969 680.035156 2165.792969 679.335938 C 2165.453125 679.289062 2165.117188 679.222656 2164.800781 679.15625 C 2167.257812 679.089844 2169.730469 679.019531 2172.207031 678.929688 C 2176.734375 679.269531 2181.28125 679.449219 2185.828125 679.449219 C 2189.789062 679.449219 2193.726562 679.3125 2197.667969 679.042969 C 2191.792969 679.945312 2185.917969 680.394531 2180.265625 680.394531 " fill-opacity="1" fill-rule="nonzero"/><path fill="#304e9f" d="M 2185.828125 679.449219 C 2181.28125 679.449219 2176.734375 679.269531 2172.207031 678.929688 C 2188.214844 678.34375 2204.242188 677.46875 2220.15625 675.960938 C 2212.726562 677.511719 2205.230469 678.523438 2197.667969 679.042969 C 2193.726562 679.3125 2189.789062 679.449219 2185.828125 679.449219 " fill-opacity="1" fill-rule="nonzero"/><path fill="#fcd379" d="M 217.996094 331.296875 C 296.917969 331.296875 360.914062 395.289062 360.914062 474.207031 C 360.914062 553.125 296.917969 617.121094 217.996094 617.121094 C 139.050781 617.121094 75.074219 553.125 75.074219 474.207031 C 75.074219 395.289062 139.050781 331.296875 217.996094 331.296875 " fill-opacity="1" fill-rule="nonzero"/><path fill="#304e9f" d="M 264.097656 497.257812 C 264.097656 517.988281 250.253906 529.511719 230.082031 532.394531 L 230.082031 545.652344 C 230.082031 548.535156 228.9375 550.851562 224.90625 550.851562 L 211.648438 550.851562 C 207.617188 550.851562 206.46875 549.117188 206.46875 545.652344 L 206.46875 532.394531 C 188.597656 528.367188 172.457031 516.839844 172.457031 497.257812 C 172.457031 493.226562 173.628906 492.644531 177.65625 492.644531 L 194.359375 492.644531 C 198.390625 492.644531 200.121094 493.226562 200.707031 497.257812 C 200.707031 499.554688 201.855469 501.871094 204.152344 504.167969 C 207.617188 508.195312 214.527344 509.929688 220.878906 509.929688 C 230.082031 509.929688 237.578125 507.632812 237.578125 498.40625 C 237.578125 488.613281 222.609375 488.613281 207.617188 484 C 190.332031 478.238281 174.191406 471.890625 174.191406 450.011719 C 174.191406 430.988281 189.183594 420.027344 207.03125 417.148438 L 207.03125 403.324219 C 207.03125 400.445312 208.203125 398.148438 212.234375 398.148438 L 225.492188 398.148438 C 229.519531 398.148438 230.667969 399.859375 230.667969 403.324219 L 230.667969 417.148438 C 247.371094 420.613281 261.777344 430.40625 261.777344 448.277344 C 261.777344 452.304688 260.628906 452.890625 256.601562 452.890625 L 239.3125 452.890625 C 235.847656 452.890625 235.285156 450.574219 234.699219 448.277344 C 234.136719 446.542969 232.964844 444.8125 231.253906 443.078125 C 227.789062 440.195312 222.023438 438.484375 216.847656 438.484375 C 211.085938 438.484375 201.855469 440.78125 201.855469 448.277344 C 201.855469 458.652344 227.203125 462.683594 234.136719 464.980469 C 245.660156 469.007812 264.097656 473.621094 264.097656 497.257812 " fill-opacity="1" fill-rule="nonzero"/><g fill="#000000" fill-opacity="1"><g transform="translate(1404.817463, 1276.040344)"><g><path d="M 0.359375 -0.078125 L 0.390625 -0.03125 C 0.378906 -0.0195312 0.363281 -0.0078125 0.34375 0 C 0.320312 0.0078125 0.296875 0.015625 0.265625 0.015625 C 0.171875 0.015625 0.125 -0.0351562 0.125 -0.140625 L 0.125 -0.46875 L 0.03125 -0.46875 L 0.03125 -0.546875 L 0.125 -0.546875 L 0.125 -0.65625 L 0.203125 -0.671875 L 0.203125 -0.546875 L 0.375 -0.546875 L 0.375 -0.46875 L 0.203125 -0.46875 L 0.203125 -0.15625 C 0.203125 -0.09375 0.226562 -0.0625 0.28125 -0.0625 C 0.3125 -0.0625 0.335938 -0.0664062 0.359375 -0.078125 Z M 0.359375 -0.078125 "/></g></g></g></svg>