<svg xmlns="http://www.w3.org/2000/svg" xmlns:xlink="http://www.w3.org/1999/xlink" width="1536" zoomAndPan="magnify" viewBox="0 0 1152 1123.499971" height="1498" preserveAspectRatio="xMidYMid meet" version="1.0"><defs><g/></defs><path fill="#caddff" d="M 1089.46875 241.210938 C 1054 171.492188 983.105469 133.828125 939.148438 110.464844 C 749.113281 9.484375 490.25 36.371094 318.183594 130.527344 C 148.34375 223.464844 0.328125 443.511719 62.375 682.59375 C 124.660156 922.601562 367.074219 1046.007812 550.429688 1072.171875 C 841.578125 1113.71875 1086.1875 924.703125 1099.585938 859.105469 C 1103.707031 838.871094 1102.628906 820.949219 1102.628906 820.949219 C 1097.464844 773.59375 1057.46875 745.457031 1048.148438 637.53125 C 1031.003906 438.9375 1151.6875 363.476562 1089.46875 241.210938 " fill-opacity="1" fill-rule="nonzero"/><path fill="#99b9ff" d="M 748.519531 907.757812 C 713.070312 907.757812 679.085938 921.46875 654.027344 945.875 C 628.964844 970.277344 594.980469 983.988281 559.542969 983.988281 L 301.953125 983.988281 C 383.140625 1032.101562 472.160156 1061.003906 550.429688 1072.171875 C 785.949219 1105.785156 991.007812 988.519531 1067.859375 907.757812 L 748.519531 907.757812 " fill-opacity="1" fill-rule="nonzero"/><path fill="#5479f7" d="M 539.265625 1074.476562 L 109.238281 1074.476562 C 90.941406 1074.476562 76.113281 1059.097656 76.113281 1040.128906 L 118.035156 140.277344 C 118.035156 121.308594 132.867188 105.929688 151.164062 105.929688 L 581.191406 105.929688 C 599.484375 105.929688 614.316406 121.308594 614.316406 140.277344 L 572.394531 1040.128906 C 572.394531 1059.097656 557.558594 1074.476562 539.265625 1074.476562 " fill-opacity="1" fill-rule="nonzero"/><path fill="#99b9ff" d="M 513.808594 1072.320312 L 83.78125 1072.320312 C 65.484375 1072.320312 50.652344 1057.015625 50.652344 1038.125 L 92.578125 138.1875 C 92.578125 119.296875 107.410156 103.988281 125.703125 103.988281 L 555.730469 103.988281 C 574.027344 103.988281 588.863281 119.296875 588.863281 138.1875 L 546.9375 1038.125 C 546.9375 1057.015625 532.101562 1072.320312 513.808594 1072.320312 " fill-opacity="1" fill-rule="nonzero"/><path fill="#5479f7" d="M 125.707031 105.847656 C 108.464844 105.847656 94.441406 120.351562 94.441406 138.179688 L 52.515625 1038.210938 C 52.515625 1055.953125 66.542969 1070.457031 83.78125 1070.457031 L 513.8125 1070.457031 C 531.050781 1070.457031 545.078125 1055.953125 545.078125 1038.125 L 587 138.09375 C 587 120.351562 572.976562 105.847656 555.734375 105.847656 Z M 513.8125 1074.183594 L 83.78125 1074.183594 C 64.488281 1074.183594 48.792969 1058.007812 48.792969 1038.125 L 90.71875 138.09375 C 90.714844 118.292969 106.410156 102.121094 125.707031 102.121094 L 555.734375 102.121094 C 575.03125 102.121094 590.726562 118.292969 590.726562 138.179688 L 548.796875 1038.210938 C 548.804688 1058.007812 533.105469 1074.183594 513.8125 1074.183594 " fill-opacity="1" fill-rule="nonzero"/><path fill="#ffffff" d="M 494.328125 1052.339844 L 102.363281 1052.339844 C 85.6875 1052.339844 72.167969 1038.386719 72.167969 1021.175781 L 112.628906 157.367188 C 112.628906 140.148438 126.148438 126.191406 142.824219 126.191406 L 534.789062 126.191406 C 551.460938 126.191406 564.984375 140.148438 564.984375 157.367188 L 524.523438 1021.175781 C 524.523438 1038.386719 511.003906 1052.339844 494.328125 1052.339844 " fill-opacity="1" fill-rule="nonzero"/><path fill="#99b9ff" d="M 247.539062 124.722656 L 257.910156 140.503906 C 264.210938 150.085938 274.769531 155.835938 286.066406 155.835938 L 390.785156 155.835938 C 401.839844 155.835938 412.203125 150.335938 418.550781 141.078125 L 429.78125 124.722656 L 247.539062 124.722656 " fill-opacity="1" fill-rule="nonzero"/><path fill="#ffffff" d="M 402.464844 247.546875 L 67.785156 247.546875 C 58.902344 247.546875 51.824219 240.3125 52.257812 231.664062 L 54.160156 194.03125 C 54.570312 185.964844 61.398438 179.632812 69.6875 179.632812 L 404.363281 179.632812 C 413.25 179.632812 420.328125 186.875 419.890625 195.515625 L 417.988281 233.160156 C 417.582031 241.214844 410.75 247.546875 402.464844 247.546875 " fill-opacity="1" fill-rule="nonzero"/><path fill="#5479f7" d="M 69.6875 181.492188 C 62.382812 181.492188 56.378906 187.039062 56.023438 194.117188 L 54.117188 231.753906 C 53.9375 235.34375 55.21875 238.773438 57.726562 241.410156 C 60.351562 244.164062 63.921875 245.6875 67.785156 245.6875 L 402.464844 245.6875 C 409.769531 245.6875 415.773438 240.136719 416.128906 233.054688 L 418.03125 195.414062 C 418.214844 191.832031 416.933594 188.40625 414.425781 185.769531 C 411.804688 183.015625 408.230469 181.492188 404.367188 181.492188 Z M 402.464844 249.414062 L 67.785156 249.414062 C 62.960938 249.414062 58.3125 247.425781 55.027344 243.972656 C 51.808594 240.589844 50.164062 236.183594 50.398438 231.574219 L 52.300781 193.925781 C 52.757812 184.863281 60.394531 177.765625 69.6875 177.765625 L 404.367188 177.765625 C 409.191406 177.765625 413.839844 179.742188 417.125 183.203125 C 420.34375 186.582031 421.984375 190.988281 421.753906 195.605469 L 419.851562 233.246094 C 419.394531 242.308594 411.757812 249.414062 402.464844 249.414062 " fill-opacity="1" fill-rule="nonzero"/><path fill="#99b9ff" d="M 265.398438 224.453125 L 159.761719 224.453125 C 153.382812 224.453125 148.300781 219.257812 148.613281 213.050781 C 148.90625 207.261719 153.808594 202.714844 159.761719 202.714844 L 265.398438 202.714844 C 271.777344 202.714844 276.859375 207.914062 276.546875 214.121094 C 276.253906 219.90625 271.351562 224.453125 265.398438 224.453125 " fill-opacity="1" fill-rule="nonzero"/><path fill="#caddff" d="M 366.019531 224.453125 L 303.882812 224.453125 C 297.503906 224.453125 292.421875 219.257812 292.738281 213.050781 C 293.027344 207.261719 297.933594 202.714844 303.882812 202.714844 L 366.019531 202.714844 C 372.398438 202.714844 377.480469 207.914062 377.167969 214.121094 C 376.875 219.90625 371.972656 224.453125 366.019531 224.453125 " fill-opacity="1" fill-rule="nonzero"/><path fill="#5479f7" d="M 105.464844 193.914062 C 96.277344 193.914062 88.804688 201.171875 88.804688 210.085938 C 88.804688 219.007812 96.277344 226.261719 105.464844 226.261719 C 114.648438 226.261719 122.125 219.007812 122.125 210.085938 C 122.125 201.171875 114.648438 193.914062 105.464844 193.914062 Z M 105.464844 229.996094 C 94.222656 229.996094 85.078125 221.066406 85.078125 210.085938 C 85.078125 199.117188 94.222656 190.1875 105.464844 190.1875 C 116.703125 190.1875 125.847656 199.117188 125.847656 210.085938 C 125.847656 221.066406 116.703125 229.996094 105.464844 229.996094 " fill-opacity="1" fill-rule="nonzero"/><path fill="#5479f7" d="M 80.332031 237.597656 C 79.839844 237.597656 79.351562 237.40625 78.984375 237.023438 C 78.273438 236.28125 78.300781 235.097656 79.046875 234.386719 L 91.824219 222.183594 C 92.566406 221.46875 93.746094 221.496094 94.457031 222.242188 C 95.167969 222.984375 95.140625 224.167969 94.398438 224.871094 L 81.617188 237.082031 C 81.257812 237.429688 80.792969 237.597656 80.332031 237.597656 " fill-opacity="1" fill-rule="nonzero"/><path fill="#ffffff" d="M 1102.882812 471.109375 C 1102.882812 691.257812 920.859375 869.726562 696.328125 869.726562 C 471.785156 869.726562 289.761719 691.257812 289.761719 471.109375 C 289.761719 250.960938 471.785156 72.488281 696.328125 72.488281 C 920.859375 72.488281 1102.882812 250.960938 1102.882812 471.109375 " fill-opacity="1" fill-rule="nonzero"/><path fill="#000000" d="M 696.328125 871.59375 C 594.710938 871.59375 497.332031 834.769531 422.109375 767.910156 C 421.339844 767.226562 421.273438 766.050781 421.953125 765.28125 C 422.640625 764.511719 423.8125 764.441406 424.585938 765.125 C 499.125 831.375 595.625 867.867188 696.328125 867.867188 C 707.054688 867.867188 717.894531 867.449219 728.542969 866.625 C 729.566406 866.53125 730.464844 867.316406 730.542969 868.339844 C 730.617188 869.363281 729.855469 870.261719 728.824219 870.34375 C 718.085938 871.171875 707.152344 871.59375 696.328125 871.59375 " fill-opacity="1" fill-rule="nonzero"/><path fill="#caddff" d="M 618.195312 108.148438 C 616.523438 110.550781 621.488281 118.636719 631.363281 118.636719 C 641.242188 118.636719 646.175781 117.023438 650.292969 127.511719 C 654.40625 138 648.648438 173.507812 654.40625 186.417969 C 660.167969 199.328125 670.046875 207.394531 677.445312 200.132812 C 684.851562 192.871094 684.03125 173.507812 693.085938 168.664062 C 702.136719 163.824219 735.054688 144.460938 736.703125 128.316406 C 738.347656 112.179688 726.832031 100.078125 698.023438 96.851562 C 669.222656 93.621094 630.535156 90.394531 618.195312 108.148438 " fill-opacity="1" fill-rule="nonzero"/><path fill="#99b9ff" d="M 507.652344 469.59375 C 503.347656 471.703125 500.773438 475.742188 500.980469 480.050781 C 501.636719 493.589844 495.785156 527.308594 483.503906 538.082031 C 467.859375 551.796875 473.628906 576.519531 473.382812 586.496094 C 472.886719 606.761719 475.121094 615.773438 499.964844 625.460938 C 524.808594 635.144531 534.535156 635.695312 536.375 655.058594 C 538.214844 674.421875 541.078125 749.234375 548.4375 768.597656 C 555.800781 787.96875 571.441406 819.429688 579.726562 826.695312 C 588.003906 833.957031 607.332031 837.992188 595.367188 810.5625 C 583.40625 783.125 576.046875 770.214844 589.84375 754.882812 C 603.648438 739.550781 626.652344 704.046875 628.492188 690.332031 C 630.332031 676.609375 638.613281 668.542969 645.972656 666.925781 C 653.339844 665.3125 668.976562 660.476562 673.578125 655.628906 C 678.175781 650.792969 668.976562 637.070312 666.214844 624.96875 C 663.457031 612.867188 663.457031 605.605469 686.460938 595.925781 C 709.464844 586.234375 698.421875 558.804688 667.136719 551.542969 C 635.851562 544.277344 616.527344 528.949219 620.207031 513.617188 C 623.886719 498.289062 599.046875 499.902344 584.324219 492.640625 C 569.601562 485.375 570.046875 473.972656 553.660156 468.535156 C 531.511719 461.1875 515.96875 465.527344 507.652344 469.59375 " fill-opacity="1" fill-rule="nonzero"/><path fill="#99b9ff" d="M 992.328125 449.183594 C 985.394531 438.988281 986.261719 422.832031 1003.601562 400.738281 C 1017.21875 383.382812 997.675781 366.019531 988.660156 359.371094 C 987.011719 358.148438 987.753906 355.617188 989.816406 355.390625 C 1000.984375 354.152344 1026.886719 357.828125 1038.277344 414.339844 C 1053.011719 487.429688 1059.078125 461.933594 1066.882812 453.429688 C 1074.683594 444.9375 1060.082031 429.058594 1074.683594 412.636719 C 1083.882812 402.285156 1088.558594 387.179688 1090.925781 374.871094 C 1061.613281 258.925781 980.554688 163.019531 873.152344 112.074219 C 873.308594 124.804688 870.183594 169.140625 817.21875 150.851562 C 817.21875 150.851562 784.28125 135.558594 792.082031 197.601562 C 799.878906 259.648438 826.757812 193.355469 831.953125 190.804688 C 837.15625 188.253906 851.023438 184.855469 844.964844 226.5 C 844.964844 226.5 844.09375 240.949219 817.21875 238.398438 C 790.347656 235.847656 785.144531 248.597656 785.144531 255.402344 C 785.144531 262.199219 787.746094 280.042969 773.011719 292.796875 C 758.273438 305.542969 762.609375 338.691406 782.550781 327.644531 C 802.480469 316.59375 816.355469 281.746094 834.5625 278.347656 C 852.761719 274.949219 869.230469 297.894531 886.570312 291.945312 C 903.90625 285.996094 896.105469 257.097656 904.777344 257.097656 C 913.445312 257.097656 931.652344 274.09375 929.042969 286.84375 C 926.449219 299.597656 899.570312 305.542969 906.511719 320.839844 C 913.445312 336.140625 928.183594 331.042969 932.515625 341.242188 C 936.851562 351.4375 910.84375 363.339844 890.039062 350.589844 C 869.230469 337.84375 865.765625 356.539062 855.363281 348.039062 C 844.964844 339.539062 844.09375 321.695312 829.359375 327.644531 C 814.621094 333.59375 805.945312 345.488281 786.875 353.988281 C 767.804688 362.492188 752.210938 373.542969 752.210938 385.4375 C 752.210938 397.335938 759.136719 410.085938 755.671875 428.789062 C 752.210938 447.480469 746.132812 498.476562 808.558594 488.285156 C 870.964844 478.082031 863.164062 509.535156 863.164062 512.925781 C 863.164062 516.324219 862.292969 560.527344 868.371094 568.171875 C 874.433594 575.824219 888.300781 597.925781 868.371094 626.820312 C 848.429688 655.714844 856.226562 720.3125 874.433594 711.820312 C 892.636719 703.316406 910.84375 670.167969 933.378906 653.171875 C 955.921875 636.171875 987.128906 562.226562 974.121094 539.277344 C 961.125 516.324219 992.328125 497.628906 996.664062 482.328125 C 1001 467.027344 999.265625 459.382812 992.328125 449.183594 " fill-opacity="1" fill-rule="nonzero"/><path fill="#99b9ff" d="M 405.21875 191.800781 C 405.585938 205.960938 404.269531 224.882812 394.941406 239.320312 C 366.773438 282.898438 367.683594 304.675781 364.957031 348.253906 C 362.230469 391.828125 424.222656 468.644531 439.667969 476.710938 C 455.113281 484.773438 457.496094 465.582031 457.496094 450.257812 C 457.496094 434.925781 450.894531 416.53125 441.8125 398.785156 C 432.726562 381.027344 432.726562 369.734375 435.453125 362.472656 C 438.179688 355.207031 449.078125 352.789062 456.351562 360.046875 C 463.617188 367.308594 481.085938 373.75 489.480469 369.214844 C 499.796875 363.640625 495.78125 341.796875 499.414062 334.535156 C 503.046875 327.273438 523.039062 322.433594 531.214844 307.101562 C 539.390625 291.773438 553.011719 285.316406 569.371094 278.054688 C 585.71875 270.789062 600.261719 267.566406 602.984375 262.722656 C 605.710938 257.882812 602.078125 246.585938 606.625 233.671875 C 611.160156 220.765625 622.0625 205.433594 617.519531 198.980469 C 612.976562 192.523438 599.347656 182.035156 573.910156 198.171875 C 548.472656 214.308594 542.113281 214.308594 534.847656 202.203125 C 527.582031 190.101562 543.019531 158.636719 574.820312 158.636719 C 606.625 158.636719 612.976562 148.945312 613.882812 141.691406 C 614.796875 134.429688 604.804688 126.359375 593.898438 124.738281 C 582.992188 123.128906 581.179688 128.78125 535.753906 144.914062 C 505.4375 155.6875 477.265625 149.644531 462.878906 146.773438 C 442.238281 160.3125 422.945312 175.378906 405.21875 191.800781 " fill-opacity="1" fill-rule="nonzero"/><path fill="#99b9ff" d="M 1083.71875 542.925781 C 1077.574219 541.589844 1078.9375 556.304688 1070.753906 558.984375 C 1062.5625 561.660156 1059.148438 565.675781 1061.195312 580.398438 C 1063.246094 595.121094 1059.828125 614.527344 1051.644531 621.886719 C 1043.453125 629.246094 1031.855469 634.601562 1031.171875 652.667969 C 1030.488281 670.734375 1013.421875 688.132812 1003.179688 694.152344 C 992.949219 700.175781 977.253906 709.542969 977.253906 724.933594 C 977.253906 734.847656 976.984375 747.515625 979.332031 757.253906 C 1033.511719 705.738281 1073.09375 639.566406 1091.445312 565.253906 C 1089.847656 555.375 1087.230469 543.6875 1083.71875 542.925781 " fill-opacity="1" fill-rule="nonzero"/><path fill="#000000" d="M 994.671875 743.769531 C 994.214844 743.769531 993.753906 743.601562 993.390625 743.257812 C 992.648438 742.554688 992.609375 741.371094 993.320312 740.625 C 1062.773438 667.097656 1101.027344 571.382812 1101.027344 471.105469 C 1101.027344 252.332031 919.476562 74.355469 696.328125 74.355469 C 554.578125 74.355469 425.589844 145.121094 351.28125 263.664062 C 350.734375 264.535156 349.582031 264.804688 348.710938 264.257812 C 347.839844 263.710938 347.578125 262.558594 348.125 261.6875 C 384.027344 204.414062 434.449219 156.515625 493.945312 123.167969 C 555.28125 88.796875 625.261719 70.621094 696.328125 70.621094 C 805.414062 70.621094 907.972656 112.273438 985.117188 187.90625 C 1062.257812 263.550781 1104.75 364.125 1104.75 471.105469 C 1104.75 572.335938 1066.136719 668.960938 996.027344 743.183594 C 995.65625 743.570312 995.164062 743.769531 994.671875 743.769531 " fill-opacity="1" fill-rule="nonzero"/><path fill="#5479f7" d="M 873.683594 148.601562 C 873.683594 157.496094 866.277344 164.714844 857.132812 164.714844 C 848 164.714844 840.59375 157.496094 840.59375 148.601562 C 840.59375 139.699219 848 132.488281 857.132812 132.488281 C 866.277344 132.488281 873.683594 139.699219 873.683594 148.601562 " fill-opacity="1" fill-rule="nonzero"/><path fill="#5479f7" d="M 503.183594 246.570312 C 503.183594 255.46875 495.78125 262.679688 486.640625 262.679688 C 477.503906 262.679688 470.097656 255.46875 470.097656 246.570312 C 470.097656 237.671875 477.503906 230.457031 486.640625 230.457031 C 495.78125 230.457031 503.183594 237.671875 503.183594 246.570312 " fill-opacity="1" fill-rule="nonzero"/><path fill="#5479f7" d="M 978.492188 317.421875 C 978.492188 326.324219 971.085938 333.539062 961.945312 333.539062 C 952.808594 333.539062 945.398438 326.324219 945.398438 317.421875 C 945.398438 308.519531 952.808594 301.308594 961.945312 301.308594 C 971.085938 301.308594 978.492188 308.519531 978.492188 317.421875 " fill-opacity="1" fill-rule="nonzero"/><path fill="#5479f7" d="M 930.320312 394.015625 C 930.320312 402.917969 922.90625 410.128906 913.777344 410.128906 C 904.636719 410.128906 897.222656 402.917969 897.222656 394.015625 C 897.222656 385.117188 904.636719 377.90625 913.777344 377.90625 C 922.90625 377.90625 930.320312 385.117188 930.320312 394.015625 " fill-opacity="1" fill-rule="nonzero"/><path fill="#ffffff" d="M 367.277344 553.09375 L 284.980469 553.09375 C 248.910156 553.09375 219.667969 581.574219 219.667969 616.699219 C 219.667969 639.90625 221.992188 663.0625 226.609375 685.828125 L 238.441406 744.1875 C 246.710938 784.976562 283.441406 814.375 326.128906 814.375 C 368.816406 814.375 405.546875 784.976562 413.816406 744.1875 L 425.652344 685.828125 C 430.265625 663.0625 432.59375 639.90625 432.59375 616.699219 C 432.59375 581.574219 403.347656 553.09375 367.277344 553.09375 " fill-opacity="1" fill-rule="nonzero"/><path fill="#99b9ff" d="M 348.40625 678.878906 L 303.851562 678.878906 C 291.414062 678.878906 281.332031 668.792969 281.332031 656.355469 L 281.332031 553.09375 L 370.925781 553.09375 L 370.925781 656.355469 C 370.925781 668.792969 360.84375 678.878906 348.40625 678.878906 " fill-opacity="1" fill-rule="nonzero"/><path fill="#000000" d="M 326.128906 816.238281 C 282.679688 816.238281 245.035156 786.089844 236.613281 744.558594 L 224.78125 686.199219 C 220.152344 663.363281 217.804688 639.976562 217.804688 616.699219 C 217.804688 580.601562 247.9375 551.230469 284.980469 551.230469 L 367.277344 551.230469 C 393.703125 551.230469 417.769531 566.414062 428.59375 589.910156 C 429.023438 590.847656 428.613281 591.953125 427.679688 592.386719 C 426.742188 592.816406 425.636719 592.40625 425.207031 591.472656 C 414.992188 569.289062 392.253906 554.957031 367.277344 554.957031 L 284.980469 554.957031 C 249.992188 554.957031 221.53125 582.65625 221.53125 616.699219 C 221.53125 639.726562 223.855469 662.863281 228.433594 685.457031 L 240.265625 743.816406 C 248.335938 783.621094 284.445312 812.511719 326.128906 812.511719 C 367.8125 812.511719 403.921875 783.621094 411.992188 743.816406 L 423.824219 685.457031 C 426.234375 673.589844 428.03125 661.464844 429.175781 649.425781 C 429.273438 648.402344 430.183594 647.640625 431.207031 647.746094 C 432.230469 647.839844 432.984375 648.757812 432.886719 649.78125 C 431.730469 661.953125 429.90625 674.203125 427.476562 686.199219 L 415.644531 744.558594 C 407.222656 786.089844 369.578125 816.238281 326.128906 816.238281 " fill-opacity="1" fill-rule="nonzero"/><path fill="#5479f7" d="M 681.773438 638.558594 C 681.773438 651.371094 671.105469 661.757812 657.941406 661.757812 C 644.785156 661.757812 634.117188 651.371094 634.117188 638.558594 C 634.117188 625.742188 644.785156 615.351562 657.941406 615.351562 C 671.105469 615.351562 681.773438 625.742188 681.773438 638.558594 " fill-opacity="1" fill-rule="nonzero"/><path fill="#5479f7" d="M 657.945312 189.425781 C 579.558594 189.425781 516.003906 251.136719 516.003906 327.261719 C 516.003906 346.296875 524.871094 372.90625 538.179688 402.125 C 571.722656 475.777344 633.449219 565.957031 652.316406 592.902344 C 655.027344 596.761719 660.863281 596.773438 663.566406 592.914062 C 689.917969 555.289062 799.890625 394.269531 799.890625 327.261719 C 799.890625 251.136719 736.339844 189.425781 657.945312 189.425781 " fill-opacity="1" fill-rule="nonzero"/><path fill="#000000" d="M 599.539062 514.964844 C 598.917969 514.964844 598.3125 514.648438 597.960938 514.082031 C 571.335938 471.410156 550.652344 434.003906 536.484375 402.90625 C 521.652344 370.34375 514.136719 344.898438 514.136719 327.269531 C 514.136719 250.234375 578.644531 187.566406 657.941406 187.566406 C 737.246094 187.566406 801.746094 250.234375 801.746094 327.269531 C 801.746094 346.59375 792.726562 375.269531 774.933594 412.480469 C 774.488281 413.410156 773.375 413.800781 772.445312 413.355469 C 771.515625 412.910156 771.125 411.800781 771.570312 410.871094 C 789.121094 374.164062 798.027344 346.035156 798.027344 327.269531 C 798.027344 252.292969 735.183594 191.292969 657.941406 191.292969 C 580.699219 191.292969 517.863281 252.292969 517.863281 327.269531 C 517.863281 344.363281 525.269531 369.292969 539.871094 401.355469 C 553.976562 432.3125 574.585938 469.578125 601.121094 512.109375 C 601.667969 512.984375 601.398438 514.136719 600.519531 514.679688 C 600.21875 514.871094 599.875 514.964844 599.539062 514.964844 Z M 657.949219 597.675781 C 655.09375 597.675781 652.410156 596.289062 650.785156 593.976562 C 645.695312 586.699219 637.558594 574.933594 627.71875 560.175781 C 627.148438 559.3125 627.382812 558.164062 628.238281 557.59375 C 629.089844 557.023438 630.246094 557.25 630.820312 558.105469 C 640.628906 572.832031 648.753906 584.578125 653.839844 591.839844 C 654.777344 593.175781 656.277344 593.941406 657.949219 593.941406 C 659.613281 593.941406 661.109375 593.175781 662.039062 591.847656 C 669.710938 580.898438 685.25 558.371094 703.066406 530.597656 C 703.621094 529.734375 704.769531 529.488281 705.640625 530.039062 C 706.503906 530.589844 706.757812 531.75 706.199219 532.613281 C 688.347656 560.4375 672.777344 583.003906 665.089844 593.984375 C 663.472656 596.289062 660.804688 597.671875 657.949219 597.675781 " fill-opacity="1" fill-rule="nonzero"/><path fill="#ffffff" d="M 720.050781 326.929688 C 720.050781 360.332031 692.246094 387.410156 657.949219 387.410156 C 623.648438 387.410156 595.839844 360.332031 595.839844 326.929688 C 595.839844 293.523438 623.648438 266.449219 657.949219 266.449219 C 692.246094 266.449219 720.050781 293.523438 720.050781 326.929688 " fill-opacity="1" fill-rule="nonzero"/><path fill="#000000" d="M 751.707031 505.371094 C 747.4375 505.371094 743.585938 502.414062 742.625 498.070312 C 741.507812 493.042969 744.675781 488.074219 749.699219 486.957031 C 762.660156 484.082031 770.769531 478.292969 770.863281 471.851562 C 770.972656 464.375 760.964844 454.246094 741.625 449.355469 C 736.636719 448.101562 733.617188 443.03125 734.875 438.042969 C 736.132812 433.058594 741.199219 430.035156 746.1875 431.292969 C 772.753906 438.007812 789.753906 454.035156 789.492188 472.125 C 789.261719 487.882812 775.890625 500.226562 753.734375 505.144531 C 753.050781 505.296875 752.371094 505.371094 751.707031 505.371094 " fill-opacity="1" fill-rule="nonzero"/><path fill="#ffffff" d="M 497.210938 454.773438 L 479.4375 454.773438 L 479.4375 388.640625 L 497.210938 388.640625 C 506.632812 388.640625 514.277344 396.28125 514.277344 405.710938 L 514.277344 437.695312 C 514.277344 447.128906 506.632812 454.773438 497.210938 454.773438 " fill-opacity="1" fill-rule="nonzero"/><path fill="#000000" d="M 481.296875 452.910156 L 497.210938 452.910156 C 505.59375 452.910156 512.414062 446.089844 512.414062 437.695312 L 512.414062 405.710938 C 512.414062 397.324219 505.59375 390.5 497.210938 390.5 L 481.296875 390.5 Z M 497.210938 456.632812 L 479.4375 456.632812 C 478.40625 456.632812 477.570312 455.796875 477.570312 454.769531 L 477.570312 388.640625 C 477.570312 387.609375 478.40625 386.773438 479.4375 386.773438 L 497.210938 386.773438 C 507.644531 386.773438 516.140625 395.269531 516.140625 405.710938 L 516.140625 437.695312 C 516.140625 448.140625 507.644531 456.632812 497.210938 456.632812 " fill-opacity="1" fill-rule="nonzero"/><path fill="#ffffff" d="M 155.050781 454.773438 L 172.824219 454.773438 L 172.824219 388.640625 L 155.050781 388.640625 C 145.625 388.640625 137.984375 396.28125 137.984375 405.710938 L 137.984375 437.695312 C 137.984375 447.128906 145.625 454.773438 155.050781 454.773438 " fill-opacity="1" fill-rule="nonzero"/><path fill="#000000" d="M 155.050781 390.5 C 146.664062 390.5 139.84375 397.324219 139.84375 405.710938 L 139.84375 437.695312 C 139.84375 446.089844 146.664062 452.910156 155.050781 452.910156 L 170.960938 452.910156 L 170.960938 390.5 Z M 172.824219 456.632812 L 155.050781 456.632812 C 144.613281 456.632812 136.117188 448.140625 136.117188 437.695312 L 136.117188 405.710938 C 136.117188 395.269531 144.613281 386.773438 155.050781 386.773438 L 172.824219 386.773438 C 173.855469 386.773438 174.6875 387.609375 174.6875 388.640625 L 174.6875 454.769531 C 174.6875 455.796875 173.855469 456.632812 172.824219 456.632812 " fill-opacity="1" fill-rule="nonzero"/><path fill="#ffffff" d="M 161.847656 418.96875 C 161.847656 347.910156 235.398438 274.398438 326.128906 274.398438 C 416.859375 274.398438 490.410156 347.910156 490.410156 418.96875 C 490.410156 490.035156 416.859375 531.742188 326.128906 531.742188 C 235.398438 531.742188 161.847656 490.035156 161.847656 418.96875 " fill-opacity="1" fill-rule="nonzero"/><path fill="#000000" d="M 326.128906 276.265625 C 233.167969 276.265625 163.710938 351.609375 163.710938 418.972656 C 163.710938 452.1875 180.054688 480.359375 210.976562 500.449219 C 240.203125 519.425781 281.097656 529.882812 326.128906 529.882812 C 371.160156 529.882812 412.054688 519.425781 441.277344 500.449219 C 472.203125 480.359375 488.546875 452.1875 488.546875 418.972656 C 488.546875 351.609375 419.085938 276.265625 326.128906 276.265625 Z M 326.128906 533.605469 C 280.386719 533.605469 238.769531 522.9375 208.949219 503.570312 C 176.917969 482.761719 159.988281 453.511719 159.988281 418.972656 C 159.988281 383.621094 177.742188 347.058594 208.703125 318.667969 C 241.144531 288.921875 282.847656 272.539062 326.128906 272.539062 C 369.410156 272.539062 411.109375 288.921875 443.550781 318.667969 C 474.515625 347.058594 492.277344 383.621094 492.277344 418.972656 C 492.277344 453.511719 475.339844 482.761719 443.308594 503.570312 C 413.484375 522.9375 371.871094 533.605469 326.128906 533.605469 " fill-opacity="1" fill-rule="nonzero"/><path fill="#000000" d="M 436.578125 397.644531 L 278.378906 397.644531 C 261.945312 397.644531 248.621094 411.625 248.621094 428.875 L 248.621094 449.246094 C 248.621094 462.402344 255.832031 476.335938 268.261719 478.617188 C 312.105469 486.640625 402.851562 486.640625 446.691406 478.617188 C 459.128906 476.335938 466.335938 462.402344 466.335938 449.246094 L 466.335938 428.875 C 466.335938 411.625 453.011719 397.644531 436.578125 397.644531 " fill-opacity="1" fill-rule="nonzero"/><path fill="#5479f7" d="M 320.304688 438.644531 C 320.304688 444.425781 315.84375 449.109375 310.335938 449.109375 C 304.832031 449.109375 300.367188 444.425781 300.367188 438.644531 C 300.367188 432.871094 304.832031 428.183594 310.335938 428.183594 C 315.84375 428.183594 320.304688 432.871094 320.304688 438.644531 " fill-opacity="1" fill-rule="nonzero"/><path fill="#5479f7" d="M 426.371094 438.644531 C 426.371094 444.425781 421.910156 449.109375 416.402344 449.109375 C 410.898438 449.109375 406.433594 444.425781 406.433594 438.644531 C 406.433594 432.871094 410.898438 428.183594 416.402344 428.183594 C 421.910156 428.183594 426.371094 432.871094 426.371094 438.644531 " fill-opacity="1" fill-rule="nonzero"/><path fill="#000000" d="M 242.152344 651.597656 C 236.875 651.597656 231.589844 651.535156 226.28125 651.402344 C 183.867188 650.328125 164.820312 624.132812 165.074219 600.242188 C 165.351562 574.554688 186.953125 548.464844 227.710938 548.308594 C 227.722656 548.308594 227.734375 548.308594 227.746094 548.308594 C 232.875 548.308594 237.039062 552.449219 237.058594 557.585938 C 237.078125 562.726562 232.925781 566.917969 227.785156 566.9375 C 199.078125 567.050781 183.878906 583.875 183.703125 600.445312 C 183.535156 615.988281 196.78125 632.019531 226.75 632.769531 C 231.902344 632.90625 237.050781 632.96875 242.171875 632.96875 C 346.867188 632.96875 444.808594 606.589844 509.792969 583.847656 C 583.6875 557.988281 631.800781 531.238281 632.285156 530.976562 C 636.773438 528.457031 642.441406 530.066406 644.960938 534.550781 C 647.472656 539.039062 645.867188 544.71875 641.378906 547.230469 C 639.371094 548.351562 591.355469 575.042969 515.941406 601.433594 C 449.578125 624.664062 349.457031 651.597656 242.152344 651.597656 " fill-opacity="1" fill-rule="nonzero"/><path fill="#ffffff" d="M 951.710938 1030.53125 C 951.710938 1030.53125 976.253906 1038.851562 990.589844 1035.15625 C 990.589844 1035.15625 1008.414062 1050.253906 1008.179688 1058.242188 L 945.824219 1057.058594 L 951.710938 1030.53125 " fill-opacity="1" fill-rule="nonzero"/><path fill="#000000" d="M 948.128906 1055.246094 L 1006.011719 1056.339844 C 1004.324219 1050.972656 995.988281 1042.304688 990.09375 1037.1875 C 977.625 1039.910156 959.148438 1034.796875 953.082031 1032.929688 Z M 1009.984375 1060.140625 L 943.5 1058.882812 L 950.335938 1028.101562 L 952.304688 1028.769531 C 952.550781 1028.847656 976.503906 1036.863281 990.121094 1033.355469 L 991.050781 1033.113281 L 991.789062 1033.738281 C 993.679688 1035.34375 1010.292969 1049.664062 1010.039062 1058.292969 L 1009.984375 1060.140625 " fill-opacity="1" fill-rule="nonzero"/><path fill="#ffffff" d="M 978.449219 1032.414062 C 978.449219 1032.414062 993.828125 1014.503906 1000.640625 1014.195312 C 1006.378906 1013.933594 1052.101562 1054.964844 1066.648438 1068.652344 C 1069.226562 1071.070312 1068.136719 1075.382812 1064.683594 1076.238281 C 1056.128906 1078.363281 1036.535156 1078.3125 992.5625 1063.515625 C 990.269531 1062.742188 988.597656 1060.769531 988.261719 1058.402344 L 986.367188 1045.269531 L 995.605469 1044.136719 L 978.449219 1032.414062 " fill-opacity="1" fill-rule="nonzero"/><path fill="#000000" d="M 988.480469 1046.886719 L 990.105469 1058.136719 C 990.339844 1059.816406 991.511719 1061.199219 993.15625 1061.75 C 1038.269531 1076.933594 1057.046875 1076.214844 1064.226562 1074.433594 C 1065.582031 1074.097656 1065.996094 1073.023438 1066.113281 1072.578125 C 1066.367188 1071.640625 1066.085938 1070.679688 1065.378906 1070.007812 C 1045.472656 1051.289062 1005.792969 1016.589844 1000.660156 1016.058594 C 996.671875 1016.246094 987.179688 1025.394531 981.226562 1032.058594 L 996.644531 1042.605469 C 997.285156 1043.039062 997.589844 1043.828125 997.410156 1044.578125 C 997.226562 1045.335938 996.589844 1045.898438 995.824219 1045.988281 Z M 1054.945312 1079.097656 C 1043.203125 1079.097656 1023.835938 1076.007812 991.96875 1065.285156 C 988.984375 1064.277344 986.859375 1061.742188 986.410156 1058.667969 L 984.523438 1045.539062 C 984.449219 1045.039062 984.582031 1044.539062 984.890625 1044.136719 C 985.195312 1043.746094 985.644531 1043.484375 986.136719 1043.421875 L 990.464844 1042.894531 L 977.394531 1033.953125 C 976.953125 1033.652344 976.664062 1033.183594 976.589844 1032.65625 C 976.523438 1032.128906 976.6875 1031.601562 977.027344 1031.199219 C 979.6875 1028.109375 993.3125 1012.660156 1000.550781 1012.339844 C 1000.582031 1012.332031 1000.609375 1012.332031 1000.640625 1012.332031 C 1008.96875 1012.332031 1067.339844 1066.746094 1067.929688 1067.292969 C 1069.625 1068.890625 1070.308594 1071.273438 1069.71875 1073.519531 C 1069.128906 1075.789062 1067.414062 1077.484375 1065.128906 1078.050781 C 1062.621094 1078.667969 1059.308594 1079.097656 1054.945312 1079.097656 " fill-opacity="1" fill-rule="nonzero"/><path fill="#000000" d="M 1023.5 1074.480469 C 1023.308594 1074.480469 1023.117188 1074.449219 1022.921875 1074.386719 C 1021.941406 1074.074219 1021.414062 1073.023438 1021.71875 1072.042969 L 1025.636719 1059.9375 C 1025.957031 1058.953125 1027.003906 1058.414062 1027.984375 1058.734375 C 1028.960938 1059.050781 1029.503906 1060.105469 1029.183594 1061.082031 L 1025.265625 1073.191406 C 1025.015625 1073.976562 1024.285156 1074.480469 1023.5 1074.480469 " fill-opacity="1" fill-rule="nonzero"/><path fill="#000000" d="M 1015.800781 1071.234375 C 1015.609375 1071.234375 1015.417969 1071.203125 1015.226562 1071.140625 C 1014.25 1070.824219 1013.714844 1069.777344 1014.03125 1068.796875 L 1017.953125 1056.683594 C 1018.261719 1055.707031 1019.320312 1055.167969 1020.292969 1055.488281 C 1021.269531 1055.804688 1021.808594 1056.859375 1021.492188 1057.835938 L 1017.578125 1069.941406 C 1017.316406 1070.730469 1016.585938 1071.234375 1015.800781 1071.234375 " fill-opacity="1" fill-rule="nonzero"/><path fill="#000000" d="M 1057.113281 1071.488281 C 1056.699219 1071.488281 1056.273438 1071.34375 1055.929688 1071.054688 L 997.503906 1022.417969 C 996.71875 1021.757812 996.613281 1020.585938 997.269531 1019.792969 C 997.917969 1019.003906 999.101562 1018.894531 999.890625 1019.554688 L 1058.3125 1068.1875 C 1059.101562 1068.847656 1059.210938 1070.023438 1058.554688 1070.816406 C 1058.1875 1071.257812 1057.65625 1071.488281 1057.113281 1071.488281 " fill-opacity="1" fill-rule="nonzero"/><path fill="#ffffff" d="M 748.082031 1067.484375 C 748.027344 1061.789062 747.929688 1052.777344 747.753906 1041.214844 L 730.34375 1043.628906 L 715.945312 1030.742188 C 715.945312 1030.742188 674.605469 1045.46875 654.582031 1064.085938 C 650.855469 1067.554688 652.742188 1073.714844 657.816406 1074.476562 C 673.085938 1076.742188 708.441406 1078.882812 741.113281 1075.25 C 745.117188 1074.804688 748.121094 1071.449219 748.082031 1067.484375 " fill-opacity="1" fill-rule="nonzero"/><path fill="#000000" d="M 715.535156 1032.875 C 709.039062 1035.289062 673.617188 1048.929688 655.855469 1065.453125 C 654.632812 1066.582031 654.195312 1068.1875 654.679688 1069.753906 C 655.160156 1071.308594 656.433594 1072.386719 658.085938 1072.628906 C 673.519531 1074.925781 708.308594 1077.019531 740.910156 1073.398438 C 743.96875 1073.054688 746.246094 1070.523438 746.214844 1067.5 C 746.171875 1062.160156 746.078125 1053.902344 745.925781 1043.351562 L 730.609375 1045.46875 C 730.0625 1045.554688 729.515625 1045.382812 729.105469 1045.019531 Z M 703.054688 1079.082031 C 683.898438 1079.082031 667.074219 1077.734375 657.539062 1076.316406 C 654.484375 1075.863281 652.027344 1073.769531 651.121094 1070.851562 C 650.214844 1067.9375 651.058594 1064.820312 653.3125 1062.71875 C 673.386719 1044.058594 713.613281 1029.589844 715.3125 1028.988281 C 715.960938 1028.757812 716.675781 1028.902344 717.183594 1029.351562 L 730.949219 1041.660156 L 747.5 1039.371094 C 748.03125 1039.292969 748.566406 1039.449219 748.96875 1039.796875 C 749.375 1040.152344 749.613281 1040.65625 749.621094 1041.1875 C 749.789062 1052.753906 749.890625 1061.769531 749.941406 1067.460938 C 749.941406 1067.464844 749.941406 1067.464844 749.941406 1067.464844 C 749.988281 1072.410156 746.28125 1076.546875 741.324219 1077.101562 C 728.476562 1078.53125 715.292969 1079.082031 703.054688 1079.082031 " fill-opacity="1" fill-rule="nonzero"/><path fill="#000000" d="M 699.097656 1070.59375 C 687.4375 1070.59375 674.015625 1070.117188 661.125 1068.558594 C 660.101562 1068.4375 659.378906 1067.511719 659.5 1066.488281 C 659.621094 1065.464844 660.550781 1064.746094 661.570312 1064.863281 C 694.574219 1068.835938 731.25 1065.675781 731.621094 1065.648438 C 732.648438 1065.574219 733.546875 1066.316406 733.636719 1067.339844 C 733.722656 1068.363281 732.96875 1069.273438 731.941406 1069.359375 C 731.71875 1069.382812 717.652344 1070.59375 699.097656 1070.59375 " fill-opacity="1" fill-rule="nonzero"/><path fill="#000000" d="M 690.917969 1060.074219 C 690.054688 1060.074219 689.285156 1059.480469 689.09375 1058.605469 L 685.800781 1043.300781 C 685.585938 1042.292969 686.226562 1041.304688 687.230469 1041.082031 C 688.238281 1040.871094 689.226562 1041.503906 689.449219 1042.511719 L 692.738281 1057.824219 C 692.953125 1058.824219 692.316406 1059.824219 691.308594 1060.035156 C 691.175781 1060.0625 691.042969 1060.074219 690.917969 1060.074219 " fill-opacity="1" fill-rule="nonzero"/><path fill="#000000" d="M 698.605469 1056.828125 C 697.75 1056.828125 696.972656 1056.234375 696.789062 1055.359375 L 693.496094 1040.054688 C 693.28125 1039.046875 693.921875 1038.050781 694.925781 1037.835938 C 695.925781 1037.617188 696.921875 1038.257812 697.136719 1039.265625 L 700.429688 1054.574219 C 700.648438 1055.578125 700.007812 1056.570312 699 1056.789062 C 698.863281 1056.816406 698.738281 1056.828125 698.605469 1056.828125 " fill-opacity="1" fill-rule="nonzero"/><path fill="#000000" d="M 871.855469 884.214844 C 871.019531 883.519531 792.640625 828.34375 771.253906 834.273438 C 734.679688 844.40625 741.808594 951.515625 742.5625 979.835938 C 743.296875 1007.425781 876.257812 924.621094 880.339844 917.359375 C 884.394531 910.183594 886.882812 896.617188 871.855469 884.214844 " fill-opacity="1" fill-rule="nonzero"/><path fill="#000000" d="M 743.773438 972.707031 C 743.65625 972.8125 743.539062 972.914062 743.417969 973.019531 C 720.492188 993.179688 711.054688 1013.246094 712.695312 1039.054688 C 714.292969 1064.296875 750.730469 1082.324219 868.675781 1069.1875 C 893.480469 1065.691406 943.21875 1062.898438 964.734375 1062.234375 C 969.183594 1062.097656 972.710938 1058.46875 972.640625 1054.074219 L 972.339844 1034.085938 C 972.300781 1031.273438 970.769531 1028.691406 968.308594 1027.261719 C 955.292969 1019.707031 921.707031 1000.414062 866.378906 1002.492188 C 864.546875 1002.5625 864.847656 1000.675781 866.636719 1000.289062 C 897.003906 993.707031 943.886719 990.648438 956.992188 979.8125 C 982.378906 958.839844 977.671875 921.625 972.167969 898.914062 C 956.132812 832.640625 855.992188 901.832031 855.292969 901.992188 C 855.289062 902 855.292969 901.992188 855.289062 902 C 855.089844 902.105469 841.738281 909.75 824.113281 920.234375 L 743.773438 972.707031 " fill-opacity="1" fill-rule="nonzero"/><path fill="#ffffff" d="M 798.671875 1016.839844 C 798.035156 1016.839844 797.417969 1016.515625 797.074219 1015.925781 C 796.546875 1015.046875 796.832031 1013.898438 797.722656 1013.378906 C 798.628906 1012.835938 820.636719 1000.058594 874.296875 998.824219 C 875.351562 998.820312 876.183594 999.617188 876.199219 1000.648438 C 876.226562 1001.671875 875.410156 1002.527344 874.375 1002.550781 C 821.863281 1003.761719 799.84375 1016.453125 799.621094 1016.582031 C 799.328125 1016.753906 798.996094 1016.839844 798.671875 1016.839844 " fill-opacity="1" fill-rule="nonzero"/><path fill="#caddff" d="M 750.339844 969.320312 C 749.773438 969.320312 749.21875 969.066406 748.855469 968.578125 C 748.234375 967.757812 748.398438 966.585938 749.21875 965.96875 C 749.859375 965.488281 813.84375 917.558594 858.617188 906.671875 C 859.617188 906.4375 860.621094 907.042969 860.863281 908.042969 C 861.109375 909.046875 860.492188 910.054688 859.5 910.296875 C 815.457031 920.996094 752.09375 968.46875 751.460938 968.941406 C 751.125 969.199219 750.730469 969.320312 750.339844 969.320312 " fill-opacity="1" fill-rule="nonzero"/><path fill="#ffffff" d="M 986.582031 756.117188 C 996.027344 764.246094 1029.871094 806.878906 1024.34375 878.675781 C 1024.261719 879.769531 1024.519531 880.863281 1025.121094 881.789062 C 1028.128906 886.453125 1037.3125 901.828125 1034.367188 911.492188 C 1030.960938 922.675781 1019.292969 947.011719 1015.902344 912.402344 C 1015.816406 911.582031 1014.691406 911.386719 1014.324219 912.125 C 1012.90625 915.011719 1010.640625 918.988281 1009.140625 918.449219 C 1005.628906 917.175781 1006.855469 898.945312 1007.808594 888.1875 C 1008.753906 877.429688 1010.222656 873.179688 999.332031 847.164062 C 992.621094 831.144531 970.398438 804.632812 961.996094 796.375 C 961.996094 796.375 985.558594 755.238281 986.582031 756.117188 " fill-opacity="1" fill-rule="nonzero"/><path fill="#000000" d="M 1009.9375 916.785156 Z M 1015.066406 909.804688 C 1015.222656 909.804688 1015.394531 909.816406 1015.558594 909.84375 C 1016.75 910.066406 1017.632812 911.019531 1017.75 912.222656 C 1019.292969 927.917969 1022.332031 928.398438 1022.460938 928.410156 C 1022.488281 928.417969 1022.527344 928.417969 1022.554688 928.417969 C 1024.945312 928.417969 1029.867188 919.878906 1032.585938 910.949219 C 1034.742188 903.867188 1029.335938 891.765625 1023.554688 882.800781 C 1022.742188 881.535156 1022.367188 880.058594 1022.484375 878.527344 C 1027.546875 812.863281 998.902344 770.453125 986.695312 758.734375 C 983.117188 763.761719 971.777344 783.074219 964.316406 796.074219 C 972.769531 804.726562 994.285156 830.296875 1001.042969 846.445312 C 1011.324219 870.984375 1010.777344 876.671875 1009.871094 886.09375 C 1009.800781 886.816406 1009.734375 887.570312 1009.664062 888.351562 C 1007.839844 909.003906 1008.957031 914.707031 1009.621094 916.261719 C 1010.160156 915.683594 1011.164062 914.332031 1012.652344 911.308594 C 1013.117188 910.367188 1014.050781 909.804688 1015.066406 909.804688 Z M 1022.511719 932.140625 C 1022.375 932.140625 1022.238281 932.128906 1022.085938 932.121094 C 1018.1875 931.734375 1015.78125 926.695312 1014.417969 915.910156 C 1012.234375 919.585938 1010.410156 920.894531 1008.511719 920.203125 C 1005.988281 919.289062 1003.488281 915.972656 1005.949219 888.027344 C 1006.023438 887.234375 1006.09375 886.476562 1006.164062 885.742188 C 1007.042969 876.597656 1007.53125 871.5625 997.609375 847.886719 C 991.207031 832.597656 969.859375 806.714844 960.6875 797.703125 L 959.660156 796.699219 L 960.375 795.449219 C 983.722656 754.699219 985.15625 754.453125 986.214844 754.269531 L 987.082031 754.121094 L 987.800781 754.707031 C 999.46875 764.753906 1031.566406 809.113281 1026.195312 878.820312 C 1026.144531 879.527344 1026.316406 880.203125 1026.683594 880.78125 C 1030.5625 886.792969 1039.246094 901.875 1036.152344 912.039062 C 1035.898438 912.871094 1029.9375 932.140625 1022.511719 932.140625 " fill-opacity="1" fill-rule="nonzero"/><path fill="#ffffff" d="M 773.375 742.683594 C 773.375 742.683594 740.378906 753.34375 726.804688 752 C 707.714844 750.105469 686.59375 692.769531 685.121094 688.824219 C 683.652344 684.886719 678.582031 663.785156 673.628906 656.675781 C 668.976562 650 665.636719 642.933594 663.769531 638.558594 C 662.640625 635.921875 660.519531 634.902344 658.683594 635.492188 C 657.074219 636.011719 654.257812 638.5 655.878906 642.441406 C 657.753906 647 659.511719 651.609375 661.074219 655.515625 C 661.566406 656.746094 662.296875 657.863281 661.230469 657.113281 C 658.757812 655.347656 655.636719 653.726562 653.589844 654.863281 C 649.761719 656.980469 647.703125 671.238281 653.886719 681.246094 C 660.078125 691.25 666.871094 688.902344 668.933594 693.757812 C 670.996094 698.609375 688.117188 761.636719 695.144531 772.539062 C 705.253906 788.210938 775.914062 789.90625 786.519531 789.601562 C 797.125 789.296875 773.375 742.683594 773.375 742.683594 " fill-opacity="1" fill-rule="nonzero"/><path fill="#000000" d="M 655.171875 656.347656 C 654.882812 656.347656 654.664062 656.394531 654.5 656.488281 C 654.078125 656.71875 653.199219 657.78125 652.535156 660.324219 C 651.191406 665.464844 651.539062 673.902344 655.472656 680.261719 C 658.734375 685.539062 662.023438 686.992188 664.921875 688.273438 C 667.269531 689.3125 669.488281 690.289062 670.648438 693.027344 C 671.257812 694.457031 672.789062 699.59375 675.664062 709.320312 C 681.722656 729.769531 691.855469 763.996094 696.707031 771.527344 C 705.628906 785.355469 769.988281 788.191406 786.46875 787.742188 C 786.832031 787.730469 786.917969 787.625 787.019531 787.464844 C 789.566406 783.164062 780.230469 760.507812 772.425781 744.9375 C 765.679688 747.039062 738.910156 755.058594 726.625 753.855469 C 708.078125 752.015625 688.890625 704.265625 683.453125 689.679688 L 683.378906 689.480469 C 682.972656 688.402344 682.382812 686.351562 681.566406 683.496094 C 679.339844 675.753906 675.613281 662.785156 672.101562 657.746094 C 667.484375 651.117188 664.09375 644.050781 662.058594 639.289062 C 661.398438 637.75 660.269531 636.933594 659.257812 637.269531 C 658.816406 637.40625 657.957031 637.980469 657.527344 638.910156 C 657.144531 639.734375 657.167969 640.683594 657.601562 641.738281 C 658.78125 644.613281 659.921875 647.507812 660.992188 650.230469 C 661.617188 651.835938 662.226562 653.378906 662.804688 654.824219 C 662.90625 655.085938 663.023438 655.339844 663.125 655.566406 C 663.503906 656.402344 664.140625 657.78125 662.9375 658.78125 C 662.390625 659.226562 661.46875 659.558594 660.152344 658.628906 C 657.78125 656.941406 656.132812 656.347656 655.171875 656.347656 Z M 786.082031 791.46875 C 779.269531 791.46875 704.75 790.867188 693.578125 773.546875 C 688.433594 765.570312 678.597656 732.359375 672.09375 710.378906 C 669.683594 702.222656 667.773438 695.789062 667.222656 694.488281 C 666.660156 693.160156 665.585938 692.640625 663.410156 691.679688 C 660.355469 690.332031 656.171875 688.480469 652.300781 682.222656 C 647.765625 674.882812 647.34375 665.464844 648.929688 659.382812 C 649.496094 657.210938 650.605469 654.378906 652.691406 653.230469 C 654.175781 652.40625 656.011719 652.417969 658.179688 653.265625 C 657.960938 652.714844 657.746094 652.160156 657.523438 651.589844 C 656.457031 648.882812 655.328125 646.011719 654.15625 643.152344 C 653.105469 640.59375 653.570312 638.582031 654.148438 637.34375 C 655.089844 635.304688 656.878906 634.121094 658.117188 633.71875 C 661.019531 632.777344 664.046875 634.472656 665.480469 637.824219 C 667.449219 642.425781 670.726562 649.246094 675.15625 655.613281 C 679.027344 661.15625 682.707031 673.984375 685.148438 682.464844 C 685.914062 685.132812 686.515625 687.242188 686.867188 688.171875 L 686.941406 688.375 C 697.261719 716.0625 713.945312 748.851562 726.992188 750.148438 C 740.019531 751.457031 772.472656 741.015625 772.804688 740.910156 L 774.3125 740.421875 L 775.035156 741.835938 C 778.378906 748.40625 794.84375 781.574219 790.222656 789.363281 C 789.449219 790.675781 788.152344 791.414062 786.570312 791.464844 C 786.539062 791.464844 786.371094 791.46875 786.082031 791.46875 " fill-opacity="1" fill-rule="nonzero"/><path fill="#5479f7" d="M 964.707031 806.789062 C 963.140625 805.648438 958.996094 802.238281 957.828125 801.578125 C 956 800.546875 953.734375 801.835938 953.710938 803.90625 C 953.53125 817.402344 953.71875 856.328125 960.667969 869.417969 C 963.597656 874.933594 966.378906 879.199219 968.515625 884.277344 C 972.222656 893.097656 972.613281 895.3125 971.667969 897.640625 C 970.707031 900.007812 962.964844 902.171875 959.796875 903.371094 C 930.828125 914.347656 873.414062 926.027344 865.84375 894.515625 C 861.539062 876.625 858.480469 863.96875 845.160156 840.648438 C 841.652344 834.515625 834.480469 836.414062 824.25 826.886719 C 818.316406 821.367188 818.257812 816.089844 815.882812 807.871094 C 814.21875 802.070312 812.835938 801.050781 786.195312 795.507812 C 785.589844 795.378906 759.210938 738.621094 759.210938 738.621094 C 759.210938 738.621094 830.425781 709.996094 864.980469 705.667969 C 938.867188 696.40625 972.164062 728.777344 994.644531 761.53125 C 995.535156 762.828125 965.949219 807.691406 964.707031 806.789062 " fill-opacity="1" fill-rule="nonzero"/><path fill="#ffffff" d="M 942.050781 859.800781 C 941.429688 859.800781 940.816406 859.488281 940.464844 858.914062 C 932.929688 846.730469 923.941406 829.675781 921.199219 805.835938 C 916.851562 767.929688 895.949219 739.78125 895.738281 739.503906 C 895.125 738.683594 895.285156 737.511719 896.109375 736.894531 C 896.925781 736.273438 898.097656 736.433594 898.714844 737.257812 C 898.933594 737.546875 920.4375 766.511719 924.898438 805.40625 C 927.558594 828.515625 936.308594 845.097656 943.632812 856.960938 C 944.175781 857.835938 943.902344 858.984375 943.027344 859.523438 C 942.722656 859.714844 942.386719 859.800781 942.050781 859.800781 " fill-opacity="1" fill-rule="nonzero"/><path fill="#000000" d="M 862.445312 593.191406 C 858.902344 594.144531 855.675781 596.296875 853.492188 599.515625 C 849.796875 604.957031 850.132812 611.832031 853.777344 616.855469 C 850.984375 619.183594 848.988281 622.453125 848.402344 626.277344 C 847.425781 632.722656 850.710938 638.820312 856.195312 641.875 C 854.664062 645.132812 854.28125 648.917969 855.414062 652.621094 C 857.316406 658.871094 862.941406 663.039062 869.238281 663.546875 C 869.265625 667.128906 870.554688 670.71875 873.1875 673.613281 C 875.394531 676.042969 878.214844 677.617188 881.222656 678.339844 C 881.660156 678.769531 882.121094 679.191406 882.625 679.578125 C 887.867188 683.636719 894.933594 683.90625 900.386719 680.8125 C 902.523438 683.726562 905.695312 685.945312 909.550781 686.839844 C 916.070312 688.363281 922.589844 685.703125 926.1875 680.648438 C 929.390625 682.414062 933.226562 683.121094 937.109375 682.34375 C 943.667969 681.042969 948.433594 675.941406 949.5 669.882812 C 953.167969 670.167969 956.949219 669.222656 960.140625 666.925781 C 965.523438 663.042969 967.617188 656.46875 965.957031 650.53125 C 969.402344 649.28125 972.421875 646.867188 974.3125 643.472656 C 977.503906 637.742188 976.554688 630.917969 972.472656 626.226562 C 975.054688 623.667969 976.746094 620.242188 976.984375 616.386719 C 977.394531 609.878906 973.570312 604.082031 967.835938 601.507812 C 969.058594 598.132812 969.105469 594.328125 967.652344 590.738281 C 965.1875 584.675781 959.214844 580.992188 952.902344 581.019531 C 952.546875 577.453125 950.941406 573.992188 948.058594 571.335938 C 943.199219 566.851562 936.1875 565.972656 930.476562 568.59375 C 928.609375 565.511719 925.640625 563.03125 921.886719 561.808594 C 915.53125 559.738281 908.796875 561.839844 904.757812 566.570312 C 901.726562 564.535156 897.972656 563.511719 894.027344 563.953125 C 887.382812 564.695312 882.183594 569.371094 880.578125 575.316406 C 876.945312 574.71875 873.09375 575.335938 869.710938 577.359375 C 864.003906 580.769531 861.324219 587.136719 862.445312 593.191406 " fill-opacity="1" fill-rule="nonzero"/><path fill="#ffffff" d="M 858.378906 639.308594 C 856.816406 638.359375 854.75 639.078125 854.148438 640.777344 C 853.820312 641.707031 853.492188 642.644531 853.257812 643.277344 C 852.640625 644.957031 851.371094 650.585938 846.0625 656.160156 C 845.554688 656.691406 845.550781 657.515625 846.03125 658.074219 C 847.109375 659.332031 848.929688 661.441406 849.722656 662.371094 C 849.980469 662.671875 850.097656 663.046875 850.042969 663.425781 C 849.71875 665.804688 848.558594 674.515625 848.613281 676.175781 C 848.679688 678.109375 849.976562 679.988281 850.679688 680.496094 C 852.542969 681.84375 861.417969 681.953125 861.417969 681.953125 C 861.417969 681.953125 863.726562 682.492188 866.558594 695.292969 C 868.550781 704.300781 854.75 713.660156 854.75 713.660156 C 854.75 713.660156 885.765625 725.855469 911.867188 715.253906 C 913.480469 714.597656 913.570312 712.339844 912.171875 711.316406 C 906.628906 707.253906 894.695312 697.371094 889.921875 684.503906 C 889.640625 683.734375 889.046875 683.109375 888.273438 682.785156 C 885.113281 681.480469 876.476562 679.089844 878.027344 664.910156 C 878.066406 664.558594 878.203125 664.214844 878.417969 663.925781 C 880.234375 661.46875 888.625 649.253906 874.257812 650.96875 C 864.777344 652.097656 861.890625 645.339844 861.078125 642.238281 C 860.808594 641.226562 860.128906 640.359375 859.207031 639.804688 L 858.378906 639.308594 " fill-opacity="1" fill-rule="nonzero"/><path fill="#000000" d="M 858.640625 713.03125 C 867.121094 715.703125 890.867188 721.769531 911.167969 713.527344 C 911.207031 713.511719 911.269531 713.488281 911.285156 713.335938 C 911.308594 713.1875 911.265625 712.960938 911.070312 712.816406 C 904.601562 708.074219 893.015625 698.171875 888.175781 685.152344 C 888.066406 684.859375 887.847656 684.625 887.558594 684.511719 C 887.363281 684.429688 887.15625 684.351562 886.921875 684.257812 C 883.226562 682.804688 874.574219 679.402344 876.179688 664.707031 C 876.246094 664.027344 876.507812 663.375 876.917969 662.820312 C 879.757812 658.976562 881.226562 655.175781 880.414062 653.773438 C 879.839844 652.785156 877.675781 652.433594 874.476562 652.8125 C 863.207031 654.148438 859.988281 645.425781 859.273438 642.714844 C 859.132812 642.1875 858.761719 641.707031 858.242188 641.398438 L 857.417969 640.898438 C 857.414062 640.898438 857.414062 640.898438 857.414062 640.898438 C 857.144531 640.738281 856.808594 640.699219 856.5 640.808594 C 856.335938 640.867188 856.03125 641.027344 855.902344 641.394531 C 855.578125 642.332031 855.242188 643.269531 855.011719 643.914062 C 854.933594 644.109375 854.851562 644.371094 854.753906 644.679688 C 853.984375 647.101562 852.386719 652.085938 847.691406 657.148438 L 851.136719 661.160156 C 851.742188 661.855469 852.011719 662.773438 851.890625 663.683594 C 851.011719 670.144531 850.445312 675.140625 850.472656 676.113281 C 850.515625 677.4375 851.480469 678.753906 851.78125 678.988281 C 852.597656 679.515625 857.125 680.035156 861.445312 680.089844 C 861.574219 680.089844 861.714844 680.105469 861.84375 680.140625 C 864.136719 680.675781 866.332031 685.632812 868.378906 694.894531 C 870.015625 702.300781 862.847656 709.523438 858.640625 713.03125 Z M 887.679688 721.476562 C 869.835938 721.476562 854.960938 715.75 854.066406 715.398438 C 853.425781 715.148438 852.96875 714.558594 852.898438 713.867188 C 852.824219 713.1875 853.128906 712.511719 853.703125 712.121094 C 857.246094 709.707031 866.144531 702.058594 864.738281 695.699219 C 862.855469 687.179688 861.289062 684.527344 860.734375 683.804688 C 857.597656 683.742188 851.550781 683.425781 849.585938 682 C 848.496094 681.207031 846.835938 678.828125 846.753906 676.242188 C 846.695312 674.585938 847.59375 667.601562 848.167969 663.410156 L 844.617188 659.289062 C 843.503906 658 843.550781 656.101562 844.71875 654.875 C 849.039062 650.324219 850.503906 645.746094 851.210938 643.546875 C 851.328125 643.179688 851.421875 642.871094 851.503906 642.632812 C 851.742188 642.003906 852.070312 641.078125 852.390625 640.160156 C 852.859375 638.824219 853.902344 637.78125 855.25 637.300781 C 856.609375 636.8125 858.105469 636.960938 859.34375 637.707031 L 860.167969 638.207031 C 861.519531 639.023438 862.484375 640.285156 862.878906 641.757812 C 863.710938 644.902344 866.246094 650.03125 874.035156 649.117188 C 879.058594 648.515625 882.203125 649.425781 883.636719 651.90625 C 885.925781 655.851562 882.285156 661.824219 879.917969 665.03125 C 878.589844 676.972656 884.898438 679.453125 888.292969 680.789062 C 888.539062 680.890625 888.773438 680.980469 888.988281 681.066406 C 890.222656 681.574219 891.199219 682.59375 891.667969 683.855469 C 896.335938 696.414062 908.328125 706.191406 913.273438 709.8125 C 914.519531 710.726562 915.175781 712.253906 914.984375 713.792969 C 914.800781 715.246094 913.902344 716.4375 912.566406 716.980469 C 904.34375 720.316406 895.714844 721.476562 887.679688 721.476562 " fill-opacity="1" fill-rule="nonzero"/><path fill="#000000" d="M 875.074219 666.96875 C 874.683594 666.96875 874.328125 666.933594 874.023438 666.886719 C 871.847656 666.539062 869.777344 665.125 869.398438 663.722656 C 869.132812 662.726562 869.722656 661.707031 870.722656 661.4375 C 871.59375 661.214844 872.480469 661.632812 872.867188 662.414062 C 873.152344 662.675781 874.132812 663.316406 875.246094 663.234375 C 876.257812 663.175781 877.167969 662.527344 877.964844 661.300781 C 878.519531 660.4375 879.679688 660.191406 880.535156 660.75 C 881.40625 661.308594 881.648438 662.457031 881.09375 663.328125 C 879.148438 666.320312 876.761719 666.96875 875.074219 666.96875 " fill-opacity="1" fill-rule="nonzero"/><path fill="#5479f7" d="M 870.214844 669.753906 C 870.492188 668.492188 871.765625 667.699219 873.046875 667.976562 C 874.324219 668.253906 875.132812 669.507812 874.847656 670.769531 C 874.5625 672.03125 873.296875 672.824219 872.019531 672.542969 C 870.738281 672.265625 869.933594 671.015625 870.214844 669.753906 " fill-opacity="1" fill-rule="nonzero"/><path fill="#caddff" d="M 185.796875 857.941406 C 185.796875 867.511719 177.832031 875.273438 168.003906 875.273438 C 158.175781 875.273438 150.207031 867.511719 150.207031 857.941406 C 150.207031 848.367188 158.175781 840.613281 168.003906 840.613281 C 177.832031 840.613281 185.796875 848.367188 185.796875 857.941406 " fill-opacity="1" fill-rule="nonzero"/><path fill="#000000" d="M 1038.996094 111.898438 C 1038.507812 111.898438 1038.027344 111.714844 1037.664062 111.335938 C 1036.945312 110.59375 1036.960938 109.417969 1037.703125 108.699219 L 1044.699219 101.878906 C 1045.433594 101.167969 1046.617188 101.179688 1047.328125 101.917969 C 1048.046875 102.65625 1048.035156 103.835938 1047.292969 104.554688 L 1040.292969 111.371094 C 1039.933594 111.722656 1039.460938 111.898438 1038.996094 111.898438 " fill-opacity="1" fill-rule="nonzero"/><path fill="#000000" d="M 1022.695312 127.78125 C 1022.207031 127.78125 1021.71875 127.59375 1021.355469 127.210938 C 1020.636719 126.472656 1020.652344 125.296875 1021.390625 124.582031 L 1028.394531 117.761719 C 1029.132812 117.042969 1030.308594 117.058594 1031.027344 117.796875 C 1031.742188 118.535156 1031.726562 119.710938 1030.996094 120.429688 L 1023.992188 127.25 C 1023.625 127.597656 1023.160156 127.78125 1022.695312 127.78125 " fill-opacity="1" fill-rule="nonzero"/><path fill="#000000" d="M 1029.695312 111.894531 C 1029.222656 111.894531 1028.757812 111.714844 1028.390625 111.363281 L 1021.386719 104.546875 C 1020.652344 103.828125 1020.640625 102.648438 1021.359375 101.90625 C 1022.070312 101.171875 1023.253906 101.160156 1023.996094 101.871094 L 1030.996094 108.695312 C 1031.726562 109.40625 1031.746094 110.59375 1031.03125 111.328125 C 1030.667969 111.703125 1030.179688 111.894531 1029.695312 111.894531 " fill-opacity="1" fill-rule="nonzero"/><path fill="#000000" d="M 1046.003906 127.785156 C 1045.535156 127.785156 1045.066406 127.601562 1044.703125 127.253906 L 1037.707031 120.4375 C 1036.960938 119.714844 1036.953125 118.535156 1037.671875 117.800781 C 1038.386719 117.058594 1039.566406 117.042969 1040.304688 117.765625 L 1047.300781 124.582031 C 1048.039062 125.300781 1048.054688 126.480469 1047.339844 127.21875 C 1046.96875 127.59375 1046.484375 127.785156 1046.003906 127.785156 " fill-opacity="1" fill-rule="nonzero"/><path fill="#000000" d="M 239.496094 932.144531 L 227.585938 932.144531 C 226.554688 932.144531 225.722656 931.308594 225.722656 930.28125 C 225.722656 929.25 226.554688 928.417969 227.585938 928.417969 L 239.496094 928.417969 C 240.523438 928.417969 241.359375 929.25 241.359375 930.28125 C 241.359375 931.308594 240.523438 932.144531 239.496094 932.144531 " fill-opacity="1" fill-rule="nonzero"/><path fill="#000000" d="M 211.75 932.144531 L 199.839844 932.144531 C 198.808594 932.144531 197.976562 931.308594 197.976562 930.28125 C 197.976562 929.25 198.808594 928.417969 199.839844 928.417969 L 211.75 928.417969 C 212.777344 928.417969 213.613281 929.25 213.613281 930.28125 C 213.613281 931.308594 212.777344 932.144531 211.75 932.144531 " fill-opacity="1" fill-rule="nonzero"/><path fill="#000000" d="M 219.667969 924.429688 C 218.636719 924.429688 217.804688 923.597656 217.804688 922.574219 L 217.804688 910.96875 C 217.804688 909.9375 218.636719 909.105469 219.667969 909.105469 C 220.695312 909.105469 221.53125 909.9375 221.53125 910.96875 L 221.53125 922.574219 C 221.53125 923.597656 220.695312 924.429688 219.667969 924.429688 " fill-opacity="1" fill-rule="nonzero"/><path fill="#000000" d="M 219.667969 951.449219 C 218.636719 951.449219 217.804688 950.617188 217.804688 949.585938 L 217.804688 937.992188 C 217.804688 936.960938 218.636719 936.125 219.667969 936.125 C 220.695312 936.125 221.53125 936.960938 221.53125 937.992188 L 221.53125 949.585938 C 221.53125 950.617188 220.695312 951.449219 219.667969 951.449219 " fill-opacity="1" fill-rule="nonzero"/><g fill="#ffffff" fill-opacity="1"><g transform="translate(1133.03614, 1046.357303)"><g><path d="M 0.234375 -0.046875 L 0.265625 -0.015625 C 0.253906 -0.015625 0.238281 -0.0078125 0.21875 0 C 0.207031 0.0078125 0.191406 0.015625 0.171875 0.015625 C 0.109375 0.015625 0.078125 -0.0195312 0.078125 -0.09375 L 0.078125 -0.3125 L 0.015625 -0.3125 L 0.015625 -0.359375 L 0.078125 -0.359375 L 0.078125 -0.4375 L 0.140625 -0.453125 L 0.140625 -0.359375 L 0.25 -0.359375 L 0.25 -0.3125 L 0.140625 -0.3125 L 0.140625 -0.109375 C 0.140625 -0.0664062 0.15625 -0.046875 0.1875 -0.046875 C 0.207031 -0.046875 0.222656 -0.046875 0.234375 -0.046875 Z M 0.234375 -0.046875 "/></g></g></g></svg>