<svg xmlns="http://www.w3.org/2000/svg" xmlns:xlink="http://www.w3.org/1999/xlink" width="1536" zoomAndPan="magnify" viewBox="0 0 1152 1123.499971" height="1498" preserveAspectRatio="xMidYMid meet" version="1.0"><defs><g/></defs><path fill="#caddff" d="M 285.167969 309.304688 C 394.417969 198.925781 363.140625 129.742188 437.890625 78.640625 C 552.914062 0.0078125 767.59375 67.660156 894.234375 175.824219 C 1049.351562 308.296875 1129.382812 550.175781 1038.222656 769.003906 C 941.125 1002.046875 685.667969 1123.019531 457.71875 1086.5625 C 254.164062 1054.007812 54.066406 892.949219 34.015625 699.792969 C 31.839844 678.855469 22.25 565.679688 89.53125 468.101562 C 145.144531 387.453125 198.570312 396.800781 285.167969 309.304688 " fill-opacity="1" fill-rule="nonzero"/><path fill="#99b9ff" d="M 160.074219 986.878906 C 128.84375 995.441406 96.597656 977.035156 88.046875 945.78125 C 79.496094 914.515625 97.878906 882.234375 129.105469 873.683594 C 160.335938 865.121094 192.582031 883.519531 201.132812 914.78125 C 209.683594 946.039062 191.300781 978.320312 160.074219 986.878906 Z M 261.226562 910.128906 L 255.210938 888.140625 L 230.363281 889.277344 C 228.0625 884.433594 225.394531 879.839844 222.378906 875.546875 L 235.535156 854.453125 L 219.34375 838.421875 L 198.382812 851.839844 C 194.019531 848.84375 189.414062 846.21875 184.617188 843.988281 L 185.476562 819.097656 L 163.445312 813.316406 L 152.011719 835.390625 C 146.785156 834.984375 141.480469 835.023438 136.144531 835.507812 L 124.460938 813.53125 L 102.496094 819.550781 L 103.625 844.421875 C 98.785156 846.726562 94.199219 849.398438 89.914062 852.414062 L 68.839844 839.246094 L 52.824219 855.449219 L 66.226562 876.433594 C 63.234375 880.800781 60.609375 885.410156 58.378906 890.214844 L 33.515625 889.355469 L 27.742188 911.40625 L 49.796875 922.847656 C 49.386719 928.082031 49.429688 933.390625 49.910156 938.730469 L 27.953125 950.429688 L 33.96875 972.417969 L 58.816406 971.285156 C 61.117188 976.125 63.785156 980.71875 66.800781 985.007812 L 53.644531 1006.101562 L 69.835938 1022.132812 L 90.796875 1008.71875 C 95.160156 1011.714844 99.765625 1014.339844 104.5625 1016.574219 L 103.703125 1041.460938 L 125.734375 1047.242188 L 137.167969 1025.164062 C 142.394531 1025.574219 147.699219 1025.535156 153.035156 1025.050781 L 164.71875 1047.03125 L 186.683594 1041.011719 L 185.554688 1016.136719 C 190.390625 1013.832031 194.980469 1011.160156 199.265625 1008.140625 L 220.339844 1021.308594 L 236.355469 1005.105469 L 222.949219 984.128906 C 225.945312 979.753906 228.570312 975.144531 230.800781 970.347656 L 255.664062 971.207031 L 261.4375 949.15625 L 239.382812 937.710938 C 239.792969 932.480469 239.75 927.167969 239.269531 921.828125 L 261.226562 910.128906 " fill-opacity="1" fill-rule="nonzero"/><path fill="#99b9ff" d="M 712.660156 322.285156 C 671.886719 333.457031 629.777344 309.429688 618.605469 268.609375 C 607.449219 227.792969 631.449219 185.644531 672.230469 174.472656 C 713.007812 163.296875 755.113281 187.324219 766.277344 228.136719 C 777.441406 268.953125 753.4375 311.101562 712.660156 322.285156 Z M 844.742188 222.0625 L 836.890625 193.355469 L 804.445312 194.828125 C 801.433594 188.511719 797.953125 182.515625 794.019531 176.910156 L 811.199219 149.367188 L 790.050781 128.429688 L 762.6875 145.949219 C 756.988281 142.039062 750.972656 138.609375 744.710938 135.691406 L 745.832031 103.195312 L 717.0625 95.648438 L 702.132812 124.476562 C 695.316406 123.941406 688.382812 123.992188 681.417969 124.628906 L 666.160156 95.925781 L 637.480469 103.789062 L 638.949219 136.265625 C 632.636719 139.277344 626.652344 142.765625 621.054688 146.699219 L 593.53125 129.507812 L 572.617188 150.671875 L 590.117188 178.0625 C 586.214844 183.769531 582.785156 189.785156 579.875 196.058594 L 547.40625 194.9375 L 539.867188 223.726562 L 568.667969 238.675781 C 568.132812 245.503906 568.183594 252.4375 568.816406 259.414062 L 540.144531 274.683594 L 548 303.394531 L 580.449219 301.921875 C 583.449219 308.246094 586.9375 314.238281 590.863281 319.84375 L 573.683594 347.390625 L 594.835938 368.316406 L 622.203125 350.796875 C 627.894531 354.707031 633.910156 358.136719 640.171875 361.054688 L 639.058594 393.554688 L 667.828125 401.101562 L 682.75 372.273438 C 689.578125 372.808594 696.5 372.757812 703.46875 372.128906 L 718.726562 400.820312 L 747.414062 392.960938 L 745.941406 360.484375 C 752.25 357.472656 758.242188 353.992188 763.847656 350.046875 L 791.359375 367.246094 L 812.269531 346.082031 L 794.769531 318.6875 C 798.671875 312.984375 802.101562 306.960938 805.015625 300.699219 L 837.484375 301.8125 L 845.023438 273.019531 L 816.21875 258.078125 C 816.753906 251.242188 816.699219 244.3125 816.070312 237.34375 L 844.742188 222.0625 " fill-opacity="1" fill-rule="nonzero"/><path fill="#5479f7" d="M 199.046875 1001.6875 L 650.449219 1001.6875 C 669.902344 1001.6875 683.683594 985.964844 681.230469 966.570312 L 570.078125 88.257812 C 567.625 68.859375 549.863281 53.140625 530.414062 53.140625 L 101.667969 48.125 C 52.453125 48.125 45.777344 68.859375 48.230469 88.257812 L 159.382812 966.570312 C 161.835938 985.964844 179.59375 1001.6875 199.046875 1001.6875 " fill-opacity="1" fill-rule="nonzero"/><path fill="#ffffff" d="M 226.210938 1001.6875 L 677.609375 1001.6875 C 697.0625 1001.6875 710.84375 985.914062 708.386719 966.457031 L 597.242188 85.34375 C 594.789062 65.894531 577.027344 50.117188 557.574219 50.117188 L 106.171875 50.117188 C 86.71875 50.117188 72.9375 65.894531 75.394531 85.34375 L 186.542969 966.457031 C 189 985.914062 206.757812 1001.6875 226.210938 1001.6875 " fill-opacity="1" fill-rule="nonzero"/><path fill="#000000" d="M 121.804688 472.042969 C 120.859375 472.042969 120.042969 471.34375 119.925781 470.382812 L 73.511719 85.574219 C 72.253906 75.570312 74.996094 66.164062 81.234375 59.085938 C 87.410156 52.074219 96.265625 48.222656 106.171875 48.222656 L 158.5625 48.222656 C 159.605469 48.222656 160.453125 49.066406 160.453125 50.117188 C 160.453125 51.164062 159.605469 52.007812 158.5625 52.007812 L 106.171875 52.007812 C 97.367188 52.007812 89.519531 55.414062 84.078125 61.59375 C 78.566406 67.839844 76.148438 76.199219 77.273438 85.109375 L 123.691406 469.925781 C 123.8125 470.960938 123.074219 471.90625 122.035156 472.039062 C 121.957031 472.042969 121.882812 472.042969 121.804688 472.042969 " fill-opacity="1" fill-rule="nonzero"/><path fill="#000000" d="M 488.042969 52.664062 C 488.035156 52.664062 488.035156 52.664062 488.035156 52.664062 L 190.679688 52.007812 C 189.632812 52.007812 188.789062 51.164062 188.789062 50.113281 C 188.792969 49.066406 189.640625 48.222656 190.683594 48.222656 C 190.6875 48.222656 190.6875 48.222656 190.6875 48.222656 L 488.042969 48.875 C 489.089844 48.875 489.933594 49.730469 489.933594 50.773438 C 489.929688 51.816406 489.085938 52.664062 488.042969 52.664062 " fill-opacity="1" fill-rule="nonzero"/><path fill="#000000" d="M 677.617188 1003.582031 L 535.035156 1003.582031 C 533.988281 1003.582031 533.140625 1002.734375 533.140625 1001.683594 C 533.140625 1000.640625 533.988281 999.789062 535.035156 999.789062 L 677.617188 999.789062 C 686.421875 999.789062 694.265625 996.390625 699.710938 990.214844 C 705.222656 983.960938 707.636719 975.605469 706.515625 966.6875 L 697.179688 892.703125 C 697.046875 891.667969 697.785156 890.714844 698.820312 890.582031 C 699.863281 890.453125 700.808594 891.1875 700.9375 892.222656 L 710.273438 966.21875 C 711.535156 976.230469 708.792969 985.644531 702.550781 992.722656 C 696.378906 999.726562 687.519531 1003.582031 677.617188 1003.582031 " fill-opacity="1" fill-rule="nonzero"/><path fill="#000000" d="M 504.394531 1003.582031 L 349.164062 1003.582031 C 348.117188 1003.582031 347.269531 1002.734375 347.269531 1001.683594 C 347.269531 1000.640625 348.117188 999.789062 349.164062 999.789062 L 504.394531 999.789062 C 505.441406 999.789062 506.289062 1000.640625 506.289062 1001.683594 C 506.289062 1002.734375 505.441406 1003.582031 504.394531 1003.582031 " fill-opacity="1" fill-rule="nonzero"/><path fill="#000000" d="M 271.96875 1003.582031 L 226.210938 1003.582031 C 205.871094 1003.582031 187.230469 987.03125 184.664062 966.6875 L 167.65625 831.859375 C 167.523438 830.824219 168.261719 829.878906 169.300781 829.75 C 170.339844 829.617188 171.285156 830.351562 171.417969 831.386719 L 188.425781 966.21875 C 190.757812 984.730469 207.710938 999.789062 226.210938 999.789062 L 271.96875 999.789062 C 273.015625 999.789062 273.863281 1000.640625 273.863281 1001.683594 C 273.863281 1002.734375 273.015625 1003.582031 271.96875 1003.582031 " fill-opacity="1" fill-rule="nonzero"/><path fill="#99b9ff" d="M 682.671875 967.667969 L 576.546875 126.351562 C 575.96875 121.859375 571.875 118.21875 567.382812 118.21875 L 113.554688 118.21875 C 109.0625 118.21875 105.878906 121.859375 106.445312 126.351562 L 212.574219 967.667969 C 213.140625 972.160156 217.242188 975.800781 221.734375 975.800781 L 675.5625 975.800781 C 680.054688 975.800781 683.242188 972.160156 682.671875 967.667969 " fill-opacity="1" fill-rule="nonzero"/><path fill="#caddff" d="M 337.527344 94.921875 C 344.816406 94.921875 349.976562 89.019531 349.058594 81.730469 C 348.136719 74.4375 341.484375 68.53125 334.195312 68.53125 C 326.910156 68.53125 321.746094 74.4375 322.667969 81.730469 C 323.585938 89.019531 330.238281 94.921875 337.527344 94.921875 " fill-opacity="1" fill-rule="nonzero"/><path fill="#000000" d="M 643.074219 666.191406 C 642.984375 666.191406 642.90625 666.191406 642.820312 666.191406 C 616.449219 666.117188 589.3125 650.234375 562.171875 618.988281 C 543.144531 597.089844 531.03125 575.429688 530.527344 574.519531 C 526.488281 567.253906 529.109375 558.089844 536.371094 554.050781 C 543.632812 550.019531 552.796875 552.632812 556.828125 559.898438 C 568.628906 581.0625 607.085938 635.988281 642.90625 636.089844 C 642.964844 636.089844 643.015625 636.089844 643.066406 636.089844 C 654.429688 636.089844 663.21875 632.582031 669.921875 625.371094 C 685.964844 608.101562 687.140625 573.589844 686.242188 561.746094 C 685.609375 553.457031 691.8125 546.226562 700.097656 545.601562 C 708.375 544.96875 715.613281 551.171875 716.242188 559.460938 C 716.410156 561.738281 720.160156 615.511719 691.960938 645.863281 C 679.425781 659.355469 662.976562 666.191406 643.074219 666.191406 " fill-opacity="1" fill-rule="nonzero"/><path fill="#000000" d="M 748.714844 557.761719 L 659.609375 557.761719 C 651.300781 557.761719 644.566406 551.019531 644.566406 542.714844 C 644.566406 534.402344 651.300781 527.664062 659.609375 527.664062 L 748.714844 527.664062 C 757.027344 527.664062 763.761719 534.402344 763.761719 542.714844 C 763.761719 551.019531 757.027344 557.761719 748.714844 557.761719 " fill-opacity="1" fill-rule="nonzero"/><path fill="#ffffff" d="M 658.058594 350.703125 L 626.257812 350.703125 L 626.257812 261.710938 L 658.058594 261.710938 C 665.707031 261.710938 671.910156 267.914062 671.910156 275.558594 L 671.910156 336.855469 C 671.910156 344.503906 665.707031 350.703125 658.058594 350.703125 " fill-opacity="1" fill-rule="nonzero"/><path fill="#000000" d="M 628.148438 348.816406 L 634.984375 348.816406 C 654.296875 348.816406 670.011719 333.097656 670.011719 313.78125 L 670.011719 298.648438 C 670.011719 279.328125 654.296875 263.617188 634.984375 263.617188 L 628.148438 263.617188 Z M 634.984375 352.605469 L 626.253906 352.605469 C 625.203125 352.605469 624.359375 351.753906 624.359375 350.710938 L 624.359375 261.71875 C 624.359375 260.671875 625.203125 259.824219 626.253906 259.824219 L 634.984375 259.824219 C 656.382812 259.824219 673.796875 277.242188 673.796875 298.648438 L 673.796875 313.78125 C 673.796875 335.1875 656.382812 352.605469 634.984375 352.605469 " fill-opacity="1" fill-rule="nonzero"/><path fill="#ffffff" d="M 192.753906 350.703125 L 224.558594 350.703125 L 224.558594 261.710938 L 192.753906 261.710938 C 185.109375 261.710938 178.90625 267.914062 178.90625 275.558594 L 178.90625 336.855469 C 178.90625 344.503906 185.109375 350.703125 192.753906 350.703125 " fill-opacity="1" fill-rule="nonzero"/><path fill="#000000" d="M 215.824219 263.617188 C 196.511719 263.617188 180.800781 279.328125 180.800781 298.648438 L 180.800781 313.78125 C 180.800781 333.097656 196.511719 348.816406 215.824219 348.816406 L 222.660156 348.816406 L 222.660156 263.617188 Z M 224.554688 352.605469 L 215.824219 352.605469 C 194.421875 352.605469 177.011719 335.1875 177.011719 313.78125 L 177.011719 298.648438 C 177.011719 277.242188 194.421875 259.824219 215.824219 259.824219 L 224.554688 259.824219 C 225.601562 259.824219 226.449219 260.671875 226.449219 261.71875 L 226.449219 350.710938 C 226.449219 351.753906 225.601562 352.605469 224.554688 352.605469 " fill-opacity="1" fill-rule="nonzero"/><path fill="#ffffff" d="M 210.175781 302.535156 C 210.175781 206.910156 306.535156 107.996094 425.410156 107.996094 C 544.273438 107.996094 640.636719 206.910156 640.636719 302.535156 C 640.636719 398.164062 544.273438 454.289062 425.410156 454.289062 C 306.535156 454.289062 210.175781 398.164062 210.175781 302.535156 " fill-opacity="1" fill-rule="nonzero"/><path fill="#000000" d="M 425.410156 109.890625 C 303.304688 109.890625 212.070312 211.59375 212.070312 302.535156 C 212.070312 347.457031 233.578125 385.546875 274.265625 412.691406 C 312.636719 438.289062 366.3125 452.394531 425.410156 452.394531 C 484.5 452.394531 538.171875 438.289062 576.542969 412.691406 C 617.238281 385.546875 638.746094 347.457031 638.746094 302.535156 C 638.746094 211.59375 547.507812 109.890625 425.410156 109.890625 Z M 425.410156 456.179688 C 365.574219 456.179688 311.152344 441.855469 272.164062 415.84375 C 230.371094 387.964844 208.28125 348.78125 208.28125 302.535156 C 208.28125 255.136719 231.472656 206.109375 271.917969 168.027344 C 314.320312 128.089844 368.828125 106.097656 425.410156 106.097656 C 481.984375 106.097656 536.492188 128.089844 578.894531 168.027344 C 619.335938 206.109375 642.527344 255.136719 642.527344 302.535156 C 642.527344 348.78125 620.441406 387.964844 578.648438 415.84375 C 539.660156 441.855469 485.238281 456.179688 425.410156 456.179688 " fill-opacity="1" fill-rule="nonzero"/><path fill="#ffffff" d="M 479.316406 483.015625 L 371.496094 483.015625 C 324.238281 483.015625 285.925781 521.332031 285.925781 568.601562 C 285.925781 599.835938 288.972656 630.988281 295.019531 661.628906 L 310.523438 740.160156 C 321.355469 795.046875 369.476562 834.605469 425.410156 834.605469 C 481.332031 834.605469 529.457031 795.046875 540.292969 740.160156 L 555.792969 661.628906 C 561.84375 630.988281 564.882812 599.835938 564.882812 568.601562 C 564.882812 521.332031 526.578125 483.015625 479.316406 483.015625 " fill-opacity="1" fill-rule="nonzero"/><path fill="#000000" d="M 371.496094 484.910156 C 325.355469 484.910156 287.820312 522.453125 287.820312 568.601562 C 287.820312 599.640625 290.867188 630.808594 296.878906 661.257812 L 312.378906 739.792969 C 323.007812 793.628906 370.542969 832.707031 425.410156 832.707031 C 480.269531 832.707031 527.808594 793.628906 538.433594 739.792969 L 553.9375 661.257812 C 559.941406 630.816406 562.996094 599.640625 562.996094 568.601562 C 562.996094 522.453125 525.457031 484.910156 479.316406 484.910156 Z M 425.410156 836.5 C 368.738281 836.5 319.640625 796.136719 308.664062 740.527344 L 293.164062 661.996094 C 287.105469 631.304688 284.03125 599.882812 284.03125 568.601562 C 284.03125 520.363281 323.269531 481.121094 371.496094 481.121094 L 479.316406 481.121094 C 527.542969 481.121094 566.777344 520.363281 566.777344 568.601562 C 566.777344 599.886719 563.710938 631.304688 557.648438 661.996094 L 542.148438 740.527344 C 531.171875 796.136719 482.078125 836.5 425.410156 836.5 " fill-opacity="1" fill-rule="nonzero"/><path fill="#5479f7" d="M 435.390625 672.65625 L 415.429688 672.65625 C 388.523438 672.65625 366.714844 650.839844 366.714844 623.929688 L 366.714844 483.015625 L 484.097656 483.015625 L 484.097656 623.929688 C 484.097656 650.839844 462.289062 672.65625 435.390625 672.65625 " fill-opacity="1" fill-rule="nonzero"/><path fill="#000000" d="M 484.097656 484.910156 L 366.714844 484.910156 C 365.667969 484.910156 364.824219 484.054688 364.824219 483.015625 C 364.824219 481.964844 365.667969 481.121094 366.714844 481.121094 L 484.097656 481.121094 C 485.144531 481.121094 485.992188 481.964844 485.992188 483.015625 C 485.992188 484.054688 485.144531 484.910156 484.097656 484.910156 " fill-opacity="1" fill-rule="nonzero"/><path fill="#000000" d="M 570.113281 273.832031 L 362.851562 273.832031 C 341.316406 273.832031 323.863281 292.648438 323.863281 315.851562 L 323.863281 343.273438 C 323.863281 360.972656 333.308594 379.726562 349.597656 382.785156 C 407.035156 393.585938 525.929688 393.585938 583.363281 382.785156 C 599.65625 379.726562 609.097656 360.972656 609.097656 343.273438 L 609.097656 315.851562 C 609.097656 292.648438 591.640625 273.832031 570.113281 273.832031 " fill-opacity="1" fill-rule="nonzero"/><path fill="#5479f7" d="M 417.777344 329.007812 C 417.777344 336.785156 411.929688 343.089844 404.714844 343.089844 C 397.503906 343.089844 391.652344 336.785156 391.652344 329.007812 C 391.652344 321.238281 397.503906 314.929688 404.714844 314.929688 C 411.929688 314.929688 417.777344 321.238281 417.777344 329.007812 " fill-opacity="1" fill-rule="nonzero"/><path fill="#5479f7" d="M 556.742188 329.007812 C 556.742188 336.785156 550.886719 343.089844 543.683594 343.089844 C 536.464844 343.089844 530.617188 336.785156 530.617188 329.007812 C 530.617188 321.238281 536.464844 314.929688 543.683594 314.929688 C 550.886719 314.929688 556.742188 321.238281 556.742188 329.007812 " fill-opacity="1" fill-rule="nonzero"/><path fill="#000000" d="M 287.742188 734.601562 C 258.261719 734.601562 218.378906 730.402344 192.816406 710.800781 C 178.082031 699.496094 169.472656 684.578125 167.234375 666.457031 C 157.171875 585.09375 255.332031 538.519531 259.515625 536.578125 C 267.050781 533.078125 275.996094 536.355469 279.496094 543.898438 C 282.992188 551.425781 279.726562 560.367188 272.203125 563.875 C 271.378906 564.257812 189.730469 603.183594 197.097656 662.761719 C 198.328125 672.71875 202.914062 680.617188 211.125 686.910156 C 239.230469 708.464844 300.523438 705.4375 321.769531 702.453125 C 329.996094 701.292969 337.605469 707.03125 338.757812 715.261719 C 339.914062 723.496094 334.183594 731.105469 325.953125 732.257812 C 324.445312 732.472656 308.730469 734.601562 287.742188 734.601562 " fill-opacity="1" fill-rule="nonzero"/><path fill="#000000" d="M 391.628906 750.609375 L 362.734375 750.609375 C 346.949219 750.609375 333.859375 738.761719 332.289062 723.046875 L 331.285156 712.988281 C 330.425781 704.398438 333.253906 695.804688 339.042969 689.40625 C 344.832031 683.003906 353.101562 679.335938 361.730469 679.335938 L 407.816406 679.335938 C 416.125 679.335938 422.863281 686.078125 422.863281 694.390625 C 422.863281 702.699219 416.125 709.433594 407.816406 709.433594 L 361.730469 709.433594 C 361.644531 709.433594 361.503906 709.433594 361.351562 709.601562 C 361.199219 709.769531 361.214844 709.914062 361.226562 709.992188 L 362.230469 720.050781 C 362.253906 720.3125 362.472656 720.507812 362.734375 720.507812 L 391.628906 720.507812 C 399.9375 720.507812 406.675781 727.246094 406.675781 735.558594 C 406.675781 743.871094 399.9375 750.609375 391.628906 750.609375 " fill-opacity="1" fill-rule="nonzero"/><path fill="#5479f7" d="M 871.429688 692.53125 L 871.429688 741.949219 C 871.429688 790.277344 833.277344 829.453125 786.222656 829.453125 C 739.167969 829.453125 701.007812 868.628906 701.007812 916.960938 C 701.007812 921.261719 704.496094 924.753906 708.800781 924.753906 L 934.355469 924.753906 C 1004.902344 924.753906 1062.097656 866.027344 1062.097656 793.578125 L 1062.097656 688.136719 C 1062.097656 659.320312 1039.347656 635.964844 1011.289062 635.964844 L 926.515625 635.964844 C 896.09375 635.964844 871.429688 661.292969 871.429688 692.53125 " fill-opacity="1" fill-rule="nonzero"/><path fill="#5479f7" d="M 897.445312 1073.753906 L 877.007812 1073.753906 L 877.007812 835.703125 L 897.445312 835.703125 L 897.445312 1073.753906 " fill-opacity="1" fill-rule="nonzero"/><path fill="#5479f7" d="M 791.433594 1081.476562 L 881.882812 1073.535156 L 890.179688 1073.535156 L 982.53125 1081.476562 L 982.53125 1087.78125 L 791.433594 1087.78125 L 791.433594 1081.476562 " fill-opacity="1" fill-rule="nonzero"/><path fill="#ffffff" d="M 825.617188 1039.941406 C 823.523438 1037.820312 811.394531 1000.101562 811.394531 1000.101562 L 787.445312 1017.199219 L 813.707031 1052.492188 L 825.617188 1039.941406 " fill-opacity="1" fill-rule="nonzero"/><path fill="#000000" d="M 790.125 1017.621094 L 813.878906 1049.554688 L 823.292969 1039.636719 C 820.398438 1033.660156 813.933594 1014.097656 810.386719 1003.148438 Z M 813.707031 1054.386719 C 813.664062 1054.386719 813.628906 1054.386719 813.59375 1054.386719 C 813.035156 1054.355469 812.523438 1054.078125 812.1875 1053.628906 L 785.929688 1018.328125 C 785.625 1017.917969 785.503906 1017.40625 785.574219 1016.90625 C 785.652344 1016.398438 785.933594 1015.949219 786.347656 1015.65625 L 810.296875 998.5625 C 810.796875 998.210938 811.421875 998.117188 812 998.304688 C 812.566406 998.492188 813.015625 998.949219 813.199219 999.527344 C 818.847656 1017.089844 825.613281 1036.785156 827.03125 1038.679688 C 827.75 1039.402344 827.691406 1040.507812 826.992188 1041.242188 L 815.078125 1053.800781 C 814.71875 1054.175781 814.226562 1054.386719 813.707031 1054.386719 " fill-opacity="1" fill-rule="nonzero"/><path fill="#000000" d="M 782.460938 1087.625 L 798.382812 1087.53125 C 808.917969 1087.46875 818.726562 1082.113281 824.46875 1073.277344 L 840.21875 1048.339844 C 844.570312 1041.445312 842.140625 1032.3125 834.9375 1028.488281 C 828.371094 1024.992188 821.484375 1021.585938 819.863281 1021.746094 C 816.582031 1022.054688 815.265625 1037.5625 815.265625 1037.5625 L 801.074219 1038.101562 C 801.074219 1038.101562 794.0625 1067.261719 787.890625 1070.578125 C 783.402344 1072.996094 780.265625 1076.535156 778.15625 1079.773438 C 775.949219 1083.167969 778.410156 1087.648438 782.460938 1087.625 " fill-opacity="1" fill-rule="nonzero"/><path fill="#ffffff" d="M 784.054688 1083.300781 C 783.132812 1083.300781 782.328125 1082.625 782.183594 1081.6875 C 782.03125 1080.65625 782.746094 1079.6875 783.777344 1079.53125 L 805.566406 1076.25 C 809.90625 1075.597656 813.6875 1073.058594 815.945312 1069.289062 L 835.195312 1037.117188 C 835.738281 1036.21875 836.898438 1035.933594 837.796875 1036.46875 C 838.6875 1037.003906 838.984375 1038.167969 838.449219 1039.0625 L 819.191406 1071.238281 C 816.359375 1075.976562 811.597656 1079.175781 806.128906 1080 L 784.34375 1083.277344 C 784.246094 1083.292969 784.152344 1083.300781 784.054688 1083.300781 " fill-opacity="1" fill-rule="nonzero"/><path fill="#ffffff" d="M 810.953125 1059.105469 C 810.789062 1059.105469 810.625 1059.089844 810.460938 1059.042969 L 798.320312 1055.734375 C 797.3125 1055.457031 796.714844 1054.414062 796.988281 1053.40625 C 797.265625 1052.398438 798.308594 1051.800781 799.316406 1052.078125 L 811.457031 1055.382812 C 812.460938 1055.660156 813.054688 1056.703125 812.78125 1057.710938 C 812.550781 1058.550781 811.792969 1059.105469 810.953125 1059.105469 " fill-opacity="1" fill-rule="nonzero"/><path fill="#ffffff" d="M 804.636719 1065.34375 C 804.488281 1065.34375 804.332031 1065.324219 804.175781 1065.285156 L 796.046875 1063.296875 C 795.027344 1063.042969 794.40625 1062.019531 794.660156 1061.003906 C 794.902344 1059.992188 795.921875 1059.363281 796.945312 1059.617188 L 805.082031 1061.605469 C 806.101562 1061.855469 806.722656 1062.882812 806.46875 1063.898438 C 806.261719 1064.761719 805.488281 1065.34375 804.636719 1065.34375 " fill-opacity="1" fill-rule="nonzero"/><path fill="#ffffff" d="M 743.898438 1032.746094 L 716.089844 1060.6875 L 701.351562 1055.273438 L 726.988281 1019.519531 L 743.898438 1032.746094 " fill-opacity="1" fill-rule="nonzero"/><path fill="#000000" d="M 704.34375 1054.351562 L 715.605469 1058.496094 L 741.050781 1032.921875 L 727.371094 1022.234375 Z M 716.089844 1062.585938 C 715.871094 1062.585938 715.652344 1062.542969 715.441406 1062.46875 L 700.695312 1057.054688 C 700.144531 1056.847656 699.710938 1056.398438 699.539062 1055.832031 C 699.367188 1055.269531 699.464844 1054.652344 699.808594 1054.167969 L 725.445312 1018.417969 C 725.742188 1017.996094 726.203125 1017.722656 726.714844 1017.648438 C 727.226562 1017.574219 727.742188 1017.710938 728.148438 1018.027344 L 745.0625 1031.246094 C 745.488281 1031.582031 745.753906 1032.085938 745.789062 1032.625 C 745.824219 1033.167969 745.621094 1033.695312 745.242188 1034.082031 L 717.433594 1062.023438 C 717.074219 1062.390625 716.585938 1062.585938 716.089844 1062.585938 " fill-opacity="1" fill-rule="nonzero"/><path fill="#000000" d="M 724.878906 1056.316406 C 724.878906 1056.316406 726.21875 1068.207031 723.9375 1078.714844 C 722.722656 1084.3125 717.679688 1088.25 711.957031 1088.25 L 643.710938 1088.25 C 638.835938 1088.25 636.625 1082.160156 640.359375 1079.023438 C 652.496094 1068.859375 674.816406 1053.328125 702.265625 1048.769531 L 709.917969 1059.484375 L 724.878906 1056.316406 " fill-opacity="1" fill-rule="nonzero"/><path fill="#ffffff" d="M 717.679688 1080.761719 L 646.953125 1080.761719 C 645.914062 1080.761719 645.058594 1079.910156 645.058594 1078.863281 C 645.058594 1077.8125 645.914062 1076.96875 646.953125 1076.96875 L 717.679688 1076.96875 C 718.730469 1076.96875 719.574219 1077.8125 719.574219 1078.863281 C 719.574219 1079.910156 718.730469 1080.761719 717.679688 1080.761719 " fill-opacity="1" fill-rule="nonzero"/><path fill="#ffffff" d="M 686.421875 1068.191406 C 685.679688 1068.191406 684.96875 1067.75 684.671875 1067.019531 L 680.921875 1057.9375 C 680.523438 1056.96875 680.984375 1055.863281 681.949219 1055.457031 C 682.921875 1055.0625 684.023438 1055.523438 684.425781 1056.488281 L 688.171875 1065.574219 C 688.570312 1066.539062 688.109375 1067.648438 687.140625 1068.046875 C 686.902344 1068.144531 686.664062 1068.191406 686.421875 1068.191406 " fill-opacity="1" fill-rule="nonzero"/><path fill="#ffffff" d="M 674.109375 1070.578125 C 673.3125 1070.578125 672.578125 1070.074219 672.3125 1069.277344 L 669.605469 1061.085938 C 669.277344 1060.089844 669.8125 1059.019531 670.808594 1058.691406 C 671.796875 1058.363281 672.867188 1058.902344 673.199219 1059.894531 L 675.910156 1068.089844 C 676.238281 1069.082031 675.695312 1070.15625 674.707031 1070.480469 C 674.503906 1070.550781 674.308594 1070.578125 674.109375 1070.578125 " fill-opacity="1" fill-rule="nonzero"/><path fill="#000000" d="M 891.085938 837.191406 C 891.085938 837.191406 764.007812 822.390625 726.21875 855.113281 C 688.425781 887.835938 785.867188 1028.539062 785.867188 1028.539062 L 816.679688 1005.675781 L 787.453125 906.226562 L 904.925781 872.855469 L 891.085938 837.191406 " fill-opacity="1" fill-rule="nonzero"/><path fill="#000000" d="M 961.023438 901.949219 C 942.558594 907.8125 909.53125 915.390625 863.363281 914.761719 C 850.25 914.582031 838.140625 921.828125 832.183594 933.515625 C 818.511719 960.34375 788.914062 1008.640625 740.703125 1039.941406 L 717.675781 1027.53125 L 776.445312 895.210938 C 781.8125 883.132812 791.84375 873.742188 804.25 869.191406 L 920.722656 826.472656 C 920.722656 826.472656 956.832031 816.375 974.539062 848.621094 C 977.703125 854.378906 983.566406 844.085938 984.96875 848.726562 C 989.769531 864.660156 976.875 896.921875 961.023438 901.949219 " fill-opacity="1" fill-rule="nonzero"/><path fill="#ffffff" d="M 749.886719 956.898438 C 749.632812 956.898438 749.371094 956.847656 749.125 956.738281 C 748.167969 956.308594 747.734375 955.191406 748.164062 954.238281 L 774.714844 894.441406 C 780.253906 881.960938 790.789062 872.109375 803.597656 867.410156 L 859.375 846.949219 C 860.359375 846.589844 861.445312 847.09375 861.804688 848.078125 C 862.167969 849.0625 861.660156 850.144531 860.683594 850.507812 L 804.910156 870.960938 C 793.042969 875.320312 783.308594 884.433594 778.175781 895.980469 L 751.621094 955.773438 C 751.308594 956.476562 750.617188 956.898438 749.886719 956.898438 " fill-opacity="1" fill-rule="nonzero"/><path fill="#ffffff" d="M 780.894531 1008.304688 C 780.421875 1008.304688 779.957031 1008.125 779.585938 1007.773438 C 778.828125 1007.046875 778.804688 1005.847656 779.53125 1005.09375 C 784.820312 999.601562 790.023438 993.6875 794.996094 987.539062 C 795.65625 986.726562 796.839844 986.597656 797.664062 987.253906 C 798.476562 987.917969 798.601562 989.109375 797.945312 989.921875 C 792.898438 996.160156 787.625 1002.144531 782.265625 1007.722656 C 781.894531 1008.109375 781.394531 1008.304688 780.894531 1008.304688 " fill-opacity="1" fill-rule="nonzero"/><path fill="#ffffff" d="M 796.46875 990.625 C 796.050781 990.625 795.632812 990.484375 795.28125 990.203125 C 794.464844 989.539062 794.339844 988.347656 794.996094 987.539062 C 797.445312 984.511719 799.878906 981.371094 802.242188 978.203125 C 802.863281 977.363281 804.050781 977.191406 804.890625 977.820312 C 805.730469 978.441406 805.90625 979.628906 805.28125 980.46875 C 802.886719 983.675781 800.417969 986.859375 797.945312 989.921875 C 797.570312 990.382812 797.019531 990.625 796.46875 990.625 " fill-opacity="1" fill-rule="nonzero"/><path fill="#ffffff" d="M 862.210938 734.515625 C 862.210938 734.515625 851.035156 836.039062 775.980469 842.675781 L 862.210938 843.90625 C 862.210938 843.90625 894.144531 779.1875 895.4375 753.988281 C 896.734375 728.789062 862.210938 734.515625 862.210938 734.515625 " fill-opacity="1" fill-rule="nonzero"/><path fill="#000000" d="M 793.671875 841.039062 L 861.039062 841.992188 C 865.171875 833.46875 892.371094 776.65625 893.550781 753.890625 C 893.824219 748.4375 892.292969 744.167969 888.976562 741.207031 C 881.808594 734.800781 868.257812 735.71875 863.902344 736.207031 C 863.082031 742.054688 859.453125 764.3125 848.964844 786.90625 C 835.875 815.078125 816.964844 833.5 793.671875 841.039062 Z M 862.214844 845.800781 C 862.203125 845.800781 862.195312 845.800781 862.183594 845.800781 L 775.945312 844.574219 C 774.945312 844.5625 774.125 843.753906 774.085938 842.746094 C 774.054688 841.738281 774.800781 840.882812 775.808594 840.789062 C 806.1875 838.105469 829.632812 819.464844 845.484375 785.398438 C 857.410156 759.761719 860.300781 734.5625 860.332031 734.308594 C 860.421875 733.464844 861.070312 732.785156 861.902344 732.648438 C 862.699219 732.515625 881.5625 729.507812 891.5 738.371094 C 895.707031 742.140625 897.671875 747.421875 897.332031 754.082031 C 896.03125 779.382812 865.21875 842.085938 863.914062 844.746094 C 863.589844 845.390625 862.933594 845.800781 862.214844 845.800781 " fill-opacity="1" fill-rule="nonzero"/><path fill="#ffffff" d="M 969.027344 670 C 954.46875 666.578125 948.394531 666.535156 895.46875 668.449219 C 882.535156 668.917969 867.144531 685.15625 865.625 698.015625 C 869.738281 710.347656 888.714844 771.238281 855.585938 818.820312 C 850.882812 825.570312 844.496094 832.976562 835.722656 840.070312 C 840.648438 844.058594 848.304688 849.25 858.585938 852.300781 C 875.664062 857.375 884.253906 851.890625 898.019531 852.300781 C 934.417969 853.390625 947.769531 893.9375 971.277344 888.84375 C 977.558594 887.484375 985.875 882.589844 993.683594 866.160156 C 998.101562 852.535156 1002.035156 836.539062 1004.222656 818.460938 C 1010.167969 769.449219 1000.445312 728.636719 991.765625 703.03125 C 989.1875 694.941406 986.191406 674.039062 969.027344 670 " fill-opacity="1" fill-rule="nonzero"/><path fill="#000000" d="M 896.527344 850.378906 C 897.039062 850.378906 897.558594 850.394531 898.078125 850.40625 C 917.8125 850.996094 930.800781 862.585938 942.242188 872.8125 C 952.105469 881.613281 960.617188 889.21875 970.882812 886.996094 C 978.855469 885.265625 985.929688 878.019531 991.917969 865.457031 C 996.914062 850.050781 1000.421875 834.164062 1002.351562 818.226562 C 1006.980469 780.058594 1002.8125 741.503906 989.972656 703.632812 C 989.597656 702.433594 989.222656 701.070312 988.804688 699.484375 C 986.363281 690.351562 982.285156 675.054688 968.597656 671.84375 C 954.445312 668.519531 948.984375 668.402344 895.539062 670.335938 C 884.0625 670.753906 869.324219 685.300781 867.5625 697.828125 C 874.894531 720.007812 888.152344 775.367188 857.148438 819.902344 C 851.996094 827.285156 845.820312 834.050781 838.746094 840.027344 C 845.097656 844.832031 851.945312 848.347656 859.136719 850.484375 C 869.65625 853.605469 876.75 852.585938 884.25 851.507812 C 888.089844 850.957031 892.050781 850.378906 896.527344 850.378906 Z M 967.25 891.183594 C 957.121094 891.183594 948.640625 883.605469 939.71875 875.640625 C 928.753906 865.847656 916.320312 854.742188 897.960938 854.195312 C 893.171875 854.050781 888.902344 854.667969 884.789062 855.261719 C 877.210938 856.351562 869.375 857.476562 858.0625 854.121094 C 849.691406 851.632812 841.769531 847.402344 834.535156 841.542969 L 832.714844 840.070312 L 834.535156 838.597656 C 842.085938 832.480469 848.652344 825.460938 854.035156 817.738281 C 884.25 774.332031 870.945312 719.96875 863.828125 698.609375 L 863.699219 698.210938 L 863.742188 697.785156 C 865.304688 684.597656 880.941406 667.078125 895.40625 666.550781 C 949.324219 664.601562 954.867188 664.714844 969.464844 668.152344 C 985.355469 671.886719 989.804688 688.550781 992.464844 698.507812 C 992.875 700.042969 993.230469 701.367188 993.578125 702.449219 C 1006.582031 740.824219 1010.804688 779.941406 1006.113281 818.683594 C 1004.148438 834.902344 1000.574219 851.074219 995.484375 866.742188 L 995.390625 866.96875 C 988.863281 880.722656 980.886719 888.703125 971.683594 890.699219 C 970.171875 891.027344 968.695312 891.183594 967.25 891.183594 " fill-opacity="1" fill-rule="nonzero"/><path fill="#ffffff" d="M 852.347656 745.890625 C 852.347656 745.890625 860.902344 677.246094 885.570312 671.386719 C 876.894531 698.066406 874.011719 727.09375 875.269531 757.816406 C 875.324219 759.089844 873.921875 759.902344 872.851562 759.203125 L 852.347656 745.890625 " fill-opacity="1" fill-rule="nonzero"/><path fill="#000000" d="M 854.386719 744.960938 L 873.347656 757.269531 C 872.125 726.179688 875.152344 699.054688 882.601562 674.523438 C 863.636719 684.492188 855.585938 736.460938 854.386719 744.960938 Z M 873.699219 761.351562 C 873.046875 761.351562 872.394531 761.164062 871.820312 760.792969 L 850.320312 746.835938 L 850.46875 745.65625 C 850.824219 742.804688 859.484375 675.636719 885.128906 669.542969 L 888.414062 668.765625 L 887.375 671.972656 C 879.167969 697.203125 875.828125 725.257812 877.15625 757.734375 C 877.214844 759.042969 876.546875 760.253906 875.410156 760.898438 C 874.878906 761.203125 874.285156 761.351562 873.699219 761.351562 " fill-opacity="1" fill-rule="nonzero"/><path fill="#caddff" d="M 684.984375 739.238281 L 774.535156 739.238281 C 778.308594 739.238281 781.816406 741.121094 783.835938 744.222656 L 817.429688 843.144531 L 896.695312 843.144531 L 896.695312 844.625 C 896.695312 849.296875 892.910156 853.089844 888.242188 853.089844 L 720.019531 853.089844 C 715.339844 853.089844 711.554688 849.296875 711.554688 844.625 L 711.554688 843.324219 L 681.191406 750.828125 C 680.730469 749.417969 680.15625 748.054688 679.632812 746.664062 C 678.304688 743.1875 680.921875 739.238281 684.984375 739.238281 " fill-opacity="1" fill-rule="nonzero"/><path fill="#000000" d="M 713.320312 842.632812 C 713.40625 842.847656 713.453125 843.082031 713.453125 843.324219 L 713.453125 844.625 C 713.453125 848.25 716.398438 851.191406 720.015625 851.191406 L 888.242188 851.191406 C 891.722656 851.191406 894.578125 848.46875 894.792969 845.039062 L 817.433594 845.039062 C 816.613281 845.039062 815.898438 844.523438 815.640625 843.753906 L 782.125 745.066406 C 780.429688 742.601562 777.617188 741.132812 774.539062 741.132812 L 684.984375 741.132812 C 683.6875 741.132812 682.535156 741.726562 681.816406 742.757812 C 681.144531 743.746094 680.996094 744.917969 681.40625 745.988281 L 681.863281 747.164062 C 682.246094 748.15625 682.644531 749.179688 682.988281 750.234375 Z M 888.242188 854.984375 L 720.015625 854.984375 C 714.304688 854.984375 709.664062 850.339844 709.664062 844.625 L 709.664062 843.636719 L 679.394531 751.417969 C 679.082031 750.460938 678.714844 749.53125 678.332031 748.542969 L 677.859375 747.335938 C 677.011719 745.117188 677.324219 742.601562 678.703125 740.609375 C 680.128906 738.535156 682.421875 737.34375 684.984375 737.34375 L 774.539062 737.34375 C 778.976562 737.34375 783.042969 739.53125 785.425781 743.191406 C 785.507812 743.324219 785.578125 743.460938 785.632812 743.613281 L 818.792969 841.25 L 896.695312 841.25 C 897.742188 841.25 898.59375 842.097656 898.59375 843.144531 L 898.59375 844.625 C 898.59375 850.339844 893.953125 854.984375 888.242188 854.984375 " fill-opacity="1" fill-rule="nonzero"/><path fill="#ffffff" d="M 750.867188 789.941406 C 752.128906 794.136719 750.199219 798.421875 746.5625 799.523438 C 742.917969 800.621094 738.941406 798.117188 737.683594 793.925781 C 736.417969 789.734375 738.351562 785.449219 741.988281 784.347656 C 745.632812 783.25 749.605469 785.753906 750.867188 789.941406 " fill-opacity="1" fill-rule="nonzero"/><path fill="#ffffff" d="M 799.050781 845.21875 L 740.695312 845.21875 C 739.644531 845.21875 738.800781 844.375 738.800781 843.324219 C 738.800781 842.277344 739.644531 841.429688 740.695312 841.429688 L 799.050781 841.429688 C 800.101562 841.429688 800.945312 842.277344 800.945312 843.324219 C 800.945312 844.375 800.101562 845.21875 799.050781 845.21875 " fill-opacity="1" fill-rule="nonzero"/><path fill="#ffffff" d="M 721.320312 845.21875 L 710.976562 845.21875 C 709.929688 845.21875 709.082031 844.371094 709.082031 843.324219 C 709.082031 842.277344 709.929688 841.429688 710.976562 841.429688 L 721.320312 841.429688 C 722.367188 841.429688 723.214844 842.277344 723.214844 843.324219 C 723.214844 844.371094 722.367188 845.21875 721.320312 845.21875 " fill-opacity="1" fill-rule="nonzero"/><path fill="#ffffff" d="M 844.613281 834.464844 C 849.734375 826.441406 859.148438 822.375 864.320312 822.667969 C 887.859375 824 933.230469 800.183594 966.964844 788.675781 C 972.808594 780.171875 968.558594 761.574219 971.214844 739.25 L 1014.253906 742.972656 C 1018.550781 764.246094 1016.917969 800.367188 1013.195312 805.148438 C 1010.734375 811.007812 997.347656 828.03125 970.152344 841.292969 C 927.648438 862.019531 870.753906 848.46875 870.753906 848.46875 C 870.753906 848.46875 841.917969 863.71875 829.46875 847.144531 C 829.46875 847.144531 839.488281 842.484375 844.613281 834.464844 " fill-opacity="1" fill-rule="nonzero"/><path fill="#000000" d="M 844.609375 834.464844 L 844.625 834.464844 Z M 832.449219 847.71875 C 844.5 859.949219 869.605469 846.929688 869.859375 846.792969 C 870.273438 846.578125 870.746094 846.515625 871.191406 846.625 C 871.75 846.757812 927.9375 859.773438 969.324219 839.585938 C 995.304688 826.914062 1008.925781 810.421875 1011.449219 804.421875 C 1011.503906 804.265625 1011.59375 804.117188 1011.695312 803.988281 C 1014.613281 800.234375 1016.765625 766.886719 1012.667969 744.738281 L 972.894531 741.296875 C 972.03125 749.625 972.097656 757.414062 972.15625 764.335938 C 972.242188 775.457031 972.316406 784.234375 968.523438 789.75 C 968.289062 790.085938 967.957031 790.339844 967.570312 790.46875 C 956.914062 794.109375 944.796875 799.097656 933.082031 803.917969 C 907.328125 814.523438 880.699219 825.492188 864.214844 824.558594 C 859.75 824.308594 851.019531 827.960938 846.207031 835.484375 C 842.292969 841.609375 835.820312 845.820312 832.449219 847.71875 Z M 846.730469 856.8125 C 839.765625 856.8125 832.796875 854.738281 827.953125 848.285156 C 827.605469 847.832031 827.480469 847.242188 827.625 846.691406 C 827.765625 846.132812 828.148438 845.671875 828.664062 845.425781 C 828.757812 845.382812 838.261719 840.890625 843.011719 833.441406 C 848.300781 825.167969 858.253906 820.433594 864.433594 820.773438 C 880.058594 821.660156 906.285156 810.859375 931.636719 800.417969 C 943.179688 795.664062 955.113281 790.75 965.734375 787.097656 C 968.515625 782.472656 968.449219 774.441406 968.363281 764.367188 C 968.308594 756.828125 968.234375 748.285156 969.335938 739.027344 C 969.460938 738.011719 970.375 737.269531 971.378906 737.363281 L 1014.417969 741.085938 C 1015.253906 741.160156 1015.945312 741.773438 1016.113281 742.597656 C 1020.332031 763.527344 1018.929688 799.925781 1014.847656 806.082031 C 1012.464844 811.449219 999.738281 828.96875 970.984375 842.992188 C 930.894531 862.542969 877.667969 851.914062 871 850.46875 C 868.253906 851.832031 857.511719 856.8125 846.730469 856.8125 " fill-opacity="1" fill-rule="nonzero"/><path fill="#000000" d="M 834.539062 849.769531 C 834.25 849.769531 834.078125 849.757812 834.039062 849.753906 C 832.996094 849.640625 832.234375 848.714844 832.34375 847.671875 C 832.449219 846.640625 833.363281 845.886719 834.402344 845.980469 C 834.570312 845.988281 841.734375 846.324219 853.011719 836.082031 C 853.785156 835.378906 854.980469 835.4375 855.6875 836.214844 C 856.386719 836.988281 856.332031 838.183594 855.554688 838.886719 C 844.378906 849.035156 836.558594 849.769531 834.539062 849.769531 " fill-opacity="1" fill-rule="nonzero"/><path fill="#000000" d="M 842.027344 853.664062 C 841.46875 853.664062 841.148438 853.625 841.089844 853.613281 C 840.054688 853.453125 839.347656 852.476562 839.511719 851.445312 C 839.671875 850.421875 840.632812 849.71875 841.652344 849.863281 C 841.808594 849.878906 848.066406 850.492188 857.933594 841.914062 C 858.726562 841.230469 859.917969 841.308594 860.605469 842.097656 C 861.296875 842.886719 861.207031 844.085938 860.421875 844.769531 C 851.140625 852.835938 844.417969 853.664062 842.027344 853.664062 " fill-opacity="1" fill-rule="nonzero"/><path fill="#ffffff" d="M 1019.636719 758.421875 C 1019.925781 758.449219 1020.171875 758.21875 1020.152344 757.929688 C 1019.855469 753.054688 1017.535156 716.628906 1014.253906 701.941406 C 1006.835938 668.796875 961.121094 668.742188 961.121094 668.742188 C 969.53125 697.148438 972.257812 724.382812 969.589844 750.507812 C 969.425781 752.113281 970.578125 753.554688 972.183594 753.710938 L 1019.636719 758.421875 " fill-opacity="1" fill-rule="nonzero"/><path fill="#000000" d="M 963.683594 670.75 C 971.476562 698.128906 974.101562 725.015625 971.476562 750.703125 C 971.445312 750.976562 971.527344 751.25 971.703125 751.460938 C 971.867188 751.667969 972.109375 751.796875 972.378906 751.824219 L 1018.160156 756.371094 C 1017.613281 747.917969 1015.402344 715.757812 1012.40625 702.355469 C 1006.402344 675.503906 973.214844 671.378906 963.683594 670.75 Z M 1019.824219 756.535156 L 1019.832031 756.535156 C 1019.824219 756.535156 1019.824219 756.535156 1019.824219 756.535156 Z M 1019.695312 760.3125 C 1019.613281 760.3125 1019.535156 760.3125 1019.453125 760.304688 L 972 755.597656 C 970.726562 755.472656 969.578125 754.855469 968.769531 753.863281 C 967.953125 752.863281 967.574219 751.605469 967.707031 750.316406 C 970.363281 724.328125 967.53125 697.066406 959.3125 669.285156 L 958.589844 666.847656 L 961.128906 666.847656 C 961.601562 666.847656 1008.445312 667.296875 1016.109375 701.523438 C 1019.433594 716.425781 1021.789062 753.621094 1022.042969 757.816406 C 1022.085938 758.503906 1021.828125 759.175781 1021.332031 759.660156 C 1020.886719 760.085938 1020.300781 760.3125 1019.695312 760.3125 " fill-opacity="1" fill-rule="nonzero"/><path fill="#ffffff" d="M 938.550781 660.730469 L 927.921875 626.160156 L 905.824219 637.914062 L 912.203125 659.742188 C 913.089844 662.914062 911.742188 666.296875 908.898438 667.972656 L 906.335938 669.488281 C 905.015625 670.265625 905.398438 672.269531 906.914062 672.515625 L 918.578125 674.40625 C 929.761719 676.214844 941.234375 674.304688 951.222656 668.953125 C 952.652344 668.183594 952.410156 666.0625 950.835938 665.632812 C 946.042969 664.34375 939.023438 662.214844 938.550781 660.730469 " fill-opacity="1" fill-rule="nonzero"/><path fill="#000000" d="M 950.347656 667.464844 L 950.367188 667.464844 Z M 907.914062 670.757812 L 918.886719 672.53125 C 929.519531 674.253906 940.589844 672.429688 950.101562 667.394531 C 937.605469 664.007812 937.089844 662.382812 936.746094 661.308594 C 936.742188 661.300781 936.742188 661.296875 936.742188 661.289062 L 926.789062 628.902344 L 908.078125 638.863281 L 914.027344 659.210938 C 915.152344 663.222656 913.441406 667.488281 909.871094 669.601562 Z M 926.761719 676.957031 C 923.929688 676.957031 921.089844 676.730469 918.277344 676.277344 L 906.613281 674.382812 C 905.128906 674.144531 903.984375 673.035156 903.703125 671.546875 C 903.429688 670.066406 904.085938 668.617188 905.375 667.851562 L 907.941406 666.339844 C 910.039062 665.101562 911.042969 662.597656 910.378906 660.25 L 904.011719 638.441406 C 903.765625 637.585938 904.148438 636.664062 904.945312 636.242188 L 927.035156 624.480469 C 927.542969 624.214844 928.125 624.183594 928.65625 624.402344 C 929.175781 624.617188 929.574219 625.054688 929.738281 625.597656 L 940.277344 659.898438 C 940.996094 660.464844 943.984375 661.824219 951.335938 663.804688 C 952.804688 664.203125 953.867188 665.4375 954.039062 666.945312 C 954.210938 668.460938 953.453125 669.898438 952.113281 670.621094 C 944.332031 674.792969 935.5625 676.957031 926.761719 676.957031 " fill-opacity="1" fill-rule="nonzero"/><path fill="#000000" d="M 878.035156 602.765625 C 883.71875 599.738281 879.117188 609.140625 897.847656 592.859375 C 905.304688 586.375 905.527344 598.429688 907.460938 596.757812 C 914.632812 590.566406 916.621094 588.953125 921.125 588.15625 C 924.113281 587.625 932.15625 590.289062 932.910156 594.300781 C 935.378906 607.371094 928.75 606.664062 929.878906 618.546875 C 930.660156 626.886719 929.640625 630.007812 927.234375 632.386719 C 924.800781 634.796875 920.867188 631.875 918.015625 634.300781 C 914.328125 637.445312 918.5 644.386719 915.761719 649.328125 C 914.039062 652.445312 908.398438 656.125 896.558594 655.878906 C 894.636719 655.839844 893.019531 654.433594 892.714844 652.527344 C 892.324219 650.085938 891.84375 646.996094 891.636719 644.011719 C 890.632812 629.773438 893.707031 625.027344 890.707031 622.601562 C 886.113281 618.890625 878.25 625.867188 874.933594 622.601562 C 871.496094 619.214844 870.253906 606.917969 878.035156 602.765625 " fill-opacity="1" fill-rule="nonzero"/><path fill="#ffffff" d="M 907.953125 614.277344 L 907.699219 618.171875 C 907.585938 620.003906 907.59375 621.84375 907.726562 623.675781 C 907.976562 627.113281 908.175781 633.023438 908.335938 636.347656 C 908.824219 647.035156 893.222656 642.242188 893.222656 642.242188 L 891.320312 640.117188 L 889.558594 640.199219 C 889.214844 640.214844 888.863281 640.15625 888.558594 640 C 887.804688 639.605469 887.433594 638.785156 887.5625 637.996094 C 888.292969 633.675781 889.570312 624.144531 888.222656 616.734375 C 888.222656 616.734375 896.617188 609.886719 907.953125 614.277344 " fill-opacity="1" fill-rule="nonzero"/><path fill="#000000" d="M 894.269531 640.570312 C 896.8125 641.257812 902.5 642.242188 905.074219 640.238281 C 906.078125 639.460938 906.519531 638.214844 906.441406 636.433594 C 906.402344 635.519531 906.355469 634.414062 906.300781 633.214844 C 906.175781 630.125 906.019531 626.28125 905.832031 623.816406 C 905.695312 621.898438 905.691406 619.964844 905.804688 618.054688 L 905.964844 615.597656 C 898.386719 613.21875 892.421875 616.242188 890.28125 617.609375 C 891.332031 624.917969 890.222656 633.625 889.425781 638.3125 L 891.238281 638.222656 C 891.796875 638.199219 892.351562 638.429688 892.734375 638.855469 Z M 900.28125 645.21875 C 896.628906 645.21875 893.261719 644.234375 892.667969 644.058594 C 892.339844 643.953125 892.042969 643.761719 891.808594 643.511719 L 890.503906 642.050781 L 889.644531 642.09375 C 888.9375 642.121094 888.265625 641.980469 887.6875 641.683594 C 886.214844 640.917969 885.417969 639.3125 885.695312 637.6875 C 886.328125 633.894531 887.679688 624.304688 886.355469 617.074219 C 886.234375 616.394531 886.488281 615.703125 887.027344 615.269531 C 887.402344 614.957031 896.417969 607.78125 908.640625 612.511719 C 909.414062 612.808594 909.894531 613.582031 909.839844 614.402344 L 909.589844 618.292969 C 909.476562 620.035156 909.484375 621.800781 909.609375 623.539062 C 909.800781 626.058594 909.960938 629.941406 910.089844 633.058594 C 910.136719 634.253906 910.183594 635.351562 910.230469 636.261719 C 910.398438 640.078125 908.78125 642.15625 907.394531 643.234375 C 905.4375 644.753906 902.796875 645.21875 900.28125 645.21875 " fill-opacity="1" fill-rule="nonzero"/><path fill="#ffffff" d="M 910.542969 626.265625 C 910.542969 626.265625 911.132812 616.910156 915.3125 618.074219 C 919.484375 619.242188 918.578125 629.535156 910.542969 626.265625 " fill-opacity="1" fill-rule="nonzero"/><path fill="#000000" d="M 891.929688 626.617188 C 891.84375 626.710938 891.738281 627.304688 892.292969 628.75 C 893.410156 631.617188 894.382812 632.152344 894.648438 632.253906 C 894.738281 632.285156 894.925781 632.347656 895.292969 632.191406 C 895.515625 631.4375 895.390625 628.820312 892.699219 626.191406 C 892.699219 626.21875 892.324219 626.175781 891.929688 626.617188 Z M 894.875 636.078125 C 894.375 636.078125 893.871094 635.996094 893.382812 635.820312 C 891.496094 635.160156 889.992188 633.292969 888.757812 630.117188 C 888.386719 629.140625 887.230469 626.171875 889.117188 624.085938 C 890.03125 623.070312 891.234375 622.484375 892.515625 622.445312 C 893.589844 622.414062 894.636719 622.785156 895.339844 623.476562 C 898.546875 626.609375 899.386719 630.128906 899.101562 632.382812 C 898.921875 633.785156 898.328125 634.835938 897.414062 635.363281 C 896.578125 635.839844 895.722656 636.078125 894.875 636.078125 " fill-opacity="1" fill-rule="nonzero"/><path fill="#000000" d="M 892.035156 626.257812 C 891.234375 626.257812 890.480469 625.742188 890.230469 624.929688 C 889.914062 623.9375 890.46875 622.863281 891.464844 622.554688 L 910.78125 616.445312 C 911.78125 616.136719 912.84375 616.6875 913.164062 617.683594 C 913.480469 618.679688 912.925781 619.746094 911.925781 620.0625 L 892.609375 626.171875 C 892.417969 626.222656 892.226562 626.257812 892.035156 626.257812 " fill-opacity="1" fill-rule="nonzero"/><path fill="#000000" d="M 887.292969 633.777344 L 887.300781 633.777344 Z M 887.289062 637.566406 C 886.949219 637.574219 885.949219 637.578125 884.363281 635.824219 C 883.632812 635.011719 881.273438 632.074219 881.628906 628.421875 C 881.746094 627.195312 882.3125 626.195312 883.265625 625.523438 C 885.261719 624.105469 888.226562 624.726562 888.800781 624.859375 C 889.816406 625.113281 890.445312 626.136719 890.199219 627.15625 C 889.945312 628.171875 888.929688 628.792969 887.914062 628.546875 C 886.875 628.304688 885.632812 628.378906 885.433594 628.628906 C 885.425781 628.636719 885.410156 628.683594 885.398438 628.789062 C 885.171875 631.078125 887.097656 633.367188 887.753906 633.839844 C 888.582031 634.046875 889.183594 634.796875 889.183594 635.683594 C 889.175781 636.726562 888.328125 637.566406 887.289062 637.566406 " fill-opacity="1" fill-rule="nonzero"/><path fill="#ffffff" d="M 884.234375 1094.578125 L 934 888.007812 L 983.761719 1094.578125 L 995.691406 1094.578125 L 941.011719 865.941406 L 926.992188 865.921875 L 872.316406 1094.578125 L 884.234375 1094.578125 " fill-opacity="1" fill-rule="nonzero"/><path fill="#000000" d="M 985.257812 1092.683594 L 993.289062 1092.683594 L 939.519531 867.835938 L 928.484375 867.816406 L 874.710938 1092.683594 L 882.753906 1092.683594 L 934 879.921875 Z M 998.09375 1096.472656 L 982.277344 1096.472656 L 934 896.097656 L 885.730469 1096.472656 L 869.914062 1096.472656 L 925.496094 864.019531 L 942.511719 864.050781 L 998.09375 1096.472656 " fill-opacity="1" fill-rule="nonzero"/><path fill="#ffffff" d="M 601.574219 1093.871094 L 651.335938 887.296875 L 701.097656 1093.871094 L 713.027344 1093.871094 L 658.351562 865.230469 L 644.328125 865.214844 L 589.648438 1093.871094 L 601.574219 1093.871094 " fill-opacity="1" fill-rule="nonzero"/><path fill="#000000" d="M 702.589844 1091.976562 L 710.625 1091.976562 L 656.859375 867.125 L 645.820312 867.109375 L 592.046875 1091.976562 L 600.082031 1091.976562 L 651.335938 879.210938 Z M 715.429688 1095.757812 L 699.609375 1095.757812 L 651.335938 895.386719 L 603.070312 1095.757812 L 587.246094 1095.757812 L 642.832031 863.3125 L 659.847656 863.339844 L 715.429688 1095.757812 " fill-opacity="1" fill-rule="nonzero"/><path fill="#ffffff" d="M 987.449219 869.90625 L 594.949219 869.90625 L 594.949219 851.234375 L 987.449219 851.234375 L 987.449219 869.90625 " fill-opacity="1" fill-rule="nonzero"/><path fill="#000000" d="M 596.835938 868.015625 L 985.546875 868.015625 L 985.546875 853.128906 L 596.835938 853.128906 Z M 989.335938 871.804688 L 593.046875 871.804688 L 593.046875 849.339844 L 989.335938 849.339844 L 989.335938 871.804688 " fill-opacity="1" fill-rule="nonzero"/><path fill="#5479f7" d="M 868.597656 867.417969 C 867.550781 867.417969 866.707031 866.566406 866.707031 865.527344 L 866.707031 855.125 C 866.707031 854.074219 867.550781 853.230469 868.597656 853.230469 C 869.648438 853.230469 870.496094 854.074219 870.496094 855.125 L 870.496094 865.527344 C 870.496094 866.566406 869.648438 867.417969 868.597656 867.417969 " fill-opacity="1" fill-rule="nonzero"/><path fill="#ffffff" d="M 1067.460938 345.484375 C 1075.648438 345.484375 1081.394531 352.132812 1080.289062 360.332031 L 1066.453125 462.476562 C 1065.347656 470.675781 1057.800781 477.320312 1049.601562 477.320312 L 682.613281 477.320312 C 674.425781 477.320312 668.671875 470.675781 669.789062 462.476562 L 683.625 360.332031 C 684.730469 352.132812 692.277344 345.484375 700.476562 345.484375 L 1067.460938 345.484375 " fill-opacity="1" fill-rule="nonzero"/><path fill="#000000" d="M 728.171875 479.21875 L 682.613281 479.21875 C 678.125 479.21875 674.109375 477.464844 671.328125 474.273438 C 668.507812 471.050781 667.292969 466.765625 667.910156 462.230469 L 681.75 360.082031 C 682.972656 350.992188 691.375 343.597656 700.46875 343.597656 L 756.003906 343.597656 C 757.050781 343.597656 757.902344 344.445312 757.902344 345.488281 C 757.902344 346.535156 757.050781 347.390625 756.003906 347.390625 L 700.46875 347.390625 C 693.199219 347.390625 686.484375 353.3125 685.5 360.585938 L 671.664062 462.734375 C 671.195312 466.179688 672.089844 469.390625 674.179688 471.78125 C 676.234375 474.132812 679.230469 475.433594 682.613281 475.433594 L 728.171875 475.433594 C 729.214844 475.433594 730.0625 476.28125 730.0625 477.324219 C 730.0625 478.371094 729.214844 479.21875 728.171875 479.21875 " fill-opacity="1" fill-rule="nonzero"/><path fill="#000000" d="M 1049.601562 479.21875 L 751.253906 479.21875 C 750.207031 479.21875 749.367188 478.371094 749.367188 477.324219 C 749.367188 476.285156 750.207031 475.425781 751.253906 475.425781 L 1049.601562 475.425781 C 1056.871094 475.425781 1063.585938 469.507812 1064.574219 462.222656 L 1078.40625 360.082031 C 1078.875 356.640625 1077.980469 353.425781 1075.894531 351.042969 C 1073.835938 348.683594 1070.839844 347.382812 1067.457031 347.382812 L 1021.308594 347.382812 C 1020.257812 347.382812 1019.40625 346.535156 1019.40625 345.496094 C 1019.40625 344.445312 1020.257812 343.597656 1021.308594 343.597656 L 1067.457031 343.597656 C 1071.945312 343.597656 1075.953125 345.355469 1078.746094 348.546875 C 1081.566406 351.769531 1082.773438 356.050781 1082.164062 360.585938 L 1068.328125 462.738281 C 1067.097656 471.824219 1058.691406 479.21875 1049.601562 479.21875 " fill-opacity="1" fill-rule="nonzero"/><path fill="#99b9ff" d="M 1025.050781 389.75 L 758.328125 389.75 C 754.492188 389.75 751.804688 386.644531 752.320312 382.808594 C 752.847656 378.964844 756.375 375.859375 760.214844 375.859375 L 1026.933594 375.859375 C 1030.773438 375.859375 1033.453125 378.964844 1032.933594 382.808594 C 1032.417969 386.644531 1028.886719 389.75 1025.050781 389.75 " fill-opacity="1" fill-rule="nonzero"/><path fill="#caddff" d="M 738.773438 382.804688 C 738.257812 386.640625 734.726562 389.753906 730.890625 389.753906 C 727.054688 389.753906 724.367188 386.640625 724.882812 382.804688 C 725.402344 378.96875 728.933594 375.859375 732.769531 375.859375 C 736.605469 375.859375 739.292969 378.96875 738.773438 382.804688 " fill-opacity="1" fill-rule="nonzero"/><path fill="#caddff" d="M 1021.003906 419.671875 L 754.28125 419.671875 C 750.445312 419.671875 747.753906 416.558594 748.28125 412.722656 C 748.800781 408.886719 752.328125 405.773438 756.164062 405.773438 L 1022.886719 405.773438 C 1026.722656 405.773438 1029.410156 408.886719 1028.890625 412.722656 C 1028.371094 416.558594 1024.839844 419.671875 1021.003906 419.671875 " fill-opacity="1" fill-rule="nonzero"/><path fill="#caddff" d="M 734.722656 412.730469 C 734.203125 416.566406 730.671875 419.671875 726.835938 419.671875 C 723 419.671875 720.3125 416.566406 720.832031 412.730469 C 721.355469 408.886719 724.882812 405.785156 728.71875 405.785156 C 732.554688 405.785156 735.238281 408.886719 734.722656 412.730469 " fill-opacity="1" fill-rule="nonzero"/><path fill="#caddff" d="M 1016.941406 449.601562 L 750.222656 449.601562 C 746.382812 449.601562 743.699219 446.492188 744.222656 442.652344 C 744.742188 438.816406 748.273438 435.714844 752.105469 435.714844 L 1018.832031 435.714844 C 1022.664062 435.714844 1025.355469 438.816406 1024.835938 442.652344 C 1024.3125 446.492188 1020.78125 449.601562 1016.941406 449.601562 " fill-opacity="1" fill-rule="nonzero"/><path fill="#caddff" d="M 730.664062 442.648438 C 730.148438 446.492188 726.617188 449.597656 722.78125 449.597656 C 718.949219 449.597656 716.257812 446.492188 716.777344 442.648438 C 717.300781 438.8125 720.832031 435.707031 724.664062 435.707031 C 728.5 435.707031 731.191406 438.8125 730.664062 442.648438 " fill-opacity="1" fill-rule="nonzero"/><path fill="#000000" d="M 1016.082031 522.976562 C 1015.039062 522.976562 1014.191406 522.125 1014.191406 521.074219 L 1014.191406 511.277344 C 1014.191406 510.230469 1015.039062 509.382812 1016.082031 509.382812 C 1017.128906 509.382812 1017.976562 510.230469 1017.976562 511.277344 L 1017.976562 521.074219 C 1017.976562 522.125 1017.128906 522.976562 1016.082031 522.976562 " fill-opacity="1" fill-rule="nonzero"/><path fill="#000000" d="M 1016.082031 545.804688 C 1015.039062 545.804688 1014.191406 544.953125 1014.191406 543.910156 L 1014.191406 534.105469 C 1014.191406 533.058594 1015.039062 532.210938 1016.082031 532.210938 C 1017.128906 532.210938 1017.976562 533.058594 1017.976562 534.105469 L 1017.976562 543.910156 C 1017.976562 544.953125 1017.128906 545.804688 1016.082031 545.804688 " fill-opacity="1" fill-rule="nonzero"/><path fill="#000000" d="M 1009.566406 529.488281 L 999.773438 529.488281 C 998.730469 529.488281 997.886719 528.644531 997.886719 527.59375 C 997.886719 526.546875 998.730469 525.695312 999.773438 525.695312 L 1009.566406 525.695312 C 1010.617188 525.695312 1011.460938 526.546875 1011.460938 527.59375 C 1011.460938 528.644531 1010.617188 529.488281 1009.566406 529.488281 " fill-opacity="1" fill-rule="nonzero"/><path fill="#000000" d="M 1032.386719 529.488281 L 1022.585938 529.488281 C 1021.550781 529.488281 1020.699219 528.644531 1020.699219 527.59375 C 1020.699219 526.546875 1021.550781 525.695312 1022.585938 525.695312 L 1032.386719 525.695312 C 1033.4375 525.695312 1034.28125 526.546875 1034.28125 527.59375 C 1034.28125 528.644531 1033.4375 529.488281 1032.386719 529.488281 " fill-opacity="1" fill-rule="nonzero"/><path fill="#000000" d="M 967.902344 563.917969 C 966.859375 563.917969 966.003906 563.070312 966.003906 562.019531 L 966.003906 552.226562 C 966.003906 551.175781 966.859375 550.328125 967.902344 550.328125 C 968.941406 550.328125 969.792969 551.175781 969.792969 552.226562 L 969.792969 562.019531 C 969.792969 563.070312 968.941406 563.917969 967.902344 563.917969 " fill-opacity="1" fill-rule="nonzero"/><path fill="#000000" d="M 967.902344 586.742188 C 966.859375 586.742188 966.003906 585.902344 966.003906 584.851562 L 966.003906 575.046875 C 966.003906 574.007812 966.859375 573.160156 967.902344 573.160156 C 968.941406 573.160156 969.792969 574.007812 969.792969 575.046875 L 969.792969 584.851562 C 969.792969 585.902344 968.941406 586.742188 967.902344 586.742188 " fill-opacity="1" fill-rule="nonzero"/><path fill="#000000" d="M 961.382812 570.429688 L 951.585938 570.429688 C 950.542969 570.429688 949.691406 569.585938 949.691406 568.535156 C 949.691406 567.492188 950.542969 566.640625 951.585938 566.640625 L 961.382812 566.640625 C 962.433594 566.640625 963.277344 567.492188 963.277344 568.535156 C 963.277344 569.585938 962.433594 570.429688 961.382812 570.429688 " fill-opacity="1" fill-rule="nonzero"/><path fill="#000000" d="M 984.199219 570.4375 L 974.410156 570.4375 C 973.355469 570.4375 972.511719 569.589844 972.511719 568.539062 C 972.511719 567.488281 973.355469 566.640625 974.410156 566.640625 L 984.199219 566.640625 C 985.25 566.640625 986.097656 567.488281 986.097656 568.539062 C 986.097656 569.589844 985.25 570.4375 984.199219 570.4375 " fill-opacity="1" fill-rule="nonzero"/><path fill="#ffffff" d="M 888.207031 529.8125 C 886.632812 529.8125 885.066406 530.144531 883.585938 530.808594 C 877.769531 533.421875 875.121094 540.394531 877.691406 546.339844 C 878.945312 549.246094 881.226562 551.464844 884.128906 552.59375 C 886.953125 553.691406 890.050781 553.609375 892.824219 552.371094 C 898.636719 549.75 901.289062 542.78125 898.722656 536.832031 C 897.46875 533.929688 895.1875 531.714844 892.285156 530.585938 C 890.960938 530.066406 889.578125 529.8125 888.207031 529.8125 Z M 888.210938 557.15625 C 886.371094 557.15625 884.527344 556.8125 882.75 556.125 C 878.902344 554.628906 875.867188 551.6875 874.207031 547.84375 C 870.828125 540 874.339844 530.808594 882.03125 527.347656 C 885.746094 525.683594 889.867188 525.585938 893.660156 527.046875 C 897.511719 528.550781 900.546875 531.488281 902.199219 535.335938 C 905.585938 543.175781 902.074219 552.371094 894.382812 555.824219 C 892.40625 556.707031 890.308594 557.15625 888.210938 557.15625 " fill-opacity="1" fill-rule="nonzero"/><path fill="#000000" d="M 974.996094 218.164062 C 974.355469 218.164062 973.738281 217.84375 973.382812 217.261719 C 943.964844 169.542969 900.132812 133.164062 843.117188 109.140625 C 842.15625 108.734375 841.707031 107.628906 842.113281 106.660156 C 842.519531 105.695312 843.632812 105.242188 844.589844 105.648438 C 902.347656 129.984375 946.765625 166.867188 976.609375 215.273438 C 977.152344 216.164062 976.878906 217.328125 975.992188 217.878906 C 975.679688 218.070312 975.328125 218.164062 974.996094 218.164062 " fill-opacity="1" fill-rule="nonzero"/><path fill="#000000" d="M 1009.585938 290.085938 C 1008.726562 290.085938 1007.945312 289.5 1007.738281 288.632812 C 1007.679688 288.398438 1001.882812 264.765625 983.109375 234.949219 C 982.546875 234.0625 982.816406 232.894531 983.703125 232.335938 C 984.582031 231.773438 985.757812 232.042969 986.316406 232.929688 C 1005.445312 263.316406 1011.191406 286.765625 1011.421875 287.75 C 1011.667969 288.773438 1011.039062 289.789062 1010.023438 290.035156 C 1009.878906 290.070312 1009.726562 290.085938 1009.585938 290.085938 " fill-opacity="1" fill-rule="nonzero"/><path fill="#000000" d="M 995.992188 214.835938 C 995.285156 214.835938 994.601562 214.433594 994.28125 213.75 C 994.160156 213.503906 982.542969 189.175781 957.066406 160.828125 C 933.578125 134.699219 893.171875 99.714844 834.039062 81.40625 C 833.042969 81.101562 832.484375 80.039062 832.789062 79.042969 C 833.101562 78.035156 834.167969 77.476562 835.164062 77.785156 C 895.183594 96.367188 936.167969 131.878906 959.980469 158.402344 C 985.789062 187.148438 997.589844 211.886719 997.707031 212.136719 C 998.148438 213.078125 997.746094 214.210938 996.796875 214.65625 C 996.535156 214.773438 996.261719 214.835938 995.992188 214.835938 " fill-opacity="1" fill-rule="nonzero"/><path fill="#000000" d="M 82.003906 768.277344 C 81.210938 768.277344 80.472656 767.777344 80.207031 766.980469 C 62.125 713.070312 62.226562 655.324219 80.496094 595.367188 C 80.800781 594.363281 81.855469 593.800781 82.859375 594.105469 C 83.859375 594.410156 84.421875 595.46875 84.121094 596.464844 C 66.082031 655.660156 65.976562 712.625 83.796875 765.777344 C 84.132812 766.769531 83.59375 767.847656 82.605469 768.179688 C 82.402344 768.242188 82.199219 768.277344 82.003906 768.277344 " fill-opacity="1" fill-rule="nonzero"/><path fill="#000000" d="M 66 782.289062 C 65.285156 782.289062 64.605469 781.882812 64.28125 781.191406 C 64.167969 780.945312 52.714844 756.035156 47.15625 717.804688 C 42.027344 682.53125 40.980469 628.304688 65.121094 570.285156 C 65.523438 569.316406 66.632812 568.863281 67.597656 569.265625 C 68.5625 569.664062 69.019531 570.773438 68.621094 571.742188 C 44.808594 628.960938 45.84375 682.457031 50.90625 717.257812 C 56.382812 754.949219 67.605469 779.347656 67.71875 779.589844 C 68.160156 780.542969 67.75 781.671875 66.800781 782.105469 C 66.542969 782.230469 66.269531 782.289062 66 782.289062 " fill-opacity="1" fill-rule="nonzero"/><g fill="#ffffff" fill-opacity="1"><g transform="translate(1133.03614, 1046.357303)"><g><path d="M 0.234375 -0.046875 L 0.265625 -0.015625 C 0.253906 -0.015625 0.238281 -0.0078125 0.21875 0 C 0.207031 0.0078125 0.191406 0.015625 0.171875 0.015625 C 0.109375 0.015625 0.078125 -0.0195312 0.078125 -0.09375 L 0.078125 -0.3125 L 0.015625 -0.3125 L 0.015625 -0.359375 L 0.078125 -0.359375 L 0.078125 -0.4375 L 0.140625 -0.453125 L 0.140625 -0.359375 L 0.25 -0.359375 L 0.25 -0.3125 L 0.140625 -0.3125 L 0.140625 -0.109375 C 0.140625 -0.0664062 0.15625 -0.046875 0.1875 -0.046875 C 0.207031 -0.046875 0.222656 -0.046875 0.234375 -0.046875 Z M 0.234375 -0.046875 "/></g></g></g></svg>