<svg xmlns="http://www.w3.org/2000/svg" xmlns:xlink="http://www.w3.org/1999/xlink" width="1536" zoomAndPan="magnify" viewBox="0 0 1152 1123.499971" height="1498" preserveAspectRatio="xMidYMid meet" version="1.0"><defs><g/></defs><path fill="#ffeeb3" d="M 285.238281 309.304688 C 394.515625 198.925781 363.230469 129.742188 438 78.640625 C 553.054688 0.0078125 767.789062 67.660156 894.464844 175.824219 C 1049.621094 308.296875 1129.675781 550.175781 1038.488281 769.003906 C 941.367188 1002.046875 685.84375 1123.019531 457.835938 1086.5625 C 254.226562 1054.007812 54.074219 892.949219 34.019531 699.792969 C 31.84375 678.855469 22.25 565.679688 89.550781 468.101562 C 145.179688 387.453125 198.617188 396.800781 285.238281 309.304688 " fill-opacity="1" fill-rule="nonzero"/><path fill="#ffdd6e" d="M 160.109375 986.878906 C 128.871094 995.441406 96.617188 977.035156 88.0625 945.78125 C 79.511719 914.515625 97.898438 882.234375 129.136719 873.683594 C 160.371094 865.121094 192.628906 883.519531 201.179688 914.78125 C 209.734375 946.039062 191.347656 978.320312 160.109375 986.878906 Z M 261.289062 910.128906 L 255.273438 888.140625 L 230.417969 889.277344 C 228.117188 884.433594 225.449219 879.839844 222.433594 875.546875 L 235.589844 854.453125 L 219.394531 838.421875 L 198.429688 851.839844 C 194.0625 848.84375 189.457031 846.21875 184.660156 843.988281 L 185.519531 819.097656 L 163.480469 813.316406 L 152.046875 835.390625 C 146.820312 834.984375 141.511719 835.023438 136.175781 835.507812 L 124.488281 813.53125 L 102.515625 819.550781 L 103.644531 844.421875 C 98.808594 846.726562 94.21875 849.398438 89.929688 852.414062 L 68.851562 839.246094 L 52.832031 855.449219 L 66.238281 876.433594 C 63.246094 880.800781 60.621094 885.410156 58.386719 890.214844 L 33.519531 889.355469 L 27.742188 911.40625 L 49.804688 922.847656 C 49.394531 928.082031 49.4375 933.390625 49.917969 938.730469 L 27.957031 950.429688 L 33.972656 972.417969 L 58.828125 971.285156 C 61.128906 976.125 63.796875 980.71875 66.8125 985.007812 L 53.652344 1006.101562 L 69.851562 1022.132812 L 90.816406 1008.71875 C 95.179688 1011.714844 99.785156 1014.339844 104.585938 1016.574219 L 103.726562 1041.460938 L 125.761719 1047.242188 L 137.199219 1025.164062 C 142.425781 1025.574219 147.730469 1025.535156 153.066406 1025.050781 L 164.757812 1047.03125 L 186.726562 1041.011719 L 185.597656 1016.136719 C 190.4375 1013.832031 195.023438 1011.160156 199.3125 1008.140625 L 220.394531 1021.308594 L 236.414062 1005.105469 L 223.003906 984.128906 C 226 979.753906 228.625 975.144531 230.855469 970.347656 L 255.726562 971.207031 L 261.5 949.15625 L 239.4375 937.710938 C 239.851562 932.480469 239.808594 927.167969 239.328125 921.828125 L 261.289062 910.128906 " fill-opacity="1" fill-rule="nonzero"/><path fill="#ffdd6e" d="M 712.84375 322.285156 C 672.058594 333.457031 629.9375 309.429688 618.765625 268.609375 C 607.605469 227.792969 631.609375 185.644531 672.402344 174.472656 C 713.1875 163.296875 755.308594 187.324219 766.476562 228.136719 C 777.644531 268.953125 753.628906 311.101562 712.84375 322.285156 Z M 844.960938 222.0625 L 837.105469 193.355469 L 804.652344 194.828125 C 801.640625 188.511719 798.160156 182.515625 794.222656 176.910156 L 811.410156 149.367188 L 790.253906 128.429688 L 762.882812 145.949219 C 757.183594 142.039062 751.167969 138.609375 744.902344 135.691406 L 746.023438 103.195312 L 717.25 95.648438 L 702.3125 124.476562 C 695.492188 123.941406 688.5625 123.992188 681.59375 124.628906 L 666.328125 95.925781 L 637.640625 103.789062 L 639.113281 136.265625 C 632.796875 139.277344 626.8125 142.765625 621.210938 146.699219 L 593.683594 129.507812 L 572.761719 150.671875 L 590.269531 178.0625 C 586.363281 183.769531 582.933594 189.785156 580.023438 196.058594 L 547.542969 194.9375 L 540.003906 223.726562 L 568.8125 238.675781 C 568.277344 245.503906 568.328125 252.4375 568.960938 259.414062 L 540.28125 274.683594 L 548.136719 303.394531 L 580.59375 301.921875 C 583.597656 308.246094 587.085938 314.238281 591.015625 319.84375 L 573.832031 347.390625 L 594.988281 368.316406 L 622.363281 350.796875 C 628.054688 354.707031 634.074219 358.136719 640.335938 361.054688 L 639.222656 393.554688 L 668 401.101562 L 682.925781 372.273438 C 689.753906 372.808594 696.679688 372.757812 703.648438 372.128906 L 718.910156 400.820312 L 747.609375 392.960938 L 746.132812 360.484375 C 752.441406 357.472656 758.4375 353.992188 764.042969 350.046875 L 791.566406 367.246094 L 812.476562 346.082031 L 794.972656 318.6875 C 798.878906 312.984375 802.308594 306.960938 805.222656 300.699219 L 837.699219 301.8125 L 845.242188 273.019531 L 816.425781 258.078125 C 816.960938 251.242188 816.910156 244.3125 816.28125 237.34375 L 844.960938 222.0625 " fill-opacity="1" fill-rule="nonzero"/><path fill="#ffc824" d="M 199.09375 1001.6875 L 650.617188 1001.6875 C 670.074219 1001.6875 683.859375 985.964844 681.40625 966.570312 L 570.222656 88.257812 C 567.769531 68.859375 550.003906 53.140625 530.546875 53.140625 L 101.691406 48.125 C 52.460938 48.125 45.785156 68.859375 48.238281 88.257812 L 159.417969 966.570312 C 161.871094 985.964844 179.636719 1001.6875 199.09375 1001.6875 " fill-opacity="1" fill-rule="nonzero"/><path fill="#ffffff" d="M 226.265625 1001.6875 L 677.78125 1001.6875 C 697.242188 1001.6875 711.027344 985.914062 708.570312 966.457031 L 597.390625 85.34375 C 594.941406 65.894531 577.175781 50.117188 557.714844 50.117188 L 106.195312 50.117188 C 86.738281 50.117188 72.953125 65.894531 75.410156 85.34375 L 186.585938 966.457031 C 189.042969 985.914062 206.808594 1001.6875 226.265625 1001.6875 " fill-opacity="1" fill-rule="nonzero"/><path fill="#000000" d="M 121.832031 472.042969 C 120.886719 472.042969 120.070312 471.34375 119.953125 470.382812 L 73.527344 85.574219 C 72.265625 75.570312 75.007812 66.164062 81.25 59.085938 C 87.425781 52.074219 96.285156 48.222656 106.195312 48.222656 L 158.597656 48.222656 C 159.644531 48.222656 160.492188 49.066406 160.492188 50.117188 C 160.492188 51.164062 159.644531 52.007812 158.597656 52.007812 L 106.195312 52.007812 C 97.386719 52.007812 89.539062 55.414062 84.09375 61.59375 C 78.582031 67.839844 76.164062 76.199219 77.289062 85.109375 L 123.714844 469.925781 C 123.839844 470.960938 123.101562 471.90625 122.0625 472.039062 C 121.984375 472.042969 121.90625 472.042969 121.832031 472.042969 " fill-opacity="1" fill-rule="nonzero"/><path fill="#000000" d="M 488.164062 52.664062 C 488.160156 52.664062 488.160156 52.664062 488.160156 52.664062 L 190.726562 52.007812 C 189.679688 52.007812 188.832031 51.164062 188.835938 50.113281 C 188.835938 49.066406 189.683594 48.222656 190.730469 48.222656 C 190.730469 48.222656 190.730469 48.222656 190.734375 48.222656 L 488.164062 48.875 C 489.214844 48.875 490.058594 49.730469 490.058594 50.773438 C 490.054688 51.816406 489.207031 52.664062 488.164062 52.664062 " fill-opacity="1" fill-rule="nonzero"/><path fill="#000000" d="M 677.789062 1003.582031 L 535.171875 1003.582031 C 534.121094 1003.582031 533.277344 1002.734375 533.277344 1001.683594 C 533.277344 1000.640625 534.121094 999.789062 535.171875 999.789062 L 677.789062 999.789062 C 686.597656 999.789062 694.441406 996.390625 699.890625 990.214844 C 705.402344 983.960938 707.816406 975.605469 706.695312 966.6875 L 697.355469 892.703125 C 697.222656 891.667969 697.960938 890.714844 699 890.582031 C 700.042969 890.453125 700.984375 891.1875 701.117188 892.222656 L 710.457031 966.21875 C 711.71875 976.230469 708.976562 985.644531 702.730469 992.722656 C 696.554688 999.726562 687.695312 1003.582031 677.789062 1003.582031 " fill-opacity="1" fill-rule="nonzero"/><path fill="#000000" d="M 504.519531 1003.582031 L 349.25 1003.582031 C 348.203125 1003.582031 347.355469 1002.734375 347.355469 1001.683594 C 347.355469 1000.640625 348.203125 999.789062 349.25 999.789062 L 504.519531 999.789062 C 505.566406 999.789062 506.414062 1000.640625 506.414062 1001.683594 C 506.414062 1002.734375 505.566406 1003.582031 504.519531 1003.582031 " fill-opacity="1" fill-rule="nonzero"/><path fill="#000000" d="M 272.035156 1003.582031 L 226.265625 1003.582031 C 205.917969 1003.582031 187.273438 987.03125 184.707031 966.6875 L 167.695312 831.859375 C 167.5625 830.824219 168.300781 829.878906 169.339844 829.75 C 170.382812 829.617188 171.324219 830.351562 171.457031 831.386719 L 188.46875 966.21875 C 190.804688 984.730469 207.761719 999.789062 226.265625 999.789062 L 272.035156 999.789062 C 273.082031 999.789062 273.929688 1000.640625 273.929688 1001.683594 C 273.929688 1002.734375 273.082031 1003.582031 272.035156 1003.582031 " fill-opacity="1" fill-rule="nonzero"/><path fill="#ffdd6e" d="M 682.847656 967.667969 L 576.691406 126.351562 C 576.117188 121.859375 572.019531 118.21875 567.527344 118.21875 L 113.578125 118.21875 C 109.082031 118.21875 105.902344 121.859375 106.46875 126.351562 L 212.625 967.667969 C 213.191406 972.160156 217.292969 975.800781 221.785156 975.800781 L 675.738281 975.800781 C 680.230469 975.800781 683.417969 972.160156 682.847656 967.667969 " fill-opacity="1" fill-rule="nonzero"/><path fill="#ffeeb3" d="M 337.613281 94.921875 C 344.898438 94.921875 350.0625 89.019531 349.144531 81.730469 C 348.222656 74.4375 341.570312 68.53125 334.28125 68.53125 C 326.992188 68.53125 321.828125 74.4375 322.746094 81.730469 C 323.667969 89.019531 330.320312 94.921875 337.613281 94.921875 " fill-opacity="1" fill-rule="nonzero"/><path fill="#000000" d="M 643.238281 666.191406 C 643.148438 666.191406 643.070312 666.191406 642.984375 666.191406 C 616.605469 666.117188 589.460938 650.234375 562.316406 618.988281 C 543.28125 597.089844 531.167969 575.429688 530.660156 574.519531 C 526.621094 567.253906 529.242188 558.089844 536.507812 554.050781 C 543.769531 550.019531 552.9375 552.632812 556.96875 559.898438 C 568.773438 581.0625 607.238281 635.988281 643.070312 636.089844 C 643.128906 636.089844 643.179688 636.089844 643.230469 636.089844 C 654.597656 636.089844 663.386719 632.582031 670.09375 625.371094 C 686.140625 608.101562 687.316406 573.589844 686.417969 561.746094 C 685.785156 553.457031 691.988281 546.226562 700.277344 545.601562 C 708.554688 544.96875 715.796875 551.171875 716.425781 559.460938 C 716.59375 561.738281 720.347656 615.511719 692.136719 645.863281 C 679.597656 659.355469 663.144531 666.191406 643.238281 666.191406 " fill-opacity="1" fill-rule="nonzero"/><path fill="#000000" d="M 748.90625 557.761719 L 659.777344 557.761719 C 651.46875 557.761719 644.730469 551.019531 644.730469 542.714844 C 644.730469 534.402344 651.46875 527.664062 659.777344 527.664062 L 748.90625 527.664062 C 757.21875 527.664062 763.960938 534.402344 763.960938 542.714844 C 763.960938 551.019531 757.21875 557.761719 748.90625 557.761719 " fill-opacity="1" fill-rule="nonzero"/><path fill="#ffffff" d="M 658.226562 350.703125 L 626.417969 350.703125 L 626.417969 261.710938 L 658.226562 261.710938 C 665.878906 261.710938 672.082031 267.914062 672.082031 275.558594 L 672.082031 336.855469 C 672.082031 344.503906 665.878906 350.703125 658.226562 350.703125 " fill-opacity="1" fill-rule="nonzero"/><path fill="#000000" d="M 628.308594 348.816406 L 635.148438 348.816406 C 654.464844 348.816406 670.183594 333.097656 670.183594 313.78125 L 670.183594 298.648438 C 670.183594 279.328125 654.464844 263.617188 635.148438 263.617188 L 628.308594 263.617188 Z M 635.148438 352.605469 L 626.414062 352.605469 C 625.363281 352.605469 624.519531 351.753906 624.519531 350.710938 L 624.519531 261.71875 C 624.519531 260.671875 625.363281 259.824219 626.414062 259.824219 L 635.148438 259.824219 C 656.550781 259.824219 673.96875 277.242188 673.96875 298.648438 L 673.96875 313.78125 C 673.96875 335.1875 656.550781 352.605469 635.148438 352.605469 " fill-opacity="1" fill-rule="nonzero"/><path fill="#ffffff" d="M 192.800781 350.703125 L 224.609375 350.703125 L 224.609375 261.710938 L 192.800781 261.710938 C 185.152344 261.710938 178.949219 267.914062 178.949219 275.558594 L 178.949219 336.855469 C 178.949219 344.503906 185.152344 350.703125 192.800781 350.703125 " fill-opacity="1" fill-rule="nonzero"/><path fill="#000000" d="M 215.878906 263.617188 C 196.558594 263.617188 180.84375 279.328125 180.84375 298.648438 L 180.84375 313.78125 C 180.84375 333.097656 196.558594 348.816406 215.878906 348.816406 L 222.714844 348.816406 L 222.714844 263.617188 Z M 224.609375 352.605469 L 215.878906 352.605469 C 194.46875 352.605469 177.050781 335.1875 177.050781 313.78125 L 177.050781 298.648438 C 177.050781 277.242188 194.46875 259.824219 215.878906 259.824219 L 224.609375 259.824219 C 225.652344 259.824219 226.503906 260.671875 226.503906 261.71875 L 226.503906 350.710938 C 226.503906 351.753906 225.652344 352.605469 224.609375 352.605469 " fill-opacity="1" fill-rule="nonzero"/><path fill="#ffffff" d="M 210.226562 302.535156 C 210.226562 206.910156 306.609375 107.996094 425.515625 107.996094 C 544.410156 107.996094 640.800781 206.910156 640.800781 302.535156 C 640.800781 398.164062 544.410156 454.289062 425.515625 454.289062 C 306.609375 454.289062 210.226562 398.164062 210.226562 302.535156 " fill-opacity="1" fill-rule="nonzero"/><path fill="#000000" d="M 425.515625 109.890625 C 303.378906 109.890625 212.121094 211.59375 212.121094 302.535156 C 212.121094 347.457031 233.632812 385.546875 274.332031 412.691406 C 312.714844 438.289062 366.40625 452.394531 425.515625 452.394531 C 484.621094 452.394531 538.308594 438.289062 576.691406 412.691406 C 617.394531 385.546875 638.910156 347.457031 638.910156 302.535156 C 638.910156 211.59375 547.648438 109.890625 425.515625 109.890625 Z M 425.515625 456.179688 C 365.664062 456.179688 311.226562 441.855469 272.230469 415.84375 C 230.425781 387.964844 208.332031 348.78125 208.332031 302.535156 C 208.332031 255.136719 231.53125 206.109375 271.984375 168.027344 C 314.398438 128.089844 368.921875 106.097656 425.515625 106.097656 C 482.105469 106.097656 536.628906 128.089844 579.042969 168.027344 C 619.492188 206.109375 642.691406 255.136719 642.691406 302.535156 C 642.691406 348.78125 620.597656 387.964844 578.796875 415.84375 C 539.796875 441.855469 485.359375 456.179688 425.515625 456.179688 " fill-opacity="1" fill-rule="nonzero"/><path fill="#ffffff" d="M 479.4375 483.015625 L 371.585938 483.015625 C 324.316406 483.015625 285.996094 521.332031 285.996094 568.601562 C 285.996094 599.835938 289.042969 630.988281 295.09375 661.628906 L 310.597656 740.160156 C 321.433594 795.046875 369.570312 834.605469 425.515625 834.605469 C 481.453125 834.605469 529.589844 795.046875 540.429688 740.160156 L 555.933594 661.628906 C 561.984375 630.988281 565.027344 599.835938 565.027344 568.601562 C 565.027344 521.332031 526.710938 483.015625 479.4375 483.015625 " fill-opacity="1" fill-rule="nonzero"/><path fill="#000000" d="M 371.585938 484.910156 C 325.4375 484.910156 287.890625 522.453125 287.890625 568.601562 C 287.890625 599.640625 290.9375 630.808594 296.949219 661.257812 L 312.457031 739.792969 C 323.085938 793.628906 370.636719 832.707031 425.515625 832.707031 C 480.390625 832.707031 527.941406 793.628906 538.570312 739.792969 L 554.078125 661.257812 C 560.085938 630.816406 563.136719 599.640625 563.136719 568.601562 C 563.136719 522.453125 525.589844 484.910156 479.4375 484.910156 Z M 425.515625 836.5 C 368.832031 836.5 319.71875 796.136719 308.738281 740.527344 L 293.234375 661.996094 C 287.175781 631.304688 284.101562 599.882812 284.101562 568.601562 C 284.101562 520.363281 323.347656 481.121094 371.585938 481.121094 L 479.4375 481.121094 C 527.675781 481.121094 566.921875 520.363281 566.921875 568.601562 C 566.921875 599.886719 563.855469 631.304688 557.792969 661.996094 L 542.285156 740.527344 C 531.308594 796.136719 482.199219 836.5 425.515625 836.5 " fill-opacity="1" fill-rule="nonzero"/><path fill="#ffc824" d="M 435.5 672.65625 L 415.53125 672.65625 C 388.621094 672.65625 366.808594 650.839844 366.808594 623.929688 L 366.808594 483.015625 L 484.21875 483.015625 L 484.21875 623.929688 C 484.21875 650.839844 462.40625 672.65625 435.5 672.65625 " fill-opacity="1" fill-rule="nonzero"/><path fill="#000000" d="M 484.21875 484.910156 L 366.808594 484.910156 C 365.757812 484.910156 364.914062 484.054688 364.914062 483.015625 C 364.914062 481.964844 365.757812 481.121094 366.808594 481.121094 L 484.21875 481.121094 C 485.269531 481.121094 486.113281 481.964844 486.113281 483.015625 C 486.113281 484.054688 485.269531 484.910156 484.21875 484.910156 " fill-opacity="1" fill-rule="nonzero"/><path fill="#000000" d="M 570.257812 273.832031 L 362.941406 273.832031 C 341.402344 273.832031 323.941406 292.648438 323.941406 315.851562 L 323.941406 343.273438 C 323.941406 360.972656 333.390625 379.726562 349.683594 382.785156 C 407.136719 393.585938 526.0625 393.585938 583.511719 382.785156 C 599.808594 379.726562 609.253906 360.972656 609.253906 343.273438 L 609.253906 315.851562 C 609.253906 292.648438 591.792969 273.832031 570.257812 273.832031 " fill-opacity="1" fill-rule="nonzero"/><path fill="#ffc824" d="M 417.882812 329.007812 C 417.882812 336.785156 412.03125 343.089844 404.816406 343.089844 C 397.601562 343.089844 391.75 336.785156 391.75 329.007812 C 391.75 321.238281 397.601562 314.929688 404.816406 314.929688 C 412.03125 314.929688 417.882812 321.238281 417.882812 329.007812 " fill-opacity="1" fill-rule="nonzero"/><path fill="#ffc824" d="M 556.886719 329.007812 C 556.886719 336.785156 551.027344 343.089844 543.820312 343.089844 C 536.597656 343.089844 530.753906 336.785156 530.753906 329.007812 C 530.753906 321.238281 536.597656 314.929688 543.820312 314.929688 C 551.027344 314.929688 556.886719 321.238281 556.886719 329.007812 " fill-opacity="1" fill-rule="nonzero"/><path fill="#000000" d="M 287.8125 734.601562 C 258.324219 734.601562 218.429688 730.402344 192.859375 710.800781 C 178.121094 699.496094 169.511719 684.578125 167.269531 666.457031 C 157.207031 585.09375 255.394531 538.519531 259.578125 536.578125 C 267.117188 533.078125 276.0625 536.355469 279.5625 543.898438 C 283.0625 551.425781 279.796875 560.367188 272.269531 563.875 C 271.445312 564.257812 189.773438 603.183594 197.140625 662.761719 C 198.375 672.71875 202.964844 680.617188 211.175781 686.910156 C 239.289062 708.464844 300.597656 705.4375 321.847656 702.453125 C 330.074219 701.292969 337.6875 707.03125 338.84375 715.261719 C 340 723.496094 334.265625 731.105469 326.035156 732.257812 C 324.523438 732.472656 308.804688 734.601562 287.8125 734.601562 " fill-opacity="1" fill-rule="nonzero"/><path fill="#000000" d="M 391.726562 750.609375 L 362.824219 750.609375 C 347.035156 750.609375 333.941406 738.761719 332.371094 723.046875 L 331.367188 712.988281 C 330.503906 704.398438 333.335938 695.804688 339.125 689.40625 C 344.917969 683.003906 353.1875 679.335938 361.820312 679.335938 L 407.917969 679.335938 C 416.226562 679.335938 422.96875 686.078125 422.96875 694.390625 C 422.96875 702.699219 416.226562 709.433594 407.917969 709.433594 L 361.820312 709.433594 C 361.734375 709.433594 361.59375 709.433594 361.441406 709.601562 C 361.289062 709.769531 361.304688 709.914062 361.316406 709.992188 L 362.320312 720.050781 C 362.347656 720.3125 362.5625 720.507812 362.824219 720.507812 L 391.726562 720.507812 C 400.039062 720.507812 406.777344 727.246094 406.777344 735.558594 C 406.777344 743.871094 400.039062 750.609375 391.726562 750.609375 " fill-opacity="1" fill-rule="nonzero"/><path fill="#ffc824" d="M 871.652344 692.53125 L 871.652344 741.949219 C 871.652344 790.277344 833.492188 829.453125 786.421875 829.453125 C 739.355469 829.453125 701.1875 868.628906 701.1875 916.960938 C 701.1875 921.261719 704.675781 924.753906 708.980469 924.753906 L 934.59375 924.753906 C 1005.164062 924.753906 1062.371094 866.027344 1062.371094 793.578125 L 1062.371094 688.136719 C 1062.371094 659.320312 1039.613281 635.964844 1011.546875 635.964844 L 926.753906 635.964844 C 896.328125 635.964844 871.652344 661.292969 871.652344 692.53125 " fill-opacity="1" fill-rule="nonzero"/><path fill="#ffc824" d="M 897.679688 1073.753906 L 877.234375 1073.753906 L 877.234375 835.703125 L 897.679688 835.703125 L 897.679688 1073.753906 " fill-opacity="1" fill-rule="nonzero"/><path fill="#ffc824" d="M 791.636719 1081.476562 L 882.113281 1073.535156 L 890.410156 1073.535156 L 982.785156 1081.476562 L 982.785156 1087.78125 L 791.636719 1087.78125 L 791.636719 1081.476562 " fill-opacity="1" fill-rule="nonzero"/><path fill="#ffffff" d="M 825.828125 1039.941406 C 823.734375 1037.820312 811.605469 1000.101562 811.605469 1000.101562 L 787.648438 1017.199219 L 813.917969 1052.492188 L 825.828125 1039.941406 " fill-opacity="1" fill-rule="nonzero"/><path fill="#000000" d="M 790.328125 1017.621094 L 814.089844 1049.554688 L 823.507812 1039.636719 C 820.609375 1033.660156 814.144531 1014.097656 810.597656 1003.148438 Z M 813.917969 1054.386719 C 813.875 1054.386719 813.839844 1054.386719 813.804688 1054.386719 C 813.242188 1054.355469 812.730469 1054.078125 812.398438 1053.628906 L 786.128906 1018.328125 C 785.828125 1017.917969 785.707031 1017.40625 785.777344 1016.90625 C 785.855469 1016.398438 786.136719 1015.949219 786.550781 1015.65625 L 810.503906 998.5625 C 811.003906 998.210938 811.628906 998.117188 812.207031 998.304688 C 812.773438 998.492188 813.226562 998.949219 813.40625 999.527344 C 819.058594 1017.089844 825.824219 1036.785156 827.242188 1038.679688 C 827.960938 1039.402344 827.90625 1040.507812 827.207031 1041.242188 L 815.285156 1053.800781 C 814.929688 1054.175781 814.433594 1054.386719 813.917969 1054.386719 " fill-opacity="1" fill-rule="nonzero"/><path fill="#000000" d="M 782.664062 1087.625 L 798.589844 1087.53125 C 809.128906 1087.46875 818.9375 1082.113281 824.683594 1073.277344 L 840.4375 1048.339844 C 844.785156 1041.445312 842.355469 1032.3125 835.152344 1028.488281 C 828.582031 1024.992188 821.695312 1021.585938 820.074219 1021.746094 C 816.792969 1022.054688 815.476562 1037.5625 815.476562 1037.5625 L 801.28125 1038.101562 C 801.28125 1038.101562 794.265625 1067.261719 788.09375 1070.578125 C 783.605469 1072.996094 780.46875 1076.535156 778.355469 1079.773438 C 776.148438 1083.167969 778.609375 1087.648438 782.664062 1087.625 " fill-opacity="1" fill-rule="nonzero"/><path fill="#ffffff" d="M 784.257812 1083.300781 C 783.332031 1083.300781 782.527344 1082.625 782.386719 1081.6875 C 782.234375 1080.65625 782.945312 1079.6875 783.980469 1079.53125 L 805.773438 1076.25 C 810.113281 1075.597656 813.898438 1073.058594 816.15625 1069.289062 L 835.410156 1037.117188 C 835.953125 1036.21875 837.113281 1035.933594 838.011719 1036.46875 C 838.902344 1037.003906 839.199219 1038.167969 838.664062 1039.0625 L 819.402344 1071.238281 C 816.570312 1075.976562 811.804688 1079.175781 806.335938 1080 L 784.546875 1083.277344 C 784.449219 1083.292969 784.355469 1083.300781 784.257812 1083.300781 " fill-opacity="1" fill-rule="nonzero"/><path fill="#ffffff" d="M 811.160156 1059.105469 C 811 1059.105469 810.832031 1059.089844 810.671875 1059.042969 L 798.527344 1055.734375 C 797.519531 1055.457031 796.921875 1054.414062 797.195312 1053.40625 C 797.472656 1052.398438 798.511719 1051.800781 799.519531 1052.078125 L 811.664062 1055.382812 C 812.671875 1055.660156 813.265625 1056.703125 812.992188 1057.710938 C 812.761719 1058.550781 812 1059.105469 811.160156 1059.105469 " fill-opacity="1" fill-rule="nonzero"/><path fill="#ffffff" d="M 804.84375 1065.34375 C 804.695312 1065.34375 804.539062 1065.324219 804.382812 1065.285156 L 796.25 1063.296875 C 795.234375 1063.042969 794.613281 1062.019531 794.863281 1061.003906 C 795.105469 1059.992188 796.125 1059.363281 797.148438 1059.617188 L 805.289062 1061.605469 C 806.308594 1061.855469 806.929688 1062.882812 806.675781 1063.898438 C 806.46875 1064.761719 805.695312 1065.34375 804.84375 1065.34375 " fill-opacity="1" fill-rule="nonzero"/><path fill="#ffffff" d="M 744.089844 1032.746094 L 716.273438 1060.6875 L 701.53125 1055.273438 L 727.171875 1019.519531 L 744.089844 1032.746094 " fill-opacity="1" fill-rule="nonzero"/><path fill="#000000" d="M 704.523438 1054.351562 L 715.789062 1058.496094 L 741.238281 1032.921875 L 727.558594 1022.234375 Z M 716.273438 1062.585938 C 716.054688 1062.585938 715.835938 1062.542969 715.625 1062.46875 L 700.875 1057.054688 C 700.324219 1056.847656 699.890625 1056.398438 699.71875 1055.832031 C 699.546875 1055.269531 699.644531 1054.652344 699.988281 1054.167969 L 725.628906 1018.417969 C 725.929688 1017.996094 726.386719 1017.722656 726.902344 1017.648438 C 727.414062 1017.574219 727.925781 1017.710938 728.335938 1018.027344 L 745.253906 1031.246094 C 745.679688 1031.582031 745.945312 1032.085938 745.980469 1032.625 C 746.015625 1033.167969 745.8125 1033.695312 745.433594 1034.082031 L 717.617188 1062.023438 C 717.257812 1062.390625 716.769531 1062.585938 716.273438 1062.585938 " fill-opacity="1" fill-rule="nonzero"/><path fill="#000000" d="M 725.066406 1056.316406 C 725.066406 1056.316406 726.40625 1068.207031 724.125 1078.714844 C 722.910156 1084.3125 717.863281 1088.25 712.136719 1088.25 L 643.875 1088.25 C 639 1088.25 636.785156 1082.160156 640.523438 1079.023438 C 652.660156 1068.859375 674.988281 1053.328125 702.445312 1048.769531 L 710.097656 1059.484375 L 725.066406 1056.316406 " fill-opacity="1" fill-rule="nonzero"/><path fill="#ffffff" d="M 717.863281 1080.761719 L 647.117188 1080.761719 C 646.078125 1080.761719 645.222656 1079.910156 645.222656 1078.863281 C 645.222656 1077.8125 646.078125 1076.96875 647.117188 1076.96875 L 717.863281 1076.96875 C 718.914062 1076.96875 719.757812 1077.8125 719.757812 1078.863281 C 719.757812 1079.910156 718.914062 1080.761719 717.863281 1080.761719 " fill-opacity="1" fill-rule="nonzero"/><path fill="#ffffff" d="M 686.597656 1068.191406 C 685.855469 1068.191406 685.144531 1067.75 684.84375 1067.019531 L 681.09375 1057.9375 C 680.699219 1056.96875 681.15625 1055.863281 682.125 1055.457031 C 683.09375 1055.0625 684.199219 1055.523438 684.601562 1056.488281 L 688.347656 1065.574219 C 688.746094 1066.539062 688.285156 1067.648438 687.316406 1068.046875 C 687.078125 1068.144531 686.839844 1068.191406 686.597656 1068.191406 " fill-opacity="1" fill-rule="nonzero"/><path fill="#ffffff" d="M 674.28125 1070.578125 C 673.484375 1070.578125 672.75 1070.074219 672.484375 1069.277344 L 669.777344 1061.085938 C 669.449219 1060.089844 669.984375 1059.019531 670.980469 1058.691406 C 671.96875 1058.363281 673.042969 1058.902344 673.371094 1059.894531 L 676.082031 1068.089844 C 676.410156 1069.082031 675.871094 1070.15625 674.878906 1070.480469 C 674.675781 1070.550781 674.480469 1070.578125 674.28125 1070.578125 " fill-opacity="1" fill-rule="nonzero"/><path fill="#000000" d="M 891.316406 837.191406 C 891.316406 837.191406 764.203125 822.390625 726.402344 855.113281 C 688.601562 887.835938 786.066406 1028.539062 786.066406 1028.539062 L 816.890625 1005.675781 L 787.65625 906.226562 L 905.160156 872.855469 L 891.316406 837.191406 " fill-opacity="1" fill-rule="nonzero"/><path fill="#000000" d="M 961.269531 901.949219 C 942.804688 907.8125 909.765625 915.390625 863.585938 914.761719 C 850.46875 914.582031 838.355469 921.828125 832.394531 933.515625 C 818.722656 960.34375 789.117188 1008.640625 740.894531 1039.941406 L 717.859375 1027.53125 L 776.644531 895.210938 C 782.011719 883.132812 792.046875 873.742188 804.457031 869.191406 L 920.957031 826.472656 C 920.957031 826.472656 957.082031 816.375 974.789062 848.621094 C 977.957031 854.378906 983.820312 844.085938 985.222656 848.726562 C 990.023438 864.660156 977.128906 896.921875 961.269531 901.949219 " fill-opacity="1" fill-rule="nonzero"/><path fill="#ffffff" d="M 750.078125 956.898438 C 749.828125 956.898438 749.5625 956.847656 749.316406 956.738281 C 748.359375 956.308594 747.925781 955.191406 748.355469 954.238281 L 774.914062 894.441406 C 780.457031 881.960938 790.992188 872.109375 803.804688 867.410156 L 859.597656 846.949219 C 860.578125 846.589844 861.667969 847.09375 862.027344 848.078125 C 862.390625 849.0625 861.882812 850.144531 860.90625 850.507812 L 805.117188 870.960938 C 793.246094 875.320312 783.507812 884.433594 778.375 895.980469 L 751.816406 955.773438 C 751.5 956.476562 750.808594 956.898438 750.078125 956.898438 " fill-opacity="1" fill-rule="nonzero"/><path fill="#ffffff" d="M 781.09375 1008.304688 C 780.621094 1008.304688 780.15625 1008.125 779.785156 1007.773438 C 779.027344 1007.046875 779.003906 1005.847656 779.730469 1005.09375 C 785.023438 999.601562 790.226562 993.6875 795.199219 987.539062 C 795.859375 986.726562 797.046875 986.597656 797.867188 987.253906 C 798.683594 987.917969 798.804688 989.109375 798.152344 989.921875 C 793.101562 996.160156 787.828125 1002.144531 782.464844 1007.722656 C 782.09375 1008.109375 781.597656 1008.304688 781.09375 1008.304688 " fill-opacity="1" fill-rule="nonzero"/><path fill="#ffffff" d="M 796.675781 990.625 C 796.257812 990.625 795.835938 990.484375 795.484375 990.203125 C 794.667969 989.539062 794.542969 988.347656 795.199219 987.539062 C 797.648438 984.511719 800.082031 981.371094 802.445312 978.203125 C 803.070312 977.363281 804.253906 977.191406 805.097656 977.820312 C 805.9375 978.441406 806.113281 979.628906 805.488281 980.46875 C 803.09375 983.675781 800.625 986.859375 798.148438 989.921875 C 797.773438 990.382812 797.226562 990.625 796.675781 990.625 " fill-opacity="1" fill-rule="nonzero"/><path fill="#ffffff" d="M 862.433594 734.515625 C 862.433594 734.515625 851.253906 836.039062 776.179688 842.675781 L 862.433594 843.90625 C 862.433594 843.90625 894.375 779.1875 895.667969 753.988281 C 896.964844 728.789062 862.433594 734.515625 862.433594 734.515625 " fill-opacity="1" fill-rule="nonzero"/><path fill="#000000" d="M 793.875 841.039062 L 861.257812 841.992188 C 865.394531 833.46875 892.601562 776.65625 893.78125 753.890625 C 894.054688 748.4375 892.523438 744.167969 889.207031 741.207031 C 882.035156 734.800781 868.484375 735.71875 864.125 736.207031 C 863.300781 742.054688 859.675781 764.3125 849.183594 786.90625 C 836.089844 815.078125 817.175781 833.5 793.875 841.039062 Z M 862.4375 845.800781 C 862.425781 845.800781 862.417969 845.800781 862.40625 845.800781 L 776.148438 844.574219 C 775.144531 844.5625 774.324219 843.753906 774.285156 842.746094 C 774.25 841.738281 775 840.882812 776.007812 840.789062 C 806.394531 838.105469 829.84375 819.464844 845.703125 785.398438 C 857.628906 759.761719 860.519531 734.5625 860.554688 734.308594 C 860.644531 733.464844 861.289062 732.785156 862.125 732.648438 C 862.921875 732.515625 881.789062 729.507812 891.730469 738.371094 C 895.9375 742.140625 897.902344 747.421875 897.5625 754.082031 C 896.261719 779.382812 865.441406 842.085938 864.136719 844.746094 C 863.8125 845.390625 863.152344 845.800781 862.4375 845.800781 " fill-opacity="1" fill-rule="nonzero"/><path fill="#ffffff" d="M 969.277344 670 C 954.714844 666.578125 948.640625 666.535156 895.699219 668.449219 C 882.761719 668.917969 867.367188 685.15625 865.847656 698.015625 C 869.960938 710.347656 888.941406 771.238281 855.804688 818.820312 C 851.101562 825.570312 844.710938 832.976562 835.9375 840.070312 C 840.863281 844.058594 848.519531 849.25 858.808594 852.300781 C 875.890625 857.375 884.484375 851.890625 898.25 852.300781 C 934.65625 853.390625 948.011719 893.9375 971.527344 888.84375 C 977.808594 887.484375 986.128906 882.589844 993.9375 866.160156 C 998.359375 852.535156 1002.292969 836.539062 1004.484375 818.460938 C 1010.429688 769.449219 1000.703125 728.636719 992.023438 703.03125 C 989.441406 694.941406 986.445312 674.039062 969.277344 670 " fill-opacity="1" fill-rule="nonzero"/><path fill="#000000" d="M 896.757812 850.378906 C 897.269531 850.378906 897.789062 850.394531 898.308594 850.40625 C 918.050781 850.996094 931.039062 862.585938 942.484375 872.8125 C 952.351562 881.613281 960.863281 889.21875 971.136719 886.996094 C 979.109375 885.265625 986.183594 878.019531 992.175781 865.457031 C 997.171875 850.050781 1000.679688 834.164062 1002.609375 818.226562 C 1007.238281 780.058594 1003.074219 741.503906 990.226562 703.632812 C 989.851562 702.433594 989.480469 701.070312 989.058594 699.484375 C 986.617188 690.351562 982.539062 675.054688 968.847656 671.84375 C 954.695312 668.519531 949.230469 668.402344 895.769531 670.335938 C 884.289062 670.753906 869.550781 685.300781 867.785156 697.828125 C 875.121094 720.007812 888.382812 775.367188 857.367188 819.902344 C 852.214844 827.285156 846.039062 834.050781 838.960938 840.027344 C 845.316406 844.832031 852.164062 848.347656 859.359375 850.484375 C 869.882812 853.605469 876.976562 852.585938 884.476562 851.507812 C 888.316406 850.957031 892.28125 850.378906 896.757812 850.378906 Z M 967.5 891.183594 C 957.367188 891.183594 948.886719 883.605469 939.960938 875.640625 C 928.992188 865.847656 916.558594 854.742188 898.195312 854.195312 C 893.402344 854.050781 889.132812 854.667969 885.015625 855.261719 C 877.4375 856.351562 869.601562 857.476562 858.285156 854.121094 C 849.910156 851.632812 841.988281 847.402344 834.75 841.542969 L 832.925781 840.070312 L 834.75 838.597656 C 842.304688 832.480469 848.871094 825.460938 854.253906 817.738281 C 884.476562 774.332031 871.171875 719.96875 864.050781 698.609375 L 863.921875 698.210938 L 863.964844 697.785156 C 865.527344 684.597656 881.167969 667.078125 895.636719 666.550781 C 949.570312 664.601562 955.113281 664.714844 969.714844 668.152344 C 985.609375 671.886719 990.0625 688.550781 992.722656 698.507812 C 993.132812 700.042969 993.488281 701.367188 993.832031 702.449219 C 1006.839844 740.824219 1011.066406 779.941406 1006.375 818.683594 C 1004.40625 834.902344 1000.832031 851.074219 995.742188 866.742188 L 995.648438 866.96875 C 989.117188 880.722656 981.140625 888.703125 971.933594 890.699219 C 970.421875 891.027344 968.945312 891.183594 967.5 891.183594 " fill-opacity="1" fill-rule="nonzero"/><path fill="#ffffff" d="M 852.566406 745.890625 C 852.566406 745.890625 861.125 677.246094 885.800781 671.386719 C 877.121094 698.066406 874.234375 727.09375 875.496094 757.816406 C 875.546875 759.089844 874.144531 759.902344 873.074219 759.203125 L 852.566406 745.890625 " fill-opacity="1" fill-rule="nonzero"/><path fill="#000000" d="M 854.605469 744.960938 L 873.574219 757.269531 C 872.347656 726.179688 875.378906 699.054688 882.828125 674.523438 C 863.859375 684.492188 855.808594 736.460938 854.605469 744.960938 Z M 873.921875 761.351562 C 873.269531 761.351562 872.621094 761.164062 872.042969 760.792969 L 850.539062 746.835938 L 850.6875 745.65625 C 851.042969 742.804688 859.707031 675.636719 885.359375 669.542969 L 888.644531 668.765625 L 887.605469 671.972656 C 879.394531 697.203125 876.054688 725.257812 877.382812 757.734375 C 877.441406 759.042969 876.773438 760.253906 875.636719 760.898438 C 875.105469 761.203125 874.511719 761.351562 873.921875 761.351562 " fill-opacity="1" fill-rule="nonzero"/><path fill="#ffeeb3" d="M 685.160156 739.238281 L 774.734375 739.238281 C 778.507812 739.238281 782.015625 741.121094 784.035156 744.222656 L 817.640625 843.144531 L 896.925781 843.144531 L 896.925781 844.625 C 896.925781 849.296875 893.140625 853.089844 888.472656 853.089844 L 720.203125 853.089844 C 715.523438 853.089844 711.738281 849.296875 711.738281 844.625 L 711.738281 843.324219 L 681.367188 750.828125 C 680.90625 749.417969 680.332031 748.054688 679.804688 746.664062 C 678.476562 743.1875 681.09375 739.238281 685.160156 739.238281 " fill-opacity="1" fill-rule="nonzero"/><path fill="#000000" d="M 713.503906 842.632812 C 713.589844 842.847656 713.632812 843.082031 713.632812 843.324219 L 713.632812 844.625 C 713.632812 848.25 716.582031 851.191406 720.199219 851.191406 L 888.472656 851.191406 C 891.953125 851.191406 894.808594 848.46875 895.023438 845.039062 L 817.640625 845.039062 C 816.824219 845.039062 816.109375 844.523438 815.847656 843.753906 L 782.328125 745.066406 C 780.632812 742.601562 777.816406 741.132812 774.738281 741.132812 L 685.160156 741.132812 C 683.863281 741.132812 682.707031 741.726562 681.992188 742.757812 C 681.320312 743.746094 681.171875 744.917969 681.582031 745.988281 L 682.039062 747.164062 C 682.421875 748.15625 682.820312 749.179688 683.164062 750.234375 Z M 888.472656 854.984375 L 720.199219 854.984375 C 714.488281 854.984375 709.847656 850.339844 709.847656 844.625 L 709.847656 843.636719 L 679.566406 751.417969 C 679.253906 750.460938 678.890625 749.53125 678.503906 748.542969 L 678.035156 747.335938 C 677.1875 745.117188 677.5 742.601562 678.875 740.609375 C 680.300781 738.535156 682.597656 737.34375 685.160156 737.34375 L 774.738281 737.34375 C 779.175781 737.34375 783.246094 739.53125 785.625 743.191406 C 785.710938 743.324219 785.78125 743.460938 785.832031 743.613281 L 819.003906 841.25 L 896.925781 841.25 C 897.976562 841.25 898.824219 842.097656 898.824219 843.144531 L 898.824219 844.625 C 898.824219 850.339844 894.183594 854.984375 888.472656 854.984375 " fill-opacity="1" fill-rule="nonzero"/><path fill="#ffffff" d="M 751.0625 789.941406 C 752.324219 794.136719 750.394531 798.421875 746.753906 799.523438 C 743.105469 800.621094 739.132812 798.117188 737.871094 793.925781 C 736.609375 789.734375 738.539062 785.449219 742.179688 784.347656 C 745.824219 783.25 749.800781 785.753906 751.0625 789.941406 " fill-opacity="1" fill-rule="nonzero"/><path fill="#ffffff" d="M 799.257812 845.21875 L 740.882812 845.21875 C 739.835938 845.21875 738.988281 844.375 738.988281 843.324219 C 738.988281 842.277344 739.835938 841.429688 740.882812 841.429688 L 799.257812 841.429688 C 800.308594 841.429688 801.152344 842.277344 801.152344 843.324219 C 801.152344 844.375 800.308594 845.21875 799.257812 845.21875 " fill-opacity="1" fill-rule="nonzero"/><path fill="#ffffff" d="M 721.503906 845.21875 L 711.160156 845.21875 C 710.109375 845.21875 709.265625 844.371094 709.265625 843.324219 C 709.265625 842.277344 710.109375 841.429688 711.160156 841.429688 L 721.503906 841.429688 C 722.554688 841.429688 723.398438 842.277344 723.398438 843.324219 C 723.398438 844.371094 722.554688 845.21875 721.503906 845.21875 " fill-opacity="1" fill-rule="nonzero"/><path fill="#ffffff" d="M 844.832031 834.464844 C 849.953125 826.441406 859.371094 822.375 864.542969 822.667969 C 888.089844 824 933.46875 800.183594 967.214844 788.675781 C 973.0625 780.171875 968.808594 761.574219 971.464844 739.25 L 1014.515625 742.972656 C 1018.8125 764.246094 1017.179688 800.367188 1013.457031 805.148438 C 1010.996094 811.007812 997.605469 828.03125 970.402344 841.292969 C 927.890625 862.019531 870.980469 848.46875 870.980469 848.46875 C 870.980469 848.46875 842.132812 863.71875 829.683594 847.144531 C 829.683594 847.144531 839.703125 842.484375 844.832031 834.464844 " fill-opacity="1" fill-rule="nonzero"/><path fill="#000000" d="M 844.828125 834.464844 L 844.84375 834.464844 Z M 832.664062 847.71875 C 844.71875 859.949219 869.832031 846.929688 870.085938 846.792969 C 870.5 846.578125 870.972656 846.515625 871.414062 846.625 C 871.976562 846.757812 928.175781 859.773438 969.574219 839.585938 C 995.5625 826.914062 1009.1875 810.421875 1011.710938 804.421875 C 1011.765625 804.265625 1011.855469 804.117188 1011.957031 803.988281 C 1014.875 800.234375 1017.027344 766.886719 1012.929688 744.738281 L 973.148438 741.296875 C 972.28125 749.625 972.347656 757.414062 972.40625 764.335938 C 972.496094 775.457031 972.566406 784.234375 968.773438 789.75 C 968.542969 790.085938 968.207031 790.339844 967.820312 790.46875 C 957.160156 794.109375 945.042969 799.097656 933.320312 803.917969 C 907.5625 814.523438 880.925781 825.492188 864.4375 824.558594 C 859.96875 824.308594 851.238281 827.960938 846.425781 835.484375 C 842.507812 841.609375 836.035156 845.820312 832.664062 847.71875 Z M 846.949219 856.8125 C 839.980469 856.8125 833.011719 854.738281 828.167969 848.285156 C 827.816406 847.832031 827.695312 847.242188 827.839844 846.691406 C 827.976562 846.132812 828.363281 845.671875 828.878906 845.425781 C 828.972656 845.382812 838.476562 840.890625 843.230469 833.441406 C 848.519531 825.167969 858.472656 820.433594 864.65625 820.773438 C 880.285156 821.660156 906.515625 810.859375 931.875 800.417969 C 943.421875 795.664062 955.359375 790.75 965.984375 787.097656 C 968.765625 782.472656 968.699219 774.441406 968.613281 764.367188 C 968.558594 756.828125 968.484375 748.285156 969.585938 739.027344 C 969.710938 738.011719 970.628906 737.269531 971.628906 737.363281 L 1014.679688 741.085938 C 1015.519531 741.160156 1016.207031 741.773438 1016.375 742.597656 C 1020.597656 763.527344 1019.195312 799.925781 1015.109375 806.082031 C 1012.726562 811.449219 999.996094 828.96875 971.238281 842.992188 C 931.132812 862.542969 877.894531 851.914062 871.226562 850.46875 C 868.476562 851.832031 857.730469 856.8125 846.949219 856.8125 " fill-opacity="1" fill-rule="nonzero"/><path fill="#000000" d="M 834.753906 849.769531 C 834.464844 849.769531 834.292969 849.757812 834.253906 849.753906 C 833.207031 849.640625 832.449219 848.714844 832.554688 847.671875 C 832.664062 846.640625 833.578125 845.886719 834.617188 845.980469 C 834.785156 845.988281 841.953125 846.324219 853.234375 836.082031 C 854.003906 835.378906 855.199219 835.4375 855.90625 836.214844 C 856.609375 836.988281 856.550781 838.183594 855.777344 838.886719 C 844.59375 849.035156 836.773438 849.769531 834.753906 849.769531 " fill-opacity="1" fill-rule="nonzero"/><path fill="#000000" d="M 842.246094 853.664062 C 841.683594 853.664062 841.367188 853.625 841.308594 853.613281 C 840.269531 853.453125 839.566406 852.476562 839.730469 851.445312 C 839.886719 850.421875 840.847656 849.71875 841.867188 849.863281 C 842.023438 849.878906 848.285156 850.492188 858.152344 841.914062 C 858.945312 841.230469 860.140625 841.308594 860.828125 842.097656 C 861.519531 842.886719 861.429688 844.085938 860.644531 844.769531 C 851.359375 852.835938 844.636719 853.664062 842.246094 853.664062 " fill-opacity="1" fill-rule="nonzero"/><path fill="#ffffff" d="M 1019.898438 758.421875 C 1020.1875 758.449219 1020.4375 758.21875 1020.414062 757.929688 C 1020.117188 753.054688 1017.800781 716.628906 1014.515625 701.941406 C 1007.097656 668.796875 961.371094 668.742188 961.371094 668.742188 C 969.785156 697.148438 972.507812 724.382812 969.839844 750.507812 C 969.675781 752.113281 970.828125 753.554688 972.4375 753.710938 L 1019.898438 758.421875 " fill-opacity="1" fill-rule="nonzero"/><path fill="#000000" d="M 963.933594 670.75 C 971.726562 698.128906 974.351562 725.015625 971.726562 750.703125 C 971.699219 750.976562 971.777344 751.25 971.953125 751.460938 C 972.117188 751.667969 972.359375 751.796875 972.628906 751.824219 L 1018.421875 756.371094 C 1017.875 747.917969 1015.664062 715.757812 1012.667969 702.355469 C 1006.664062 675.503906 973.464844 671.378906 963.933594 670.75 Z M 1020.089844 756.535156 L 1020.097656 756.535156 C 1020.089844 756.535156 1020.089844 756.535156 1020.089844 756.535156 Z M 1019.957031 760.3125 C 1019.878906 760.3125 1019.796875 760.3125 1019.71875 760.304688 L 972.25 755.597656 C 970.976562 755.472656 969.828125 754.855469 969.019531 753.863281 C 968.203125 752.863281 967.824219 751.605469 967.957031 750.316406 C 970.613281 724.328125 967.78125 697.066406 959.558594 669.285156 L 958.839844 666.847656 L 961.378906 666.847656 C 961.851562 666.847656 1008.707031 667.296875 1016.371094 701.523438 C 1019.695312 716.425781 1022.054688 753.621094 1022.308594 757.816406 C 1022.351562 758.503906 1022.089844 759.175781 1021.597656 759.660156 C 1021.152344 760.085938 1020.5625 760.3125 1019.957031 760.3125 " fill-opacity="1" fill-rule="nonzero"/><path fill="#ffffff" d="M 938.792969 660.730469 L 928.160156 626.160156 L 906.058594 637.914062 L 912.4375 659.742188 C 913.328125 662.914062 911.976562 666.296875 909.132812 667.972656 L 906.570312 669.488281 C 905.25 670.265625 905.632812 672.269531 907.148438 672.515625 L 918.816406 674.40625 C 930.003906 676.214844 941.476562 674.304688 951.464844 668.953125 C 952.898438 668.183594 952.65625 666.0625 951.082031 665.632812 C 946.285156 664.34375 939.265625 662.214844 938.792969 660.730469 " fill-opacity="1" fill-rule="nonzero"/><path fill="#000000" d="M 950.59375 667.464844 L 950.613281 667.464844 Z M 908.148438 670.757812 L 919.125 672.53125 C 929.757812 674.253906 940.832031 672.429688 950.347656 667.394531 C 937.847656 664.007812 937.332031 662.382812 936.988281 661.308594 C 936.980469 661.300781 936.980469 661.296875 936.980469 661.289062 L 927.027344 628.902344 L 908.3125 638.863281 L 914.261719 659.210938 C 915.386719 663.222656 913.675781 667.488281 910.105469 669.601562 Z M 927 676.957031 C 924.167969 676.957031 921.328125 676.730469 918.515625 676.277344 L 906.847656 674.382812 C 905.363281 674.144531 904.21875 673.035156 903.9375 671.546875 C 903.660156 670.066406 904.320312 668.617188 905.609375 667.851562 L 908.175781 666.339844 C 910.273438 665.101562 911.277344 662.597656 910.613281 660.25 L 904.246094 638.441406 C 903.996094 637.585938 904.382812 636.664062 905.179688 636.242188 L 927.273438 624.480469 C 927.785156 624.214844 928.367188 624.183594 928.894531 624.402344 C 929.414062 624.617188 929.8125 625.054688 929.976562 625.597656 L 940.523438 659.898438 C 941.238281 660.464844 944.226562 661.824219 951.582031 663.804688 C 953.050781 664.203125 954.113281 665.4375 954.285156 666.945312 C 954.457031 668.460938 953.703125 669.898438 952.359375 670.621094 C 944.578125 674.792969 935.804688 676.957031 927 676.957031 " fill-opacity="1" fill-rule="nonzero"/><path fill="#000000" d="M 878.261719 602.765625 C 883.949219 599.738281 879.34375 609.140625 898.078125 592.859375 C 905.539062 586.375 905.761719 598.429688 907.695312 596.757812 C 914.867188 590.566406 916.855469 588.953125 921.363281 588.15625 C 924.351562 587.625 932.398438 590.289062 933.152344 594.300781 C 935.621094 607.371094 928.988281 606.664062 930.117188 618.546875 C 930.898438 626.886719 929.878906 630.007812 927.472656 632.386719 C 925.039062 634.796875 921.105469 631.875 918.25 634.300781 C 914.5625 637.445312 918.738281 644.386719 916 649.328125 C 914.273438 652.445312 908.632812 656.125 896.789062 655.878906 C 894.867188 655.839844 893.25 654.433594 892.945312 652.527344 C 892.554688 650.085938 892.074219 646.996094 891.867188 644.011719 C 890.863281 629.773438 893.9375 625.027344 890.9375 622.601562 C 886.34375 618.890625 878.476562 625.867188 875.160156 622.601562 C 871.71875 619.214844 870.476562 606.917969 878.261719 602.765625 " fill-opacity="1" fill-rule="nonzero"/><path fill="#ffffff" d="M 908.1875 614.277344 L 907.933594 618.171875 C 907.820312 620.003906 907.828125 621.84375 907.960938 623.675781 C 908.210938 627.113281 908.410156 633.023438 908.570312 636.347656 C 909.058594 647.035156 893.453125 642.242188 893.453125 642.242188 L 891.550781 640.117188 L 889.789062 640.199219 C 889.441406 640.214844 889.09375 640.15625 888.785156 640 C 888.035156 639.605469 887.660156 638.785156 887.792969 637.996094 C 888.523438 633.675781 889.796875 624.144531 888.449219 616.734375 C 888.449219 616.734375 896.847656 609.886719 908.1875 614.277344 " fill-opacity="1" fill-rule="nonzero"/><path fill="#000000" d="M 894.5 640.570312 C 897.042969 641.257812 902.734375 642.242188 905.308594 640.238281 C 906.3125 639.460938 906.753906 638.214844 906.675781 636.433594 C 906.632812 635.519531 906.589844 634.414062 906.535156 633.214844 C 906.410156 630.125 906.25 626.28125 906.066406 623.816406 C 905.929688 621.898438 905.921875 619.964844 906.039062 618.054688 L 906.199219 615.597656 C 898.617188 613.21875 892.652344 616.242188 890.511719 617.609375 C 891.558594 624.917969 890.449219 633.625 889.65625 638.3125 L 891.46875 638.222656 C 892.027344 638.199219 892.582031 638.429688 892.964844 638.855469 Z M 900.511719 645.21875 C 896.859375 645.21875 893.492188 644.234375 892.898438 644.058594 C 892.570312 643.953125 892.269531 643.761719 892.039062 643.511719 L 890.734375 642.050781 L 889.871094 642.09375 C 889.167969 642.121094 888.492188 641.980469 887.914062 641.683594 C 886.445312 640.917969 885.648438 639.3125 885.921875 637.6875 C 886.554688 633.894531 887.910156 624.304688 886.582031 617.074219 C 886.464844 616.394531 886.714844 615.703125 887.253906 615.269531 C 887.632812 614.957031 896.648438 607.78125 908.875 612.511719 C 909.648438 612.808594 910.128906 613.582031 910.074219 614.402344 L 909.824219 618.292969 C 909.710938 620.035156 909.71875 621.800781 909.84375 623.539062 C 910.035156 626.058594 910.195312 629.941406 910.324219 633.058594 C 910.371094 634.253906 910.417969 635.351562 910.464844 636.261719 C 910.636719 640.078125 909.015625 642.15625 907.628906 643.234375 C 905.671875 644.753906 903.03125 645.21875 900.511719 645.21875 " fill-opacity="1" fill-rule="nonzero"/><path fill="#ffffff" d="M 910.777344 626.265625 C 910.777344 626.265625 911.367188 616.910156 915.550781 618.074219 C 919.722656 619.242188 918.816406 629.535156 910.777344 626.265625 " fill-opacity="1" fill-rule="nonzero"/><path fill="#000000" d="M 892.160156 626.617188 C 892.074219 626.710938 891.96875 627.304688 892.523438 628.75 C 893.640625 631.617188 894.613281 632.152344 894.878906 632.253906 C 894.96875 632.285156 895.160156 632.347656 895.523438 632.191406 C 895.746094 631.4375 895.621094 628.820312 892.929688 626.191406 C 892.929688 626.21875 892.554688 626.175781 892.160156 626.617188 Z M 895.105469 636.078125 C 894.605469 636.078125 894.101562 635.996094 893.613281 635.820312 C 891.726562 635.160156 890.222656 633.292969 888.988281 630.117188 C 888.613281 629.140625 887.460938 626.171875 889.347656 624.085938 C 890.257812 623.070312 891.464844 622.484375 892.746094 622.445312 C 893.820312 622.414062 894.867188 622.785156 895.570312 623.476562 C 898.777344 626.609375 899.621094 630.128906 899.335938 632.382812 C 899.152344 633.785156 898.558594 634.835938 897.644531 635.363281 C 896.808594 635.839844 895.953125 636.078125 895.105469 636.078125 " fill-opacity="1" fill-rule="nonzero"/><path fill="#000000" d="M 892.265625 626.257812 C 891.464844 626.257812 890.710938 625.742188 890.460938 624.929688 C 890.144531 623.9375 890.699219 622.863281 891.695312 622.554688 L 911.015625 616.445312 C 912.015625 616.136719 913.082031 616.6875 913.398438 617.683594 C 913.714844 618.679688 913.160156 619.746094 912.160156 620.0625 L 892.839844 626.171875 C 892.648438 626.222656 892.457031 626.257812 892.265625 626.257812 " fill-opacity="1" fill-rule="nonzero"/><path fill="#000000" d="M 887.523438 633.777344 L 887.53125 633.777344 Z M 887.515625 637.566406 C 887.179688 637.574219 886.179688 637.578125 884.589844 635.824219 C 883.859375 635.011719 881.5 632.074219 881.855469 628.421875 C 881.972656 627.195312 882.542969 626.195312 883.492188 625.523438 C 885.492188 624.105469 888.457031 624.726562 889.03125 624.859375 C 890.046875 625.113281 890.671875 626.136719 890.429688 627.15625 C 890.175781 628.171875 889.160156 628.792969 888.144531 628.546875 C 887.101562 628.304688 885.859375 628.378906 885.660156 628.628906 C 885.652344 628.636719 885.640625 628.683594 885.625 628.789062 C 885.402344 631.078125 887.328125 633.367188 887.984375 633.839844 C 888.8125 634.046875 889.410156 634.796875 889.410156 635.683594 C 889.40625 636.726562 888.558594 637.566406 887.515625 637.566406 " fill-opacity="1" fill-rule="nonzero"/><path fill="#ffffff" d="M 884.464844 1094.578125 L 934.242188 888.007812 L 984.019531 1094.578125 L 995.949219 1094.578125 L 941.253906 865.941406 L 927.230469 865.921875 L 872.539062 1094.578125 L 884.464844 1094.578125 " fill-opacity="1" fill-rule="nonzero"/><path fill="#000000" d="M 985.511719 1092.683594 L 993.546875 1092.683594 L 939.761719 867.835938 L 928.722656 867.816406 L 874.9375 1092.683594 L 882.980469 1092.683594 L 934.242188 879.921875 Z M 998.351562 1096.472656 L 982.53125 1096.472656 L 934.242188 896.097656 L 885.960938 1096.472656 L 870.136719 1096.472656 L 925.734375 864.019531 L 942.753906 864.050781 L 998.351562 1096.472656 " fill-opacity="1" fill-rule="nonzero"/><path fill="#ffffff" d="M 601.730469 1093.871094 L 651.503906 887.296875 L 701.277344 1093.871094 L 713.210938 1093.871094 L 658.519531 865.230469 L 644.492188 865.214844 L 589.796875 1093.871094 L 601.730469 1093.871094 " fill-opacity="1" fill-rule="nonzero"/><path fill="#000000" d="M 702.769531 1091.976562 L 710.808594 1091.976562 L 657.027344 867.125 L 645.984375 867.109375 L 592.199219 1091.976562 L 600.234375 1091.976562 L 651.503906 879.210938 Z M 715.613281 1095.757812 L 699.785156 1095.757812 L 651.503906 895.386719 L 603.226562 1095.757812 L 587.394531 1095.757812 L 642.996094 863.3125 L 660.015625 863.339844 L 715.613281 1095.757812 " fill-opacity="1" fill-rule="nonzero"/><path fill="#ffffff" d="M 987.707031 869.90625 L 595.101562 869.90625 L 595.101562 851.234375 L 987.707031 851.234375 L 987.707031 869.90625 " fill-opacity="1" fill-rule="nonzero"/><path fill="#000000" d="M 596.988281 868.015625 L 985.800781 868.015625 L 985.800781 853.128906 L 596.988281 853.128906 Z M 989.589844 871.804688 L 593.195312 871.804688 L 593.195312 849.339844 L 989.589844 849.339844 L 989.589844 871.804688 " fill-opacity="1" fill-rule="nonzero"/><path fill="#ffc824" d="M 868.820312 867.417969 C 867.777344 867.417969 866.933594 866.566406 866.933594 865.527344 L 866.933594 855.125 C 866.933594 854.074219 867.777344 853.230469 868.820312 853.230469 C 869.871094 853.230469 870.722656 854.074219 870.722656 855.125 L 870.722656 865.527344 C 870.722656 866.566406 869.871094 867.417969 868.820312 867.417969 " fill-opacity="1" fill-rule="nonzero"/><path fill="#ffffff" d="M 1067.738281 345.484375 C 1075.929688 345.484375 1081.675781 352.132812 1080.570312 360.332031 L 1066.730469 462.476562 C 1065.621094 470.675781 1058.074219 477.320312 1049.875 477.320312 L 682.789062 477.320312 C 674.597656 477.320312 668.84375 470.675781 669.960938 462.476562 L 683.800781 360.332031 C 684.90625 352.132812 692.457031 345.484375 700.65625 345.484375 L 1067.738281 345.484375 " fill-opacity="1" fill-rule="nonzero"/><path fill="#000000" d="M 728.355469 479.21875 L 682.789062 479.21875 C 678.300781 479.21875 674.28125 477.464844 671.5 474.273438 C 668.679688 471.050781 667.464844 466.765625 668.078125 462.230469 L 681.921875 360.082031 C 683.148438 350.992188 691.550781 343.597656 700.648438 343.597656 L 756.199219 343.597656 C 757.246094 343.597656 758.097656 344.445312 758.097656 345.488281 C 758.097656 346.535156 757.246094 347.390625 756.199219 347.390625 L 700.648438 347.390625 C 693.378906 347.390625 686.660156 353.3125 685.671875 360.585938 L 671.835938 462.734375 C 671.367188 466.179688 672.261719 469.390625 674.351562 471.78125 C 676.40625 474.132812 679.402344 475.433594 682.789062 475.433594 L 728.355469 475.433594 C 729.402344 475.433594 730.25 476.28125 730.25 477.324219 C 730.25 478.371094 729.402344 479.21875 728.355469 479.21875 " fill-opacity="1" fill-rule="nonzero"/><path fill="#000000" d="M 1049.871094 479.21875 L 751.449219 479.21875 C 750.398438 479.21875 749.558594 478.371094 749.558594 477.324219 C 749.558594 476.285156 750.398438 475.425781 751.449219 475.425781 L 1049.871094 475.425781 C 1057.144531 475.425781 1063.863281 469.507812 1064.851562 462.222656 L 1078.6875 360.082031 C 1079.15625 356.640625 1078.257812 353.425781 1076.171875 351.042969 C 1074.113281 348.683594 1071.117188 347.382812 1067.734375 347.382812 L 1021.570312 347.382812 C 1020.523438 347.382812 1019.671875 346.535156 1019.671875 345.496094 C 1019.671875 344.445312 1020.523438 343.597656 1021.570312 343.597656 L 1067.734375 343.597656 C 1072.226562 343.597656 1076.230469 345.355469 1079.023438 348.546875 C 1081.847656 351.769531 1083.054688 356.050781 1082.441406 360.585938 L 1068.605469 462.738281 C 1067.375 471.824219 1058.964844 479.21875 1049.871094 479.21875 " fill-opacity="1" fill-rule="nonzero"/><path fill="#ffdd6e" d="M 1025.316406 389.75 L 758.523438 389.75 C 754.6875 389.75 751.996094 386.644531 752.511719 382.808594 C 753.042969 378.964844 756.566406 375.859375 760.410156 375.859375 L 1027.199219 375.859375 C 1031.042969 375.859375 1033.722656 378.964844 1033.203125 382.808594 C 1032.6875 386.644531 1029.152344 389.75 1025.316406 389.75 " fill-opacity="1" fill-rule="nonzero"/><path fill="#ffeeb3" d="M 738.964844 382.804688 C 738.445312 386.640625 734.914062 389.753906 731.078125 389.753906 C 727.242188 389.753906 724.550781 386.640625 725.070312 382.804688 C 725.589844 378.96875 729.121094 375.859375 732.957031 375.859375 C 736.792969 375.859375 739.480469 378.96875 738.964844 382.804688 " fill-opacity="1" fill-rule="nonzero"/><path fill="#ffeeb3" d="M 1021.269531 419.671875 L 754.476562 419.671875 C 750.636719 419.671875 747.945312 416.558594 748.472656 412.722656 C 748.992188 408.886719 752.523438 405.773438 756.359375 405.773438 L 1023.152344 405.773438 C 1026.988281 405.773438 1029.675781 408.886719 1029.15625 412.722656 C 1028.636719 416.558594 1025.105469 419.671875 1021.269531 419.671875 " fill-opacity="1" fill-rule="nonzero"/><path fill="#ffeeb3" d="M 734.910156 412.730469 C 734.390625 416.566406 730.859375 419.671875 727.023438 419.671875 C 723.1875 419.671875 720.496094 416.566406 721.015625 412.730469 C 721.539062 408.886719 725.070312 405.785156 728.90625 405.785156 C 732.742188 405.785156 735.425781 408.886719 734.910156 412.730469 " fill-opacity="1" fill-rule="nonzero"/><path fill="#ffeeb3" d="M 1017.207031 449.601562 L 750.414062 449.601562 C 746.574219 449.601562 743.890625 446.492188 744.414062 442.652344 C 744.933594 438.816406 748.464844 435.714844 752.296875 435.714844 L 1019.097656 435.714844 C 1022.929688 435.714844 1025.617188 438.816406 1025.101562 442.652344 C 1024.578125 446.492188 1021.042969 449.601562 1017.207031 449.601562 " fill-opacity="1" fill-rule="nonzero"/><path fill="#ffeeb3" d="M 730.851562 442.648438 C 730.335938 446.492188 726.804688 449.597656 722.96875 449.597656 C 719.132812 449.597656 716.441406 446.492188 716.960938 442.648438 C 717.484375 438.8125 721.015625 435.707031 724.851562 435.707031 C 728.6875 435.707031 731.378906 438.8125 730.851562 442.648438 " fill-opacity="1" fill-rule="nonzero"/><path fill="#000000" d="M 1016.347656 522.976562 C 1015.300781 522.976562 1014.453125 522.125 1014.453125 521.074219 L 1014.453125 511.277344 C 1014.453125 510.230469 1015.300781 509.382812 1016.347656 509.382812 C 1017.390625 509.382812 1018.238281 510.230469 1018.238281 511.277344 L 1018.238281 521.074219 C 1018.238281 522.125 1017.390625 522.976562 1016.347656 522.976562 " fill-opacity="1" fill-rule="nonzero"/><path fill="#000000" d="M 1016.347656 545.804688 C 1015.300781 545.804688 1014.453125 544.953125 1014.453125 543.910156 L 1014.453125 534.105469 C 1014.453125 533.058594 1015.300781 532.210938 1016.347656 532.210938 C 1017.390625 532.210938 1018.238281 533.058594 1018.238281 534.105469 L 1018.238281 543.910156 C 1018.238281 544.953125 1017.390625 545.804688 1016.347656 545.804688 " fill-opacity="1" fill-rule="nonzero"/><path fill="#000000" d="M 1009.828125 529.488281 L 1000.03125 529.488281 C 998.988281 529.488281 998.144531 528.644531 998.144531 527.59375 C 998.144531 526.546875 998.988281 525.695312 1000.03125 525.695312 L 1009.828125 525.695312 C 1010.878906 525.695312 1011.722656 526.546875 1011.722656 527.59375 C 1011.722656 528.644531 1010.878906 529.488281 1009.828125 529.488281 " fill-opacity="1" fill-rule="nonzero"/><path fill="#000000" d="M 1032.652344 529.488281 L 1022.851562 529.488281 C 1021.816406 529.488281 1020.964844 528.644531 1020.964844 527.59375 C 1020.964844 526.546875 1021.816406 525.695312 1022.851562 525.695312 L 1032.652344 525.695312 C 1033.703125 525.695312 1034.550781 526.546875 1034.550781 527.59375 C 1034.550781 528.644531 1033.703125 529.488281 1032.652344 529.488281 " fill-opacity="1" fill-rule="nonzero"/><path fill="#000000" d="M 968.152344 563.917969 C 967.109375 563.917969 966.253906 563.070312 966.253906 562.019531 L 966.253906 552.226562 C 966.253906 551.175781 967.109375 550.328125 968.152344 550.328125 C 969.195312 550.328125 970.042969 551.175781 970.042969 552.226562 L 970.042969 562.019531 C 970.042969 563.070312 969.195312 563.917969 968.152344 563.917969 " fill-opacity="1" fill-rule="nonzero"/><path fill="#000000" d="M 968.152344 586.742188 C 967.109375 586.742188 966.253906 585.902344 966.253906 584.851562 L 966.253906 575.046875 C 966.253906 574.007812 967.109375 573.160156 968.152344 573.160156 C 969.195312 573.160156 970.042969 574.007812 970.042969 575.046875 L 970.042969 584.851562 C 970.042969 585.902344 969.195312 586.742188 968.152344 586.742188 " fill-opacity="1" fill-rule="nonzero"/><path fill="#000000" d="M 961.628906 570.429688 L 951.832031 570.429688 C 950.789062 570.429688 949.9375 569.585938 949.9375 568.535156 C 949.9375 567.492188 950.789062 566.640625 951.832031 566.640625 L 961.628906 566.640625 C 962.683594 566.640625 963.527344 567.492188 963.527344 568.535156 C 963.527344 569.585938 962.683594 570.429688 961.628906 570.429688 " fill-opacity="1" fill-rule="nonzero"/><path fill="#000000" d="M 984.453125 570.4375 L 974.660156 570.4375 C 973.609375 570.4375 972.761719 569.589844 972.761719 568.539062 C 972.761719 567.488281 973.609375 566.640625 974.660156 566.640625 L 984.453125 566.640625 C 985.503906 566.640625 986.355469 567.488281 986.355469 568.539062 C 986.355469 569.589844 985.503906 570.4375 984.453125 570.4375 " fill-opacity="1" fill-rule="nonzero"/><path fill="#ffffff" d="M 888.433594 529.8125 C 886.863281 529.8125 885.292969 530.144531 883.816406 530.808594 C 877.996094 533.421875 875.34375 540.394531 877.917969 546.339844 C 879.171875 549.246094 881.453125 551.464844 884.355469 552.59375 C 887.179688 553.691406 890.28125 553.609375 893.054688 552.371094 C 898.867188 549.75 901.519531 542.78125 898.953125 536.832031 C 897.699219 533.929688 895.417969 531.714844 892.515625 530.585938 C 891.191406 530.066406 889.808594 529.8125 888.433594 529.8125 Z M 888.441406 557.15625 C 886.597656 557.15625 884.753906 556.8125 882.976562 556.125 C 879.128906 554.628906 876.09375 551.6875 874.433594 547.84375 C 871.050781 540 874.566406 530.808594 882.261719 527.347656 C 885.976562 525.683594 890.09375 525.585938 893.890625 527.046875 C 897.742188 528.550781 900.777344 531.488281 902.433594 535.335938 C 905.820312 543.175781 902.308594 552.371094 894.613281 555.824219 C 892.636719 556.707031 890.535156 557.15625 888.441406 557.15625 " fill-opacity="1" fill-rule="nonzero"/><path fill="#000000" d="M 975.246094 218.164062 C 974.609375 218.164062 973.988281 217.84375 973.632812 217.261719 C 944.210938 169.542969 900.367188 133.164062 843.335938 109.140625 C 842.375 108.734375 841.921875 107.628906 842.332031 106.660156 C 842.738281 105.695312 843.851562 105.242188 844.808594 105.648438 C 902.582031 129.984375 947.007812 166.867188 976.859375 215.273438 C 977.40625 216.164062 977.128906 217.328125 976.242188 217.878906 C 975.929688 218.070312 975.582031 218.164062 975.246094 218.164062 " fill-opacity="1" fill-rule="nonzero"/><path fill="#000000" d="M 1009.84375 290.085938 C 1008.984375 290.085938 1008.207031 289.5 1007.996094 288.632812 C 1007.941406 288.398438 1002.140625 264.765625 983.367188 234.949219 C 982.800781 234.0625 983.070312 232.894531 983.957031 232.335938 C 984.835938 231.773438 986.015625 232.042969 986.570312 232.929688 C 1005.703125 263.316406 1011.453125 286.765625 1011.683594 287.75 C 1011.929688 288.773438 1011.300781 289.789062 1010.285156 290.035156 C 1010.140625 290.070312 1009.988281 290.085938 1009.84375 290.085938 " fill-opacity="1" fill-rule="nonzero"/><path fill="#000000" d="M 996.25 214.835938 C 995.539062 214.835938 994.855469 214.433594 994.539062 213.75 C 994.417969 213.503906 982.796875 189.175781 957.3125 160.828125 C 933.820312 134.699219 893.402344 99.714844 834.253906 81.40625 C 833.257812 81.101562 832.699219 80.039062 833.003906 79.042969 C 833.316406 78.035156 834.382812 77.476562 835.378906 77.785156 C 895.414062 96.367188 936.410156 131.878906 960.230469 158.402344 C 986.042969 187.148438 997.847656 211.886719 997.964844 212.136719 C 998.40625 213.078125 998.003906 214.210938 997.054688 214.65625 C 996.792969 214.773438 996.515625 214.835938 996.25 214.835938 " fill-opacity="1" fill-rule="nonzero"/><path fill="#000000" d="M 82.019531 768.277344 C 81.226562 768.277344 80.488281 767.777344 80.222656 766.980469 C 62.136719 713.070312 62.234375 655.324219 80.511719 595.367188 C 80.816406 594.363281 81.871094 593.800781 82.875 594.105469 C 83.878906 594.410156 84.441406 595.46875 84.136719 596.464844 C 66.09375 655.660156 65.984375 712.625 83.8125 765.777344 C 84.148438 766.769531 83.613281 767.847656 82.621094 768.179688 C 82.417969 768.242188 82.214844 768.277344 82.019531 768.277344 " fill-opacity="1" fill-rule="nonzero"/><path fill="#000000" d="M 66.011719 782.289062 C 65.296875 782.289062 64.617188 781.882812 64.292969 781.191406 C 64.179688 780.945312 52.722656 756.035156 47.160156 717.804688 C 42.03125 682.53125 40.984375 628.304688 65.132812 570.285156 C 65.535156 569.316406 66.644531 568.863281 67.609375 569.265625 C 68.578125 569.664062 69.03125 570.773438 68.632812 571.742188 C 44.8125 628.960938 45.847656 682.457031 50.914062 717.257812 C 56.394531 754.949219 67.617188 779.347656 67.730469 779.589844 C 68.171875 780.542969 67.761719 781.671875 66.8125 782.105469 C 66.554688 782.230469 66.28125 782.289062 66.011719 782.289062 " fill-opacity="1" fill-rule="nonzero"/><g fill="#ffffff" fill-opacity="1"><g transform="translate(1133.03614, 1046.357303)"><g><path d="M 0.234375 -0.046875 L 0.265625 -0.015625 C 0.253906 -0.015625 0.238281 -0.0078125 0.21875 0 C 0.207031 0.0078125 0.191406 0.015625 0.171875 0.015625 C 0.109375 0.015625 0.078125 -0.0195312 0.078125 -0.09375 L 0.078125 -0.3125 L 0.015625 -0.3125 L 0.015625 -0.359375 L 0.078125 -0.359375 L 0.078125 -0.4375 L 0.140625 -0.453125 L 0.140625 -0.359375 L 0.25 -0.359375 L 0.25 -0.3125 L 0.140625 -0.3125 L 0.140625 -0.109375 C 0.140625 -0.0664062 0.15625 -0.046875 0.1875 -0.046875 C 0.207031 -0.046875 0.222656 -0.046875 0.234375 -0.046875 Z M 0.234375 -0.046875 "/></g></g></g></svg>