<svg xmlns="http://www.w3.org/2000/svg" xmlns:xlink="http://www.w3.org/1999/xlink" width="1536" zoomAndPan="magnify" viewBox="0 0 1152 1123.499971" height="1498" preserveAspectRatio="xMidYMid meet" version="1.0"><defs><g/></defs><path fill="#caddff" d="M 39.171875 894.28125 C 70.988281 971.300781 145.238281 1007.777344 192.691406 1031.09375 C 379.746094 1122.988281 663.804688 1112.445312 868.171875 945.242188 C 916 906.113281 1151.703125 701.109375 1096.59375 423.238281 C 1047.867188 177.582031 803.585938 34.910156 597.929688 15.816406 C 427.550781 -0.00390625 172.976562 22.195312 82.164062 203.515625 C 34.542969 298.589844 136.636719 335.746094 96.355469 549.203125 C 61.488281 733.960938 0.253906 800.070312 39.171875 894.28125 " fill-opacity="1" fill-rule="nonzero"/><path fill="#99b9ff" d="M 380.804688 899.03125 C 351.769531 906.976562 321.789062 889.878906 313.839844 860.839844 C 305.886719 831.796875 322.980469 801.800781 352.015625 793.851562 C 381.050781 785.898438 411.03125 802.996094 418.984375 832.039062 C 426.933594 861.085938 409.839844 891.078125 380.804688 899.03125 Z M 474.859375 827.71875 L 469.261719 807.292969 L 446.160156 808.339844 C 444.019531 803.839844 441.539062 799.574219 438.738281 795.585938 L 450.972656 775.988281 L 435.914062 761.09375 L 416.425781 773.5625 C 412.371094 770.78125 408.089844 768.335938 403.625 766.261719 L 404.425781 743.136719 L 383.941406 737.769531 L 373.3125 758.277344 C 368.453125 757.902344 363.523438 757.9375 358.5625 758.382812 L 347.695312 737.960938 L 327.269531 743.558594 L 328.320312 766.667969 C 323.824219 768.808594 319.5625 771.289062 315.574219 774.09375 L 295.980469 761.863281 L 281.089844 776.921875 L 293.550781 796.410156 C 290.769531 800.46875 288.328125 804.753906 286.253906 809.214844 L 263.136719 808.417969 L 257.765625 828.90625 L 278.277344 839.535156 C 277.894531 844.402344 277.933594 849.332031 278.382812 854.292969 L 257.964844 865.164062 L 263.558594 885.59375 L 286.660156 884.542969 C 288.800781 889.039062 291.28125 893.304688 294.085938 897.292969 L 281.851562 916.886719 L 296.90625 931.785156 L 316.394531 919.316406 C 320.449219 922.105469 324.734375 924.542969 329.195312 926.617188 L 328.398438 949.742188 L 348.882812 955.117188 L 359.507812 934.601562 C 364.367188 934.984375 369.300781 934.941406 374.261719 934.496094 L 385.128906 954.917969 L 405.550781 949.324219 L 404.5 926.210938 C 408.996094 924.070312 413.261719 921.589844 417.25 918.785156 L 436.839844 931.023438 L 451.730469 915.964844 L 439.269531 896.472656 C 442.054688 892.414062 444.492188 888.128906 446.566406 883.664062 L 469.6875 884.464844 L 475.050781 863.972656 L 454.546875 853.34375 C 454.929688 848.484375 454.886719 843.550781 454.441406 838.585938 L 474.859375 827.71875 " fill-opacity="1" fill-rule="nonzero"/><path fill="#ffffff" d="M 959.644531 647.113281 C 930.601562 655.0625 900.621094 637.96875 892.664062 608.921875 C 884.722656 579.878906 901.816406 549.890625 930.847656 541.9375 C 959.882812 533.988281 989.863281 551.082031 997.8125 580.121094 C 1005.769531 609.167969 988.671875 639.15625 959.644531 647.113281 Z M 1053.691406 575.804688 L 1048.097656 555.371094 L 1024.992188 556.425781 C 1022.847656 551.921875 1020.378906 547.65625 1017.570312 543.667969 L 1029.796875 524.074219 L 1014.746094 509.179688 L 995.261719 521.640625 C 991.199219 518.863281 986.921875 516.417969 982.464844 514.34375 L 983.257812 491.21875 L 962.773438 485.851562 L 952.144531 506.363281 C 947.28125 505.988281 942.355469 506.015625 937.394531 506.46875 L 926.523438 486.042969 L 906.101562 491.644531 L 907.148438 514.75 C 902.652344 516.894531 898.390625 519.375 894.40625 522.175781 L 874.8125 509.941406 L 859.921875 525.007812 L 872.382812 544.492188 C 869.605469 548.554688 867.164062 552.835938 865.085938 557.296875 L 841.964844 556.5 L 836.597656 576.988281 L 857.105469 587.621094 C 856.722656 592.484375 856.765625 597.414062 857.210938 602.375 L 836.800781 613.246094 L 842.386719 633.671875 L 865.496094 632.625 C 867.628906 637.121094 870.113281 641.386719 872.914062 645.375 L 860.6875 664.972656 L 875.734375 679.867188 L 895.222656 667.40625 C 899.285156 670.183594 903.5625 672.625 908.027344 674.699219 L 907.226562 697.828125 L 927.71875 703.199219 L 938.339844 682.683594 C 943.203125 683.066406 948.136719 683.023438 953.089844 682.578125 L 963.960938 702.996094 L 984.386719 697.40625 L 983.332031 674.292969 C 987.828125 672.15625 992.09375 669.675781 996.085938 666.867188 L 1015.679688 679.105469 L 1030.5625 664.046875 L 1018.101562 644.558594 C 1020.878906 640.496094 1023.328125 636.214844 1025.398438 631.746094 L 1048.519531 632.546875 L 1053.886719 612.058594 L 1033.378906 601.425781 C 1033.761719 596.566406 1033.722656 591.636719 1033.273438 586.667969 L 1053.691406 575.804688 " fill-opacity="1" fill-rule="nonzero"/><path fill="#99b9ff" d="M 1016.1875 450.527344 C 1000.625 457.027344 982.742188 449.671875 976.238281 434.105469 C 969.738281 418.542969 977.09375 400.65625 992.65625 394.152344 C 1008.214844 387.652344 1026.097656 395.007812 1032.601562 410.566406 C 1039.097656 426.136719 1031.746094 444.03125 1016.1875 450.527344 Z M 1063.332031 404.167969 L 1058.765625 393.214844 L 1046.003906 395.453125 C 1044.488281 393.109375 1042.8125 390.917969 1040.964844 388.902344 L 1046.351562 377.132812 L 1036.921875 369.9375 L 1026.992188 378.261719 C 1024.535156 377.003906 1021.980469 375.957031 1019.359375 375.125 L 1018.144531 362.21875 L 1006.378906 360.699219 L 1001.9375 372.863281 C 999.207031 373 996.476562 373.371094 993.75 373.980469 L 986.25 363.410156 L 975.304688 367.980469 L 977.542969 380.75 C 975.199219 382.257812 973.007812 383.941406 970.992188 385.785156 L 959.222656 380.394531 L 952.03125 389.828125 L 960.355469 399.769531 C 959.09375 402.21875 958.050781 404.773438 957.214844 407.398438 L 944.316406 408.609375 L 942.796875 420.386719 L 954.957031 424.824219 C 955.09375 427.554688 955.464844 430.292969 956.070312 433.011719 L 945.511719 440.519531 L 950.074219 451.464844 L 962.835938 449.226562 C 964.351562 451.570312 966.03125 453.761719 967.882812 455.777344 L 962.484375 467.546875 L 971.917969 474.742188 L 981.855469 466.417969 C 984.300781 467.675781 986.859375 468.71875 989.488281 469.5625 L 990.699219 482.460938 L 1002.46875 483.976562 L 1006.902344 471.824219 C 1009.628906 471.675781 1012.367188 471.308594 1015.089844 470.699219 L 1022.585938 481.269531 L 1033.542969 476.699219 L 1031.296875 463.933594 C 1033.648438 462.417969 1035.835938 460.734375 1037.847656 458.894531 L 1049.613281 464.285156 L 1056.808594 454.851562 L 1048.492188 444.910156 C 1049.742188 442.460938 1050.789062 439.90625 1051.621094 437.273438 L 1064.527344 436.0625 L 1066.042969 424.300781 L 1053.882812 419.855469 C 1053.746094 417.132812 1053.371094 414.398438 1052.769531 411.667969 L 1063.332031 404.167969 " fill-opacity="1" fill-rule="nonzero"/><path fill="#5479f7" d="M 879.367188 1037.300781 L 436.550781 1037.300781 C 417.710938 1037.300781 402.4375 1021.078125 402.4375 1001.066406 L 445.609375 47.480469 C 445.609375 27.46875 460.882812 11.246094 479.71875 11.246094 L 922.535156 11.246094 C 941.375 11.246094 956.652344 27.46875 956.652344 47.480469 L 913.480469 1001.066406 C 913.480469 1021.078125 898.207031 1037.300781 879.367188 1037.300781 " fill-opacity="1" fill-rule="nonzero"/><path fill="#99b9ff" d="M 853.148438 1037.632812 L 410.339844 1037.632812 C 391.5 1037.632812 376.226562 1021.441406 376.226562 1001.460938 L 419.398438 49.636719 C 419.398438 29.667969 434.667969 13.472656 453.511719 13.472656 L 896.324219 13.472656 C 915.164062 13.472656 930.441406 29.667969 930.441406 49.636719 L 887.269531 1001.460938 C 887.269531 1021.441406 871.996094 1037.632812 853.148438 1037.632812 " fill-opacity="1" fill-rule="nonzero"/><path fill="#ffffff" d="M 833.09375 1016.496094 L 429.476562 1016.496094 C 412.304688 1016.496094 398.382812 1001.738281 398.382812 983.53125 L 440.046875 69.921875 C 440.046875 51.71875 453.964844 36.953125 471.136719 36.953125 L 874.761719 36.953125 C 891.933594 36.953125 905.851562 51.71875 905.851562 69.921875 L 864.183594 983.53125 C 864.183594 1001.738281 850.269531 1016.496094 833.09375 1016.496094 " fill-opacity="1" fill-rule="nonzero"/><path fill="#99b9ff" d="M 578.96875 35.398438 L 589.648438 52.089844 C 596.132812 62.226562 607.011719 68.308594 618.640625 68.308594 L 726.472656 68.308594 C 737.851562 68.308594 748.527344 62.480469 755.070312 52.703125 L 766.632812 35.398438 L 578.96875 35.398438 " fill-opacity="1" fill-rule="nonzero"/><path fill="#000000" d="M 407.976562 286.191406 C 407.9375 286.191406 407.898438 286.191406 407.859375 286.191406 C 406.785156 286.125 405.960938 285.195312 406.023438 284.125 L 416.433594 107.125 C 416.496094 106.042969 417.4375 105.21875 418.496094 105.289062 C 419.570312 105.347656 420.394531 106.273438 420.332031 107.347656 L 409.921875 284.347656 C 409.859375 285.390625 409 286.191406 407.976562 286.191406 " fill-opacity="1" fill-rule="nonzero"/><path fill="#000000" d="M 660.390625 1039.585938 L 410.339844 1039.585938 C 390.453125 1039.585938 374.273438 1022.484375 374.273438 1001.460938 L 393.011719 588.695312 C 393.0625 587.621094 393.972656 586.78125 395.046875 586.835938 C 396.125 586.882812 396.960938 587.792969 396.910156 588.875 L 378.175781 1001.550781 C 378.175781 1020.332031 392.605469 1035.683594 410.339844 1035.683594 L 660.390625 1035.683594 C 661.46875 1035.683594 662.34375 1036.554688 662.34375 1037.632812 C 662.34375 1038.710938 661.46875 1039.585938 660.390625 1039.585938 " fill-opacity="1" fill-rule="nonzero"/><path fill="#000000" d="M 839.949219 1039.75 C 838.878906 1039.75 838.011719 1038.894531 837.992188 1037.820312 C 837.976562 1036.742188 838.84375 1035.859375 839.914062 1035.847656 L 853.125 1035.683594 C 870.882812 1035.683594 885.3125 1020.335938 885.3125 1001.460938 L 903.933594 590.800781 C 903.988281 589.722656 904.886719 588.871094 905.96875 588.941406 C 907.046875 588.988281 907.878906 589.902344 907.832031 590.980469 L 889.210938 1001.550781 C 889.210938 1022.484375 873.035156 1039.589844 853.148438 1039.589844 L 839.96875 1039.75 C 839.953125 1039.75 839.953125 1039.75 839.949219 1039.75 " fill-opacity="1" fill-rule="nonzero"/><path fill="#000000" d="M 905.886719 592.839844 C 905.855469 592.839844 905.824219 592.839844 905.800781 592.839844 C 904.71875 592.789062 903.890625 591.875 903.9375 590.800781 L 928.484375 49.554688 C 928.484375 30.777344 914.058594 15.425781 896.320312 15.425781 L 453.511719 15.425781 C 435.773438 15.425781 421.347656 30.777344 421.347656 49.644531 L 420.488281 68.664062 C 420.433594 69.742188 419.5 70.597656 418.449219 70.523438 C 417.371094 70.480469 416.535156 69.5625 416.585938 68.492188 L 417.445312 49.554688 C 417.445312 28.628906 433.625 11.523438 453.511719 11.523438 L 896.320312 11.523438 C 916.207031 11.523438 932.382812 28.628906 932.382812 49.644531 L 907.832031 590.976562 C 907.785156 592.019531 906.925781 592.839844 905.886719 592.839844 " fill-opacity="1" fill-rule="nonzero"/><path fill="#caddff" d="M 825.449219 688.734375 L 460.984375 688.734375 L 462.21875 666.671875 L 826.683594 666.671875 L 825.449219 688.734375 " fill-opacity="1" fill-rule="nonzero"/><path fill="#caddff" d="M 727.8125 732.175781 L 458.546875 732.175781 L 459.785156 710.113281 L 729.054688 710.113281 L 727.8125 732.175781 " fill-opacity="1" fill-rule="nonzero"/><path fill="#caddff" d="M 832.117188 570.484375 L 645.386719 570.484375 L 646.625 548.421875 L 833.355469 548.421875 L 832.117188 570.484375 " fill-opacity="1" fill-rule="nonzero"/><path fill="#caddff" d="M 830.277344 613.929688 L 642.949219 613.929688 L 644.1875 591.863281 L 831.511719 591.863281 L 830.277344 613.929688 " fill-opacity="1" fill-rule="nonzero"/><path fill="#caddff" d="M 818.847656 806.273438 L 454.382812 806.273438 L 455.625 784.210938 L 820.085938 784.210938 L 818.847656 806.273438 " fill-opacity="1" fill-rule="nonzero"/><path fill="#caddff" d="M 721.222656 849.714844 L 451.953125 849.714844 L 453.191406 827.652344 L 722.457031 827.652344 L 721.222656 849.714844 " fill-opacity="1" fill-rule="nonzero"/><path fill="#caddff" d="M 812.261719 923.8125 L 447.796875 923.8125 L 449.03125 901.738281 L 813.5 901.738281 L 812.261719 923.8125 " fill-opacity="1" fill-rule="nonzero"/><path fill="#caddff" d="M 714.628906 967.253906 L 445.359375 967.253906 L 446.597656 945.1875 L 715.867188 945.1875 L 714.628906 967.253906 " fill-opacity="1" fill-rule="nonzero"/><path fill="#caddff" d="M 614.273438 576.5625 C 612.128906 614.78125 580.898438 645.765625 544.527344 645.765625 C 508.148438 645.765625 480.402344 614.78125 482.539062 576.5625 C 484.683594 538.339844 515.914062 507.355469 552.289062 507.355469 C 588.664062 507.355469 616.417969 538.339844 614.273438 576.5625 " fill-opacity="1" fill-rule="nonzero"/><path fill="#caddff" d="M 819.726562 331.367188 C 817.574219 415.53125 748.199219 483.769531 664.769531 483.769531 C 581.34375 483.769531 515.460938 415.53125 517.613281 331.367188 C 519.773438 247.199219 589.144531 178.964844 672.574219 178.964844 C 756.003906 178.964844 821.886719 247.199219 819.726562 331.367188 " fill-opacity="1" fill-rule="nonzero"/><path fill="#5479f7" d="M 668.25 384.894531 L 666.359375 384.894531 C 649.222656 384.894531 635.695312 370.882812 636.140625 353.59375 L 638.5 261.414062 C 638.941406 244.125 653.191406 230.117188 670.324219 230.117188 L 672.214844 230.117188 C 689.339844 230.117188 702.875 244.125 702.4375 261.414062 L 700.078125 353.59375 C 699.632812 370.882812 685.378906 384.894531 668.25 384.894531 " fill-opacity="1" fill-rule="nonzero"/><path fill="#5479f7" d="M 666.683594 409.121094 C 638.019531 409.121094 615.304688 385.601562 616.046875 356.683594 C 616.136719 353.214844 619 350.398438 622.4375 350.398438 C 625.886719 350.398438 628.601562 353.214844 628.511719 356.683594 C 627.945312 378.667969 645.21875 396.546875 667.003906 396.546875 C 688.792969 396.546875 706.976562 378.667969 707.539062 356.683594 C 707.625 353.214844 710.488281 350.398438 713.933594 350.398438 C 717.375 350.398438 720.089844 353.214844 720 356.683594 C 719.257812 385.601562 695.34375 409.121094 666.683594 409.121094 " fill-opacity="1" fill-rule="nonzero"/><path fill="#5479f7" d="M 665.703125 447.355469 C 662.257812 447.355469 659.542969 444.539062 659.628906 441.070312 L 660.578125 404.140625 C 660.667969 400.660156 663.53125 397.847656 666.96875 397.847656 C 670.410156 397.847656 673.132812 400.660156 673.042969 404.140625 L 672.09375 441.070312 C 672.007812 444.539062 669.144531 447.355469 665.703125 447.355469 " fill-opacity="1" fill-rule="nonzero"/><path fill="#99b9ff" d="M 778.246094 278.671875 C 781.871094 278.777344 784.699219 281.589844 784.546875 284.949219 L 780.605469 377.019531 C 780.460938 380.378906 777.40625 383.015625 773.777344 382.910156 C 770.148438 382.804688 767.328125 379.992188 767.472656 376.632812 L 771.414062 284.5625 C 771.554688 281.199219 774.617188 278.566406 778.246094 278.671875 " fill-opacity="1" fill-rule="nonzero"/><path fill="#99b9ff" d="M 749.824219 249.25 C 753.449219 249.351562 756.285156 251.808594 756.152344 254.726562 L 750.070312 390.230469 C 749.929688 393.152344 746.890625 395.4375 743.257812 395.328125 C 739.632812 395.222656 736.800781 392.769531 736.929688 389.847656 L 743.011719 254.339844 C 743.152344 251.417969 746.191406 249.140625 749.824219 249.25 " fill-opacity="1" fill-rule="nonzero"/><path fill="#99b9ff" d="M 808.265625 266.4375 C 811.886719 266.542969 814.710938 269.828125 814.539062 273.785156 L 810.527344 372.035156 C 810.371094 375.984375 807.296875 379.101562 803.671875 378.996094 C 800.042969 378.886719 797.234375 375.59375 797.390625 371.644531 L 801.40625 273.394531 C 801.5625 269.445312 804.636719 266.332031 808.265625 266.4375 " fill-opacity="1" fill-rule="nonzero"/><path fill="#99b9ff" d="M 836.8125 302.449219 C 840.441406 302.554688 843.292969 304.386719 843.1875 306.546875 L 841.042969 348.996094 C 840.9375 351.152344 837.910156 352.820312 834.28125 352.714844 C 830.652344 352.609375 827.792969 350.765625 827.90625 348.609375 L 830.042969 306.160156 C 830.15625 304.003906 833.179688 302.34375 836.8125 302.449219 " fill-opacity="1" fill-rule="nonzero"/><path fill="#99b9ff" d="M 870.886719 350.417969 C 870.730469 354.179688 867.660156 357.140625 864.035156 357.039062 C 860.40625 356.933594 857.585938 353.796875 857.746094 350.035156 L 859.660156 303.816406 C 859.8125 300.050781 862.882812 297.082031 866.507812 297.191406 C 870.140625 297.296875 872.953125 300.4375 872.796875 304.199219 L 870.886719 350.417969 " fill-opacity="1" fill-rule="nonzero"/><path fill="#99b9ff" d="M 569.460938 280.277344 C 565.832031 280.382812 562.796875 282.515625 562.675781 285.035156 L 559.359375 354.199219 C 559.238281 356.722656 562.082031 358.6875 565.710938 358.574219 C 569.339844 358.46875 572.375 356.339844 572.5 353.816406 L 575.8125 284.652344 C 575.9375 282.128906 573.089844 280.167969 569.460938 280.277344 " fill-opacity="1" fill-rule="nonzero"/><path fill="#99b9ff" d="M 599.648438 246.292969 C 596.015625 246.390625 593.011719 248.90625 592.929688 251.90625 L 589.335938 390.992188 C 589.253906 393.992188 592.136719 396.335938 595.761719 396.226562 C 599.390625 396.125 602.398438 393.609375 602.472656 390.609375 L 606.070312 251.523438 C 606.148438 248.523438 603.273438 246.183594 599.648438 246.292969 " fill-opacity="1" fill-rule="nonzero"/><path fill="#99b9ff" d="M 539.160156 268.597656 C 535.53125 268.707031 532.515625 271.933594 532.441406 275.804688 L 530.421875 372.207031 C 530.332031 376.078125 533.210938 379.136719 536.835938 379.03125 C 540.464844 378.921875 543.464844 375.695312 543.554688 371.816406 L 545.578125 275.421875 C 545.660156 271.546875 542.789062 268.492188 539.160156 268.597656 " fill-opacity="1" fill-rule="nonzero"/><path fill="#99b9ff" d="M 509.675781 294.179688 C 506.050781 294.289062 503.003906 296.257812 502.878906 298.574219 L 500.382812 344.214844 C 500.253906 346.535156 503.089844 348.332031 506.71875 348.222656 C 510.34375 348.117188 513.394531 346.152344 513.523438 343.832031 L 516.019531 298.191406 C 516.144531 295.871094 513.304688 294.078125 509.675781 294.179688 " fill-opacity="1" fill-rule="nonzero"/><path fill="#99b9ff" d="M 471.535156 349.542969 C 471.453125 353.421875 474.332031 356.472656 477.957031 356.371094 C 481.582031 356.261719 484.59375 353.039062 484.671875 349.164062 L 485.675781 301.566406 C 485.753906 297.6875 482.878906 294.632812 479.253906 294.738281 C 475.621094 294.847656 472.617188 298.070312 472.535156 301.945312 L 471.535156 349.542969 " fill-opacity="1" fill-rule="nonzero"/><path fill="#5479f7" d="M 731.410156 1004.085938 C 731.410156 1004.085938 677.347656 885.558594 708.363281 731.902344 C 708.363281 731.902344 792.144531 802.128906 761.941406 1004.085938 L 731.410156 1004.085938 " fill-opacity="1" fill-rule="nonzero"/><path fill="#caddff" d="M 744.640625 993.679688 C 744.597656 993.679688 744.5625 993.679688 744.527344 993.679688 C 743.449219 993.617188 742.625 992.695312 742.683594 991.621094 C 746.824219 915.882812 712.671875 754.1875 712.332031 752.5625 C 712.105469 751.507812 712.777344 750.472656 713.832031 750.25 C 714.882812 750.023438 715.925781 750.695312 716.148438 751.75 C 716.496094 753.382812 750.75 915.589844 746.582031 991.832031 C 746.53125 992.871094 745.664062 993.679688 744.640625 993.679688 " fill-opacity="1" fill-rule="nonzero"/><path fill="#99b9ff" d="M 785.800781 811.382812 C 785.800781 811.382812 716.152344 937.257812 758.050781 991.726562 L 780.460938 991.726562 C 780.460938 991.726562 825.25 893.324219 785.800781 811.382812 " fill-opacity="1" fill-rule="nonzero"/><path fill="#caddff" d="M 768.515625 997.015625 C 767.472656 997.015625 766.605469 996.1875 766.566406 995.140625 C 765.136719 958.414062 774.164062 883.132812 779.664062 841.523438 C 779.804688 840.460938 780.777344 839.703125 781.855469 839.847656 C 782.925781 839.988281 783.675781 840.972656 783.535156 842.039062 C 778.042969 883.523438 769.050781 958.550781 770.460938 994.984375 C 770.503906 996.066406 769.667969 996.972656 768.589844 997.015625 C 768.558594 997.015625 768.535156 997.015625 768.515625 997.015625 " fill-opacity="1" fill-rule="nonzero"/><path fill="#99b9ff" d="M 652.820312 858.304688 C 652.820312 858.304688 712.15625 878.554688 733.644531 998.4375 L 710.304688 998.4375 C 710.304688 998.4375 661.597656 932.597656 652.820312 858.304688 " fill-opacity="1" fill-rule="nonzero"/><path fill="#caddff" d="M 720.886719 997.015625 C 719.949219 997.015625 719.117188 996.335938 718.964844 995.382812 C 710.140625 942.078125 671.976562 888.382812 671.59375 887.847656 C 670.964844 886.976562 671.164062 885.753906 672.042969 885.125 C 672.914062 884.496094 674.132812 884.703125 674.761719 885.574219 C 675.152344 886.113281 713.847656 940.550781 722.8125 994.746094 C 722.988281 995.804688 722.269531 996.8125 721.210938 996.988281 C 721.097656 997.007812 720.992188 997.015625 720.886719 997.015625 " fill-opacity="1" fill-rule="nonzero"/><path fill="#5479f7" d="M 675.707031 988.925781 L 822.09375 988.925781 L 825.375 1058.183594 C 826.183594 1075.164062 812.632812 1089.375 795.640625 1089.375 L 712.035156 1089.375 C 691.929688 1089.375 675.636719 1073.054688 675.652344 1052.9375 L 675.707031 988.925781 " fill-opacity="1" fill-rule="nonzero"/><path fill="#000000" d="M 677.660156 990.875 L 677.605469 1052.945312 C 677.601562 1062.148438 681.171875 1070.808594 687.683594 1077.320312 C 694.1875 1083.828125 702.839844 1087.417969 712.039062 1087.417969 L 795.648438 1087.417969 C 803.328125 1087.417969 810.480469 1084.355469 815.777344 1078.796875 C 821.078125 1073.234375 823.796875 1065.949219 823.425781 1058.277344 L 820.242188 990.875 Z M 795.648438 1091.324219 L 712.039062 1091.324219 C 701.792969 1091.324219 692.15625 1087.332031 684.917969 1080.078125 C 677.671875 1072.832031 673.695312 1063.191406 673.699219 1052.9375 L 673.761719 988.925781 C 673.761719 987.84375 674.636719 986.972656 675.714844 986.972656 L 822.097656 986.972656 C 823.140625 986.972656 823.996094 987.792969 824.046875 988.828125 L 827.332031 1058.089844 C 827.75 1066.84375 824.648438 1075.152344 818.601562 1081.492188 C 812.554688 1087.828125 804.402344 1091.324219 795.648438 1091.324219 " fill-opacity="1" fill-rule="nonzero"/><path fill="#ffffff" d="M 113.285156 1009.015625 L 107.722656 1048.066406 L 93.496094 1048.121094 L 92.824219 1009.714844 L 113.285156 1009.015625 " fill-opacity="1" fill-rule="nonzero"/><path fill="#000000" d="M 94.808594 1011.601562 L 95.414062 1046.164062 L 106.03125 1046.121094 L 111.023438 1011.046875 Z M 93.496094 1050.074219 C 92.429688 1050.074219 91.5625 1049.222656 91.542969 1048.15625 L 90.875 1009.75 C 90.855469 1008.683594 91.695312 1007.800781 92.757812 1007.765625 L 113.21875 1007.066406 C 113.792969 1007.042969 114.347656 1007.285156 114.734375 1007.714844 C 115.121094 1008.144531 115.296875 1008.71875 115.21875 1009.292969 L 109.65625 1048.34375 C 109.519531 1049.304688 108.699219 1050.015625 107.730469 1050.015625 L 93.503906 1050.074219 C 93.5 1050.074219 93.5 1050.074219 93.496094 1050.074219 " fill-opacity="1" fill-rule="nonzero"/><path fill="#ffffff" d="M 108.203125 1085.402344 C 102.621094 1085.996094 94.308594 1086.234375 83.199219 1085.257812 C 79.222656 1084.910156 76.421875 1081.226562 77.0625 1077.292969 C 78.789062 1066.691406 83.601562 1047.996094 91.191406 1039.417969 L 94.9375 1044.761719 L 97.164062 1039.238281 C 97.523438 1038.644531 106.953125 1038.25 107.148438 1039.371094 L 107.722656 1044.761719 L 113.074219 1038.761719 L 112.78125 1058.46875 C 112.75 1060.640625 112.957031 1062.816406 113.394531 1064.941406 L 114.804688 1071.75 C 115.648438 1075.851562 114.601562 1080.195312 111.738281 1083.246094 C 110.617188 1084.445312 109.375 1085.273438 108.203125 1085.402344 " fill-opacity="1" fill-rule="nonzero"/><path fill="#000000" d="M 91.09375 1042.675781 C 84.585938 1051.746094 80.464844 1068.546875 78.988281 1077.601562 C 78.765625 1078.988281 79.113281 1080.355469 79.96875 1081.457031 C 80.808594 1082.535156 82.015625 1083.195312 83.367188 1083.3125 C 95.175781 1084.351562 103.277344 1083.964844 107.996094 1083.460938 C 108.597656 1083.394531 109.46875 1082.816406 110.3125 1081.914062 C 112.671875 1079.398438 113.632812 1075.753906 112.890625 1072.152344 L 111.484375 1065.335938 C 111.015625 1063.074219 110.796875 1060.753906 110.832031 1058.4375 L 111.046875 1043.964844 L 109.179688 1046.0625 C 108.664062 1046.636719 107.855469 1046.859375 107.125 1046.617188 C 106.390625 1046.382812 105.863281 1045.734375 105.78125 1044.96875 L 105.328125 1040.71875 C 103.679688 1040.519531 100.210938 1040.601562 98.628906 1040.832031 L 96.75 1045.492188 C 96.484375 1046.152344 95.875 1046.617188 95.164062 1046.699219 C 94.453125 1046.789062 93.753906 1046.46875 93.34375 1045.878906 Z M 108.203125 1085.402344 L 108.214844 1085.402344 Z M 97.402344 1087.871094 C 93.386719 1087.871094 88.601562 1087.695312 83.027344 1087.203125 C 80.578125 1086.988281 78.398438 1085.796875 76.886719 1083.855469 C 75.378906 1081.914062 74.742188 1079.40625 75.136719 1076.976562 C 75.59375 1074.171875 79.878906 1049.261719 89.726562 1038.121094 C 90.125 1037.679688 90.695312 1037.449219 91.300781 1037.46875 C 91.898438 1037.503906 92.445312 1037.808594 92.789062 1038.296875 L 94.472656 1040.695312 L 95.355469 1038.511719 C 95.390625 1038.417969 95.4375 1038.320312 95.492188 1038.230469 C 96.863281 1035.945312 106.371094 1036.941406 106.460938 1036.953125 C 108 1037.238281 108.878906 1037.9375 109.070312 1039.027344 C 109.082031 1039.078125 109.085938 1039.117188 109.09375 1039.164062 L 109.199219 1040.175781 L 111.621094 1037.460938 C 112.164062 1036.851562 113.023438 1036.648438 113.785156 1036.941406 C 114.546875 1037.238281 115.039062 1037.972656 115.027344 1038.792969 L 114.734375 1058.496094 C 114.703125 1060.523438 114.898438 1062.5625 115.308594 1064.546875 L 116.710938 1071.359375 C 117.714844 1076.199219 116.386719 1081.152344 113.164062 1084.585938 C 111.628906 1086.214844 109.988281 1087.171875 108.410156 1087.34375 C 105.773438 1087.625 102.113281 1087.871094 97.402344 1087.871094 " fill-opacity="1" fill-rule="nonzero"/><path fill="#000000" d="M 98.027344 1080.910156 C 94.082031 1080.910156 89.1875 1080.601562 83.65625 1079.628906 C 82.597656 1079.441406 81.886719 1078.429688 82.074219 1077.367188 C 82.261719 1076.304688 83.273438 1075.597656 84.335938 1075.78125 C 97.886719 1078.175781 107.585938 1076.28125 107.679688 1076.261719 C 108.734375 1076.046875 109.765625 1076.730469 109.976562 1077.785156 C 110.191406 1078.839844 109.507812 1079.871094 108.453125 1080.082031 C 108.195312 1080.144531 104.308594 1080.910156 98.027344 1080.910156 " fill-opacity="1" fill-rule="nonzero"/><path fill="#000000" d="M 102.582031 1065.929688 L 89.671875 1065.929688 C 88.59375 1065.929688 87.722656 1065.058594 87.722656 1063.980469 C 87.722656 1062.902344 88.59375 1062.023438 89.671875 1062.023438 L 102.582031 1062.023438 C 103.65625 1062.023438 104.53125 1062.902344 104.53125 1063.980469 C 104.53125 1065.058594 103.65625 1065.929688 102.582031 1065.929688 " fill-opacity="1" fill-rule="nonzero"/><path fill="#ffffff" d="M 215.40625 1012.503906 L 220.414062 1058.019531 L 239.550781 1062.023438 L 238.382812 1008.65625 L 215.40625 1012.503906 " fill-opacity="1" fill-rule="nonzero"/><path fill="#000000" d="M 222.195312 1056.398438 L 237.542969 1059.617188 L 236.484375 1010.953125 L 217.546875 1014.125 Z M 239.550781 1063.980469 C 239.417969 1063.980469 239.285156 1063.964844 239.152344 1063.941406 L 220.011719 1059.925781 C 219.1875 1059.753906 218.566406 1059.066406 218.46875 1058.230469 L 213.464844 1012.714844 C 213.351562 1011.683594 214.0625 1010.746094 215.082031 1010.578125 L 238.0625 1006.734375 C 238.625 1006.640625 239.195312 1006.792969 239.628906 1007.152344 C 240.066406 1007.519531 240.324219 1008.050781 240.335938 1008.613281 L 241.503906 1061.984375 C 241.515625 1062.578125 241.257812 1063.152344 240.796875 1063.527344 C 240.445312 1063.824219 240.003906 1063.980469 239.550781 1063.980469 " fill-opacity="1" fill-rule="nonzero"/><path fill="#ffffff" d="M 212.316406 1079.722656 C 211.898438 1071.746094 211.886719 1057.058594 216.738281 1049.976562 L 232.050781 1055.429688 L 232.050781 1052.160156 C 232.050781 1051.105469 232.804688 1050.234375 233.765625 1050.179688 L 242.304688 1049.695312 C 245.488281 1049.507812 248.664062 1050.171875 251.574219 1051.601562 C 260.15625 1055.820312 286.277344 1066.648438 289.898438 1078.820312 C 290.964844 1082.417969 288.15625 1086.011719 284.414062 1086.117188 C 275.816406 1086.363281 255.152344 1086.628906 218.066406 1085.363281 C 214.976562 1085.257812 212.480469 1082.808594 212.316406 1079.722656 " fill-opacity="1" fill-rule="nonzero"/><path fill="#000000" d="M 217.589844 1052.347656 C 214.824219 1057.585938 213.621094 1067.371094 214.265625 1079.617188 C 214.375 1081.710938 216.039062 1083.34375 218.132812 1083.414062 C 254.773438 1084.667969 275.351562 1084.417969 284.359375 1084.164062 C 285.582031 1084.132812 286.746094 1083.511719 287.46875 1082.515625 C 288.148438 1081.574219 288.347656 1080.460938 288.027344 1079.382812 C 285.089844 1069.507812 264.441406 1059.816406 254.519531 1055.160156 C 253.042969 1054.464844 251.75 1053.863281 250.710938 1053.351562 C 248.105469 1052.066406 245.230469 1051.488281 242.414062 1051.636719 L 234.023438 1052.125 L 234.003906 1055.429688 C 234.003906 1056.070312 233.695312 1056.664062 233.175781 1057.027344 C 232.65625 1057.394531 231.996094 1057.480469 231.398438 1057.269531 Z M 267.285156 1088.273438 C 255.875 1088.273438 239.753906 1088.054688 218 1087.3125 C 213.867188 1087.171875 210.585938 1083.953125 210.367188 1079.824219 C 209.929688 1071.5 209.964844 1056.410156 215.132812 1048.875 C 215.632812 1048.140625 216.558594 1047.84375 217.394531 1048.136719 L 230.097656 1052.664062 L 230.097656 1052.160156 C 230.097656 1050.070312 231.660156 1048.347656 233.652344 1048.230469 L 242.191406 1047.742188 C 245.6875 1047.535156 249.226562 1048.265625 252.4375 1049.84375 C 253.457031 1050.347656 254.726562 1050.949219 256.175781 1051.625 C 267.414062 1056.898438 288.332031 1066.714844 291.769531 1078.269531 C 292.433594 1080.5 292.015625 1082.882812 290.628906 1084.804688 C 289.203125 1086.777344 286.898438 1087.996094 284.472656 1088.066406 C 280.777344 1088.171875 275.148438 1088.273438 267.285156 1088.273438 " fill-opacity="1" fill-rule="nonzero"/><path fill="#000000" d="M 261.355469 1080.714844 C 250.46875 1080.714844 235.757812 1080.230469 219.695312 1078.367188 C 218.625 1078.242188 217.859375 1077.28125 217.980469 1076.207031 C 218.105469 1075.132812 219.078125 1074.367188 220.144531 1074.492188 C 252.675781 1078.269531 279.566406 1076.300781 279.835938 1076.28125 C 280.914062 1076.195312 281.847656 1077.007812 281.925781 1078.082031 C 282.011719 1079.15625 281.203125 1080.09375 280.128906 1080.175781 C 279.988281 1080.183594 272.777344 1080.714844 261.355469 1080.714844 " fill-opacity="1" fill-rule="nonzero"/><path fill="#000000" d="M 256.609375 1067.6875 C 256.210938 1067.6875 255.8125 1067.5625 255.46875 1067.316406 L 240.730469 1056.714844 C 239.855469 1056.085938 239.65625 1054.863281 240.285156 1053.988281 C 240.914062 1053.109375 242.132812 1052.914062 243.007812 1053.546875 L 257.75 1064.144531 C 258.625 1064.777344 258.824219 1065.996094 258.191406 1066.875 C 257.8125 1067.402344 257.214844 1067.6875 256.609375 1067.6875 " fill-opacity="1" fill-rule="nonzero"/><path fill="#000000" d="M 218.050781 698.085938 C 218.050781 698.085938 248.8125 905.449219 242.964844 1031.097656 L 234.40625 1031.953125 C 229.800781 1032.410156 225.171875 1032.527344 220.550781 1032.292969 L 212.433594 1031.886719 C 175.960938 819.109375 166.710938 809.054688 159.613281 785.609375 C 159.613281 785.609375 118.953125 979.058594 117.238281 1025.042969 C 117.238281 1025.042969 97.492188 1027.027344 89.621094 1024.199219 C 85.394531 979.8125 84.171875 933.875 83.960938 905.039062 C 83.355469 822.5 91.242188 785.011719 95.5625 767.222656 C 99.53125 750.890625 103.792969 737.621094 106.902344 728.640625 L 117.289062 699 L 218.050781 698.085938 " fill-opacity="1" fill-rule="nonzero"/><path fill="#caddff" d="M 159.65625 794.175781 C 159.535156 794.175781 159.410156 794.164062 159.28125 794.144531 C 158.226562 793.9375 157.53125 792.910156 157.738281 791.851562 L 162.261719 768.625 C 162.269531 768.570312 162.28125 768.523438 162.296875 768.476562 C 163.726562 763.273438 167.894531 759.363281 173.179688 758.273438 L 177.449219 757.390625 C 178.503906 757.164062 179.535156 757.847656 179.753906 758.902344 C 179.972656 759.964844 179.296875 760.992188 178.238281 761.210938 L 173.96875 762.089844 C 170.152344 762.878906 167.132812 765.695312 166.078125 769.441406 L 161.570312 792.597656 C 161.390625 793.53125 160.574219 794.175781 159.65625 794.175781 " fill-opacity="1" fill-rule="nonzero"/><path fill="#caddff" d="M 105.441406 756.613281 C 104.503906 756.613281 103.675781 755.933594 103.515625 754.976562 C 103.339844 753.914062 104.058594 752.902344 105.121094 752.730469 C 123.558594 749.660156 130.324219 737.714844 132.378906 732.722656 C 132.785156 731.730469 133.929688 731.257812 134.925781 731.664062 C 135.921875 732.070312 136.398438 733.214844 135.988281 734.207031 C 133.6875 739.804688 126.136719 753.1875 105.761719 756.582031 C 105.65625 756.597656 105.546875 756.613281 105.441406 756.613281 " fill-opacity="1" fill-rule="nonzero"/><path fill="#caddff" d="M 217.742188 744.238281 C 217.484375 744.238281 217.21875 744.1875 216.964844 744.078125 C 201.835938 737.503906 200.078125 724.082031 200.011719 723.515625 C 199.882812 722.445312 200.648438 721.476562 201.71875 721.347656 C 202.785156 721.21875 203.757812 721.976562 203.886719 723.050781 C 203.945312 723.527344 205.515625 734.847656 218.519531 740.496094 C 219.507812 740.921875 219.964844 742.074219 219.535156 743.066406 C 219.214844 743.796875 218.496094 744.238281 217.742188 744.238281 " fill-opacity="1" fill-rule="nonzero"/><path fill="#5479f7" d="M 86.125 551.019531 C 91.472656 544.957031 102.3125 538.519531 110.183594 536.699219 C 125.128906 533.253906 144.273438 531.257812 161.339844 530.101562 L 171.039062 529.070312 C 175.996094 528.710938 180.679688 528.675781 185.125 528.902344 C 188.183594 528.792969 190.96875 528.714844 193.386719 528.660156 C 200.921875 528.488281 213.039062 530.925781 219.472656 534.855469 C 225.761719 538.691406 231.605469 543.394531 237.046875 548.632812 C 258.078125 565.550781 268.714844 587.335938 281.832031 588.640625 C 287.175781 589.167969 297.890625 556.808594 302.003906 543.699219 C 304.679688 535.171875 314.679688 531.363281 322.289062 536.058594 C 322.664062 536.289062 323.015625 536.523438 323.335938 536.753906 C 333.070312 543.699219 330.074219 559.34375 330.074219 559.34375 C 330.074219 559.34375 324.773438 646.554688 300.398438 650.066406 C 273.175781 653.988281 231.882812 620.84375 223.363281 618.574219 L 229.722656 655.96875 L 240.355469 708.3125 C 241.914062 718.460938 228.800781 721.683594 221.425781 721.621094 C 221.199219 721.613281 218.851562 703.289062 218.625 703.242188 C 195.015625 698.386719 164.574219 712.425781 140.757812 725.042969 C 110.21875 741.214844 82.550781 730.355469 80.398438 722.042969 C 78.25 713.734375 83.988281 663.136719 83.988281 663.136719 L 51.929688 660.484375 C 45.894531 659.984375 41.238281 654.9375 41.25 648.882812 C 41.324219 607.390625 70.375 568.859375 86.125 551.019531 " fill-opacity="1" fill-rule="nonzero"/><path fill="#ffffff" d="M 115.183594 594.660156 C 112.410156 598.398438 109.128906 601.734375 105.429688 604.5625 C 92.949219 614.113281 63.175781 637.179688 56.074219 645.152344 C 47.023438 655.304688 42.570312 659.234375 53.871094 680.632812 C 72.296875 715.507812 122.019531 612.734375 122.019531 612.734375 C 122.019531 612.734375 140.847656 613.554688 142.78125 596.882812 C 142.78125 596.882812 152.601562 597.375 156.359375 595.101562 C 159.238281 593.355469 158.394531 588.179688 154.234375 588.160156 L 127.125 586.839844 C 123.398438 586.6875 119.832031 588.390625 117.609375 591.390625 L 115.183594 594.660156 " fill-opacity="1" fill-rule="nonzero"/><path fill="#000000" d="M 116.75 595.828125 C 113.867188 599.714844 110.457031 603.171875 106.617188 606.113281 C 94.1875 615.628906 64.523438 638.609375 57.53125 646.449219 L 56.730469 647.34375 C 48.390625 656.675781 45.265625 660.167969 55.597656 679.722656 C 57.796875 683.882812 60.421875 685.902344 63.621094 685.902344 C 63.667969 685.902344 63.714844 685.902344 63.757812 685.902344 C 80.882812 685.597656 110.351562 632.371094 120.261719 611.886719 C 120.601562 611.1875 121.328125 610.746094 122.101562 610.785156 C 122.800781 610.820312 139.144531 611.304688 140.839844 596.65625 C 140.960938 595.636719 141.832031 594.882812 142.875 594.9375 C 146.445312 595.113281 152.988281 594.859375 155.347656 593.429688 C 156.082031 592.988281 156.210938 592.0625 156.027344 591.386719 C 155.867188 590.8125 155.421875 590.117188 154.226562 590.117188 L 127.03125 588.792969 C 123.953125 588.667969 121.019531 590.070312 119.175781 592.550781 Z M 63.613281 689.808594 C 58.898438 689.808594 55.042969 687.027344 52.148438 681.546875 C 40.992188 660.429688 44.378906 655.304688 53.820312 644.746094 L 54.617188 643.851562 C 61.832031 635.757812 91.726562 612.597656 104.242188 603.015625 C 107.796875 600.296875 110.949219 597.09375 113.617188 593.5 L 116.039062 590.222656 C 118.652344 586.699219 122.816406 584.695312 127.207031 584.890625 L 154.328125 586.214844 C 156.917969 586.222656 159.09375 587.84375 159.789062 590.339844 C 160.484375 592.84375 159.488281 595.492188 157.371094 596.769531 C 154.128906 598.730469 147.632812 598.921875 144.441406 598.882812 C 142.023438 611.203125 130.308594 614.589844 123.230469 614.703125 C 118.417969 624.457031 85.570312 689.417969 63.828125 689.804688 C 63.753906 689.808594 63.683594 689.808594 63.613281 689.808594 " fill-opacity="1" fill-rule="nonzero"/><path fill="#99b9ff" d="M 221.425781 721.621094 C 244.347656 720.109375 248.214844 708.339844 218.625 703.242188 L 221.425781 721.621094 " fill-opacity="1" fill-rule="nonzero"/><path fill="#5479f7" d="M 298.523438 481.957031 L 315.472656 563.496094 C 316.714844 569.472656 320.714844 573.625 324.402344 572.777344 L 330.476562 571.375 C 334.167969 570.527344 336.152344 564.992188 334.914062 559.027344 L 317.960938 477.480469 L 298.523438 481.957031 " fill-opacity="1" fill-rule="nonzero"/><path fill="#000000" d="M 300.820312 483.429688 L 317.386719 563.105469 C 318.054688 566.320312 319.667969 569.082031 321.601562 570.320312 C 322.4375 570.855469 323.234375 571.042969 323.964844 570.875 L 330.042969 569.472656 C 332.320312 568.949219 334.09375 564.695312 333 559.421875 L 316.453125 479.832031 Z M 323.425781 574.839844 C 322.101562 574.839844 320.765625 574.421875 319.496094 573.609375 C 316.667969 571.800781 314.453125 568.167969 313.5625 563.898438 L 296.613281 482.359375 C 296.398438 481.316406 297.050781 480.296875 298.085938 480.054688 L 317.523438 475.582031 C 318.03125 475.464844 318.570312 475.554688 319.011719 475.84375 C 319.453125 476.121094 319.761719 476.574219 319.871094 477.085938 L 336.820312 558.625 C 338.300781 565.738281 335.707031 572.175781 330.917969 573.277344 L 324.839844 574.671875 C 324.375 574.785156 323.898438 574.839844 323.425781 574.839844 " fill-opacity="1" fill-rule="nonzero"/><path fill="#ffffff" d="M 304.023438 563.855469 C 301 562.605469 299.457031 559.226562 300.472656 556.113281 C 303.527344 546.769531 305.675781 537.949219 302.171875 532.867188 C 299.132812 528.453125 296.265625 524.082031 296.984375 518.882812 L 298 511.070312 C 298.175781 509.851562 297.804688 505.363281 301.167969 506.15625 C 303.714844 506.765625 304.785156 508.988281 306.257812 518.800781 C 306.996094 523.734375 308.941406 526.007812 312.257812 528.046875 C 312.128906 527.328125 312.074219 526.480469 312.113281 525.554688 C 312.304688 521.335938 314.601562 517.480469 318.121094 515.136719 C 322.496094 512.21875 329.855469 508.320312 334.207031 513.207031 C 337.238281 516.613281 338.417969 524.285156 333.109375 531.765625 C 331.863281 533.511719 324.917969 541.109375 324.917969 541.109375 C 323.578125 542.90625 320.667969 561.183594 320.667969 561.183594 C 318.914062 570.769531 311.648438 567.015625 304.023438 563.855469 " fill-opacity="1" fill-rule="nonzero"/><path fill="#000000" d="M 300.425781 508.019531 C 300.390625 508.019531 300.375 508.019531 300.375 508.019531 C 300.121094 508.320312 300.035156 509.898438 300.003906 510.417969 C 299.984375 510.800781 299.964844 511.125 299.929688 511.355469 L 298.917969 519.136719 C 298.324219 523.445312 300.558594 527.085938 303.78125 531.757812 C 307.976562 537.84375 305.234375 547.835938 302.328125 556.722656 C 301.632812 558.855469 302.703125 561.199219 304.769531 562.054688 L 306.238281 562.667969 C 310.292969 564.371094 314.488281 566.136719 316.59375 564.992188 C 317.621094 564.441406 318.347656 563.035156 318.75 560.835938 C 319.859375 553.871094 321.9375 541.835938 323.351562 539.941406 C 323.390625 539.894531 323.433594 539.84375 323.476562 539.792969 C 325.386719 537.703125 330.550781 531.988281 331.519531 530.632812 C 336.554688 523.539062 334.945312 516.972656 332.75 514.507812 C 330.242188 511.691406 325.679688 512.445312 319.203125 516.761719 C 316.144531 518.800781 314.222656 522.117188 314.0625 525.640625 C 314.03125 526.386719 314.070312 527.097656 314.179688 527.695312 C 314.316406 528.457031 313.996094 529.226562 313.359375 529.660156 C 312.722656 530.089844 311.890625 530.109375 311.234375 529.707031 C 307.71875 527.550781 305.199219 524.917969 304.328125 519.097656 C 302.863281 509.316406 301.867188 508.332031 300.722656 508.058594 C 300.574219 508.027344 300.480469 508.019531 300.425781 508.019531 Z M 314.925781 569.265625 C 311.863281 569.265625 308.367188 567.792969 304.726562 566.265625 L 303.277344 565.660156 C 299.339844 564.027344 297.292969 559.574219 298.621094 555.507812 C 301.421875 546.925781 303.597656 538.375 300.566406 533.972656 C 297.730469 529.859375 294.203125 524.738281 295.050781 518.621094 L 296.0625 510.816406 C 296.089844 510.648438 296.097656 510.445312 296.109375 510.207031 C 296.191406 508.703125 296.324219 506.1875 298.105469 504.859375 C 298.769531 504.359375 299.921875 503.859375 301.621094 504.261719 C 305.550781 505.191406 306.707031 508.632812 308.1875 518.511719 C 308.566406 521.023438 309.261719 522.671875 310.3125 523.949219 C 310.945312 519.769531 313.386719 515.941406 317.035156 513.511719 C 327.445312 506.582031 332.910156 508.816406 335.667969 511.914062 C 339.425781 516.132812 340.359375 524.921875 334.699219 532.894531 C 333.46875 534.621094 327.550781 541.121094 326.464844 542.308594 C 325.742188 543.71875 323.925781 553.144531 322.597656 561.496094 C 321.953125 565.011719 320.601562 567.261719 318.453125 568.429688 C 317.363281 569.019531 316.179688 569.265625 314.925781 569.265625 " fill-opacity="1" fill-rule="nonzero"/><path fill="#5479f7" d="M 319.464844 484.699219 L 334.914062 559.027344 C 336.152344 564.992188 334.167969 570.527344 330.476562 571.375 L 324.402344 572.777344 C 320.714844 573.625 316.714844 569.472656 315.472656 563.496094 L 299.574219 487.101562 L 319.464844 484.699219 " fill-opacity="1" fill-rule="nonzero"/><path fill="#000000" d="M 301.914062 488.789062 L 317.386719 563.105469 C 318.054688 566.320312 319.667969 569.082031 321.601562 570.320312 C 322.4375 570.855469 323.234375 571.042969 323.964844 570.875 L 330.042969 569.472656 C 332.320312 568.949219 334.09375 564.695312 333 559.421875 L 317.917969 486.847656 Z M 323.425781 574.839844 C 322.101562 574.839844 320.765625 574.421875 319.496094 573.609375 C 316.667969 571.800781 314.453125 568.167969 313.5625 563.898438 L 297.660156 487.5 C 297.550781 486.964844 297.667969 486.40625 297.984375 485.964844 C 298.304688 485.515625 298.792969 485.230469 299.339844 485.164062 L 319.230469 482.757812 C 320.234375 482.648438 321.167969 483.308594 321.375 484.300781 L 336.820312 558.625 C 338.300781 565.738281 335.707031 572.175781 330.917969 573.277344 L 324.839844 574.671875 C 324.375 574.785156 323.898438 574.839844 323.425781 574.839844 " fill-opacity="1" fill-rule="nonzero"/><path fill="#ffffff" d="M 318.949219 533.289062 C 321.984375 533.597656 326.761719 532.917969 331.90625 529.425781 C 337.304688 525.757812 337.238281 516.613281 334.207031 513.207031 C 329.875 508.34375 322.566406 512.183594 318.183594 515.097656 C 314.632812 517.453125 311.273438 522.128906 311.355469 525.398438 C 311.480469 530.386719 313.269531 532.710938 318.949219 533.289062 " fill-opacity="1" fill-rule="nonzero"/><path fill="#000000" d="M 328.90625 512.828125 C 325.898438 512.828125 322.203125 514.765625 319.261719 516.722656 C 316.085938 518.832031 313.246094 522.945312 313.308594 525.355469 C 313.402344 529.171875 314.234375 530.84375 319.144531 531.34375 C 320.121094 531.445312 323.648438 531.585938 328.226562 529.292969 C 329.191406 528.816406 330.363281 529.207031 330.847656 530.171875 C 331.019531 530.515625 331.078125 530.890625 331.042969 531.246094 C 331.40625 530.785156 331.507812 530.644531 331.511719 530.636719 C 336.535156 523.515625 334.9375 516.960938 332.75 514.507812 C 332.558594 514.292969 332.066406 513.859375 332.058594 513.851562 C 331.171875 513.128906 330.09375 512.828125 328.90625 512.828125 Z M 330.078125 537.445312 C 329.636719 537.445312 329.191406 537.296875 328.828125 536.992188 C 328 536.296875 327.890625 535.070312 328.582031 534.238281 C 328.996094 533.742188 329.351562 533.3125 329.660156 532.941406 C 325.96875 534.726562 322.011719 535.550781 318.753906 535.226562 C 312.355469 534.582031 309.558594 531.65625 309.40625 525.449219 C 309.296875 521.214844 313.238281 516.039062 317.101562 513.46875 C 324.660156 508.449219 330.546875 507.582031 334.597656 510.882812 C 334.667969 510.945312 335.382812 511.59375 335.667969 511.914062 C 339.40625 516.117188 340.339844 524.894531 334.703125 532.890625 C 334.582031 533.058594 333.996094 533.847656 331.578125 536.742188 C 331.191406 537.207031 330.636719 537.445312 330.078125 537.445312 " fill-opacity="1" fill-rule="nonzero"/><path fill="#99b9ff" d="M 328.058594 399.960938 L 255.96875 426.4375 L 225.796875 444.363281 L 212.109375 458.136719 L 212.015625 458.25 C 209.425781 460.578125 208.671875 467.371094 210.285156 474.925781 C 211.878906 482.402344 215.355469 488.234375 218.640625 489.414062 L 218.523438 489.4375 L 235.71875 496.210938 L 270.320312 500.019531 L 347.59375 494.167969 L 430.925781 533.175781 L 431.539062 533.367188 C 410.609375 523.292969 389.023438 485.773438 378.90625 438.285156 C 368.796875 390.855469 373.207031 347.941406 388.195312 330.292969 L 388.179688 330.28125 L 328.816406 399.082031 L 328.058594 399.960938 " fill-opacity="1" fill-rule="nonzero"/><path fill="#000000" d="M 347.59375 492.214844 C 347.878906 492.214844 348.164062 492.277344 348.421875 492.402344 L 416.207031 524.132812 C 399.605469 506.910156 384.800781 475.3125 376.996094 438.695312 C 369.242188 402.308594 369.835938 367.664062 377.851562 345.234375 L 330.292969 400.355469 C 330.160156 400.507812 330.011719 400.636719 329.847656 400.738281 C 329.644531 401.214844 329.253906 401.605469 328.730469 401.792969 L 256.808594 428.207031 L 227.007812 445.910156 L 213.476562 459.539062 C 213.425781 459.597656 213.375 459.652344 213.316406 459.707031 C 211.574219 461.265625 210.589844 466.992188 212.195312 474.519531 C 213.765625 481.90625 217.03125 486.761719 219.300781 487.578125 C 219.480469 487.644531 219.644531 487.734375 219.789062 487.839844 L 236.195312 494.300781 L 270.355469 498.054688 L 347.449219 492.222656 C 347.496094 492.214844 347.542969 492.214844 347.59375 492.214844 Z M 431.539062 535.320312 C 431.34375 535.320312 431.15625 535.292969 430.964844 535.234375 L 430.347656 535.046875 C 430.265625 535.015625 430.179688 534.984375 430.097656 534.945312 L 347.230469 496.152344 L 270.46875 501.96875 C 270.347656 501.976562 270.230469 501.976562 270.105469 501.960938 L 235.507812 498.148438 C 235.335938 498.132812 235.167969 498.089844 235.003906 498.027344 L 217.808594 491.257812 C 217.625 491.179688 217.453125 491.078125 217.304688 490.960938 C 213.53125 489.082031 210 482.957031 208.375 475.332031 C 206.605469 467.035156 207.488281 459.816406 210.613281 456.882812 L 210.644531 456.855469 L 224.414062 442.984375 C 224.527344 442.867188 224.660156 442.765625 224.800781 442.683594 L 254.96875 424.761719 C 255.074219 424.699219 255.179688 424.648438 255.292969 424.605469 L 327.050781 398.25 C 327.125 398.09375 327.21875 397.945312 327.339844 397.804688 L 386.699219 329.003906 C 387.039062 328.609375 387.523438 328.367188 388.042969 328.332031 C 388.566406 328.292969 389.074219 328.46875 389.464844 328.816406 C 390.265625 329.515625 390.371094 330.746094 389.679688 331.554688 C 374.605469 349.308594 371.042969 392.03125 380.8125 437.882812 C 390.601562 483.796875 411.324219 521.464844 432.382812 531.609375 C 433.300781 532.050781 433.726562 533.132812 433.355469 534.078125 C 433.054688 534.84375 432.324219 535.320312 431.539062 535.320312 " fill-opacity="1" fill-rule="nonzero"/><path fill="#caddff" d="M 468.011719 419.621094 C 480.53125 478.335938 470.699219 530.117188 446.066406 535.277344 C 421.425781 540.4375 391.3125 497.011719 378.800781 438.292969 C 366.285156 379.578125 376.113281 327.796875 400.75 322.640625 C 425.386719 317.480469 455.503906 360.902344 468.011719 419.621094 " fill-opacity="1" fill-rule="nonzero"/><path fill="#000000" d="M 404.902344 324.164062 C 403.636719 324.164062 402.386719 324.289062 401.148438 324.550781 C 395.699219 325.691406 390.90625 329.386719 386.898438 335.539062 C 374.085938 355.226562 371.652344 395.398438 380.710938 437.886719 C 392.332031 492.433594 419.101562 533.75 441.90625 533.75 C 443.175781 533.757812 444.429688 533.625 445.664062 533.363281 C 451.113281 532.222656 455.90625 528.527344 459.910156 522.375 C 472.734375 502.6875 475.15625 462.515625 466.105469 420.027344 C 454.476562 365.484375 427.710938 324.164062 404.902344 324.164062 Z M 442.003906 537.648438 C 430.453125 537.648438 417.945312 528.671875 406.285156 511.851562 C 393.433594 493.332031 382.996094 467.347656 376.890625 438.703125 C 367.632812 395.25 370.273438 353.921875 383.628906 333.414062 C 388.222656 326.355469 393.847656 322.085938 400.347656 320.730469 C 413.078125 318.058594 427.355469 327.058594 440.527344 346.0625 C 453.382812 364.585938 463.816406 390.5625 469.917969 419.214844 C 479.183594 462.664062 476.535156 503.992188 463.183594 524.507812 C 458.585938 531.5625 452.960938 535.832031 446.464844 537.191406 C 445 537.492188 443.507812 537.648438 442.003906 537.648438 " fill-opacity="1" fill-rule="nonzero"/><path fill="#000000" d="M 439.167969 520.0625 C 418.121094 520.0625 394.703125 485.09375 384.484375 437.128906 C 376.726562 400.734375 378.953125 366.105469 390.148438 348.902344 C 394.035156 342.9375 398.796875 339.328125 404.3125 338.171875 C 418.953125 335.113281 435.574219 350.019531 448.753906 378.054688 C 449.210938 379.035156 448.792969 380.195312 447.820312 380.65625 C 446.84375 381.113281 445.675781 380.695312 445.222656 379.722656 C 433.046875 353.820312 417.683594 339.375 405.109375 341.996094 C 400.648438 342.925781 396.71875 345.96875 393.421875 351.035156 C 382.757812 367.410156 380.75 400.886719 388.300781 436.316406 C 398.339844 483.429688 423.015625 519.835938 442.179688 515.84375 C 459.785156 512.160156 467.929688 476.597656 461.132812 433.128906 C 460.960938 432.0625 461.691406 431.066406 462.757812 430.894531 C 463.824219 430.734375 464.820312 431.457031 464.984375 432.527344 C 472.230469 478.832031 462.976562 515.476562 442.972656 519.667969 C 441.71875 519.929688 440.445312 520.0625 439.167969 520.0625 " fill-opacity="1" fill-rule="nonzero"/><path fill="#99b9ff" d="M 420.71875 429.597656 C 423.457031 442.449219 421.308594 453.785156 415.917969 454.914062 C 410.527344 456.042969 403.9375 446.535156 401.195312 433.683594 C 398.457031 420.828125 400.609375 409.496094 405.996094 408.371094 C 411.386719 407.238281 417.976562 416.742188 420.71875 429.597656 " fill-opacity="1" fill-rule="nonzero"/><path fill="#000000" d="M 406.890625 410.222656 C 406.722656 410.222656 406.558594 410.242188 406.398438 410.277344 C 405.617188 410.4375 404.890625 411.027344 404.246094 412.023438 C 402.121094 415.285156 400.945312 423.121094 403.105469 433.273438 C 405.714844 445.503906 411.800781 453.765625 415.519531 453 C 416.296875 452.84375 417.023438 452.253906 417.667969 451.257812 C 419.796875 447.992188 420.972656 440.15625 418.808594 430.003906 C 416.3125 418.304688 410.628906 410.222656 406.890625 410.222656 Z M 415.042969 456.953125 C 408.753906 456.953125 402.152344 447.53125 399.289062 434.085938 C 397.148438 424.046875 397.792969 414.773438 400.976562 409.886719 C 402.191406 408.023438 403.789062 406.832031 405.597656 406.453125 C 412.246094 405.046875 419.566406 414.839844 422.628906 429.191406 C 424.765625 439.230469 424.117188 448.507812 420.9375 453.390625 C 419.722656 455.257812 418.125 456.445312 416.316406 456.824219 C 415.894531 456.914062 415.46875 456.953125 415.042969 456.953125 " fill-opacity="1" fill-rule="nonzero"/><path fill="#000000" d="M 347.59375 492.214844 C 347.878906 492.214844 348.164062 492.277344 348.421875 492.402344 L 416.207031 524.132812 C 399.605469 506.910156 384.800781 475.3125 376.996094 438.695312 C 369.242188 402.308594 369.835938 367.664062 377.851562 345.234375 L 329.535156 401.238281 C 329.320312 401.488281 329.042969 401.679688 328.730469 401.792969 L 256.808594 428.207031 L 227.007812 445.910156 L 213.476562 459.539062 C 213.425781 459.597656 213.375 459.652344 213.316406 459.707031 C 211.574219 461.265625 210.589844 466.992188 212.195312 474.519531 C 213.765625 481.90625 217.03125 486.761719 219.300781 487.578125 C 219.480469 487.644531 219.644531 487.734375 219.789062 487.839844 L 236.195312 494.300781 L 270.355469 498.054688 L 347.449219 492.222656 C 347.496094 492.214844 347.542969 492.214844 347.59375 492.214844 Z M 431.539062 535.320312 C 431.34375 535.320312 431.15625 535.292969 430.964844 535.234375 L 430.347656 535.046875 C 430.265625 535.015625 430.179688 534.984375 430.097656 534.945312 L 347.230469 496.152344 L 270.46875 501.96875 C 270.347656 501.976562 270.230469 501.976562 270.105469 501.960938 L 235.507812 498.148438 C 235.335938 498.132812 235.167969 498.089844 235.003906 498.027344 L 217.808594 491.257812 C 217.625 491.179688 217.453125 491.078125 217.304688 490.960938 C 213.53125 489.082031 210 482.957031 208.375 475.332031 C 206.605469 467.035156 207.488281 459.816406 210.613281 456.882812 L 210.644531 456.855469 L 224.414062 442.984375 C 224.527344 442.867188 224.660156 442.765625 224.800781 442.683594 L 254.96875 424.761719 C 255.074219 424.699219 255.179688 424.648438 255.292969 424.605469 L 326.910156 398.304688 L 386.699219 329.003906 C 387.039062 328.609375 387.523438 328.367188 388.042969 328.332031 C 388.566406 328.292969 389.074219 328.46875 389.464844 328.816406 C 390.265625 329.515625 390.371094 330.746094 389.679688 331.554688 C 374.605469 349.308594 371.042969 392.03125 380.8125 437.882812 C 390.601562 483.796875 411.324219 521.464844 432.382812 531.609375 C 433.300781 532.050781 433.726562 533.132812 433.355469 534.078125 C 433.054688 534.84375 432.324219 535.320312 431.539062 535.320312 " fill-opacity="1" fill-rule="nonzero"/><path fill="#5479f7" d="M 328.234375 399.753906 L 388.179688 330.28125 L 388.195312 330.292969 C 373.207031 347.941406 368.796875 390.855469 378.90625 438.285156 C 389.023438 485.773438 410.609375 523.292969 431.539062 533.367188 L 430.925781 533.175781 L 347.730469 494.234375 L 345.800781 493.335938 C 336.144531 488.757812 326.214844 471.816406 321.683594 450.339844 C 317.035156 428.285156 320.570312 408.539062 327.488281 400.597656 L 328.234375 399.753906 " fill-opacity="1" fill-rule="nonzero"/><path fill="#000000" d="M 328.238281 399.753906 L 328.25 399.753906 Z M 377.851562 345.234375 L 329.714844 401.027344 C 329.707031 401.039062 329.699219 401.046875 329.695312 401.050781 L 328.945312 401.894531 C 322.761719 408.992188 318.929688 427.789062 323.59375 449.9375 C 327.828125 470.027344 337.304688 487.152344 346.636719 491.574219 L 348.550781 492.457031 L 416.207031 524.132812 C 399.605469 506.910156 384.800781 475.3125 376.996094 438.695312 C 369.242188 402.308594 369.835938 367.664062 377.851562 345.234375 Z M 431.539062 535.320312 C 431.34375 535.320312 431.15625 535.292969 430.964844 535.234375 L 430.347656 535.046875 C 430.265625 535.015625 430.179688 534.984375 430.097656 534.945312 L 344.980469 495.109375 C 334.441406 490.109375 324.316406 472.285156 319.773438 450.738281 C 315.351562 429.757812 317.921875 408.609375 326.015625 399.3125 L 326.765625 398.46875 L 386.699219 329.003906 C 387.039062 328.609375 387.523438 328.367188 388.042969 328.332031 C 388.566406 328.292969 389.074219 328.46875 389.464844 328.816406 C 390.265625 329.515625 390.371094 330.746094 389.679688 331.554688 C 374.605469 349.308594 371.042969 392.03125 380.8125 437.882812 C 390.601562 483.796875 411.324219 521.464844 432.382812 531.609375 C 433.300781 532.050781 433.726562 533.132812 433.355469 534.078125 C 433.054688 534.84375 432.324219 535.320312 431.539062 535.320312 " fill-opacity="1" fill-rule="nonzero"/><path fill="#000000" d="M 234.792969 497.796875 C 234.554688 497.796875 234.3125 497.757812 234.078125 497.660156 L 217.808594 491.257812 C 217.625 491.179688 217.453125 491.078125 217.304688 490.960938 C 213.53125 489.082031 210 482.957031 208.375 475.332031 C 206.605469 467.035156 207.488281 459.816406 210.613281 456.882812 L 210.644531 456.855469 L 224.414062 442.984375 C 225.171875 442.226562 226.410156 442.21875 227.171875 442.976562 C 227.9375 443.738281 227.941406 444.976562 227.179688 445.742188 L 213.476562 459.539062 C 213.425781 459.597656 213.375 459.652344 213.316406 459.707031 C 211.574219 461.265625 210.589844 466.992188 212.195312 474.519531 C 213.765625 481.90625 217.03125 486.761719 219.300781 487.578125 C 219.480469 487.644531 219.644531 487.734375 219.789062 487.839844 L 235.507812 494.03125 C 236.511719 494.425781 237.003906 495.558594 236.609375 496.558594 C 236.308594 497.332031 235.570312 497.796875 234.792969 497.796875 " fill-opacity="1" fill-rule="nonzero"/><path fill="#5479f7" d="M 235.902344 496.160156 C 230.558594 494.273438 225.0625 484.457031 222.464844 472.265625 C 219.710938 459.359375 221.550781 447.277344 226.273438 444.101562 L 212.109375 458.136719 L 212.015625 458.25 C 209.425781 460.578125 208.671875 467.371094 210.285156 474.925781 C 211.878906 482.402344 215.355469 488.234375 218.640625 489.414062 L 218.523438 489.4375 L 235.902344 496.160156 " fill-opacity="1" fill-rule="nonzero"/><path fill="#000000" d="M 219.78125 487.828125 L 227.550781 490.839844 C 224.601562 486.25 222.097656 479.902344 220.558594 472.675781 C 219.046875 465.585938 218.832031 458.761719 219.757812 453.308594 L 213.476562 459.539062 C 213.425781 459.597656 213.375 459.652344 213.316406 459.707031 C 211.574219 461.265625 210.589844 466.992188 212.195312 474.519531 C 213.765625 481.90625 217.03125 486.761719 219.300781 487.578125 C 219.476562 487.640625 219.632812 487.726562 219.78125 487.828125 Z M 235.902344 498.109375 C 235.6875 498.109375 235.46875 498.074219 235.253906 497.996094 C 235.109375 497.949219 234.96875 497.890625 234.824219 497.832031 L 217.820312 491.257812 C 217.628906 491.183594 217.457031 491.085938 217.304688 490.960938 C 213.53125 489.082031 210 482.957031 208.375 475.332031 C 206.605469 467.035156 207.488281 459.816406 210.613281 456.882812 L 210.644531 456.855469 C 210.675781 456.820312 210.703125 456.789062 210.738281 456.753906 L 223.105469 444.492188 C 223.730469 443.671875 224.421875 442.996094 225.183594 442.484375 C 226.023438 441.917969 227.148438 442.089844 227.785156 442.867188 C 228.421875 443.644531 228.363281 444.78125 227.648438 445.488281 L 226.015625 447.109375 C 223.277344 451.015625 221.964844 460.554688 224.375 471.859375 C 227.054688 484.445312 232.320312 492.523438 236.261719 494.203125 L 236.605469 494.339844 C 237.601562 494.71875 238.101562 495.835938 237.730469 496.835938 C 237.441406 497.621094 236.695312 498.109375 235.902344 498.109375 " fill-opacity="1" fill-rule="nonzero"/><path fill="#caddff" d="M 269.058594 499.875 L 270.539062 499.980469 C 262.472656 499.476562 253.601562 484.664062 249.609375 465.933594 C 245.539062 446.832031 248.472656 429.679688 255.96875 426.4375 L 254.957031 427.039062 L 226.355469 444.050781 C 221.570312 447.144531 219.695312 459.28125 222.464844 472.265625 C 225.136719 484.804688 231.023438 494.808594 236.503906 496.285156 L 269.058594 499.875 " fill-opacity="1" fill-rule="nonzero"/><path fill="#000000" d="M 236.878906 494.355469 L 261.578125 497.089844 C 255.773438 491.097656 250.613281 480.015625 247.699219 466.339844 C 244.925781 453.328125 245.304688 441.21875 248.242188 433.304688 L 227.355469 445.722656 C 223.757812 448.050781 221.660156 459.132812 224.375 471.859375 C 227.152344 484.90625 232.859375 493.136719 236.878906 494.355469 Z M 270.539062 501.9375 C 270.5 501.9375 270.460938 501.933594 270.414062 501.933594 C 270.371094 501.933594 270.324219 501.925781 270.277344 501.917969 L 268.921875 501.828125 C 268.894531 501.828125 268.871094 501.820312 268.84375 501.820312 L 236.289062 498.222656 C 236.191406 498.210938 236.089844 498.191406 235.992188 498.167969 C 229.746094 496.484375 223.394531 486 220.558594 472.675781 C 217.605469 458.820312 219.597656 446.09375 225.296875 442.40625 L 253.335938 425.730469 C 253.921875 425.289062 254.542969 424.925781 255.191406 424.648438 C 256.136719 424.234375 257.238281 424.636719 257.707031 425.550781 C 258.171875 426.46875 257.847656 427.59375 256.960938 428.117188 L 255.476562 429.003906 C 250.4375 433.003906 247.609375 447.191406 251.519531 465.527344 C 255.730469 485.292969 264.492188 497.539062 270.574219 498.03125 L 270.679688 498.039062 C 271.75 498.117188 272.558594 499.039062 272.488281 500.117188 C 272.417969 501.144531 271.558594 501.9375 270.539062 501.9375 " fill-opacity="1" fill-rule="nonzero"/><path fill="#000000" d="M 405.996094 408.371094 C 400.609375 409.496094 398.230469 420.878906 401.195312 433.683594 C 406.179688 455.152344 414.820312 455.144531 415.859375 455.066406 C 415.875 455.0625 415.882812 455.09375 415.863281 455.097656 L 394.667969 464.304688 C 391.546875 455.75 388.863281 446.457031 386.769531 436.640625 C 384.765625 427.234375 383.453125 418.042969 382.789062 409.304688 L 405.996094 408.371094 " fill-opacity="1" fill-rule="nonzero"/><path fill="#000000" d="M 384.898438 411.171875 C 385.609375 419.378906 386.878906 427.800781 388.675781 436.230469 C 390.554688 445.046875 392.949219 453.59375 395.804688 461.683594 L 410.476562 455.308594 C 406.863281 452.910156 402.34375 447.269531 399.296875 434.125 C 397.132812 424.789062 397.628906 415.640625 400.546875 410.542969 Z M 393.546875 466.921875 L 392.835938 464.976562 C 389.613281 456.140625 386.925781 446.75 384.859375 437.042969 C 382.878906 427.753906 381.527344 418.46875 380.84375 409.453125 L 380.6875 407.4375 L 405.917969 406.414062 L 406.398438 410.277344 C 405.578125 410.449219 404.820312 411.074219 404.136719 412.144531 C 401.972656 415.539062 400.808594 423.375 403.097656 433.238281 C 407.796875 453.496094 415.628906 453.125 415.707031 453.117188 L 417.355469 452.988281 L 418.160156 456.191406 L 416.65625 456.882812 L 393.546875 466.921875 " fill-opacity="1" fill-rule="nonzero"/><path fill="#ffffff" d="M 138.246094 531.4375 L 133.519531 493.625 L 166.414062 503.796875 L 169.738281 525.941406 C 170.535156 531.894531 166.117188 536.066406 166.117188 536.066406 C 160.730469 541.71875 151.933594 542.402344 144.875 539.105469 L 143.242188 538.339844 C 140.507812 537.054688 138.621094 534.449219 138.246094 531.4375 " fill-opacity="1" fill-rule="nonzero"/><path fill="#000000" d="M 140.179688 531.199219 C 140.476562 533.5625 141.929688 535.570312 144.070312 536.570312 L 145.703125 537.339844 C 152.425781 540.484375 160.242188 539.410156 164.703125 534.722656 C 164.808594 534.617188 168.453125 531.050781 167.800781 526.199219 L 164.664062 505.296875 L 135.832031 496.382812 Z M 153.757812 543.074219 C 150.546875 543.074219 147.21875 542.359375 144.046875 540.875 L 142.417969 540.105469 C 139.050781 538.53125 136.769531 535.382812 136.308594 531.679688 L 131.582031 493.867188 C 131.5 493.214844 131.757812 492.558594 132.265625 492.128906 C 132.773438 491.703125 133.460938 491.5625 134.097656 491.761719 L 166.988281 501.933594 C 167.707031 502.15625 168.230469 502.765625 168.34375 503.503906 L 171.667969 525.652344 C 172.589844 532.546875 167.667969 537.285156 167.460938 537.484375 C 163.972656 541.148438 159.011719 543.074219 153.757812 543.074219 " fill-opacity="1" fill-rule="nonzero"/><path fill="#000000" d="M 163.164062 437.496094 C 155.152344 439.265625 167.335938 444.597656 135.796875 444.304688 C 123.238281 444.191406 132.914062 456.109375 129.65625 456.085938 C 117.621094 456.011719 118.03125 456 113 458.964844 C 109.667969 460.933594 109.1875 468.238281 111.253906 473.011719 C 113.980469 479.3125 119.851562 479.484375 128.507812 491.980469 C 134.585938 500.761719 135.417969 506.90625 139.707031 507.222656 C 144.039062 507.546875 145.460938 501.4375 150.226562 501.433594 C 156.386719 501.425781 158.03125 511.65625 164.742188 514.195312 C 168.972656 515.796875 177.46875 514.695312 188.757812 504.625 C 190.585938 502.992188 191.003906 500.273438 189.734375 498.160156 C 188.113281 495.464844 186.042969 492.058594 183.796875 488.972656 C 173.085938 474.265625 166.210938 472.203125 167.132812 467.347656 C 168.550781 459.914062 181.90625 460.171875 182.445312 454.238281 C 183.003906 448.074219 174.128906 435.070312 163.164062 437.496094 " fill-opacity="1" fill-rule="nonzero"/><path fill="#ffffff" d="M 143.574219 473.5625 L 147.007812 477.144531 C 148.628906 478.835938 150.125 480.632812 151.5 482.523438 C 154.074219 486.082031 158.546875 492.164062 161.308594 495.375 C 165.367188 500.097656 180.8125 488.5625 180.8125 488.5625 L 180.914062 484.910156 L 182.699219 483.519531 C 183.039062 483.253906 183.335938 482.914062 183.5 482.507812 C 183.914062 481.488281 183.605469 480.386719 182.828125 479.726562 C 178.574219 476.121094 169.503906 467.902344 164.738281 459.566406 C 164.738281 459.566406 150.964844 459.871094 143.574219 473.5625 " fill-opacity="1" fill-rule="nonzero"/><path fill="#000000" d="M 145.992188 473.269531 L 148.417969 475.796875 C 150.09375 477.539062 151.660156 479.421875 153.082031 481.382812 C 155.53125 484.765625 160.050781 490.921875 162.789062 494.101562 C 164.414062 496 172.394531 492.246094 178.890625 487.554688 L 178.964844 484.859375 C 178.980469 484.273438 179.257812 483.734375 179.714844 483.375 L 181.496094 481.980469 C 181.621094 481.886719 181.679688 481.808594 181.691406 481.769531 C 181.792969 481.523438 181.6875 481.316406 181.566406 481.21875 C 176.921875 477.28125 168.605469 469.644531 163.683594 461.609375 C 160.578125 461.984375 151.691406 463.878906 145.992188 473.269531 Z M 164.234375 498.453125 C 162.472656 498.453125 160.929688 497.929688 159.828125 496.648438 C 157 493.355469 152.40625 487.101562 149.917969 483.671875 C 148.601562 481.851562 147.152344 480.113281 145.601562 478.5 L 142.164062 474.917969 C 141.578125 474.304688 141.453125 473.378906 141.855469 472.636719 C 149.699219 458.109375 164.089844 457.625 164.699219 457.613281 C 165.449219 457.636719 166.078125 457.972656 166.433594 458.597656 C 171.121094 466.792969 180.34375 475.058594 184.085938 478.234375 C 185.535156 479.460938 186.023438 481.472656 185.308594 483.238281 C 185.027344 483.933594 184.542969 484.558594 183.898438 485.0625 L 182.839844 485.890625 L 182.765625 488.625 C 182.75 489.21875 182.457031 489.773438 181.984375 490.132812 C 178.914062 492.417969 170.253906 498.453125 164.234375 498.453125 " fill-opacity="1" fill-rule="nonzero"/><path fill="#ffffff" d="M 150.882812 487.398438 C 150.882812 487.398438 142.628906 478.769531 139.53125 483.378906 C 136.4375 487.988281 145.757812 497.246094 150.882812 487.398438 " fill-opacity="1" fill-rule="nonzero"/><path fill="#5479f7" d="M 260.347656 355.089844 L 198.488281 363.625 C 190.863281 364.675781 184.546875 370.082031 182.320312 377.449219 L 170.996094 414.910156 L 145.890625 381.191406 C 141.597656 375.421875 134.515625 372.453125 127.402344 373.433594 L 70.511719 381.28125 C 59.730469 382.773438 49.789062 375.230469 48.304688 364.441406 L 31.65625 243.558594 C 30.171875 232.765625 37.703125 222.808594 48.484375 221.320312 L 238.316406 195.128906 C 249.097656 193.640625 259.039062 201.179688 260.527344 211.96875 L 277.171875 332.859375 C 278.65625 343.648438 271.125 353.601562 260.347656 355.089844 " fill-opacity="1" fill-rule="nonzero"/><path fill="#ffffff" d="M 153.742188 284.292969 C 153.625 285.265625 152.613281 286.109375 151.214844 286.460938 C 149.429688 300.648438 145.527344 316.816406 140.15625 327.746094 C 137.441406 326.335938 132.332031 324.480469 129.226562 323.632812 C 134.410156 313.792969 137.832031 298.074219 139.085938 283.984375 Z M 192.957031 242.488281 C 193.019531 243.054688 193.078125 256.617188 191.308594 271.351562 L 183.320312 271.84375 C 190.65625 282.328125 197.507812 296.507812 200.542969 306.539062 L 188.914062 314.449219 C 186.289062 304.289062 179.328125 289.394531 172.28125 278.8125 L 182.882812 271.835938 L 180.285156 272.023438 C 180.4375 268.371094 180.4375 263.363281 180.535156 258.214844 L 167.441406 261.453125 L 173.824219 320.371094 C 174.957031 330.835938 173.351562 336.292969 154.710938 341.226562 C 153.632812 337.394531 151.027344 331.734375 148.796875 328.554688 C 153.332031 327.480469 157.957031 326.277344 159.460938 325.886719 C 160.851562 325.515625 161.234375 324.949219 161.074219 323.464844 L 154.699219 264.605469 L 143.179688 267.457031 C 140.589844 276.324219 137.476562 284.507812 133.761719 291.328125 C 131.210938 289.382812 126.089844 286.421875 122.925781 285.09375 C 129.878906 272.984375 134.5625 253.472656 136.25 235.203125 L 151.800781 235.804688 C 151.578125 236.796875 150.683594 237.714844 149.058594 237.992188 C 148.40625 243.183594 147.539062 248.429688 146.441406 253.625 L 186.0625 243.9375 Z M 128.507812 241.765625 C 128.292969 242.875 127.269531 243.710938 125.625 243.988281 C 123.742188 253.398438 121.324219 263.070312 118.523438 272.371094 L 122.78125 272.382812 C 122.6875 273.582031 121.902344 274.609375 120.070312 275.300781 L 127.964844 348.191406 L 114.972656 351.628906 L 109.152344 297.894531 C 107.160156 302.429688 105.035156 306.765625 102.855469 310.640625 C 100.757812 307.96875 96.238281 302.816406 93.59375 300.390625 C 102.097656 285.914062 109.449219 262.195312 112.933594 240.441406 L 128.507812 241.765625 " fill-opacity="1" fill-rule="nonzero"/><path fill="#000000" d="M 1023.398438 193.941406 C 1018.058594 193.941406 1013.722656 198.289062 1013.722656 203.625 C 1013.722656 208.964844 1018.058594 213.304688 1023.398438 213.304688 C 1028.742188 213.304688 1033.078125 208.964844 1033.078125 203.625 C 1033.078125 198.289062 1028.742188 193.941406 1023.398438 193.941406 Z M 1023.398438 217.214844 C 1015.910156 217.214844 1009.8125 211.117188 1009.8125 203.625 C 1009.8125 196.132812 1015.910156 190.039062 1023.398438 190.039062 C 1030.886719 190.039062 1036.988281 196.132812 1036.988281 203.625 C 1036.988281 211.117188 1030.886719 217.214844 1023.398438 217.214844 " fill-opacity="1" fill-rule="nonzero"/><path fill="#000000" d="M 160.164062 153.554688 C 160.070312 153.554688 159.980469 153.542969 159.890625 153.53125 C 158.820312 153.382812 158.078125 152.398438 158.226562 151.328125 L 159.632812 141.328125 C 159.785156 140.261719 160.773438 139.523438 161.839844 139.671875 C 162.90625 139.816406 163.648438 140.800781 163.5 141.871094 L 162.09375 151.871094 C 161.957031 152.847656 161.121094 153.554688 160.164062 153.554688 " fill-opacity="1" fill-rule="nonzero"/><path fill="#000000" d="M 156.886719 176.847656 C 156.796875 176.847656 156.703125 176.839844 156.613281 176.828125 C 155.546875 176.675781 154.800781 175.6875 154.953125 174.617188 L 156.355469 164.625 C 156.507812 163.554688 157.5 162.8125 158.5625 162.964844 C 159.628906 163.109375 160.371094 164.101562 160.222656 165.160156 L 158.816406 175.164062 C 158.679688 176.136719 157.84375 176.847656 156.886719 176.847656 " fill-opacity="1" fill-rule="nonzero"/><path fill="#000000" d="M 152.582031 159.261719 C 152.492188 159.261719 152.398438 159.257812 152.308594 159.242188 L 142.316406 157.839844 C 141.246094 157.6875 140.503906 156.699219 140.652344 155.636719 C 140.804688 154.566406 141.789062 153.824219 142.859375 153.972656 L 152.851562 155.378906 C 153.921875 155.53125 154.664062 156.515625 154.511719 157.582031 C 154.375 158.5625 153.539062 159.261719 152.582031 159.261719 " fill-opacity="1" fill-rule="nonzero"/><path fill="#000000" d="M 175.867188 162.542969 C 175.777344 162.542969 175.683594 162.535156 175.59375 162.523438 L 165.597656 161.117188 C 164.53125 160.964844 163.785156 159.980469 163.9375 158.914062 C 164.085938 157.84375 165.078125 157.097656 166.144531 157.25 L 176.136719 158.65625 C 177.203125 158.808594 177.949219 159.792969 177.796875 160.859375 C 177.660156 161.835938 176.824219 162.542969 175.867188 162.542969 " fill-opacity="1" fill-rule="nonzero"/><path fill="#000000" d="M 990.242188 157.480469 C 990.15625 157.480469 990.066406 157.476562 989.972656 157.457031 C 988.902344 157.308594 988.160156 156.324219 988.308594 155.253906 L 989.714844 145.257812 C 989.871094 144.195312 990.851562 143.453125 991.921875 143.59375 C 992.992188 143.746094 993.734375 144.738281 993.582031 145.800781 L 992.179688 155.804688 C 992.035156 156.773438 991.199219 157.480469 990.242188 157.480469 " fill-opacity="1" fill-rule="nonzero"/><path fill="#000000" d="M 986.972656 180.769531 C 986.886719 180.769531 986.785156 180.761719 986.695312 180.746094 C 985.628906 180.597656 984.886719 179.617188 985.035156 178.546875 L 986.445312 168.546875 C 986.597656 167.488281 987.570312 166.738281 988.644531 166.886719 C 989.71875 167.039062 990.460938 168.027344 990.304688 169.09375 L 988.902344 179.089844 C 988.765625 180.0625 987.925781 180.769531 986.972656 180.769531 " fill-opacity="1" fill-rule="nonzero"/><path fill="#000000" d="M 982.667969 163.191406 C 982.582031 163.191406 982.488281 163.183594 982.398438 163.167969 L 972.402344 161.765625 C 971.335938 161.617188 970.589844 160.625 970.738281 159.558594 C 970.886719 158.496094 971.871094 157.757812 972.941406 157.898438 L 982.941406 159.308594 C 984.003906 159.457031 984.75 160.441406 984.597656 161.511719 C 984.464844 162.484375 983.628906 163.191406 982.667969 163.191406 " fill-opacity="1" fill-rule="nonzero"/><path fill="#000000" d="M 1005.949219 166.46875 C 1005.863281 166.46875 1005.769531 166.460938 1005.683594 166.445312 L 995.683594 165.042969 C 994.613281 164.894531 993.871094 163.902344 994.019531 162.839844 C 994.171875 161.769531 995.15625 161.03125 996.226562 161.179688 L 1006.226562 162.585938 C 1007.285156 162.730469 1008.03125 163.722656 1007.886719 164.792969 C 1007.75 165.761719 1006.910156 166.46875 1005.949219 166.46875 " fill-opacity="1" fill-rule="nonzero"/><path fill="#000000" d="M 183.996094 130.566406 C 183.40625 130.566406 182.820312 130.292969 182.4375 129.789062 C 181.789062 128.925781 181.960938 127.699219 182.824219 127.050781 C 222.707031 97.027344 267.914062 74.324219 317.195312 59.574219 C 318.226562 59.273438 319.3125 59.851562 319.625 60.882812 C 319.933594 61.921875 319.347656 63.007812 318.3125 63.316406 C 269.480469 77.925781 224.683594 100.421875 185.167969 130.175781 C 184.816406 130.4375 184.40625 130.566406 183.996094 130.566406 " fill-opacity="1" fill-rule="nonzero"/><path fill="#000000" d="M 225.992188 129.160156 C 225.339844 129.160156 224.699219 128.839844 224.332031 128.246094 C 223.761719 127.332031 224.042969 126.125 224.957031 125.558594 C 266.382812 99.769531 312.546875 81.984375 362.152344 72.699219 C 363.21875 72.496094 364.234375 73.199219 364.429688 74.253906 C 364.628906 75.320312 363.929688 76.339844 362.871094 76.535156 C 313.742188 85.730469 268.035156 103.34375 227.019531 128.871094 C 226.699219 129.074219 226.34375 129.160156 225.992188 129.160156 " fill-opacity="1" fill-rule="nonzero"/><path fill="#000000" d="M 1012.789062 868.847656 C 1012.34375 868.847656 1011.898438 868.699219 1011.53125 868.394531 C 1010.710938 867.703125 1010.597656 866.472656 1011.285156 865.640625 C 1051 818.242188 1081.355469 765.550781 1101.523438 709.035156 C 1101.882812 708.015625 1103 707.484375 1104.011719 707.851562 C 1105.027344 708.214844 1105.558594 709.328125 1105.191406 710.34375 C 1084.875 767.300781 1054.285156 820.390625 1014.285156 868.152344 C 1013.902344 868.613281 1013.34375 868.847656 1012.789062 868.847656 " fill-opacity="1" fill-rule="nonzero"/><path fill="#000000" d="M 976.738281 907.882812 C 976.238281 907.882812 975.730469 907.691406 975.351562 907.300781 C 974.59375 906.535156 974.605469 905.300781 975.371094 904.546875 C 981.28125 898.730469 987.117188 892.722656 992.726562 886.691406 C 993.453125 885.902344 994.691406 885.855469 995.480469 886.589844 C 996.265625 887.324219 996.316406 888.5625 995.582031 889.351562 C 989.9375 895.425781 984.054688 901.46875 978.113281 907.324219 C 977.726562 907.703125 977.230469 907.882812 976.738281 907.882812 " fill-opacity="1" fill-rule="nonzero"/><path fill="#000000" d="M 923.140625 910.664062 C 922.574219 910.664062 922.007812 910.414062 921.621094 909.9375 C 920.941406 909.101562 921.070312 907.875 921.910156 907.191406 C 981.273438 858.898438 1026.867188 800.75 1057.417969 734.351562 C 1057.863281 733.375 1059.027344 732.945312 1060.007812 733.398438 C 1060.980469 733.84375 1061.414062 735.007812 1060.96875 735.984375 C 1030.160156 802.929688 984.203125 861.546875 924.371094 910.222656 C 924.003906 910.515625 923.570312 910.664062 923.140625 910.664062 " fill-opacity="1" fill-rule="nonzero"/><g fill="#ffffff" fill-opacity="1"><g transform="translate(1133.03614, 1046.357303)"><g><path d="M 0.234375 -0.046875 L 0.265625 -0.015625 C 0.253906 -0.015625 0.238281 -0.0078125 0.21875 0 C 0.207031 0.0078125 0.191406 0.015625 0.171875 0.015625 C 0.109375 0.015625 0.078125 -0.0195312 0.078125 -0.09375 L 0.078125 -0.3125 L 0.015625 -0.3125 L 0.015625 -0.359375 L 0.078125 -0.359375 L 0.078125 -0.4375 L 0.140625 -0.453125 L 0.140625 -0.359375 L 0.25 -0.359375 L 0.25 -0.3125 L 0.140625 -0.3125 L 0.140625 -0.109375 C 0.140625 -0.0664062 0.15625 -0.046875 0.1875 -0.046875 C 0.207031 -0.046875 0.222656 -0.046875 0.234375 -0.046875 Z M 0.234375 -0.046875 "/></g></g></g></svg>