<svg xmlns="http://www.w3.org/2000/svg" xmlns:xlink="http://www.w3.org/1999/xlink" width="1536" zoomAndPan="magnify" viewBox="0 0 1152 1123.499971" height="1498" preserveAspectRatio="xMidYMid meet" version="1.0"><defs><g/></defs><path fill="#d9afff" d="M 39.179688 894.28125 C 71.003906 971.300781 145.273438 1007.777344 192.742188 1031.09375 C 379.847656 1122.988281 663.980469 1112.445312 868.402344 945.242188 C 916.242188 906.113281 1152.011719 701.109375 1096.890625 423.238281 C 1048.148438 177.582031 803.800781 34.910156 598.089844 15.816406 C 427.664062 -0.00390625 173.019531 22.195312 82.183594 203.515625 C 34.546875 298.589844 136.667969 335.746094 96.375 549.203125 C 61.5 733.960938 0.25 800.070312 39.179688 894.28125 " fill-opacity="1" fill-rule="nonzero"/><path fill="#b86aff" d="M 380.90625 899.03125 C 351.863281 906.976562 321.871094 889.878906 313.917969 860.839844 C 305.964844 831.796875 323.0625 801.800781 352.105469 793.851562 C 381.152344 785.898438 411.140625 802.996094 419.09375 832.039062 C 427.042969 861.085938 409.949219 891.078125 380.90625 899.03125 Z M 474.984375 827.71875 L 469.386719 807.292969 L 446.277344 808.339844 C 444.136719 803.839844 441.65625 799.574219 438.851562 795.585938 L 451.089844 775.988281 L 436.03125 761.09375 L 416.535156 773.5625 C 412.476562 770.78125 408.195312 768.335938 403.730469 766.261719 L 404.53125 743.136719 L 384.042969 737.769531 L 373.410156 758.277344 C 368.546875 757.902344 363.617188 757.9375 358.65625 758.382812 L 347.785156 737.960938 L 327.355469 743.558594 L 328.40625 766.667969 C 323.90625 768.808594 319.644531 771.289062 315.65625 774.09375 L 296.054688 761.863281 L 281.160156 776.921875 L 293.625 796.410156 C 290.84375 800.46875 288.402344 804.753906 286.328125 809.214844 L 263.203125 808.417969 L 257.832031 828.90625 L 278.347656 839.535156 C 277.964844 844.402344 278.003906 849.332031 278.453125 854.292969 L 258.03125 865.164062 L 263.625 885.59375 L 286.734375 884.542969 C 288.875 889.039062 291.355469 893.304688 294.160156 897.292969 L 281.925781 916.886719 L 296.984375 931.785156 L 316.476562 919.316406 C 320.535156 922.105469 324.816406 924.542969 329.28125 926.617188 L 328.484375 949.742188 L 348.972656 955.117188 L 359.601562 934.601562 C 364.464844 934.984375 369.398438 934.941406 374.359375 934.496094 L 385.226562 954.917969 L 405.65625 949.324219 L 404.605469 926.210938 C 409.105469 924.070312 413.367188 921.589844 417.359375 918.789062 L 436.953125 931.023438 L 451.851562 915.964844 L 439.382812 896.472656 C 442.171875 892.414062 444.609375 888.128906 446.683594 883.664062 L 469.808594 884.464844 L 475.175781 863.972656 L 454.667969 853.34375 C 455.050781 848.484375 455.007812 843.550781 454.5625 838.585938 L 474.984375 827.71875 " fill-opacity="1" fill-rule="nonzero"/><path fill="#ffffff" d="M 959.898438 647.113281 C 930.851562 655.0625 900.859375 637.96875 892.902344 608.921875 C 884.957031 579.878906 902.054688 549.890625 931.097656 541.9375 C 960.140625 533.988281 990.128906 551.082031 998.078125 580.121094 C 1006.039062 609.167969 988.9375 639.15625 959.898438 647.113281 Z M 1053.972656 575.804688 L 1048.378906 555.371094 L 1025.269531 556.425781 C 1023.121094 551.921875 1020.652344 547.660156 1017.84375 543.667969 L 1030.074219 524.074219 L 1015.019531 509.179688 L 995.527344 521.640625 C 991.464844 518.863281 987.183594 516.417969 982.726562 514.34375 L 983.519531 491.21875 L 963.03125 485.851562 L 952.398438 506.363281 C 947.535156 505.988281 942.609375 506.015625 937.644531 506.46875 L 926.769531 486.042969 L 906.34375 491.644531 L 907.390625 514.75 C 902.894531 516.894531 898.628906 519.375 894.644531 522.175781 L 875.046875 509.941406 L 860.152344 525.007812 L 872.613281 544.492188 C 869.835938 548.554688 867.394531 552.835938 865.316406 557.296875 L 842.191406 556.5 L 836.820312 576.988281 L 857.335938 587.621094 C 856.953125 592.484375 856.996094 597.414062 857.441406 602.375 L 837.023438 613.246094 L 842.609375 633.671875 L 865.726562 632.625 C 867.859375 637.121094 870.347656 641.386719 873.148438 645.375 L 860.914062 664.972656 L 875.96875 679.867188 L 895.460938 667.40625 C 899.523438 670.183594 903.804688 672.625 908.273438 674.699219 L 907.46875 697.828125 L 927.964844 703.199219 L 938.589844 682.683594 C 943.457031 683.066406 948.390625 683.023438 953.34375 682.578125 L 964.21875 702.996094 L 984.648438 697.40625 L 983.597656 674.292969 C 988.09375 672.15625 992.359375 669.675781 996.351562 666.867188 L 1015.949219 679.105469 L 1030.839844 664.046875 L 1018.375 644.558594 C 1021.152344 640.496094 1023.601562 636.214844 1025.671875 631.746094 L 1048.796875 632.546875 L 1054.167969 612.058594 L 1033.65625 601.425781 C 1034.039062 596.566406 1034 591.636719 1033.546875 586.667969 L 1053.972656 575.804688 " fill-opacity="1" fill-rule="nonzero"/><path fill="#b86aff" d="M 1016.460938 450.527344 C 1000.890625 457.027344 983.003906 449.671875 976.5 434.105469 C 970 418.542969 977.355469 400.65625 992.921875 394.152344 C 1008.484375 387.652344 1026.371094 395.007812 1032.875 410.566406 C 1039.375 426.136719 1032.019531 444.03125 1016.460938 450.527344 Z M 1063.617188 404.167969 L 1059.046875 393.214844 L 1046.285156 395.453125 C 1044.769531 393.109375 1043.09375 390.917969 1041.242188 388.902344 L 1046.632812 377.132812 L 1037.199219 369.9375 L 1027.265625 378.261719 C 1024.808594 377.003906 1022.253906 375.957031 1019.632812 375.125 L 1018.414062 362.21875 L 1006.648438 360.699219 L 1002.203125 372.863281 C 999.472656 373 996.746094 373.371094 994.015625 373.980469 L 986.515625 363.410156 L 975.566406 367.980469 L 977.804688 380.75 C 975.457031 382.257812 973.265625 383.945312 971.25 385.785156 L 959.480469 380.394531 L 952.285156 389.828125 L 960.609375 399.769531 C 959.351562 402.21875 958.308594 404.773438 957.472656 407.398438 L 944.566406 408.609375 L 943.050781 420.386719 L 955.210938 424.824219 C 955.347656 427.554688 955.71875 430.292969 956.328125 433.011719 L 945.761719 440.519531 L 950.328125 451.464844 L 963.089844 449.226562 C 964.609375 451.570312 966.289062 453.761719 968.140625 455.777344 L 962.742188 467.546875 L 972.175781 474.742188 L 982.117188 466.417969 C 984.566406 467.675781 987.121094 468.71875 989.753906 469.5625 L 990.964844 482.460938 L 1002.734375 483.976562 L 1007.171875 471.824219 C 1009.898438 471.679688 1012.640625 471.308594 1015.363281 470.699219 L 1022.859375 481.269531 L 1033.816406 476.699219 L 1031.574219 463.933594 C 1033.921875 462.417969 1036.113281 460.734375 1038.125 458.894531 L 1049.894531 464.285156 L 1057.089844 454.851562 L 1048.769531 444.910156 C 1050.023438 442.460938 1051.070312 439.90625 1051.902344 437.273438 L 1064.808594 436.0625 L 1066.328125 424.300781 L 1054.164062 419.855469 C 1054.027344 417.132812 1053.65625 414.398438 1053.050781 411.667969 L 1063.617188 404.167969 " fill-opacity="1" fill-rule="nonzero"/><path fill="#8a24ff" d="M 879.601562 1037.300781 L 436.664062 1037.300781 C 417.820312 1037.300781 402.542969 1021.078125 402.542969 1001.066406 L 445.726562 47.480469 C 445.726562 27.46875 461.003906 11.246094 479.847656 11.246094 L 922.78125 11.246094 C 941.628906 11.246094 956.90625 27.46875 956.90625 47.480469 L 913.722656 1001.066406 C 913.722656 1021.078125 898.445312 1037.300781 879.601562 1037.300781 " fill-opacity="1" fill-rule="nonzero"/><path fill="#b86aff" d="M 853.378906 1037.632812 L 410.445312 1037.632812 C 391.601562 1037.632812 376.324219 1021.441406 376.324219 1001.460938 L 419.507812 49.636719 C 419.507812 29.667969 434.78125 13.472656 453.628906 13.472656 L 896.5625 13.472656 C 915.410156 13.472656 930.691406 29.667969 930.691406 49.636719 L 887.503906 1001.460938 C 887.503906 1021.441406 872.230469 1037.632812 853.378906 1037.632812 " fill-opacity="1" fill-rule="nonzero"/><path fill="#ffffff" d="M 833.316406 1016.496094 L 429.585938 1016.496094 C 412.410156 1016.496094 398.488281 1001.738281 398.488281 983.53125 L 440.164062 69.921875 C 440.164062 51.71875 454.085938 36.953125 471.261719 36.953125 L 874.992188 36.953125 C 892.171875 36.953125 906.09375 51.71875 906.09375 69.921875 L 864.414062 983.53125 C 864.414062 1001.738281 850.496094 1016.496094 833.316406 1016.496094 " fill-opacity="1" fill-rule="nonzero"/><path fill="#b86aff" d="M 579.121094 35.398438 L 589.804688 52.089844 C 596.292969 62.226562 607.171875 68.308594 618.804688 68.308594 L 726.667969 68.308594 C 738.046875 68.308594 748.726562 62.480469 755.269531 52.703125 L 766.835938 35.398438 L 579.121094 35.398438 " fill-opacity="1" fill-rule="nonzero"/><path fill="#000000" d="M 408.082031 286.191406 C 408.042969 286.191406 408.003906 286.191406 407.964844 286.191406 C 406.890625 286.125 406.066406 285.195312 406.128906 284.125 L 416.542969 107.125 C 416.605469 106.042969 417.546875 105.21875 418.605469 105.289062 C 419.683594 105.347656 420.503906 106.273438 420.441406 107.347656 L 410.027344 284.347656 C 409.96875 285.390625 409.105469 286.191406 408.082031 286.191406 " fill-opacity="1" fill-rule="nonzero"/><path fill="#000000" d="M 660.566406 1039.585938 L 410.445312 1039.585938 C 390.554688 1039.585938 374.371094 1022.484375 374.371094 1001.460938 L 393.113281 588.695312 C 393.164062 587.621094 394.078125 586.78125 395.152344 586.835938 C 396.230469 586.882812 397.066406 587.792969 397.015625 588.875 L 378.273438 1001.550781 C 378.273438 1020.332031 392.707031 1035.683594 410.445312 1035.683594 L 660.566406 1035.683594 C 661.644531 1035.683594 662.519531 1036.554688 662.519531 1037.632812 C 662.519531 1038.710938 661.644531 1039.585938 660.566406 1039.585938 " fill-opacity="1" fill-rule="nonzero"/><path fill="#000000" d="M 840.175781 1039.75 C 839.101562 1039.75 838.234375 1038.894531 838.214844 1037.824219 C 838.203125 1036.742188 839.070312 1035.859375 840.140625 1035.847656 L 853.351562 1035.683594 C 871.113281 1035.683594 885.546875 1020.335938 885.546875 1001.460938 L 904.175781 590.800781 C 904.226562 589.722656 905.128906 588.871094 906.210938 588.941406 C 907.289062 588.988281 908.121094 589.902344 908.074219 590.980469 L 889.449219 1001.550781 C 889.449219 1022.484375 873.269531 1039.589844 853.378906 1039.589844 L 840.191406 1039.75 C 840.179688 1039.75 840.179688 1039.75 840.175781 1039.75 " fill-opacity="1" fill-rule="nonzero"/><path fill="#000000" d="M 906.128906 592.839844 C 906.097656 592.839844 906.0625 592.839844 906.042969 592.839844 C 904.960938 592.789062 904.132812 591.875 904.179688 590.800781 L 928.730469 49.554688 C 928.730469 30.777344 914.300781 15.425781 896.5625 15.425781 L 453.628906 15.425781 C 435.890625 15.425781 421.457031 30.777344 421.457031 49.644531 L 420.597656 68.664062 C 420.542969 69.742188 419.609375 70.597656 418.558594 70.523438 C 417.480469 70.480469 416.644531 69.5625 416.695312 68.492188 L 417.554688 49.554688 C 417.554688 28.628906 433.738281 11.523438 453.628906 11.523438 L 896.5625 11.523438 C 916.453125 11.523438 932.632812 28.628906 932.632812 49.644531 L 908.074219 590.976562 C 908.027344 592.019531 907.167969 592.839844 906.128906 592.839844 " fill-opacity="1" fill-rule="nonzero"/><path fill="#d9afff" d="M 825.667969 688.734375 L 461.105469 688.734375 L 462.339844 666.671875 L 826.902344 666.671875 L 825.667969 688.734375 " fill-opacity="1" fill-rule="nonzero"/><path fill="#d9afff" d="M 728.003906 732.175781 L 458.667969 732.175781 L 459.90625 710.113281 L 729.246094 710.113281 L 728.003906 732.175781 " fill-opacity="1" fill-rule="nonzero"/><path fill="#d9afff" d="M 832.339844 570.484375 L 645.554688 570.484375 L 646.792969 548.421875 L 833.578125 548.421875 L 832.339844 570.484375 " fill-opacity="1" fill-rule="nonzero"/><path fill="#d9afff" d="M 830.5 613.929688 L 643.117188 613.929688 L 644.359375 591.863281 L 831.734375 591.863281 L 830.5 613.929688 " fill-opacity="1" fill-rule="nonzero"/><path fill="#d9afff" d="M 819.066406 806.273438 L 454.503906 806.273438 L 455.746094 784.210938 L 820.304688 784.210938 L 819.066406 806.273438 " fill-opacity="1" fill-rule="nonzero"/><path fill="#d9afff" d="M 721.414062 849.714844 L 452.074219 849.714844 L 453.3125 827.652344 L 722.648438 827.652344 L 721.414062 849.714844 " fill-opacity="1" fill-rule="nonzero"/><path fill="#d9afff" d="M 812.480469 923.8125 L 447.914062 923.8125 L 449.152344 901.738281 L 813.71875 901.738281 L 812.480469 923.8125 " fill-opacity="1" fill-rule="nonzero"/><path fill="#d9afff" d="M 714.820312 967.253906 L 445.476562 967.253906 L 446.714844 945.1875 L 716.058594 945.1875 L 714.820312 967.253906 " fill-opacity="1" fill-rule="nonzero"/><path fill="#d9afff" d="M 614.4375 576.5625 C 612.292969 614.78125 581.054688 645.765625 544.671875 645.765625 C 508.285156 645.765625 480.527344 614.78125 482.664062 576.5625 C 484.808594 538.339844 516.050781 507.355469 552.4375 507.355469 C 588.820312 507.355469 616.582031 538.339844 614.4375 576.5625 " fill-opacity="1" fill-rule="nonzero"/><path fill="#d9afff" d="M 819.945312 331.367188 C 817.792969 415.53125 748.398438 483.769531 664.945312 483.769531 C 581.496094 483.769531 515.597656 415.53125 517.75 331.367188 C 519.910156 247.199219 589.300781 178.964844 672.753906 178.964844 C 756.203125 178.964844 822.105469 247.199219 819.945312 331.367188 " fill-opacity="1" fill-rule="nonzero"/><path fill="#8a24ff" d="M 668.425781 384.894531 L 666.535156 384.894531 C 649.394531 384.894531 635.863281 370.882812 636.3125 353.59375 L 638.671875 261.414062 C 639.109375 244.125 653.367188 230.117188 670.5 230.117188 L 672.390625 230.117188 C 689.523438 230.117188 703.0625 244.125 702.621094 261.414062 L 700.265625 353.59375 C 699.816406 370.882812 685.558594 384.894531 668.425781 384.894531 " fill-opacity="1" fill-rule="nonzero"/><path fill="#8a24ff" d="M 666.859375 409.121094 C 638.1875 409.121094 615.46875 385.601562 616.210938 356.683594 C 616.300781 353.214844 619.164062 350.398438 622.601562 350.398438 C 626.050781 350.398438 628.765625 353.214844 628.679688 356.683594 C 628.113281 378.667969 645.386719 396.550781 667.179688 396.550781 C 688.976562 396.550781 707.167969 378.667969 707.726562 356.683594 C 707.8125 353.214844 710.675781 350.398438 714.125 350.398438 C 717.5625 350.398438 720.28125 353.214844 720.191406 356.683594 C 719.449219 385.601562 695.53125 409.121094 666.859375 409.121094 " fill-opacity="1" fill-rule="nonzero"/><path fill="#8a24ff" d="M 665.882812 447.355469 C 662.433594 447.355469 659.71875 444.539062 659.804688 441.070312 L 660.753906 404.140625 C 660.84375 400.660156 663.707031 397.847656 667.148438 397.847656 C 670.585938 397.847656 673.308594 400.660156 673.222656 404.140625 L 672.273438 441.070312 C 672.183594 444.539062 669.320312 447.355469 665.882812 447.355469 " fill-opacity="1" fill-rule="nonzero"/><path fill="#b86aff" d="M 778.453125 278.671875 C 782.082031 278.777344 784.90625 281.589844 784.757812 284.949219 L 780.8125 377.019531 C 780.671875 380.378906 777.609375 383.015625 773.980469 382.910156 C 770.351562 382.804688 767.53125 379.992188 767.675781 376.632812 L 771.621094 284.5625 C 771.761719 281.199219 774.820312 278.566406 778.453125 278.671875 " fill-opacity="1" fill-rule="nonzero"/><path fill="#b86aff" d="M 750.023438 249.25 C 753.648438 249.351562 756.488281 251.808594 756.355469 254.726562 L 750.269531 390.230469 C 750.132812 393.152344 747.089844 395.4375 743.457031 395.328125 C 739.828125 395.222656 736.996094 392.769531 737.125 389.847656 L 743.207031 254.339844 C 743.347656 251.417969 746.390625 249.140625 750.023438 249.25 " fill-opacity="1" fill-rule="nonzero"/><path fill="#b86aff" d="M 808.480469 266.4375 C 812.101562 266.542969 814.925781 269.828125 814.753906 273.785156 L 810.746094 372.035156 C 810.585938 375.984375 807.511719 379.101562 803.886719 378.996094 C 800.257812 378.886719 797.445312 375.597656 797.601562 371.644531 L 801.621094 273.394531 C 801.777344 269.445312 804.851562 266.332031 808.480469 266.4375 " fill-opacity="1" fill-rule="nonzero"/><path fill="#b86aff" d="M 837.035156 302.449219 C 840.664062 302.554688 843.519531 304.386719 843.414062 306.546875 L 841.265625 348.996094 C 841.160156 351.152344 838.132812 352.820312 834.503906 352.714844 C 830.875 352.609375 828.015625 350.765625 828.125 348.609375 L 830.265625 306.160156 C 830.375 304.003906 833.402344 302.34375 837.035156 302.449219 " fill-opacity="1" fill-rule="nonzero"/><path fill="#b86aff" d="M 871.117188 350.417969 C 870.964844 354.179688 867.894531 357.140625 864.265625 357.039062 C 860.636719 356.933594 857.816406 353.796875 857.976562 350.035156 L 859.890625 303.816406 C 860.042969 300.050781 863.113281 297.082031 866.742188 297.191406 C 870.375 297.296875 873.183594 300.4375 873.03125 304.199219 L 871.117188 350.417969 " fill-opacity="1" fill-rule="nonzero"/><path fill="#b86aff" d="M 569.613281 280.277344 C 565.984375 280.382812 562.949219 282.515625 562.824219 285.035156 L 559.507812 354.199219 C 559.382812 356.722656 562.230469 358.6875 565.859375 358.574219 C 569.492188 358.46875 572.527344 356.339844 572.652344 353.816406 L 575.964844 284.652344 C 576.089844 282.128906 573.242188 280.167969 569.613281 280.277344 " fill-opacity="1" fill-rule="nonzero"/><path fill="#b86aff" d="M 599.804688 246.292969 C 596.175781 246.390625 593.167969 248.90625 593.085938 251.90625 L 589.492188 390.992188 C 589.410156 393.996094 592.292969 396.335938 595.917969 396.226562 C 599.550781 396.125 602.558594 393.609375 602.632812 390.609375 L 606.230469 251.523438 C 606.308594 248.523438 603.429688 246.183594 599.804688 246.292969 " fill-opacity="1" fill-rule="nonzero"/><path fill="#b86aff" d="M 539.300781 268.597656 C 535.675781 268.707031 532.65625 271.933594 532.582031 275.804688 L 530.558594 372.207031 C 530.472656 376.078125 533.351562 379.136719 536.980469 379.03125 C 540.605469 378.921875 543.609375 375.695312 543.699219 371.816406 L 545.71875 275.425781 C 545.804688 271.546875 542.929688 268.492188 539.300781 268.597656 " fill-opacity="1" fill-rule="nonzero"/><path fill="#b86aff" d="M 509.808594 294.179688 C 506.183594 294.289062 503.136719 296.257812 503.011719 298.574219 L 500.515625 344.214844 C 500.386719 346.535156 503.222656 348.332031 506.851562 348.222656 C 510.480469 348.117188 513.53125 346.152344 513.65625 343.832031 L 516.15625 298.191406 C 516.28125 295.871094 513.4375 294.078125 509.808594 294.179688 " fill-opacity="1" fill-rule="nonzero"/><path fill="#b86aff" d="M 471.65625 349.542969 C 471.578125 353.421875 474.457031 356.472656 478.082031 356.371094 C 481.707031 356.261719 484.71875 353.039062 484.800781 349.164062 L 485.804688 301.566406 C 485.882812 297.6875 483.007812 294.632812 479.378906 294.738281 C 475.746094 294.847656 472.742188 298.070312 472.660156 301.945312 L 471.65625 349.542969 " fill-opacity="1" fill-rule="nonzero"/><path fill="#8a24ff" d="M 731.605469 1004.085938 C 731.605469 1004.085938 677.527344 885.558594 708.550781 731.902344 C 708.550781 731.902344 792.355469 802.128906 762.144531 1004.085938 L 731.605469 1004.085938 " fill-opacity="1" fill-rule="nonzero"/><path fill="#d9afff" d="M 744.835938 993.679688 C 744.796875 993.679688 744.761719 993.679688 744.726562 993.679688 C 743.648438 993.617188 742.824219 992.695312 742.882812 991.621094 C 747.023438 915.882812 712.863281 754.1875 712.523438 752.5625 C 712.296875 751.507812 712.96875 750.472656 714.023438 750.25 C 715.070312 750.023438 716.113281 750.695312 716.335938 751.75 C 716.6875 753.382812 750.949219 915.589844 746.78125 991.832031 C 746.730469 992.871094 745.863281 993.679688 744.835938 993.679688 " fill-opacity="1" fill-rule="nonzero"/><path fill="#b86aff" d="M 786.011719 811.382812 C 786.011719 811.382812 716.34375 937.257812 758.25 991.726562 L 780.671875 991.726562 C 780.671875 991.726562 825.472656 893.324219 786.011719 811.382812 " fill-opacity="1" fill-rule="nonzero"/><path fill="#d9afff" d="M 768.71875 997.015625 C 767.675781 997.015625 766.808594 996.1875 766.769531 995.140625 C 765.34375 958.414062 774.367188 883.132812 779.871094 841.523438 C 780.011719 840.460938 780.984375 839.703125 782.0625 839.847656 C 783.136719 839.988281 783.882812 840.972656 783.742188 842.039062 C 778.25 883.523438 769.253906 958.550781 770.667969 994.984375 C 770.710938 996.066406 769.875 996.972656 768.792969 997.015625 C 768.765625 997.015625 768.742188 997.015625 768.71875 997.015625 " fill-opacity="1" fill-rule="nonzero"/><path fill="#b86aff" d="M 652.996094 858.304688 C 652.996094 858.304688 712.34375 878.554688 733.839844 998.4375 L 710.492188 998.4375 C 710.492188 998.4375 661.773438 932.597656 652.996094 858.304688 " fill-opacity="1" fill-rule="nonzero"/><path fill="#d9afff" d="M 721.078125 997.015625 C 720.140625 997.015625 719.308594 996.335938 719.15625 995.382812 C 710.328125 942.078125 672.15625 888.382812 671.773438 887.847656 C 671.140625 886.976562 671.34375 885.753906 672.21875 885.125 C 673.09375 884.496094 674.3125 884.703125 674.941406 885.574219 C 675.332031 886.113281 714.035156 940.550781 723.003906 994.746094 C 723.179688 995.804688 722.460938 996.8125 721.402344 996.988281 C 721.289062 997.007812 721.183594 997.015625 721.078125 997.015625 " fill-opacity="1" fill-rule="nonzero"/><path fill="#8a24ff" d="M 675.886719 988.925781 L 822.3125 988.925781 L 825.597656 1058.183594 C 826.402344 1075.164062 812.851562 1089.375 795.851562 1089.375 L 712.222656 1089.375 C 692.113281 1089.375 675.816406 1073.054688 675.832031 1052.9375 L 675.886719 988.925781 " fill-opacity="1" fill-rule="nonzero"/><path fill="#000000" d="M 677.839844 990.875 L 677.785156 1052.945312 C 677.78125 1062.148438 681.355469 1070.808594 687.867188 1077.320312 C 694.371094 1083.828125 703.027344 1087.417969 712.226562 1087.417969 L 795.859375 1087.417969 C 803.539062 1087.417969 810.695312 1084.355469 815.996094 1078.796875 C 821.296875 1073.234375 824.015625 1065.949219 823.648438 1058.277344 L 820.457031 990.875 Z M 795.859375 1091.324219 L 712.226562 1091.324219 C 701.980469 1091.324219 692.339844 1087.332031 685.097656 1080.078125 C 677.851562 1072.832031 673.875 1063.191406 673.878906 1052.9375 L 673.941406 988.925781 C 673.941406 987.84375 674.816406 986.972656 675.894531 986.972656 L 822.320312 986.972656 C 823.359375 986.972656 824.21875 987.792969 824.265625 988.828125 L 827.550781 1058.089844 C 827.96875 1066.84375 824.867188 1075.152344 818.816406 1081.492188 C 812.773438 1087.828125 804.617188 1091.324219 795.859375 1091.324219 " fill-opacity="1" fill-rule="nonzero"/><path fill="#ffffff" d="M 113.3125 1009.015625 L 107.75 1048.066406 L 93.519531 1048.121094 L 92.847656 1009.714844 L 113.3125 1009.015625 " fill-opacity="1" fill-rule="nonzero"/><path fill="#000000" d="M 94.832031 1011.601562 L 95.433594 1046.164062 L 106.054688 1046.121094 L 111.050781 1011.046875 Z M 93.519531 1050.074219 C 92.453125 1050.074219 91.585938 1049.222656 91.5625 1048.15625 L 90.894531 1009.75 C 90.875 1008.683594 91.714844 1007.800781 92.777344 1007.765625 L 113.246094 1007.066406 C 113.820312 1007.042969 114.375 1007.285156 114.761719 1007.714844 C 115.148438 1008.144531 115.324219 1008.71875 115.246094 1009.292969 L 109.679688 1048.34375 C 109.542969 1049.304688 108.722656 1050.015625 107.753906 1050.015625 L 93.523438 1050.074219 C 93.523438 1050.074219 93.519531 1050.074219 93.519531 1050.074219 " fill-opacity="1" fill-rule="nonzero"/><path fill="#ffffff" d="M 108.230469 1085.402344 C 102.644531 1085.996094 94.332031 1086.234375 83.214844 1085.257812 C 79.242188 1084.910156 76.441406 1081.226562 77.082031 1077.292969 C 78.804688 1066.691406 83.621094 1047.996094 91.210938 1039.417969 L 94.960938 1044.761719 L 97.1875 1039.238281 C 97.546875 1038.644531 106.976562 1038.25 107.175781 1039.371094 L 107.75 1044.761719 L 113.101562 1038.765625 L 112.808594 1058.46875 C 112.777344 1060.640625 112.980469 1062.816406 113.421875 1064.941406 L 114.828125 1071.75 C 115.675781 1075.851562 114.628906 1080.195312 111.765625 1083.246094 C 110.644531 1084.445312 109.402344 1085.273438 108.230469 1085.402344 " fill-opacity="1" fill-rule="nonzero"/><path fill="#000000" d="M 91.113281 1042.675781 C 84.605469 1051.746094 80.480469 1068.546875 79.007812 1077.601562 C 78.78125 1078.988281 79.132812 1080.355469 79.988281 1081.457031 C 80.824219 1082.535156 82.03125 1083.195312 83.386719 1083.3125 C 95.199219 1084.351562 103.300781 1083.964844 108.023438 1083.460938 C 108.625 1083.394531 109.492188 1082.816406 110.339844 1081.914062 C 112.699219 1079.398438 113.660156 1075.753906 112.917969 1072.152344 L 111.511719 1065.335938 C 111.042969 1063.074219 110.824219 1060.753906 110.859375 1058.4375 L 111.074219 1043.964844 L 109.207031 1046.0625 C 108.691406 1046.636719 107.882812 1046.859375 107.148438 1046.617188 C 106.414062 1046.382812 105.886719 1045.734375 105.804688 1044.96875 L 105.355469 1040.71875 C 103.703125 1040.519531 100.234375 1040.601562 98.648438 1040.832031 L 96.773438 1045.492188 C 96.503906 1046.152344 95.894531 1046.617188 95.1875 1046.699219 C 94.472656 1046.789062 93.777344 1046.46875 93.363281 1045.878906 Z M 108.230469 1085.402344 L 108.242188 1085.402344 Z M 97.421875 1087.871094 C 93.40625 1087.871094 88.621094 1087.695312 83.046875 1087.203125 C 80.597656 1086.988281 78.417969 1085.796875 76.90625 1083.855469 C 75.394531 1081.914062 74.757812 1079.40625 75.152344 1076.976562 C 75.609375 1074.171875 79.894531 1049.261719 89.746094 1038.121094 C 90.144531 1037.679688 90.714844 1037.449219 91.320312 1037.46875 C 91.917969 1037.503906 92.464844 1037.808594 92.808594 1038.296875 L 94.496094 1040.695312 L 95.378906 1038.511719 C 95.414062 1038.417969 95.460938 1038.320312 95.511719 1038.230469 C 96.886719 1035.945312 106.394531 1036.941406 106.488281 1036.953125 C 108.027344 1037.238281 108.90625 1037.9375 109.097656 1039.027344 C 109.105469 1039.078125 109.113281 1039.117188 109.117188 1039.164062 L 109.222656 1040.175781 L 111.648438 1037.460938 C 112.191406 1036.851562 113.050781 1036.648438 113.8125 1036.941406 C 114.570312 1037.238281 115.066406 1037.972656 115.054688 1038.792969 L 114.761719 1058.496094 C 114.730469 1060.523438 114.925781 1062.5625 115.335938 1064.546875 L 116.742188 1071.359375 C 117.742188 1076.199219 116.414062 1081.152344 113.1875 1084.585938 C 111.652344 1086.214844 110.011719 1087.171875 108.4375 1087.34375 C 105.796875 1087.625 102.136719 1087.871094 97.421875 1087.871094 " fill-opacity="1" fill-rule="nonzero"/><path fill="#000000" d="M 98.050781 1080.910156 C 94.101562 1080.910156 89.210938 1080.601562 83.675781 1079.628906 C 82.617188 1079.441406 81.90625 1078.429688 82.089844 1077.367188 C 82.28125 1076.304688 83.292969 1075.601562 84.351562 1075.78125 C 97.910156 1078.175781 107.609375 1076.285156 107.703125 1076.261719 C 108.761719 1076.046875 109.789062 1076.730469 110.003906 1077.785156 C 110.214844 1078.839844 109.535156 1079.871094 108.480469 1080.082031 C 108.21875 1080.144531 104.332031 1080.910156 98.050781 1080.910156 " fill-opacity="1" fill-rule="nonzero"/><path fill="#000000" d="M 102.605469 1065.929688 L 89.691406 1065.929688 C 88.613281 1065.929688 87.742188 1065.058594 87.742188 1063.980469 C 87.742188 1062.902344 88.613281 1062.023438 89.691406 1062.023438 L 102.605469 1062.023438 C 103.679688 1062.023438 104.554688 1062.902344 104.554688 1063.980469 C 104.554688 1065.058594 103.679688 1065.929688 102.605469 1065.929688 " fill-opacity="1" fill-rule="nonzero"/><path fill="#ffffff" d="M 215.460938 1012.503906 L 220.46875 1058.019531 L 239.613281 1062.023438 L 238.445312 1008.65625 L 215.460938 1012.503906 " fill-opacity="1" fill-rule="nonzero"/><path fill="#000000" d="M 222.25 1056.398438 L 237.605469 1059.617188 L 236.542969 1010.953125 L 217.601562 1014.125 Z M 239.613281 1063.980469 C 239.480469 1063.980469 239.34375 1063.964844 239.210938 1063.941406 L 220.066406 1059.925781 C 219.242188 1059.757812 218.621094 1059.066406 218.527344 1058.230469 L 213.519531 1012.714844 C 213.40625 1011.683594 214.117188 1010.746094 215.136719 1010.578125 L 238.125 1006.734375 C 238.683594 1006.640625 239.253906 1006.792969 239.691406 1007.152344 C 240.128906 1007.519531 240.386719 1008.050781 240.398438 1008.613281 L 241.5625 1061.984375 C 241.578125 1062.578125 241.316406 1063.152344 240.859375 1063.527344 C 240.503906 1063.824219 240.0625 1063.980469 239.613281 1063.980469 " fill-opacity="1" fill-rule="nonzero"/><path fill="#ffffff" d="M 212.371094 1079.722656 C 211.949219 1071.746094 211.9375 1057.058594 216.792969 1049.976562 L 232.113281 1055.429688 L 232.113281 1052.160156 C 232.113281 1051.105469 232.863281 1050.234375 233.824219 1050.179688 L 242.363281 1049.695312 C 245.550781 1049.507812 248.726562 1050.171875 251.640625 1051.601562 C 260.226562 1055.820312 286.347656 1066.648438 289.972656 1078.820312 C 291.039062 1082.417969 288.230469 1086.011719 284.488281 1086.117188 C 275.890625 1086.363281 255.214844 1086.628906 218.121094 1085.363281 C 215.03125 1085.257812 212.53125 1082.808594 212.371094 1079.722656 " fill-opacity="1" fill-rule="nonzero"/><path fill="#000000" d="M 217.644531 1052.351562 C 214.878906 1057.589844 213.675781 1067.371094 214.320312 1079.617188 C 214.429688 1081.710938 216.09375 1083.34375 218.1875 1083.414062 C 254.839844 1084.667969 275.421875 1084.417969 284.433594 1084.164062 C 285.65625 1084.132812 286.820312 1083.511719 287.542969 1082.515625 C 288.222656 1081.574219 288.421875 1080.460938 288.101562 1079.382812 C 285.160156 1069.507812 264.511719 1059.816406 254.582031 1055.160156 C 253.105469 1054.464844 251.816406 1053.863281 250.777344 1053.351562 C 248.167969 1052.066406 245.292969 1051.488281 242.476562 1051.636719 L 234.082031 1052.125 L 234.0625 1055.429688 C 234.0625 1056.070312 233.753906 1056.664062 233.238281 1057.027344 C 232.714844 1057.394531 232.054688 1057.480469 231.457031 1057.269531 Z M 267.351562 1088.273438 C 255.9375 1088.273438 239.816406 1088.054688 218.054688 1087.3125 C 213.921875 1087.171875 210.636719 1083.953125 210.417969 1079.824219 C 209.980469 1071.5 210.015625 1056.410156 215.1875 1048.875 C 215.6875 1048.140625 216.617188 1047.84375 217.449219 1048.136719 L 230.15625 1052.664062 L 230.15625 1052.160156 C 230.15625 1050.070312 231.71875 1048.347656 233.710938 1048.230469 L 242.253906 1047.742188 C 245.75 1047.535156 249.289062 1048.265625 252.5 1049.84375 C 253.519531 1050.347656 254.789062 1050.949219 256.242188 1051.625 C 267.480469 1056.898438 288.40625 1066.714844 291.84375 1078.269531 C 292.507812 1080.5 292.089844 1082.882812 290.703125 1084.804688 C 289.277344 1086.777344 286.972656 1087.996094 284.546875 1088.066406 C 280.847656 1088.171875 275.21875 1088.273438 267.351562 1088.273438 " fill-opacity="1" fill-rule="nonzero"/><path fill="#000000" d="M 261.421875 1080.714844 C 250.53125 1080.714844 235.820312 1080.230469 219.75 1078.367188 C 218.679688 1078.246094 217.914062 1077.28125 218.035156 1076.207031 C 218.160156 1075.132812 219.132812 1074.367188 220.199219 1074.492188 C 252.738281 1078.269531 279.636719 1076.300781 279.90625 1076.285156 C 280.984375 1076.195312 281.917969 1077.007812 282 1078.082031 C 282.082031 1079.15625 281.277344 1080.09375 280.203125 1080.175781 C 280.0625 1080.183594 272.847656 1080.714844 261.421875 1080.714844 " fill-opacity="1" fill-rule="nonzero"/><path fill="#000000" d="M 256.671875 1067.6875 C 256.277344 1067.6875 255.878906 1067.5625 255.535156 1067.316406 L 240.789062 1056.714844 C 239.914062 1056.085938 239.714844 1054.863281 240.347656 1053.988281 C 240.976562 1053.109375 242.195312 1052.914062 243.070312 1053.546875 L 257.816406 1064.144531 C 258.691406 1064.777344 258.890625 1065.996094 258.257812 1066.875 C 257.878906 1067.402344 257.277344 1067.6875 256.671875 1067.6875 " fill-opacity="1" fill-rule="nonzero"/><path fill="#000000" d="M 218.105469 698.085938 C 218.105469 698.085938 248.875 905.449219 243.027344 1031.097656 L 234.464844 1031.953125 C 229.859375 1032.410156 225.230469 1032.527344 220.609375 1032.292969 L 212.488281 1031.886719 C 176.003906 819.109375 166.753906 809.054688 159.652344 785.609375 C 159.652344 785.609375 118.980469 979.058594 117.265625 1025.042969 C 117.265625 1025.042969 97.511719 1027.027344 89.640625 1024.199219 C 85.410156 979.816406 84.191406 933.875 83.976562 905.039062 C 83.371094 822.5 91.261719 785.011719 95.585938 767.222656 C 99.554688 750.890625 103.816406 737.621094 106.929688 728.640625 L 117.316406 699 L 218.105469 698.085938 " fill-opacity="1" fill-rule="nonzero"/><path fill="#d9afff" d="M 159.695312 794.175781 C 159.574219 794.175781 159.449219 794.167969 159.320312 794.144531 C 158.265625 793.9375 157.570312 792.910156 157.777344 791.851562 L 162.300781 768.625 C 162.3125 768.570312 162.320312 768.523438 162.335938 768.476562 C 163.765625 763.273438 167.9375 759.363281 173.222656 758.273438 L 177.492188 757.390625 C 178.546875 757.164062 179.582031 757.847656 179.800781 758.902344 C 180.019531 759.964844 179.339844 760.992188 178.285156 761.210938 L 174.011719 762.089844 C 170.195312 762.878906 167.175781 765.695312 166.121094 769.441406 L 161.609375 792.597656 C 161.429688 793.53125 160.613281 794.175781 159.695312 794.175781 " fill-opacity="1" fill-rule="nonzero"/><path fill="#d9afff" d="M 105.464844 756.613281 C 104.527344 756.613281 103.699219 755.933594 103.542969 754.976562 C 103.363281 753.914062 104.082031 752.902344 105.144531 752.730469 C 123.589844 749.660156 130.355469 737.714844 132.410156 732.722656 C 132.820312 731.730469 133.960938 731.257812 134.957031 731.664062 C 135.953125 732.070312 136.429688 733.214844 136.019531 734.207031 C 133.71875 739.804688 126.164062 753.1875 105.789062 756.582031 C 105.679688 756.597656 105.570312 756.613281 105.464844 756.613281 " fill-opacity="1" fill-rule="nonzero"/><path fill="#d9afff" d="M 217.796875 744.238281 C 217.539062 744.238281 217.273438 744.1875 217.019531 744.078125 C 201.886719 737.503906 200.128906 724.082031 200.058594 723.515625 C 199.933594 722.445312 200.699219 721.476562 201.769531 721.347656 C 202.835938 721.21875 203.808594 721.980469 203.9375 723.050781 C 204 723.527344 205.566406 734.847656 218.574219 740.496094 C 219.5625 740.921875 220.019531 742.074219 219.589844 743.066406 C 219.269531 743.796875 218.550781 744.238281 217.796875 744.238281 " fill-opacity="1" fill-rule="nonzero"/><path fill="#8a24ff" d="M 86.144531 551.019531 C 91.492188 544.957031 102.335938 538.519531 110.207031 536.699219 C 125.15625 533.253906 144.308594 531.257812 161.378906 530.101562 L 171.082031 529.070312 C 176.039062 528.710938 180.722656 528.675781 185.167969 528.902344 C 188.230469 528.792969 191.015625 528.714844 193.433594 528.660156 C 200.972656 528.488281 213.09375 530.925781 219.527344 534.855469 C 225.820312 538.691406 231.664062 543.394531 237.105469 548.632812 C 258.144531 565.550781 268.785156 587.335938 281.902344 588.640625 C 287.25 589.167969 297.96875 556.808594 302.082031 543.699219 C 304.757812 535.171875 314.761719 531.363281 322.371094 536.058594 C 322.75 536.289062 323.097656 536.523438 323.417969 536.753906 C 333.15625 543.699219 330.160156 559.34375 330.160156 559.34375 C 330.160156 559.34375 324.859375 646.554688 300.476562 650.066406 C 273.246094 653.988281 231.945312 620.84375 223.417969 618.574219 L 229.78125 655.96875 L 240.417969 708.3125 C 241.976562 718.460938 228.859375 721.683594 221.484375 721.621094 C 221.253906 721.613281 218.90625 703.289062 218.683594 703.242188 C 195.066406 698.386719 164.613281 712.425781 140.792969 725.042969 C 110.242188 741.214844 82.570312 730.355469 80.417969 722.042969 C 78.265625 713.734375 84.003906 663.136719 84.003906 663.136719 L 51.9375 660.484375 C 45.902344 659.984375 41.246094 654.941406 41.257812 648.882812 C 41.332031 607.390625 70.390625 568.859375 86.144531 551.019531 " fill-opacity="1" fill-rule="nonzero"/><path fill="#ffffff" d="M 115.210938 594.660156 C 112.4375 598.398438 109.15625 601.734375 105.457031 604.5625 C 92.972656 614.113281 63.191406 637.179688 56.085938 645.152344 C 47.035156 655.304688 42.578125 659.234375 53.882812 680.632812 C 72.3125 715.507812 122.046875 612.738281 122.046875 612.738281 C 122.046875 612.738281 140.882812 613.554688 142.8125 596.882812 C 142.8125 596.882812 152.640625 597.375 156.398438 595.101562 C 159.277344 593.359375 158.433594 588.179688 154.269531 588.160156 L 127.15625 586.84375 C 123.425781 586.6875 119.859375 588.390625 117.636719 591.390625 L 115.210938 594.660156 " fill-opacity="1" fill-rule="nonzero"/><path fill="#000000" d="M 116.78125 595.828125 C 113.894531 599.714844 110.484375 603.171875 106.640625 606.113281 C 94.207031 615.628906 64.535156 638.609375 57.542969 646.449219 L 56.742188 647.34375 C 48.398438 656.675781 45.277344 660.167969 55.609375 679.722656 C 57.808594 683.882812 60.433594 685.902344 63.632812 685.902344 C 63.679688 685.902344 63.726562 685.902344 63.773438 685.902344 C 80.902344 685.597656 110.375 632.371094 120.289062 611.886719 C 120.628906 611.1875 121.355469 610.746094 122.128906 610.785156 C 122.832031 610.820312 139.179688 611.304688 140.875 596.65625 C 140.992188 595.636719 141.867188 594.882812 142.910156 594.9375 C 146.480469 595.113281 153.027344 594.859375 155.386719 593.429688 C 156.121094 592.988281 156.25 592.0625 156.0625 591.386719 C 155.90625 590.8125 155.460938 590.117188 154.265625 590.117188 L 127.058594 588.792969 C 123.980469 588.667969 121.046875 590.070312 119.207031 592.550781 Z M 63.625 689.808594 C 58.910156 689.808594 55.054688 687.027344 52.15625 681.546875 C 41 660.429688 44.386719 655.304688 53.832031 644.746094 L 54.628906 643.851562 C 61.847656 635.757812 91.746094 612.597656 104.269531 603.015625 C 107.820312 600.300781 110.976562 597.09375 113.640625 593.5 L 116.066406 590.222656 C 118.679688 586.699219 122.84375 584.695312 127.238281 584.890625 L 154.367188 586.214844 C 156.953125 586.222656 159.132812 587.84375 159.828125 590.339844 C 160.523438 592.84375 159.527344 595.492188 157.410156 596.769531 C 154.164062 598.730469 147.667969 598.921875 144.476562 598.882812 C 142.058594 611.203125 130.339844 614.589844 123.257812 614.703125 C 118.449219 624.457031 85.589844 689.417969 63.84375 689.804688 C 63.769531 689.808594 63.695312 689.808594 63.625 689.808594 " fill-opacity="1" fill-rule="nonzero"/><path fill="#b86aff" d="M 221.484375 721.621094 C 244.410156 720.109375 248.277344 708.339844 218.683594 703.242188 L 221.484375 721.621094 " fill-opacity="1" fill-rule="nonzero"/><path fill="#8a24ff" d="M 298.601562 481.957031 L 315.554688 563.496094 C 316.796875 569.472656 320.796875 573.625 324.488281 572.777344 L 330.5625 571.375 C 334.253906 570.527344 336.238281 564.992188 335 559.027344 L 318.042969 477.480469 L 298.601562 481.957031 " fill-opacity="1" fill-rule="nonzero"/><path fill="#000000" d="M 300.898438 483.433594 L 317.46875 563.105469 C 318.136719 566.320312 319.75 569.082031 321.683594 570.320312 C 322.519531 570.855469 323.316406 571.042969 324.046875 570.875 L 330.125 569.472656 C 332.40625 568.949219 334.183594 564.695312 333.085938 559.421875 L 316.535156 479.832031 Z M 323.511719 574.839844 C 322.1875 574.839844 320.847656 574.421875 319.578125 573.609375 C 316.75 571.800781 314.535156 568.167969 313.644531 563.898438 L 296.6875 482.359375 C 296.472656 481.316406 297.128906 480.296875 298.164062 480.054688 L 317.605469 475.582031 C 318.113281 475.464844 318.652344 475.554688 319.09375 475.84375 C 319.539062 476.121094 319.847656 476.574219 319.953125 477.085938 L 336.910156 558.625 C 338.390625 565.738281 335.792969 572.175781 331.003906 573.277344 L 324.925781 574.671875 C 324.457031 574.785156 323.984375 574.839844 323.511719 574.839844 " fill-opacity="1" fill-rule="nonzero"/><path fill="#ffffff" d="M 304.101562 563.855469 C 301.078125 562.605469 299.535156 559.226562 300.550781 556.113281 C 303.605469 546.769531 305.757812 537.949219 302.25 532.867188 C 299.210938 528.453125 296.34375 524.082031 297.0625 518.882812 L 298.074219 511.070312 C 298.253906 509.851562 297.882812 505.363281 301.246094 506.15625 C 303.796875 506.765625 304.863281 508.988281 306.339844 518.800781 C 307.078125 523.734375 309.019531 526.007812 312.339844 528.046875 C 312.210938 527.328125 312.152344 526.480469 312.195312 525.554688 C 312.386719 521.335938 314.683594 517.480469 318.203125 515.136719 C 322.582031 512.21875 329.941406 508.320312 334.292969 513.207031 C 337.324219 516.613281 338.503906 524.285156 333.195312 531.765625 C 331.949219 533.511719 325 541.109375 325 541.109375 C 323.660156 542.90625 320.753906 561.183594 320.753906 561.183594 C 318.996094 570.769531 311.730469 567.015625 304.101562 563.855469 " fill-opacity="1" fill-rule="nonzero"/><path fill="#000000" d="M 300.503906 508.019531 C 300.46875 508.019531 300.449219 508.019531 300.449219 508.019531 C 300.199219 508.320312 300.113281 509.898438 300.082031 510.417969 C 300.0625 510.800781 300.042969 511.125 300.007812 511.355469 L 298.996094 519.136719 C 298.398438 523.445312 300.636719 527.085938 303.859375 531.757812 C 308.058594 537.84375 305.3125 547.835938 302.40625 556.722656 C 301.710938 558.855469 302.78125 561.199219 304.847656 562.054688 L 306.316406 562.667969 C 310.375 564.371094 314.570312 566.136719 316.675781 564.992188 C 317.703125 564.441406 318.429688 563.035156 318.832031 560.835938 C 319.941406 553.871094 322.019531 541.835938 323.4375 539.941406 C 323.476562 539.894531 323.515625 539.84375 323.558594 539.792969 C 325.472656 537.703125 330.636719 531.988281 331.605469 530.632812 C 336.640625 523.539062 335.035156 516.972656 332.839844 514.507812 C 330.328125 511.691406 325.765625 512.445312 319.285156 516.761719 C 316.226562 518.800781 314.304688 522.117188 314.144531 525.640625 C 314.113281 526.386719 314.152344 527.097656 314.261719 527.695312 C 314.394531 528.457031 314.074219 529.226562 313.441406 529.660156 C 312.804688 530.089844 311.972656 530.109375 311.316406 529.707031 C 307.800781 527.550781 305.28125 524.917969 304.40625 519.097656 C 302.941406 509.316406 301.945312 508.332031 300.796875 508.058594 C 300.652344 508.027344 300.558594 508.019531 300.503906 508.019531 Z M 315.007812 569.265625 C 311.941406 569.265625 308.445312 567.792969 304.804688 566.265625 L 303.355469 565.660156 C 299.417969 564.027344 297.367188 559.574219 298.695312 555.507812 C 301.5 546.925781 303.675781 538.375 300.644531 533.972656 C 297.808594 529.859375 294.28125 524.738281 295.128906 518.621094 L 296.140625 510.816406 C 296.164062 510.648438 296.171875 510.445312 296.183594 510.207031 C 296.265625 508.703125 296.402344 506.1875 298.183594 504.859375 C 298.847656 504.359375 299.996094 503.859375 301.699219 504.261719 C 305.628906 505.191406 306.785156 508.632812 308.265625 518.511719 C 308.644531 521.023438 309.339844 522.671875 310.394531 523.949219 C 311.027344 519.769531 313.464844 515.941406 317.117188 513.511719 C 327.527344 506.582031 332.996094 508.816406 335.753906 511.914062 C 339.511719 516.132812 340.449219 524.921875 334.785156 532.894531 C 333.554688 534.621094 327.636719 541.121094 326.546875 542.308594 C 325.828125 543.71875 324.007812 553.144531 322.679688 561.496094 C 322.035156 565.011719 320.683594 567.261719 318.535156 568.429688 C 317.445312 569.019531 316.261719 569.265625 315.007812 569.265625 " fill-opacity="1" fill-rule="nonzero"/><path fill="#8a24ff" d="M 319.546875 484.699219 L 335 559.027344 C 336.238281 564.992188 334.253906 570.527344 330.5625 571.375 L 324.488281 572.777344 C 320.796875 573.625 316.796875 569.472656 315.554688 563.496094 L 299.648438 487.101562 L 319.546875 484.699219 " fill-opacity="1" fill-rule="nonzero"/><path fill="#000000" d="M 301.992188 488.789062 L 317.46875 563.105469 C 318.136719 566.320312 319.75 569.082031 321.683594 570.320312 C 322.519531 570.855469 323.316406 571.042969 324.046875 570.875 L 330.125 569.472656 C 332.40625 568.949219 334.183594 564.695312 333.085938 559.421875 L 318 486.847656 Z M 323.511719 574.839844 C 322.1875 574.839844 320.847656 574.421875 319.578125 573.609375 C 316.75 571.800781 314.535156 568.167969 313.644531 563.898438 L 297.738281 487.5 C 297.625 486.96875 297.746094 486.40625 298.0625 485.964844 C 298.382812 485.515625 298.871094 485.230469 299.414062 485.164062 L 319.3125 482.757812 C 320.316406 482.648438 321.25 483.308594 321.457031 484.300781 L 336.910156 558.625 C 338.390625 565.738281 335.792969 572.175781 331.003906 573.277344 L 324.925781 574.671875 C 324.457031 574.785156 323.984375 574.839844 323.511719 574.839844 " fill-opacity="1" fill-rule="nonzero"/><path fill="#ffffff" d="M 319.035156 533.289062 C 322.066406 533.597656 326.84375 532.917969 331.992188 529.425781 C 337.394531 525.757812 337.324219 516.613281 334.292969 513.207031 C 329.960938 508.34375 322.648438 512.183594 318.265625 515.097656 C 314.714844 517.453125 311.355469 522.128906 311.4375 525.398438 C 311.558594 530.386719 313.347656 532.710938 319.035156 533.289062 " fill-opacity="1" fill-rule="nonzero"/><path fill="#000000" d="M 328.992188 512.828125 C 325.980469 512.828125 322.289062 514.765625 319.34375 516.722656 C 316.167969 518.832031 313.328125 522.945312 313.386719 525.355469 C 313.480469 529.171875 314.316406 530.84375 319.230469 531.34375 C 320.203125 531.445312 323.734375 531.585938 328.3125 529.292969 C 329.273438 528.816406 330.449219 529.207031 330.933594 530.171875 C 331.105469 530.515625 331.164062 530.890625 331.128906 531.246094 C 331.492188 530.785156 331.59375 530.644531 331.597656 530.636719 C 336.621094 523.515625 335.023438 516.960938 332.839844 514.507812 C 332.644531 514.292969 332.15625 513.859375 332.144531 513.851562 C 331.257812 513.128906 330.179688 512.828125 328.992188 512.828125 Z M 330.164062 537.445312 C 329.722656 537.445312 329.277344 537.296875 328.914062 536.992188 C 328.085938 536.296875 327.976562 535.070312 328.667969 534.238281 C 329.082031 533.742188 329.4375 533.3125 329.746094 532.941406 C 326.054688 534.726562 322.09375 535.550781 318.835938 535.226562 C 312.433594 534.582031 309.636719 531.65625 309.484375 525.449219 C 309.378906 521.214844 313.320312 516.039062 317.183594 513.46875 C 324.742188 508.449219 330.628906 507.582031 334.683594 510.882812 C 334.753906 510.945312 335.472656 511.59375 335.753906 511.914062 C 339.492188 516.117188 340.429688 524.894531 334.789062 532.890625 C 334.671875 533.058594 334.082031 533.847656 331.664062 536.742188 C 331.277344 537.207031 330.722656 537.445312 330.164062 537.445312 " fill-opacity="1" fill-rule="nonzero"/><path fill="#b86aff" d="M 328.144531 399.960938 L 256.035156 426.4375 L 225.855469 444.363281 L 212.164062 458.136719 L 212.066406 458.25 C 209.480469 460.578125 208.726562 467.371094 210.335938 474.925781 C 211.933594 482.402344 215.410156 488.234375 218.695312 489.414062 L 218.578125 489.4375 L 235.78125 496.210938 L 270.390625 500.019531 L 347.683594 494.167969 L 431.039062 533.175781 L 431.652344 533.367188 C 410.714844 523.292969 389.125 485.773438 379.003906 438.289062 C 368.894531 390.855469 373.304688 347.941406 388.296875 330.292969 L 388.28125 330.28125 L 328.902344 399.082031 L 328.144531 399.960938 " fill-opacity="1" fill-rule="nonzero"/><path fill="#000000" d="M 347.683594 492.214844 C 347.96875 492.214844 348.253906 492.277344 348.511719 492.402344 L 416.316406 524.132812 C 399.710938 506.910156 384.902344 475.3125 377.09375 438.695312 C 369.339844 402.308594 369.933594 367.664062 377.949219 345.234375 L 330.378906 400.355469 C 330.246094 400.511719 330.097656 400.640625 329.933594 400.738281 C 329.730469 401.214844 329.335938 401.605469 328.816406 401.792969 L 256.875 428.207031 L 227.0625 445.910156 L 213.53125 459.539062 C 213.480469 459.597656 213.425781 459.652344 213.371094 459.707031 C 211.628906 461.265625 210.644531 466.992188 212.246094 474.519531 C 213.820312 481.90625 217.085938 486.761719 219.355469 487.578125 C 219.535156 487.644531 219.699219 487.734375 219.847656 487.839844 L 236.253906 494.300781 L 270.425781 498.054688 L 347.539062 492.222656 C 347.585938 492.214844 347.632812 492.214844 347.683594 492.214844 Z M 431.652344 535.320312 C 431.457031 535.320312 431.269531 535.292969 431.078125 535.234375 L 430.460938 535.046875 C 430.378906 535.015625 430.292969 534.984375 430.207031 534.945312 L 347.320312 496.152344 L 270.539062 501.96875 C 270.417969 501.976562 270.296875 501.976562 270.175781 501.960938 L 235.570312 498.148438 C 235.394531 498.132812 235.226562 498.089844 235.0625 498.027344 L 217.863281 491.257812 C 217.679688 491.179688 217.507812 491.078125 217.359375 490.960938 C 213.585938 489.082031 210.050781 482.957031 208.429688 475.332031 C 206.660156 467.035156 207.539062 459.816406 210.667969 456.882812 L 210.699219 456.855469 L 224.46875 442.984375 C 224.585938 442.867188 224.714844 442.765625 224.855469 442.683594 L 255.035156 424.761719 C 255.136719 424.703125 255.246094 424.648438 255.359375 424.605469 L 327.136719 398.253906 C 327.207031 398.09375 327.304688 397.945312 327.425781 397.804688 L 386.800781 329.003906 C 387.140625 328.609375 387.625 328.367188 388.144531 328.332031 C 388.667969 328.292969 389.175781 328.46875 389.570312 328.816406 C 390.367188 329.515625 390.472656 330.75 389.78125 331.554688 C 374.703125 349.308594 371.140625 392.03125 380.914062 437.882812 C 390.703125 483.796875 411.433594 521.464844 432.496094 531.609375 C 433.414062 532.050781 433.839844 533.132812 433.46875 534.078125 C 433.167969 534.84375 432.4375 535.320312 431.652344 535.320312 " fill-opacity="1" fill-rule="nonzero"/><path fill="#d9afff" d="M 468.132812 419.621094 C 480.660156 478.335938 470.820312 530.117188 446.179688 535.277344 C 421.535156 540.4375 391.417969 497.011719 378.898438 438.292969 C 366.378906 379.578125 376.210938 327.796875 400.851562 322.640625 C 425.496094 317.480469 455.621094 360.902344 468.132812 419.621094 " fill-opacity="1" fill-rule="nonzero"/><path fill="#000000" d="M 405.007812 324.164062 C 403.742188 324.164062 402.492188 324.289062 401.253906 324.550781 C 395.804688 325.691406 391.007812 329.386719 387 335.539062 C 374.183594 355.226562 371.75 395.398438 380.808594 437.886719 C 392.4375 492.433594 419.210938 533.75 442.019531 533.75 C 443.289062 533.757812 444.546875 533.625 445.78125 533.363281 C 451.234375 532.222656 456.027344 528.527344 460.03125 522.375 C 472.859375 502.6875 475.28125 462.515625 466.226562 420.027344 C 454.597656 365.484375 427.820312 324.164062 405.007812 324.164062 Z M 442.121094 537.648438 C 430.566406 537.648438 418.054688 528.671875 406.390625 511.851562 C 393.535156 493.332031 383.097656 467.347656 376.988281 438.703125 C 367.726562 395.25 370.371094 353.921875 383.730469 333.414062 C 388.324219 326.355469 393.949219 322.085938 400.453125 320.730469 C 413.1875 318.058594 427.464844 327.058594 440.640625 346.0625 C 453.503906 364.585938 463.941406 390.5625 470.042969 419.214844 C 479.308594 462.664062 476.660156 503.992188 463.304688 524.507812 C 458.707031 531.5625 453.082031 535.832031 446.582031 537.191406 C 445.117188 537.492188 443.625 537.648438 442.121094 537.648438 " fill-opacity="1" fill-rule="nonzero"/><path fill="#000000" d="M 439.285156 520.0625 C 418.230469 520.0625 394.808594 485.09375 384.582031 437.128906 C 376.824219 400.734375 379.050781 366.105469 390.253906 348.902344 C 394.136719 342.9375 398.902344 339.328125 404.417969 338.171875 C 419.0625 335.113281 435.6875 350.019531 448.871094 378.054688 C 449.328125 379.035156 448.910156 380.195312 447.9375 380.65625 C 446.960938 381.113281 445.792969 380.695312 445.339844 379.722656 C 433.160156 353.820312 417.792969 339.375 405.214844 341.996094 C 400.753906 342.929688 396.820312 345.96875 393.523438 351.035156 C 382.859375 367.410156 380.847656 400.886719 388.402344 436.316406 C 398.445312 483.433594 423.128906 519.835938 442.292969 515.84375 C 459.90625 512.160156 468.054688 476.597656 461.253906 433.128906 C 461.082031 432.0625 461.8125 431.066406 462.878906 430.894531 C 463.945312 430.734375 464.941406 431.457031 465.105469 432.527344 C 472.355469 478.832031 463.097656 515.476562 443.089844 519.667969 C 441.832031 519.933594 440.5625 520.0625 439.285156 520.0625 " fill-opacity="1" fill-rule="nonzero"/><path fill="#b86aff" d="M 420.832031 429.597656 C 423.570312 442.449219 421.417969 453.785156 416.027344 454.914062 C 410.632812 456.042969 404.042969 446.535156 401.300781 433.683594 C 398.5625 420.828125 400.710938 409.496094 406.101562 408.371094 C 411.496094 407.238281 418.085938 416.742188 420.832031 429.597656 " fill-opacity="1" fill-rule="nonzero"/><path fill="#000000" d="M 406.996094 410.222656 C 406.828125 410.222656 406.664062 410.242188 406.503906 410.277344 C 405.722656 410.4375 404.996094 411.027344 404.351562 412.023438 C 402.222656 415.285156 401.046875 423.121094 403.210938 433.273438 C 405.820312 445.503906 411.910156 453.765625 415.625 453 C 416.40625 452.84375 417.132812 452.253906 417.777344 451.257812 C 419.90625 447.992188 421.082031 440.15625 418.917969 430.003906 C 416.421875 418.304688 410.734375 410.222656 406.996094 410.222656 Z M 415.152344 456.953125 C 408.863281 456.953125 402.257812 447.53125 399.394531 434.085938 C 397.253906 424.046875 397.898438 414.773438 401.082031 409.886719 C 402.296875 408.023438 403.894531 406.832031 405.703125 406.453125 C 412.355469 405.046875 419.675781 414.839844 422.738281 429.191406 C 424.875 439.230469 424.230469 448.507812 421.046875 453.390625 C 419.832031 455.257812 418.234375 456.445312 416.425781 456.824219 C 416.003906 456.914062 415.578125 456.953125 415.152344 456.953125 " fill-opacity="1" fill-rule="nonzero"/><path fill="#000000" d="M 347.683594 492.214844 C 347.96875 492.214844 348.253906 492.277344 348.511719 492.402344 L 416.316406 524.132812 C 399.710938 506.910156 384.902344 475.3125 377.09375 438.695312 C 369.339844 402.308594 369.933594 367.664062 377.949219 345.234375 L 329.621094 401.238281 C 329.402344 401.488281 329.128906 401.679688 328.816406 401.792969 L 256.875 428.207031 L 227.0625 445.910156 L 213.53125 459.539062 C 213.480469 459.597656 213.425781 459.652344 213.371094 459.707031 C 211.628906 461.265625 210.644531 466.992188 212.246094 474.519531 C 213.820312 481.90625 217.085938 486.761719 219.355469 487.578125 C 219.535156 487.644531 219.699219 487.734375 219.847656 487.839844 L 236.253906 494.300781 L 270.425781 498.054688 L 347.539062 492.222656 C 347.585938 492.214844 347.632812 492.214844 347.683594 492.214844 Z M 431.652344 535.320312 C 431.457031 535.320312 431.269531 535.292969 431.078125 535.234375 L 430.460938 535.046875 C 430.378906 535.015625 430.292969 534.984375 430.207031 534.945312 L 347.320312 496.152344 L 270.539062 501.96875 C 270.417969 501.976562 270.296875 501.976562 270.175781 501.960938 L 235.570312 498.148438 C 235.394531 498.132812 235.226562 498.089844 235.0625 498.027344 L 217.863281 491.257812 C 217.679688 491.179688 217.507812 491.078125 217.359375 490.960938 C 213.585938 489.082031 210.050781 482.957031 208.429688 475.332031 C 206.660156 467.035156 207.539062 459.816406 210.667969 456.882812 L 210.699219 456.855469 L 224.46875 442.984375 C 224.585938 442.867188 224.714844 442.765625 224.855469 442.683594 L 255.035156 424.761719 C 255.136719 424.703125 255.246094 424.648438 255.359375 424.605469 L 326.996094 398.304688 L 386.800781 329.003906 C 387.140625 328.609375 387.625 328.367188 388.144531 328.332031 C 388.667969 328.292969 389.175781 328.46875 389.570312 328.816406 C 390.367188 329.515625 390.472656 330.75 389.78125 331.554688 C 374.703125 349.308594 371.140625 392.03125 380.914062 437.882812 C 390.703125 483.796875 411.433594 521.464844 432.496094 531.609375 C 433.414062 532.050781 433.839844 533.132812 433.46875 534.078125 C 433.167969 534.84375 432.4375 535.320312 431.652344 535.320312 " fill-opacity="1" fill-rule="nonzero"/><path fill="#8a24ff" d="M 328.320312 399.753906 L 388.28125 330.28125 L 388.296875 330.292969 C 373.304688 347.941406 368.894531 390.855469 379.003906 438.289062 C 389.125 485.773438 410.714844 523.292969 431.652344 533.367188 L 431.039062 533.175781 L 347.820312 494.234375 L 345.890625 493.335938 C 336.234375 488.757812 326.300781 471.816406 321.769531 450.339844 C 317.117188 428.285156 320.652344 408.539062 327.570312 400.597656 L 328.320312 399.753906 " fill-opacity="1" fill-rule="nonzero"/><path fill="#000000" d="M 328.324219 399.753906 L 328.335938 399.753906 Z M 377.949219 345.234375 L 329.800781 401.027344 C 329.792969 401.039062 329.785156 401.046875 329.777344 401.050781 L 329.03125 401.894531 C 322.84375 408.992188 319.011719 427.789062 323.679688 449.9375 C 327.914062 470.027344 337.394531 487.152344 346.726562 491.574219 L 348.644531 492.457031 L 416.316406 524.132812 C 399.710938 506.910156 384.902344 475.3125 377.09375 438.695312 C 369.339844 402.308594 369.933594 367.664062 377.949219 345.234375 Z M 431.652344 535.320312 C 431.457031 535.320312 431.269531 535.292969 431.078125 535.234375 L 430.460938 535.046875 C 430.378906 535.015625 430.292969 534.984375 430.207031 534.945312 L 345.070312 495.109375 C 334.527344 490.109375 324.402344 472.285156 319.855469 450.738281 C 315.433594 429.757812 318.003906 408.609375 326.101562 399.3125 L 326.851562 398.46875 L 386.800781 329.003906 C 387.140625 328.609375 387.625 328.367188 388.144531 328.332031 C 388.667969 328.292969 389.175781 328.46875 389.570312 328.816406 C 390.367188 329.515625 390.472656 330.75 389.78125 331.554688 C 374.703125 349.308594 371.140625 392.03125 380.914062 437.882812 C 390.703125 483.796875 411.433594 521.464844 432.496094 531.609375 C 433.414062 532.050781 433.839844 533.132812 433.46875 534.078125 C 433.167969 534.84375 432.4375 535.320312 431.652344 535.320312 " fill-opacity="1" fill-rule="nonzero"/><path fill="#000000" d="M 234.851562 497.796875 C 234.617188 497.796875 234.371094 497.757812 234.136719 497.660156 L 217.863281 491.257812 C 217.679688 491.179688 217.507812 491.078125 217.359375 490.960938 C 213.585938 489.082031 210.050781 482.957031 208.429688 475.332031 C 206.660156 467.035156 207.539062 459.816406 210.667969 456.882812 L 210.699219 456.855469 L 224.46875 442.984375 C 225.230469 442.226562 226.46875 442.21875 227.230469 442.976562 C 227.996094 443.738281 228 444.976562 227.238281 445.742188 L 213.53125 459.539062 C 213.480469 459.597656 213.425781 459.652344 213.371094 459.707031 C 211.628906 461.265625 210.644531 466.992188 212.246094 474.519531 C 213.820312 481.90625 217.085938 486.761719 219.355469 487.578125 C 219.535156 487.644531 219.699219 487.734375 219.847656 487.839844 L 235.570312 494.03125 C 236.570312 494.425781 237.0625 495.558594 236.667969 496.558594 C 236.367188 497.332031 235.628906 497.796875 234.851562 497.796875 " fill-opacity="1" fill-rule="nonzero"/><path fill="#8a24ff" d="M 235.960938 496.160156 C 230.617188 494.273438 225.121094 484.457031 222.519531 472.265625 C 219.769531 459.359375 221.605469 447.277344 226.332031 444.101562 L 212.164062 458.136719 L 212.066406 458.25 C 209.480469 460.578125 208.726562 467.371094 210.335938 474.925781 C 211.933594 482.402344 215.410156 488.234375 218.695312 489.414062 L 218.578125 489.4375 L 235.960938 496.160156 " fill-opacity="1" fill-rule="nonzero"/><path fill="#000000" d="M 219.835938 487.828125 L 227.609375 490.839844 C 224.65625 486.25 222.152344 479.902344 220.613281 472.675781 C 219.101562 465.585938 218.890625 458.761719 219.8125 453.308594 L 213.53125 459.539062 C 213.480469 459.597656 213.425781 459.652344 213.371094 459.707031 C 211.628906 461.265625 210.644531 466.992188 212.246094 474.519531 C 213.820312 481.90625 217.085938 486.761719 219.355469 487.578125 C 219.53125 487.640625 219.691406 487.726562 219.835938 487.828125 Z M 235.960938 498.109375 C 235.746094 498.109375 235.527344 498.074219 235.3125 498 C 235.171875 497.949219 235.027344 497.890625 234.886719 497.832031 L 217.875 491.257812 C 217.683594 491.183594 217.511719 491.085938 217.359375 490.960938 C 213.585938 489.082031 210.050781 482.957031 208.429688 475.332031 C 206.660156 467.035156 207.539062 459.816406 210.667969 456.882812 L 210.699219 456.855469 C 210.726562 456.820312 210.757812 456.789062 210.789062 456.753906 L 223.164062 444.492188 C 223.785156 443.671875 224.480469 442.996094 225.242188 442.484375 C 226.078125 441.917969 227.203125 442.089844 227.84375 442.867188 C 228.480469 443.644531 228.421875 444.78125 227.707031 445.488281 L 226.074219 447.109375 C 223.332031 451.015625 222.023438 460.554688 224.429688 471.859375 C 227.113281 484.445312 232.378906 492.523438 236.320312 494.203125 L 236.667969 494.339844 C 237.660156 494.71875 238.164062 495.835938 237.792969 496.835938 C 237.5 497.621094 236.757812 498.109375 235.960938 498.109375 " fill-opacity="1" fill-rule="nonzero"/><path fill="#d9afff" d="M 269.128906 499.875 L 270.609375 499.980469 C 262.539062 499.476562 253.664062 484.664062 249.671875 465.933594 C 245.601562 446.832031 248.535156 429.679688 256.035156 426.4375 L 255.023438 427.039062 L 226.414062 444.050781 C 221.628906 447.144531 219.753906 459.28125 222.519531 472.265625 C 225.191406 484.804688 231.082031 494.808594 236.5625 496.285156 L 269.128906 499.875 " fill-opacity="1" fill-rule="nonzero"/><path fill="#000000" d="M 236.941406 494.355469 L 261.648438 497.089844 C 255.839844 491.097656 250.679688 480.015625 247.765625 466.339844 C 244.988281 453.328125 245.367188 441.21875 248.304688 433.304688 L 227.410156 445.722656 C 223.816406 448.050781 221.71875 459.132812 224.429688 471.859375 C 227.210938 484.90625 232.917969 493.136719 236.941406 494.355469 Z M 270.609375 501.9375 C 270.570312 501.9375 270.527344 501.933594 270.484375 501.933594 C 270.4375 501.933594 270.394531 501.925781 270.347656 501.917969 L 268.988281 501.828125 C 268.964844 501.828125 268.9375 501.820312 268.914062 501.820312 L 236.347656 498.222656 C 236.25 498.210938 236.152344 498.191406 236.054688 498.167969 C 229.804688 496.484375 223.453125 486 220.613281 472.675781 C 217.660156 458.820312 219.652344 446.09375 225.355469 442.40625 L 253.402344 425.730469 C 253.988281 425.289062 254.609375 424.925781 255.257812 424.648438 C 256.203125 424.234375 257.304688 424.636719 257.769531 425.550781 C 258.238281 426.46875 257.914062 427.59375 257.027344 428.117188 L 255.542969 429.003906 C 250.503906 433.003906 247.675781 447.191406 251.582031 465.527344 C 255.796875 485.292969 264.5625 497.539062 270.644531 498.03125 L 270.746094 498.039062 C 271.820312 498.117188 272.628906 499.039062 272.554688 500.117188 C 272.488281 501.144531 271.628906 501.9375 270.609375 501.9375 " fill-opacity="1" fill-rule="nonzero"/><path fill="#000000" d="M 406.101562 408.371094 C 400.710938 409.496094 398.332031 420.878906 401.300781 433.683594 C 406.285156 455.152344 414.929688 455.144531 415.96875 455.066406 C 415.984375 455.0625 415.988281 455.09375 415.972656 455.097656 L 394.773438 464.304688 C 391.648438 455.75 388.964844 446.457031 386.871094 436.640625 C 384.863281 427.234375 383.550781 418.042969 382.890625 409.304688 L 406.101562 408.371094 " fill-opacity="1" fill-rule="nonzero"/><path fill="#000000" d="M 385 411.171875 C 385.710938 419.378906 386.980469 427.800781 388.777344 436.230469 C 390.65625 445.046875 393.054688 453.59375 395.90625 461.683594 L 410.582031 455.308594 C 406.96875 452.910156 402.449219 447.269531 399.402344 434.125 C 397.234375 424.789062 397.734375 415.640625 400.652344 410.542969 Z M 393.648438 466.921875 L 392.9375 464.976562 C 389.714844 456.140625 387.027344 446.75 384.960938 437.042969 C 382.980469 427.753906 381.628906 418.46875 380.941406 409.453125 L 380.789062 407.4375 L 406.023438 406.414062 L 406.503906 410.277344 C 405.6875 410.449219 404.925781 411.074219 404.242188 412.144531 C 402.078125 415.539062 400.914062 423.375 403.203125 433.238281 C 407.90625 453.496094 415.738281 453.125 415.816406 453.117188 L 417.464844 452.988281 L 418.269531 456.191406 L 416.765625 456.882812 L 393.648438 466.921875 " fill-opacity="1" fill-rule="nonzero"/><path fill="#ffffff" d="M 138.277344 531.4375 L 133.550781 493.625 L 166.453125 503.796875 L 169.777344 525.941406 C 170.578125 531.894531 166.160156 536.066406 166.160156 536.066406 C 160.769531 541.71875 151.96875 542.402344 144.910156 539.105469 L 143.277344 538.339844 C 140.542969 537.054688 138.652344 534.449219 138.277344 531.4375 " fill-opacity="1" fill-rule="nonzero"/><path fill="#000000" d="M 140.214844 531.199219 C 140.511719 533.5625 141.964844 535.570312 144.105469 536.570312 L 145.738281 537.339844 C 152.464844 540.484375 160.28125 539.410156 164.746094 534.722656 C 164.847656 534.617188 168.496094 531.050781 167.84375 526.199219 L 164.707031 505.296875 L 135.863281 496.382812 Z M 153.796875 543.074219 C 150.582031 543.074219 147.253906 542.359375 144.082031 540.875 L 142.449219 540.105469 C 139.085938 538.53125 136.804688 535.382812 136.339844 531.679688 L 131.613281 493.867188 C 131.53125 493.214844 131.789062 492.558594 132.296875 492.128906 C 132.804688 491.703125 133.492188 491.5625 134.128906 491.761719 L 167.03125 501.933594 C 167.746094 502.15625 168.273438 502.765625 168.382812 503.503906 L 171.710938 525.652344 C 172.632812 532.546875 167.710938 537.285156 167.5 537.484375 C 164.011719 541.148438 159.050781 543.074219 153.796875 543.074219 " fill-opacity="1" fill-rule="nonzero"/><path fill="#000000" d="M 163.203125 437.496094 C 155.191406 439.265625 167.378906 444.597656 135.832031 444.304688 C 123.265625 444.191406 132.945312 456.109375 129.6875 456.085938 C 117.648438 456.011719 118.058594 456 113.027344 458.964844 C 109.691406 460.933594 109.210938 468.238281 111.277344 473.011719 C 114.007812 479.3125 119.878906 479.484375 128.539062 491.980469 C 134.617188 500.761719 135.453125 506.90625 139.738281 507.222656 C 144.074219 507.546875 145.496094 501.4375 150.261719 501.433594 C 156.421875 501.425781 158.070312 511.65625 164.785156 514.195312 C 169.015625 515.796875 177.511719 514.695312 188.804688 504.625 C 190.636719 502.992188 191.050781 500.273438 189.78125 498.160156 C 188.160156 495.464844 186.089844 492.058594 183.839844 488.972656 C 173.128906 474.265625 166.25 472.203125 167.175781 467.347656 C 168.589844 459.914062 181.953125 460.171875 182.492188 454.238281 C 183.050781 448.074219 174.171875 435.070312 163.203125 437.496094 " fill-opacity="1" fill-rule="nonzero"/><path fill="#ffffff" d="M 143.609375 473.5625 L 147.042969 477.144531 C 148.664062 478.835938 150.164062 480.632812 151.539062 482.523438 C 154.113281 486.082031 158.585938 492.164062 161.347656 495.375 C 165.410156 500.097656 180.859375 488.5625 180.859375 488.5625 L 180.960938 484.910156 L 182.742188 483.519531 C 183.085938 483.253906 183.382812 482.914062 183.542969 482.507812 C 183.957031 481.488281 183.652344 480.386719 182.871094 479.726562 C 178.621094 476.121094 169.546875 467.902344 164.78125 459.566406 C 164.78125 459.566406 151.003906 459.871094 143.609375 473.5625 " fill-opacity="1" fill-rule="nonzero"/><path fill="#000000" d="M 146.027344 473.269531 L 148.457031 475.796875 C 150.128906 477.539062 151.699219 479.421875 153.117188 481.382812 C 155.570312 484.765625 160.089844 490.921875 162.828125 494.101562 C 164.453125 496 172.4375 492.246094 178.933594 487.554688 L 179.007812 484.859375 C 179.023438 484.273438 179.300781 483.734375 179.761719 483.375 L 181.542969 481.980469 C 181.667969 481.886719 181.722656 481.808594 181.738281 481.769531 C 181.835938 481.523438 181.730469 481.316406 181.609375 481.21875 C 176.964844 477.28125 168.648438 469.644531 163.722656 461.609375 C 160.617188 461.984375 151.726562 463.878906 146.027344 473.269531 Z M 164.277344 498.453125 C 162.511719 498.453125 160.972656 497.929688 159.867188 496.648438 C 157.039062 493.355469 152.445312 487.101562 149.957031 483.671875 C 148.640625 481.851562 147.1875 480.113281 145.636719 478.5 L 142.199219 474.917969 C 141.609375 474.304688 141.488281 473.382812 141.890625 472.636719 C 149.734375 458.109375 164.128906 457.625 164.738281 457.613281 C 165.488281 457.636719 166.121094 457.972656 166.476562 458.597656 C 171.164062 466.792969 180.386719 475.058594 184.132812 478.234375 C 185.582031 479.460938 186.070312 481.472656 185.355469 483.238281 C 185.074219 483.933594 184.585938 484.558594 183.945312 485.0625 L 182.886719 485.890625 L 182.808594 488.625 C 182.792969 489.21875 182.503906 489.773438 182.027344 490.132812 C 178.960938 492.417969 170.296875 498.453125 164.277344 498.453125 " fill-opacity="1" fill-rule="nonzero"/><path fill="#ffffff" d="M 150.917969 487.398438 C 150.917969 487.398438 142.664062 478.769531 139.566406 483.378906 C 136.472656 487.988281 145.792969 497.246094 150.917969 487.398438 " fill-opacity="1" fill-rule="nonzero"/><path fill="#8a24ff" d="M 260.414062 355.089844 L 198.535156 363.625 C 190.910156 364.675781 184.59375 370.082031 182.363281 377.449219 L 171.039062 414.910156 L 145.925781 381.191406 C 141.632812 375.421875 134.546875 372.453125 127.433594 373.433594 L 70.527344 381.28125 C 59.742188 382.773438 49.800781 375.230469 48.3125 364.441406 L 31.660156 243.558594 C 30.175781 232.765625 37.710938 222.808594 48.492188 221.320312 L 238.378906 195.128906 C 249.160156 193.640625 259.105469 201.179688 260.59375 211.96875 L 277.242188 332.859375 C 278.730469 343.648438 271.195312 353.601562 260.414062 355.089844 " fill-opacity="1" fill-rule="nonzero"/><path fill="#ffffff" d="M 153.78125 284.292969 C 153.664062 285.265625 152.652344 286.109375 151.25 286.460938 C 149.46875 300.648438 145.566406 316.816406 140.191406 327.746094 C 137.476562 326.335938 132.363281 324.480469 129.257812 323.632812 C 134.445312 313.792969 137.867188 298.074219 139.121094 283.984375 Z M 193.003906 242.488281 C 193.066406 243.054688 193.125 256.617188 191.359375 271.351562 L 183.363281 271.84375 C 190.703125 282.328125 197.554688 296.507812 200.59375 306.539062 L 188.960938 314.449219 C 186.335938 304.289062 179.375 289.394531 172.324219 278.8125 L 182.929688 271.835938 L 180.332031 272.023438 C 180.480469 268.371094 180.484375 263.363281 180.582031 258.214844 L 167.484375 261.453125 L 173.867188 320.371094 C 175 330.835938 173.394531 336.292969 154.75 341.226562 C 153.671875 337.394531 151.066406 331.734375 148.835938 328.554688 C 153.371094 327.480469 157.996094 326.277344 159.5 325.886719 C 160.894531 325.515625 161.273438 324.949219 161.113281 323.464844 L 154.734375 264.605469 L 143.214844 267.457031 C 140.625 276.324219 137.507812 284.507812 133.792969 291.328125 C 131.242188 289.382812 126.117188 286.421875 122.953125 285.09375 C 129.910156 272.984375 134.59375 253.472656 136.28125 235.203125 L 151.839844 235.804688 C 151.617188 236.796875 150.722656 237.714844 149.09375 237.992188 C 148.445312 243.183594 147.574219 248.429688 146.476562 253.625 L 186.109375 243.9375 Z M 128.539062 241.765625 C 128.324219 242.875 127.300781 243.710938 125.65625 243.988281 C 123.769531 253.398438 121.351562 263.070312 118.550781 272.371094 L 122.808594 272.382812 C 122.714844 273.582031 121.929688 274.609375 120.101562 275.300781 L 127.996094 348.191406 L 114.996094 351.628906 L 109.175781 297.894531 C 107.1875 302.429688 105.058594 306.765625 102.878906 310.640625 C 100.78125 307.96875 96.257812 302.816406 93.613281 300.390625 C 102.125 285.914062 109.476562 262.195312 112.960938 240.441406 L 128.539062 241.765625 " fill-opacity="1" fill-rule="nonzero"/><path fill="#000000" d="M 1023.671875 193.941406 C 1018.332031 193.941406 1013.992188 198.289062 1013.992188 203.625 C 1013.992188 208.964844 1018.332031 213.304688 1023.671875 213.304688 C 1029.015625 213.304688 1033.355469 208.964844 1033.355469 203.625 C 1033.355469 198.289062 1029.015625 193.941406 1023.671875 193.941406 Z M 1023.671875 217.214844 C 1016.183594 217.214844 1010.082031 211.117188 1010.082031 203.625 C 1010.082031 196.132812 1016.183594 190.039062 1023.671875 190.039062 C 1031.164062 190.039062 1037.265625 196.132812 1037.265625 203.625 C 1037.265625 211.117188 1031.164062 217.214844 1023.671875 217.214844 " fill-opacity="1" fill-rule="nonzero"/><path fill="#000000" d="M 160.203125 153.554688 C 160.109375 153.554688 160.019531 153.542969 159.929688 153.53125 C 158.859375 153.382812 158.117188 152.398438 158.265625 151.328125 L 159.671875 141.328125 C 159.824219 140.261719 160.816406 139.523438 161.878906 139.671875 C 162.945312 139.816406 163.6875 140.800781 163.539062 141.871094 L 162.132812 151.871094 C 161.996094 152.847656 161.160156 153.554688 160.203125 153.554688 " fill-opacity="1" fill-rule="nonzero"/><path fill="#000000" d="M 156.925781 176.847656 C 156.835938 176.847656 156.742188 176.839844 156.652344 176.828125 C 155.582031 176.675781 154.839844 175.6875 154.988281 174.617188 L 156.394531 164.625 C 156.546875 163.554688 157.539062 162.8125 158.601562 162.964844 C 159.667969 163.109375 160.410156 164.101562 160.261719 165.160156 L 158.855469 175.164062 C 158.71875 176.136719 157.882812 176.847656 156.925781 176.847656 " fill-opacity="1" fill-rule="nonzero"/><path fill="#000000" d="M 152.621094 159.261719 C 152.527344 159.261719 152.4375 159.257812 152.347656 159.242188 L 142.347656 157.839844 C 141.28125 157.6875 140.539062 156.699219 140.6875 155.636719 C 140.835938 154.566406 141.824219 153.824219 142.894531 153.972656 L 152.890625 155.378906 C 153.957031 155.53125 154.703125 156.515625 154.550781 157.582031 C 154.414062 158.5625 153.578125 159.261719 152.621094 159.261719 " fill-opacity="1" fill-rule="nonzero"/><path fill="#000000" d="M 175.914062 162.542969 C 175.820312 162.542969 175.730469 162.535156 175.636719 162.523438 L 165.636719 161.117188 C 164.570312 160.964844 163.828125 159.980469 163.976562 158.914062 C 164.125 157.84375 165.121094 157.097656 166.183594 157.25 L 176.183594 158.65625 C 177.246094 158.808594 177.992188 159.792969 177.839844 160.859375 C 177.707031 161.835938 176.871094 162.542969 175.914062 162.542969 " fill-opacity="1" fill-rule="nonzero"/><path fill="#000000" d="M 990.507812 157.480469 C 990.421875 157.480469 990.332031 157.476562 990.238281 157.457031 C 989.164062 157.308594 988.425781 156.324219 988.574219 155.253906 L 989.980469 145.257812 C 990.136719 144.195312 991.113281 143.453125 992.183594 143.59375 C 993.257812 143.746094 994 144.738281 993.847656 145.800781 L 992.441406 155.804688 C 992.300781 156.773438 991.464844 157.480469 990.507812 157.480469 " fill-opacity="1" fill-rule="nonzero"/><path fill="#000000" d="M 987.238281 180.769531 C 987.152344 180.769531 987.050781 180.761719 986.957031 180.746094 C 985.890625 180.597656 985.148438 179.617188 985.300781 178.546875 L 986.710938 168.546875 C 986.859375 167.488281 987.835938 166.738281 988.910156 166.886719 C 989.984375 167.039062 990.722656 168.027344 990.566406 169.09375 L 989.164062 179.089844 C 989.03125 180.066406 988.191406 180.769531 987.238281 180.769531 " fill-opacity="1" fill-rule="nonzero"/><path fill="#000000" d="M 982.929688 163.191406 C 982.84375 163.191406 982.75 163.183594 982.660156 163.167969 L 972.664062 161.765625 C 971.59375 161.617188 970.851562 160.625 970.996094 159.558594 C 971.148438 158.496094 972.132812 157.757812 973.203125 157.898438 L 983.203125 159.308594 C 984.265625 159.457031 985.011719 160.441406 984.863281 161.511719 C 984.726562 162.484375 983.890625 163.191406 982.929688 163.191406 " fill-opacity="1" fill-rule="nonzero"/><path fill="#000000" d="M 1006.21875 166.46875 C 1006.132812 166.46875 1006.039062 166.460938 1005.949219 166.445312 L 995.949219 165.042969 C 994.878906 164.894531 994.136719 163.902344 994.285156 162.839844 C 994.4375 161.769531 995.421875 161.03125 996.492188 161.179688 L 1006.492188 162.585938 C 1007.554688 162.730469 1008.300781 163.722656 1008.15625 164.792969 C 1008.019531 165.761719 1007.179688 166.46875 1006.21875 166.46875 " fill-opacity="1" fill-rule="nonzero"/><path fill="#000000" d="M 184.042969 130.566406 C 183.449219 130.566406 182.867188 130.292969 182.480469 129.789062 C 181.835938 128.925781 182.007812 127.699219 182.867188 127.050781 C 222.761719 97.027344 267.984375 74.324219 317.277344 59.574219 C 318.3125 59.273438 319.398438 59.851562 319.707031 60.882812 C 320.015625 61.921875 319.429688 63.007812 318.394531 63.316406 C 269.546875 77.925781 224.738281 100.421875 185.214844 130.175781 C 184.863281 130.4375 184.453125 130.566406 184.042969 130.566406 " fill-opacity="1" fill-rule="nonzero"/><path fill="#000000" d="M 226.050781 129.160156 C 225.394531 129.160156 224.757812 128.839844 224.390625 128.246094 C 223.820312 127.332031 224.101562 126.125 225.015625 125.558594 C 266.453125 99.769531 312.625 81.984375 362.246094 72.699219 C 363.316406 72.496094 364.328125 73.199219 364.527344 74.253906 C 364.726562 75.320312 364.027344 76.339844 362.96875 76.535156 C 313.824219 85.730469 268.101562 103.34375 227.078125 128.871094 C 226.757812 129.074219 226.402344 129.160156 226.050781 129.160156 " fill-opacity="1" fill-rule="nonzero"/><path fill="#000000" d="M 1013.058594 868.847656 C 1012.613281 868.847656 1012.167969 868.703125 1011.800781 868.394531 C 1010.980469 867.703125 1010.871094 866.472656 1011.558594 865.640625 C 1051.28125 818.242188 1081.644531 765.550781 1101.816406 709.035156 C 1102.179688 708.015625 1103.296875 707.484375 1104.308594 707.851562 C 1105.324219 708.214844 1105.855469 709.328125 1105.488281 710.34375 C 1085.164062 767.300781 1054.566406 820.390625 1014.554688 868.152344 C 1014.171875 868.613281 1013.613281 868.847656 1013.058594 868.847656 " fill-opacity="1" fill-rule="nonzero"/><path fill="#000000" d="M 977 907.886719 C 976.5 907.886719 975.992188 907.691406 975.613281 907.300781 C 974.851562 906.535156 974.867188 905.300781 975.632812 904.546875 C 981.542969 898.730469 987.382812 892.722656 992.992188 886.691406 C 993.71875 885.902344 994.957031 885.855469 995.746094 886.589844 C 996.53125 887.324219 996.582031 888.5625 995.847656 889.351562 C 990.203125 895.425781 984.320312 901.46875 978.375 907.324219 C 977.988281 907.703125 977.492188 907.886719 977 907.886719 " fill-opacity="1" fill-rule="nonzero"/><path fill="#000000" d="M 923.386719 910.664062 C 922.820312 910.664062 922.253906 910.414062 921.867188 909.9375 C 921.1875 909.101562 921.316406 907.875 922.15625 907.191406 C 981.535156 858.898438 1027.144531 800.75 1057.699219 734.351562 C 1058.148438 733.375 1059.308594 732.945312 1060.292969 733.398438 C 1061.265625 733.84375 1061.695312 735.007812 1061.253906 735.984375 C 1030.4375 802.929688 984.464844 861.546875 924.621094 910.222656 C 924.25 910.515625 923.820312 910.664062 923.386719 910.664062 " fill-opacity="1" fill-rule="nonzero"/><g fill="#ffffff" fill-opacity="1"><g transform="translate(1133.03614, 1046.357303)"><g><path d="M 0.234375 -0.046875 L 0.265625 -0.015625 C 0.253906 -0.015625 0.238281 -0.0078125 0.21875 0 C 0.207031 0.0078125 0.191406 0.015625 0.171875 0.015625 C 0.109375 0.015625 0.078125 -0.0195312 0.078125 -0.09375 L 0.078125 -0.3125 L 0.015625 -0.3125 L 0.015625 -0.359375 L 0.078125 -0.359375 L 0.078125 -0.4375 L 0.140625 -0.453125 L 0.140625 -0.359375 L 0.25 -0.359375 L 0.25 -0.3125 L 0.140625 -0.3125 L 0.140625 -0.109375 C 0.140625 -0.0664062 0.15625 -0.046875 0.1875 -0.046875 C 0.207031 -0.046875 0.222656 -0.046875 0.234375 -0.046875 Z M 0.234375 -0.046875 "/></g></g></g></svg>