<svg xmlns="http://www.w3.org/2000/svg" xmlns:xlink="http://www.w3.org/1999/xlink" width="2000" zoomAndPan="magnify" viewBox="0 0 1500 1123.499971" height="1498" preserveAspectRatio="xMidYMid meet" version="1.0"><defs><g/><clipPath id="8280c31b63"><path d="M 459 29 L 1396 29 L 1396 422 L 459 422 Z M 459 29 " clip-rule="nonzero"/></clipPath><clipPath id="b375a2a944"><path d="M 835.332031 -364.199219 L 1487.945312 161.6875 L 664.777344 1183.214844 L 12.164062 657.328125 Z M 835.332031 -364.199219 " clip-rule="nonzero"/></clipPath><clipPath id="406e7153da"><path d="M 835.332031 -364.199219 L 1487.945312 161.6875 L 664.777344 1183.214844 L 12.164062 657.328125 Z M 835.332031 -364.199219 " clip-rule="nonzero"/></clipPath><clipPath id="f84b3023d3"><path d="M 461 759 L 779 759 L 779 1077 L 461 1077 Z M 461 759 " clip-rule="nonzero"/></clipPath><clipPath id="c899737fc5"><path d="M 835.332031 -364.199219 L 1487.945312 161.6875 L 664.777344 1183.214844 L 12.164062 657.328125 Z M 835.332031 -364.199219 " clip-rule="nonzero"/></clipPath><clipPath id="3023f37642"><path d="M 835.332031 -364.199219 L 1487.945312 161.6875 L 664.777344 1183.214844 L 12.164062 657.328125 Z M 835.332031 -364.199219 " clip-rule="nonzero"/></clipPath><clipPath id="339a36e9be"><path d="M 460 397 L 1099 397 L 1099 794 L 460 794 Z M 460 397 " clip-rule="nonzero"/></clipPath><clipPath id="7bae06c234"><path d="M 835.332031 -364.199219 L 1487.945312 161.6875 L 664.777344 1183.214844 L 12.164062 657.328125 Z M 835.332031 -364.199219 " clip-rule="nonzero"/></clipPath><clipPath id="2a894ae1bc"><path d="M 835.332031 -364.199219 L 1487.945312 161.6875 L 664.777344 1183.214844 L 12.164062 657.328125 Z M 835.332031 -364.199219 " clip-rule="nonzero"/></clipPath></defs><g clip-path="url(#8280c31b63)"><g clip-path="url(#b375a2a944)"><g clip-path="url(#406e7153da)"><path fill="#234bff" d="M 618.488281 31.273438 L 1236.144531 29.542969 C 1323.996094 29.589844 1395.683594 100.21875 1395.636719 188.074219 C 1395.589844 275.910156 1324.304688 347.097656 1236.457031 347.039062 L 619.332031 348.128906 C 555.859375 348.425781 498.40625 377.15625 460.457031 421.601562 L 459.980469 190.773438 L 459.847656 189.589844 C 459.371094 102.402344 530.664062 31.222656 618.503906 31.273438 Z M 618.488281 31.273438 " fill-opacity="1" fill-rule="evenodd"/></g></g></g><g clip-path="url(#f84b3023d3)"><g clip-path="url(#c899737fc5)"><g clip-path="url(#3023f37642)"><path fill="#c9d2e5" d="M 620.195312 759.328125 C 707.390625 758.84375 778.558594 830.128906 778.511719 917.96875 C 778.988281 1005.171875 708.351562 1076.863281 620.507812 1076.808594 C 532.660156 1076.753906 460.96875 1006.132812 461.011719 918.28125 C 461.070312 830.433594 532.339844 759.265625 620.195312 759.3125 Z M 620.195312 759.328125 " fill-opacity="1" fill-rule="evenodd"/></g></g></g><g clip-path="url(#339a36e9be)"><g clip-path="url(#7bae06c234)"><g clip-path="url(#2a894ae1bc)"><path fill="#234bff" d="M 939.238281 397.996094 C 1027.617188 397.390625 1098.128906 468.148438 1098.082031 556 C 1099.199219 643.71875 1027.914062 714.890625 940.074219 714.84375 L 619.710938 716.066406 C 555.585938 715.835938 498.261719 745.742188 461.214844 793.046875 L 460.882812 558.058594 L 460.226562 557.527344 C 460.28125 469.679688 531.566406 398.511719 618.761719 398.039062 L 619.414062 398.566406 L 939.246094 398.003906 Z M 939.238281 397.996094 " fill-opacity="1" fill-rule="evenodd"/></g></g></g><g fill="#ffffff" fill-opacity="1"><g transform="translate(1292.592402, 1107.427173)"><g><path d="M 0.265625 -0.0625 L 0.296875 -0.015625 C 0.285156 -0.015625 0.269531 -0.0078125 0.25 0 C 0.238281 0.0078125 0.222656 0.015625 0.203125 0.015625 C 0.128906 0.015625 0.09375 -0.0234375 0.09375 -0.109375 L 0.09375 -0.34375 L 0.015625 -0.34375 L 0.015625 -0.40625 L 0.09375 -0.40625 L 0.09375 -0.484375 L 0.15625 -0.5 L 0.15625 -0.40625 L 0.28125 -0.40625 L 0.28125 -0.34375 L 0.15625 -0.34375 L 0.15625 -0.109375 C 0.15625 -0.0664062 0.171875 -0.046875 0.203125 -0.046875 C 0.234375 -0.046875 0.253906 -0.0507812 0.265625 -0.0625 Z M 0.265625 -0.0625 "/></g></g></g></svg>